%TF.GenerationSoftware,KiCad,Pcbnew,10.0.0*%
%TF.CreationDate,2026-04-09T11:15:40-07:00*%
%TF.ProjectId,combined,636f6d62-696e-4656-942e-6b696361645f,rev?*%
%TF.SameCoordinates,Original*%
%TF.FileFunction,Copper,L4,Bot*%
%TF.FilePolarity,Positive*%
%FSLAX46Y46*%
G04 Gerber Fmt 4.6, Leading zero omitted, Abs format (unit mm)*
G04 Created by KiCad (PCBNEW 10.0.0) date 2026-04-09 11:15:40*
%MOMM*%
%LPD*%
G01*
G04 APERTURE LIST*
G04 Aperture macros list*
%AMRoundRect*
0 Rectangle with rounded corners*
0 $1 Rounding radius*
0 $2 $3 $4 $5 $6 $7 $8 $9 X,Y pos of 4 corners*
0 Add a 4 corners polygon primitive as box body*
4,1,4,$2,$3,$4,$5,$6,$7,$8,$9,$2,$3,0*
0 Add four circle primitives for the rounded corners*
1,1,$1+$1,$2,$3*
1,1,$1+$1,$4,$5*
1,1,$1+$1,$6,$7*
1,1,$1+$1,$8,$9*
0 Add four rect primitives between the rounded corners*
20,1,$1+$1,$2,$3,$4,$5,0*
20,1,$1+$1,$4,$5,$6,$7,0*
20,1,$1+$1,$6,$7,$8,$9,0*
20,1,$1+$1,$8,$9,$2,$3,0*%
G04 Aperture macros list end*
%TA.AperFunction,ComponentPad*%
%ADD10C,3.600000*%
%TD*%
%TA.AperFunction,ConnectorPad*%
%ADD11C,5.600000*%
%TD*%
%TA.AperFunction,ComponentPad*%
%ADD12R,2.000000X2.000000*%
%TD*%
%TA.AperFunction,ComponentPad*%
%ADD13C,2.000000*%
%TD*%
%TA.AperFunction,ComponentPad*%
%ADD14R,3.200000X2.000000*%
%TD*%
%TA.AperFunction,ComponentPad*%
%ADD15R,1.700000X1.700000*%
%TD*%
%TA.AperFunction,ComponentPad*%
%ADD16C,1.700000*%
%TD*%
%TA.AperFunction,ComponentPad*%
%ADD17R,3.500000X3.500000*%
%TD*%
%TA.AperFunction,ComponentPad*%
%ADD18RoundRect,0.750000X0.750000X1.000000X-0.750000X1.000000X-0.750000X-1.000000X0.750000X-1.000000X0*%
%TD*%
%TA.AperFunction,ComponentPad*%
%ADD19RoundRect,0.875000X0.875000X0.875000X-0.875000X0.875000X-0.875000X-0.875000X0.875000X-0.875000X0*%
%TD*%
%TA.AperFunction,WasherPad*%
%ADD20C,3.000000*%
%TD*%
%TA.AperFunction,ComponentPad*%
%ADD21C,1.600000*%
%TD*%
%TA.AperFunction,SMDPad,CuDef*%
%ADD22RoundRect,0.250000X-1.600000X0.425000X-1.600000X-0.425000X1.600000X-0.425000X1.600000X0.425000X0*%
%TD*%
%TA.AperFunction,ViaPad*%
%ADD23C,0.600000*%
%TD*%
%TA.AperFunction,Conductor*%
%ADD24C,0.381000*%
%TD*%
G04 APERTURE END LIST*
D10*
%TO.P,H1,1,1_1*%
%TO.N,GND*%
X104410000Y-138300000D03*
D11*
X104410000Y-138300000D03*
%TD*%
D12*
%TO.P,SW1,A,A_A*%
%TO.N,ENCODER_A*%
X109860000Y-131200000D03*
D13*
%TO.P,SW1,B,B_B*%
%TO.N,ENCODER_B*%
X109860000Y-136200000D03*
%TO.P,SW1,C,C_C*%
%TO.N,GND*%
X109860000Y-133700000D03*
D14*
%TO.P,SW1,MP,MP_MP*%
X117360000Y-128100000D03*
X117360000Y-139300000D03*
D13*
%TO.P,SW1,S1,S1_S1*%
%TO.N,ENCODER_SW*%
X124360000Y-136200000D03*
%TO.P,SW1,S2,S2_S2*%
%TO.N,GND*%
X124360000Y-131200000D03*
%TD*%
D10*
%TO.P,H4,1,1_1*%
%TO.N,GND*%
X159410000Y-138300000D03*
D11*
X159410000Y-138300000D03*
%TD*%
D15*
%TO.P,J2,1,Pin_1_1*%
%TO.N,Net-(A1-SWCLK)*%
X140770000Y-135700000D03*
D16*
%TO.P,J2,2,Pin_2_2*%
%TO.N,GND*%
X143310000Y-135700000D03*
%TO.P,J2,3,Pin_3_3*%
%TO.N,Net-(A1-SWDIO)*%
X145850000Y-135700000D03*
%TD*%
D17*
%TO.P,J1,1*%
%TO.N,Net-(U1-VI)*%
X174200000Y-88357500D03*
D18*
%TO.P,J1,2*%
%TO.N,GND*%
X180200000Y-88357500D03*
D19*
%TO.P,J1,3*%
%TO.N,N/C*%
X177200000Y-83657500D03*
%TD*%
D10*
%TO.P,H2,1,1_1*%
%TO.N,GND*%
X104410000Y-96300000D03*
D11*
X104410000Y-96300000D03*
%TD*%
D20*
%TO.P,U4,*%
%TO.N,*%
X106505000Y-102105000D03*
X106505000Y-124105000D03*
X128505000Y-102105000D03*
X128505000Y-124105000D03*
D21*
%TO.P,U4,1,GND_1*%
%TO.N,GND*%
X113695000Y-101605000D03*
%TO.P,U4,2,VCC_2*%
%TO.N,+3.3V*%
X116235000Y-101605000D03*
%TO.P,U4,3,SCL_3*%
%TO.N,I2C_SCL*%
X118775000Y-101605000D03*
%TO.P,U4,4,SDA_4*%
%TO.N,I2C_SDA*%
X121315000Y-101605000D03*
%TD*%
D15*
%TO.P,J3,1,Pin_1_1*%
%TO.N,Net-(J3-Pin_1)*%
X187410000Y-124200000D03*
D16*
%TO.P,J3,2,Pin_2_2*%
%TO.N,Net-(J3-Pin_2)*%
X187410000Y-126740000D03*
%TD*%
D22*
%TO.P,J4,2,Ext_2*%
%TO.N,GND*%
X103772500Y-88475000D03*
X103772500Y-82825000D03*
%TD*%
D15*
%TO.P,J7,1,Pin_1_1*%
%TO.N,Net-(J7-Pin_1)*%
X187410000Y-137525000D03*
D16*
%TO.P,J7,2,Pin_2_2*%
%TO.N,Net-(J7-Pin_2)*%
X187410000Y-134985000D03*
%TD*%
D23*
%TO.N,GND*%
X163000000Y-119000000D03*
X165000000Y-119000000D03*
X181000000Y-116000000D03*
X179000000Y-116000000D03*
X181000000Y-113000000D03*
X179000000Y-113000000D03*
X179000000Y-105000000D03*
X179000000Y-102000000D03*
X179000000Y-99000000D03*
X181000000Y-105000000D03*
X181000000Y-102000000D03*
X181000000Y-99000000D03*
X186000000Y-110000000D03*
X183000000Y-140000000D03*
X185000000Y-131000000D03*
X173000000Y-139000000D03*
X175000000Y-139000000D03*
X179000000Y-139000000D03*
X177000000Y-139000000D03*
%TO.N,OUT_R*%
X167610000Y-138500000D03*
X168510000Y-110100000D03*
%TO.N,GND*%
X115000000Y-83000000D03*
X185000000Y-94000000D03*
X177000000Y-131000000D03*
X144000000Y-127000000D03*
X183000000Y-90000000D03*
X140000000Y-109000000D03*
X165000000Y-94000000D03*
X171000000Y-94000000D03*
X144000000Y-115000000D03*
X129000000Y-85000000D03*
X165000000Y-96000000D03*
X121000000Y-83000000D03*
X146000000Y-121000000D03*
X175000000Y-96000000D03*
X110000000Y-122000000D03*
X148000000Y-121000000D03*
X148000000Y-111000000D03*
X159000000Y-127000000D03*
X104000000Y-109000000D03*
X148000000Y-125000000D03*
X108000000Y-120000000D03*
X142000000Y-101000000D03*
X127000000Y-107000000D03*
X144000000Y-95000000D03*
X170550000Y-88100000D03*
X148000000Y-115000000D03*
X148000000Y-89000000D03*
X104000000Y-122000000D03*
X144000000Y-105000000D03*
X142000000Y-111000000D03*
X102500000Y-90500000D03*
X144000000Y-125000000D03*
X130000000Y-88800000D03*
X123000000Y-115000000D03*
X179000000Y-129000000D03*
X183000000Y-88000000D03*
X185000000Y-96000000D03*
X113000000Y-115000000D03*
X121000000Y-125000000D03*
X103500000Y-90500000D03*
X169000000Y-94000000D03*
X148000000Y-123000000D03*
X140000000Y-115000000D03*
X187000000Y-88000000D03*
X107000000Y-127000000D03*
X119000000Y-83000000D03*
X168500000Y-104000000D03*
X112000000Y-118000000D03*
X146000000Y-101000000D03*
X144000000Y-111000000D03*
X107000000Y-86000000D03*
X104000000Y-105000000D03*
X116000000Y-125000000D03*
X146000000Y-105000000D03*
X108000000Y-85000000D03*
X116000000Y-113000000D03*
X142000000Y-127000000D03*
X171000000Y-121000000D03*
X113000000Y-107000000D03*
X119000000Y-85000000D03*
X140000000Y-103000000D03*
X148000000Y-101000000D03*
X159710000Y-108700000D03*
X169000000Y-96000000D03*
X112000000Y-125000000D03*
X146000000Y-91000000D03*
X104000000Y-111000000D03*
X112000000Y-120000000D03*
X173000000Y-131000000D03*
X163000000Y-121000000D03*
X146000000Y-93000000D03*
X117000000Y-87000000D03*
X142000000Y-129000000D03*
X185000000Y-90000000D03*
X107000000Y-131000000D03*
X113000000Y-109000000D03*
X148000000Y-95000000D03*
X140000000Y-129000000D03*
X183000000Y-84000000D03*
X187000000Y-90000000D03*
X148000000Y-129000000D03*
X146000000Y-99000000D03*
X115000000Y-87000000D03*
X148000000Y-109000000D03*
X188000000Y-113000000D03*
X138000000Y-125000000D03*
X170550000Y-87350000D03*
X104000000Y-127000000D03*
X116000000Y-118000000D03*
X107000000Y-129000000D03*
X163000000Y-94000000D03*
X116000000Y-115000000D03*
X179000000Y-131000000D03*
X140000000Y-107000000D03*
X114000000Y-122000000D03*
X127000000Y-111000000D03*
X114000000Y-120000000D03*
X146000000Y-111000000D03*
X113000000Y-113000000D03*
X108000000Y-111000000D03*
X144000000Y-109000000D03*
X146000000Y-95000000D03*
X108000000Y-115000000D03*
X170550000Y-88850000D03*
X113000000Y-83000000D03*
X185000000Y-86000000D03*
X123000000Y-125000000D03*
X179000000Y-96000000D03*
X119000000Y-120000000D03*
X146000000Y-103000000D03*
X129000000Y-88800000D03*
X123000000Y-111000000D03*
X116000000Y-109000000D03*
X140000000Y-125000000D03*
X187000000Y-84000000D03*
X127000000Y-113000000D03*
X187000000Y-86000000D03*
X165210000Y-107300000D03*
X142000000Y-109000000D03*
X140000000Y-105000000D03*
X107500000Y-82000000D03*
X127000000Y-122000000D03*
X165000000Y-121000000D03*
X140000000Y-99000000D03*
X107000000Y-133000000D03*
X165210000Y-111900000D03*
X104500000Y-90500000D03*
X171000000Y-96000000D03*
X146000000Y-115000000D03*
X116000000Y-120000000D03*
X187000000Y-92000000D03*
X140000000Y-101000000D03*
X186000000Y-116000000D03*
X123000000Y-122000000D03*
X123000000Y-120000000D03*
X108000000Y-107000000D03*
X185000000Y-92000000D03*
X104000000Y-135000000D03*
X187000000Y-96000000D03*
X148000000Y-113000000D03*
X144000000Y-99000000D03*
X183000000Y-94000000D03*
X144000000Y-89000000D03*
X179000000Y-133000000D03*
X181000000Y-94000000D03*
X144000000Y-101000000D03*
X116000000Y-111000000D03*
X144000000Y-107000000D03*
X183000000Y-92000000D03*
X177000000Y-94000000D03*
X104000000Y-129000000D03*
X142000000Y-113000000D03*
X142000000Y-103000000D03*
X107000000Y-135000000D03*
X146000000Y-129000000D03*
X125000000Y-122000000D03*
X159000000Y-131000000D03*
X142000000Y-125000000D03*
X140000000Y-127000000D03*
X159000000Y-121000000D03*
X188000000Y-105000000D03*
X121000000Y-87000000D03*
X173000000Y-121000000D03*
X108000000Y-118000000D03*
X112000000Y-122000000D03*
X142000000Y-121000000D03*
X146000000Y-113000000D03*
X144000000Y-93000000D03*
X142000000Y-123000000D03*
X144000000Y-123000000D03*
X188000000Y-102000000D03*
X142000000Y-105000000D03*
X113000000Y-85000000D03*
X117000000Y-85000000D03*
X148000000Y-107000000D03*
X123000000Y-109000000D03*
X110000000Y-118000000D03*
X177000000Y-133000000D03*
X104000000Y-131000000D03*
X125000000Y-120000000D03*
X108000000Y-109000000D03*
X186000000Y-105000000D03*
X127000000Y-120000000D03*
X140000000Y-111000000D03*
X142000000Y-107000000D03*
X175000000Y-94000000D03*
X163000000Y-96000000D03*
X121000000Y-85000000D03*
X104000000Y-133000000D03*
X173000000Y-94000000D03*
X108000000Y-113000000D03*
X121000000Y-120000000D03*
X148000000Y-91000000D03*
X148000000Y-93000000D03*
X116000000Y-107000000D03*
X173000000Y-105000000D03*
X110000000Y-120000000D03*
X167000000Y-96000000D03*
X175000000Y-131000000D03*
X140000000Y-121000000D03*
X140000000Y-113000000D03*
X177000000Y-96000000D03*
X114000000Y-118000000D03*
X148000000Y-103000000D03*
X148000000Y-105000000D03*
X104000000Y-113000000D03*
X127000000Y-109000000D03*
X110000000Y-125000000D03*
X117000000Y-83000000D03*
X144000000Y-121000000D03*
X175000000Y-121000000D03*
X146000000Y-89000000D03*
X156000000Y-111000000D03*
X188000000Y-116000000D03*
X104000000Y-116000000D03*
X146000000Y-127000000D03*
X118000000Y-125000000D03*
X167000000Y-94000000D03*
X186000000Y-113000000D03*
X129000000Y-83000000D03*
X186000000Y-102000000D03*
X104000000Y-124000000D03*
X104000000Y-107000000D03*
X185000000Y-84000000D03*
X113000000Y-111000000D03*
X185000000Y-88000000D03*
X138000000Y-123000000D03*
X177000000Y-129000000D03*
X104000000Y-118000000D03*
X142000000Y-115000000D03*
X159000000Y-125000000D03*
X116000000Y-122000000D03*
X146000000Y-107000000D03*
X138000000Y-127000000D03*
X106500000Y-82000000D03*
X148000000Y-127000000D03*
X140000000Y-123000000D03*
X146000000Y-123000000D03*
X123000000Y-107000000D03*
X138000000Y-129000000D03*
X170550000Y-86600000D03*
X125000000Y-125000000D03*
X104000000Y-120000000D03*
X173000000Y-103000000D03*
X164000000Y-108000000D03*
X127650000Y-98450000D03*
X159000000Y-129000000D03*
X173000000Y-96000000D03*
X181000000Y-96000000D03*
X183000000Y-96000000D03*
X144000000Y-129000000D03*
X174310000Y-135300000D03*
X114000000Y-125000000D03*
X144000000Y-113000000D03*
X144000000Y-91000000D03*
X187000000Y-94000000D03*
X106500000Y-83000000D03*
X119000000Y-87000000D03*
X115000000Y-85000000D03*
X123000000Y-113000000D03*
X148000000Y-99000000D03*
X146000000Y-125000000D03*
X142000000Y-99000000D03*
X146000000Y-109000000D03*
X121000000Y-122000000D03*
X179000000Y-94000000D03*
X159000000Y-123000000D03*
X113000000Y-87000000D03*
X129000000Y-90000000D03*
X169000000Y-121000000D03*
X127000000Y-115000000D03*
X174210000Y-126800000D03*
X183000000Y-86000000D03*
X124400000Y-97500000D03*
X118000000Y-122000000D03*
%TO.N,+5V*%
X160210000Y-102200000D03*
X160210000Y-131200000D03*
X166310000Y-135100000D03*
X149860000Y-85700000D03*
X149160000Y-85700000D03*
X150560000Y-85700000D03*
%TO.N,OUT_L*%
X168310000Y-108400000D03*
X166410000Y-123600000D03*
%TO.N,I2C_SDA*%
X155310000Y-118700000D03*
X162810000Y-104700000D03*
%TO.N,+3.3V*%
X155110000Y-93300000D03*
X156410000Y-93300000D03*
X157760000Y-108100000D03*
X111410000Y-87600000D03*
X155810000Y-93300000D03*
X159560000Y-113150000D03*
%TO.N,I2C_SCL*%
X162310000Y-104009500D03*
X150410000Y-116100000D03*
%TO.N,OUT_DET*%
X169610000Y-113500000D03*
X130810000Y-85700000D03*
%TO.N,SPI_MISO*%
X127450000Y-89600000D03*
X131350000Y-95800000D03*
%TO.N,RADIO_RST*%
X111300000Y-89600000D03*
X136450000Y-103500000D03*
%TO.N,RADIO_DIO0*%
X111400000Y-91600000D03*
X136400000Y-106050000D03*
%TO.N,RADIO_DIO1*%
X111400000Y-93600000D03*
X135700000Y-108600000D03*
%TO.N,RADIO_DIO2*%
X111450000Y-95650000D03*
X131086000Y-111100000D03*
%TO.N,DAC_LRCK*%
X156960000Y-123900000D03*
X155579000Y-123900000D03*
%TO.N,ADC_I2S*%
X162310000Y-105600000D03*
X155310000Y-106100000D03*
%TD*%
%TO.N,OUT_R*%
D24*
X167610000Y-111000000D02*
X168510000Y-110100000D01*
X167610000Y-138500000D02*
X167610000Y-111000000D01*
%TO.N,OUT_L*%
X166410000Y-110300000D02*
X168310000Y-108400000D01*
X166410000Y-123600000D02*
X166410000Y-110300000D01*
%TO.N,I2C_SDA*%
X117510000Y-115900000D02*
X117510000Y-100700000D01*
X155310000Y-118700000D02*
X120310000Y-118700000D01*
X121315000Y-100705000D02*
X121315000Y-101605000D01*
X117510000Y-100700000D02*
X118010000Y-100200000D01*
X163000500Y-115909500D02*
X163000500Y-104890500D01*
X160210000Y-118700000D02*
X163000500Y-115909500D01*
X163000500Y-104890500D02*
X162810000Y-104700000D01*
X155310000Y-118700000D02*
X160210000Y-118700000D01*
X120310000Y-118700000D02*
X117510000Y-115900000D01*
X120810000Y-100200000D02*
X121315000Y-100705000D01*
X118010000Y-100200000D02*
X120810000Y-100200000D01*
%TO.N,I2C_SCL*%
X150410000Y-105100000D02*
X150410000Y-116100000D01*
X118775000Y-113565000D02*
X121310000Y-116100000D01*
X118775000Y-101605000D02*
X118775000Y-113565000D01*
X151500500Y-104009500D02*
X150410000Y-105100000D01*
X121310000Y-116100000D02*
X150410000Y-116100000D01*
X162310000Y-104009500D02*
X151500500Y-104009500D01*
%TO.N,OUT_DET*%
X168200000Y-97300000D02*
X134000000Y-97300000D01*
X130810000Y-94110000D02*
X130810000Y-85700000D01*
X134000000Y-97300000D02*
X130810000Y-94110000D01*
X169610000Y-113500000D02*
X169610000Y-98710000D01*
X169610000Y-98710000D02*
X168200000Y-97300000D01*
%TO.N,SPI_MISO*%
X127450000Y-91900000D02*
X131350000Y-95800000D01*
X127450000Y-89600000D02*
X127450000Y-91900000D01*
%TO.N,RADIO_RST*%
X111300000Y-89600000D02*
X122550000Y-89600000D01*
X136450000Y-103500000D02*
X122550000Y-89600000D01*
%TO.N,RADIO_DIO0*%
X136400000Y-105100000D02*
X122900000Y-91600000D01*
X136400000Y-106050000D02*
X136400000Y-105100000D01*
X111400000Y-91600000D02*
X122900000Y-91600000D01*
%TO.N,RADIO_DIO1*%
X135650000Y-108550000D02*
X135700000Y-108600000D01*
X124050000Y-93600000D02*
X135650000Y-105200000D01*
X135650000Y-105200000D02*
X135650000Y-108550000D01*
X111400000Y-93600000D02*
X124050000Y-93600000D01*
%TO.N,RADIO_DIO2*%
X111450000Y-95650000D02*
X119376429Y-95650000D01*
X131086000Y-107359571D02*
X131086000Y-111100000D01*
X119376429Y-95650000D02*
X131086000Y-107359571D01*
%TO.N,DAC_LRCK*%
X156960000Y-123900000D02*
X155579000Y-123900000D01*
%TO.N,ADC_I2S*%
X162310000Y-105600000D02*
X155810000Y-105600000D01*
X155810000Y-105600000D02*
X155310000Y-106100000D01*
%TD*%
%TA.AperFunction,Conductor*%
%TO.N,GND*%
G36*
X118070004Y-102314925D02*
G01*
X118137218Y-102382139D01*
X118234914Y-102447417D01*
X118301079Y-102491628D01*
X118301081Y-102491629D01*
X118301086Y-102491632D01*
X118322885Y-102500661D01*
X118369411Y-102540396D01*
X118384000Y-102592125D01*
X118384000Y-113513524D01*
X118384000Y-113616476D01*
X118393117Y-113650500D01*
X118410647Y-113715925D01*
X118462120Y-113805077D01*
X118462122Y-113805080D01*
X119779480Y-115122438D01*
X120997121Y-116340079D01*
X120997122Y-116340080D01*
X120997121Y-116340080D01*
X121064351Y-116407309D01*
X121069920Y-116412878D01*
X121159080Y-116464354D01*
X121258524Y-116491000D01*
X150059704Y-116491000D01*
X150109204Y-116504264D01*
X150216810Y-116566390D01*
X150216808Y-116566390D01*
X150216812Y-116566391D01*
X150216814Y-116566392D01*
X150344108Y-116600500D01*
X150344110Y-116600500D01*
X150475890Y-116600500D01*
X150475892Y-116600500D01*
X150603186Y-116566392D01*
X150603188Y-116566390D01*
X150603190Y-116566390D01*
X150717309Y-116500503D01*
X150717309Y-116500502D01*
X150717314Y-116500500D01*
X150810500Y-116407314D01*
X150876392Y-116293186D01*
X150910500Y-116165892D01*
X150910500Y-116034108D01*
X150876392Y-115906814D01*
X150876390Y-115906811D01*
X150876390Y-115906809D01*
X150814264Y-115799204D01*
X150801000Y-115749704D01*
X150801000Y-113084108D01*
X159059500Y-113084108D01*
X159059500Y-113215892D01*
X159083861Y-113306809D01*
X159093609Y-113343190D01*
X159159496Y-113457309D01*
X159159498Y-113457311D01*
X159159500Y-113457314D01*
X159252686Y-113550500D01*
X159252688Y-113550501D01*
X159252690Y-113550503D01*
X159366810Y-113616390D01*
X159366808Y-113616390D01*
X159366812Y-113616391D01*
X159366814Y-113616392D01*
X159494108Y-113650500D01*
X159494110Y-113650500D01*
X159625890Y-113650500D01*
X159625892Y-113650500D01*
X159753186Y-113616392D01*
X159753188Y-113616390D01*
X159753190Y-113616390D01*
X159867309Y-113550503D01*
X159867309Y-113550502D01*
X159867314Y-113550500D01*
X159960500Y-113457314D01*
X159960503Y-113457309D01*
X160026390Y-113343190D01*
X160026390Y-113343188D01*
X160026392Y-113343186D01*
X160060500Y-113215892D01*
X160060500Y-113084108D01*
X160026392Y-112956814D01*
X160026390Y-112956811D01*
X160026390Y-112956809D01*
X159960503Y-112842690D01*
X159960501Y-112842688D01*
X159960500Y-112842686D01*
X159867314Y-112749500D01*
X159867311Y-112749498D01*
X159867309Y-112749496D01*
X159753189Y-112683609D01*
X159753191Y-112683609D01*
X159703799Y-112670375D01*
X159625892Y-112649500D01*
X159494108Y-112649500D01*
X159416200Y-112670375D01*
X159366809Y-112683609D01*
X159252690Y-112749496D01*
X159159496Y-112842690D01*
X159093609Y-112956809D01*
X159093608Y-112956814D01*
X159059500Y-113084108D01*
X150801000Y-113084108D01*
X150801000Y-108034108D01*
X157259500Y-108034108D01*
X157259500Y-108165892D01*
X157270464Y-108206809D01*
X157293609Y-108293190D01*
X157359496Y-108407309D01*
X157359498Y-108407311D01*
X157359500Y-108407314D01*
X157452686Y-108500500D01*
X157452688Y-108500501D01*
X157452690Y-108500503D01*
X157566810Y-108566390D01*
X157566808Y-108566390D01*
X157566812Y-108566391D01*
X157566814Y-108566392D01*
X157694108Y-108600500D01*
X157694110Y-108600500D01*
X157825890Y-108600500D01*
X157825892Y-108600500D01*
X157953186Y-108566392D01*
X157953188Y-108566390D01*
X157953190Y-108566390D01*
X158067309Y-108500503D01*
X158067309Y-108500502D01*
X158067314Y-108500500D01*
X158160500Y-108407314D01*
X158186181Y-108362833D01*
X158226390Y-108293190D01*
X158226390Y-108293188D01*
X158226392Y-108293186D01*
X158260500Y-108165892D01*
X158260500Y-108034108D01*
X158226392Y-107906814D01*
X158226390Y-107906811D01*
X158226390Y-107906809D01*
X158160503Y-107792690D01*
X158160501Y-107792688D01*
X158160500Y-107792686D01*
X158067314Y-107699500D01*
X158067311Y-107699498D01*
X158067309Y-107699496D01*
X157953189Y-107633609D01*
X157953191Y-107633609D01*
X157903799Y-107620375D01*
X157825892Y-107599500D01*
X157694108Y-107599500D01*
X157616200Y-107620375D01*
X157566809Y-107633609D01*
X157452690Y-107699496D01*
X157359496Y-107792690D01*
X157293609Y-107906809D01*
X157286428Y-107933609D01*
X157259500Y-108034108D01*
X150801000Y-108034108D01*
X150801000Y-105302966D01*
X150819907Y-105244775D01*
X150829996Y-105232962D01*
X151633462Y-104429496D01*
X151687979Y-104401719D01*
X151703466Y-104400500D01*
X161959704Y-104400500D01*
X162009204Y-104413764D01*
X162116810Y-104475890D01*
X162116808Y-104475890D01*
X162116812Y-104475891D01*
X162116814Y-104475892D01*
X162240519Y-104509038D01*
X162291833Y-104542362D01*
X162313760Y-104599484D01*
X162310525Y-104630279D01*
X162309500Y-104634102D01*
X162309500Y-104634108D01*
X162309500Y-104765892D01*
X162332238Y-104850754D01*
X162343608Y-104893187D01*
X162376987Y-104951000D01*
X162389708Y-105010848D01*
X162364821Y-105066744D01*
X162311833Y-105097337D01*
X162291250Y-105099500D01*
X162244108Y-105099500D01*
X162166200Y-105120375D01*
X162116809Y-105133609D01*
X162009204Y-105195736D01*
X161959704Y-105209000D01*
X155867555Y-105209000D01*
X155867539Y-105208999D01*
X155861476Y-105208999D01*
X155758524Y-105208999D01*
X155758521Y-105208999D01*
X155659083Y-105235644D01*
X155659082Y-105235644D01*
X155569917Y-105287124D01*
X155281214Y-105575826D01*
X155236834Y-105601449D01*
X155116809Y-105633609D01*
X155002690Y-105699496D01*
X154909496Y-105792690D01*
X154843609Y-105906809D01*
X154843608Y-105906814D01*
X154809500Y-106034108D01*
X154809500Y-106165892D01*
X154830211Y-106243186D01*
X154843609Y-106293190D01*
X154909496Y-106407309D01*
X154909498Y-106407311D01*
X154909500Y-106407314D01*
X155002686Y-106500500D01*
X155002688Y-106500501D01*
X155002690Y-106500503D01*
X155116810Y-106566390D01*
X155116808Y-106566390D01*
X155116812Y-106566391D01*
X155116814Y-106566392D01*
X155244108Y-106600500D01*
X155244110Y-106600500D01*
X155375890Y-106600500D01*
X155375892Y-106600500D01*
X155503186Y-106566392D01*
X155503188Y-106566390D01*
X155503190Y-106566390D01*
X155617309Y-106500503D01*
X155617309Y-106500502D01*
X155617314Y-106500500D01*
X155710500Y-106407314D01*
X155715408Y-106398814D01*
X155739370Y-106357309D01*
X155776392Y-106293186D01*
X155808551Y-106173162D01*
X155834174Y-106128784D01*
X155942963Y-106019996D01*
X155997479Y-105992219D01*
X156012966Y-105991000D01*
X161959704Y-105991000D01*
X162009204Y-106004264D01*
X162116810Y-106066390D01*
X162116808Y-106066390D01*
X162116812Y-106066391D01*
X162116814Y-106066392D01*
X162244108Y-106100500D01*
X162244110Y-106100500D01*
X162375890Y-106100500D01*
X162375892Y-106100500D01*
X162484879Y-106071297D01*
X162545978Y-106074500D01*
X162593528Y-106113005D01*
X162609500Y-106166924D01*
X162609500Y-115706534D01*
X162590593Y-115764725D01*
X162580504Y-115776538D01*
X160077038Y-118280004D01*
X160022521Y-118307781D01*
X160007034Y-118309000D01*
X155660296Y-118309000D01*
X155610796Y-118295736D01*
X155503189Y-118233609D01*
X155503191Y-118233609D01*
X155453799Y-118220375D01*
X155375892Y-118199500D01*
X155244108Y-118199500D01*
X155166200Y-118220375D01*
X155116809Y-118233609D01*
X155009204Y-118295736D01*
X154959704Y-118309000D01*
X120512966Y-118309000D01*
X120454775Y-118290093D01*
X120442962Y-118280004D01*
X117929996Y-115767038D01*
X117902219Y-115712521D01*
X117901000Y-115697034D01*
X117901000Y-102384929D01*
X117919907Y-102326738D01*
X117969407Y-102290774D01*
X118030593Y-102290774D01*
X118070004Y-102314925D01*
G37*
%TD.AperFunction*%
%TA.AperFunction,Conductor*%
G36*
X175569053Y-81807663D02*
G01*
X175591951Y-81811290D01*
X175597599Y-81816938D01*
X175605197Y-81819407D01*
X175618824Y-81838163D01*
X175635216Y-81854555D01*
X175636465Y-81862444D01*
X175641161Y-81868907D01*
X175641161Y-81892092D01*
X175644787Y-81914987D01*
X175641161Y-81922144D01*
X175641161Y-81930093D01*
X175617934Y-81967994D01*
X175617337Y-81969175D01*
X175617230Y-81969282D01*
X175491888Y-82094625D01*
X175489366Y-82098350D01*
X175489362Y-82098355D01*
X175376764Y-82264720D01*
X175295909Y-82453533D01*
X175252249Y-82654237D01*
X175249500Y-82700387D01*
X175249500Y-84614612D01*
X175252249Y-84660762D01*
X175295909Y-84861466D01*
X175376764Y-85050279D01*
X175491883Y-85220369D01*
X175491885Y-85220371D01*
X175491888Y-85220375D01*
X175637125Y-85365612D01*
X175637128Y-85365614D01*
X175637130Y-85365616D01*
X175807220Y-85480735D01*
X175807223Y-85480737D01*
X175996035Y-85561591D01*
X176196737Y-85605251D01*
X176242882Y-85608000D01*
X176242895Y-85608000D01*
X178157105Y-85608000D01*
X178157118Y-85608000D01*
X178203263Y-85605251D01*
X178403965Y-85561591D01*
X178592777Y-85480737D01*
X178762875Y-85365612D01*
X178908112Y-85220375D01*
X179023237Y-85050277D01*
X179104091Y-84861465D01*
X179147751Y-84660763D01*
X179150500Y-84614618D01*
X179150500Y-82700382D01*
X179147751Y-82654237D01*
X179104091Y-82453535D01*
X179023237Y-82264723D01*
X178970871Y-82187352D01*
X178908116Y-82094630D01*
X178908114Y-82094628D01*
X178908112Y-82094625D01*
X178782988Y-81969501D01*
X178755213Y-81914987D01*
X178764784Y-81854555D01*
X178808049Y-81811290D01*
X178852994Y-81800500D01*
X187344108Y-81800500D01*
X187406460Y-81800500D01*
X187413522Y-81800752D01*
X187438505Y-81802538D01*
X187616345Y-81815258D01*
X187630308Y-81817265D01*
X187825549Y-81859737D01*
X187839089Y-81863713D01*
X188026288Y-81933534D01*
X188039122Y-81939395D01*
X188214479Y-82035148D01*
X188226358Y-82042782D01*
X188386292Y-82162507D01*
X188396968Y-82171757D01*
X188538242Y-82313031D01*
X188547492Y-82323707D01*
X188667217Y-82483641D01*
X188674853Y-82495523D01*
X188770600Y-82670869D01*
X188776468Y-82683718D01*
X188846284Y-82870904D01*
X188850264Y-82884457D01*
X188892732Y-83079681D01*
X188894742Y-83093662D01*
X188909247Y-83296467D01*
X188909499Y-83303548D01*
X188899563Y-138944742D01*
X188899511Y-139234064D01*
X188899500Y-139234108D01*
X188899500Y-139296460D01*
X188899500Y-139296477D01*
X188899499Y-139296479D01*
X188899248Y-139303523D01*
X188884742Y-139506337D01*
X188882732Y-139520318D01*
X188840264Y-139715542D01*
X188836284Y-139729095D01*
X188766468Y-139916281D01*
X188760600Y-139929130D01*
X188664853Y-140104476D01*
X188657217Y-140116358D01*
X188537492Y-140276292D01*
X188528242Y-140286968D01*
X188386968Y-140428242D01*
X188376292Y-140437492D01*
X188216358Y-140557217D01*
X188204476Y-140564853D01*
X188029130Y-140660600D01*
X188016281Y-140666468D01*
X187829095Y-140736284D01*
X187815542Y-140740264D01*
X187620318Y-140782732D01*
X187606337Y-140784742D01*
X187403523Y-140799248D01*
X187396460Y-140799500D01*
X103403540Y-140799500D01*
X103396477Y-140799248D01*
X103193662Y-140784742D01*
X103179681Y-140782732D01*
X102984457Y-140740264D01*
X102970904Y-140736284D01*
X102783718Y-140666468D01*
X102770869Y-140660600D01*
X102595523Y-140564853D01*
X102583641Y-140557217D01*
X102423707Y-140437492D01*
X102413031Y-140428242D01*
X102271757Y-140286968D01*
X102262507Y-140276292D01*
X102142782Y-140116358D01*
X102135146Y-140104476D01*
X102102815Y-140045266D01*
X102039395Y-139929122D01*
X102033534Y-139916288D01*
X101963713Y-139729089D01*
X101959737Y-139715549D01*
X101917265Y-139520308D01*
X101915258Y-139506347D01*
X101900752Y-139303522D01*
X101900500Y-139296460D01*
X101900500Y-138280299D01*
X115560000Y-138280299D01*
X115560000Y-139199999D01*
X115560001Y-139200000D01*
X115965198Y-139200000D01*
X115960000Y-139226131D01*
X115960000Y-139373869D01*
X115965198Y-139400000D01*
X115560001Y-139400000D01*
X115560000Y-139400001D01*
X115560000Y-140319700D01*
X115571603Y-140378036D01*
X115615806Y-140444189D01*
X115615810Y-140444193D01*
X115681963Y-140488396D01*
X115740299Y-140499999D01*
X115740303Y-140500000D01*
X117259999Y-140500000D01*
X117260000Y-140499999D01*
X117260000Y-140050000D01*
X117460000Y-140050000D01*
X117460000Y-140499999D01*
X117460001Y-140500000D01*
X118979697Y-140500000D01*
X118979700Y-140499999D01*
X119038036Y-140488396D01*
X119104189Y-140444193D01*
X119104193Y-140444189D01*
X119148396Y-140378036D01*
X119159999Y-140319700D01*
X119160000Y-140319697D01*
X119160000Y-139400001D01*
X119159999Y-139400000D01*
X118754802Y-139400000D01*
X118760000Y-139373869D01*
X118760000Y-139226131D01*
X118754802Y-139200000D01*
X119159999Y-139200000D01*
X119160000Y-139199999D01*
X119160000Y-138434108D01*
X167109500Y-138434108D01*
X167109500Y-138565892D01*
X167139579Y-138678151D01*
X167143609Y-138693190D01*
X167209496Y-138807309D01*
X167209498Y-138807311D01*
X167209500Y-138807314D01*
X167302686Y-138900500D01*
X167302688Y-138900501D01*
X167302690Y-138900503D01*
X167416810Y-138966390D01*
X167416808Y-138966390D01*
X167416812Y-138966391D01*
X167416814Y-138966392D01*
X167544108Y-139000500D01*
X167544110Y-139000500D01*
X167675890Y-139000500D01*
X167675892Y-139000500D01*
X167803186Y-138966392D01*
X167803188Y-138966390D01*
X167803190Y-138966390D01*
X167917309Y-138900503D01*
X167917309Y-138900502D01*
X167917314Y-138900500D01*
X168010500Y-138807314D01*
X168076392Y-138693186D01*
X168110500Y-138565892D01*
X168110500Y-138434108D01*
X168076392Y-138306814D01*
X168076390Y-138306811D01*
X168076390Y-138306809D01*
X168014264Y-138199204D01*
X168001000Y-138149704D01*
X168001000Y-136655253D01*
X186359500Y-136655253D01*
X186359500Y-138394746D01*
X186359501Y-138394758D01*
X186367329Y-138434108D01*
X186371133Y-138453231D01*
X186415448Y-138519552D01*
X186481769Y-138563867D01*
X186526231Y-138572711D01*
X186540241Y-138575498D01*
X186540246Y-138575498D01*
X186540252Y-138575500D01*
X186540253Y-138575500D01*
X188279747Y-138575500D01*
X188279748Y-138575500D01*
X188338231Y-138563867D01*
X188404552Y-138519552D01*
X188448867Y-138453231D01*
X188460500Y-138394748D01*
X188460500Y-136655252D01*
X188448867Y-136596769D01*
X188404552Y-136530448D01*
X188382322Y-136515594D01*
X188338233Y-136486134D01*
X188338231Y-136486133D01*
X188338228Y-136486132D01*
X188338227Y-136486132D01*
X188279758Y-136474501D01*
X188279748Y-136474500D01*
X186540252Y-136474500D01*
X186540251Y-136474500D01*
X186540241Y-136474501D01*
X186481772Y-136486132D01*
X186481766Y-136486134D01*
X186415451Y-136530445D01*
X186415445Y-136530451D01*
X186371134Y-136596766D01*
X186371132Y-136596772D01*
X186359501Y-136655241D01*
X186359500Y-136655253D01*
X168001000Y-136655253D01*
X168001000Y-134881532D01*
X186359500Y-134881532D01*
X186359500Y-135088467D01*
X186399869Y-135291418D01*
X186479058Y-135482597D01*
X186555189Y-135596536D01*
X186594023Y-135654655D01*
X186740345Y-135800977D01*
X186912402Y-135915941D01*
X187103580Y-135995130D01*
X187306535Y-136035500D01*
X187306536Y-136035500D01*
X187513464Y-136035500D01*
X187513465Y-136035500D01*
X187716420Y-135995130D01*
X187907598Y-135915941D01*
X188079655Y-135800977D01*
X188225977Y-135654655D01*
X188340941Y-135482598D01*
X188420130Y-135291420D01*
X188460500Y-135088465D01*
X188460500Y-134881535D01*
X188420130Y-134678580D01*
X188340941Y-134487402D01*
X188225977Y-134315345D01*
X188079655Y-134169023D01*
X188079651Y-134169020D01*
X187907597Y-134054058D01*
X187716418Y-133974869D01*
X187513467Y-133934500D01*
X187513465Y-133934500D01*
X187306535Y-133934500D01*
X187306532Y-133934500D01*
X187103581Y-133974869D01*
X186912402Y-134054058D01*
X186740348Y-134169020D01*
X186594020Y-134315348D01*
X186479058Y-134487402D01*
X186399869Y-134678581D01*
X186359500Y-134881532D01*
X168001000Y-134881532D01*
X168001000Y-126636532D01*
X186359500Y-126636532D01*
X186359500Y-126843467D01*
X186399869Y-127046418D01*
X186479058Y-127237597D01*
X186479059Y-127237598D01*
X186594023Y-127409655D01*
X186740345Y-127555977D01*
X186912402Y-127670941D01*
X187103580Y-127750130D01*
X187306535Y-127790500D01*
X187306536Y-127790500D01*
X187513464Y-127790500D01*
X187513465Y-127790500D01*
X187716420Y-127750130D01*
X187907598Y-127670941D01*
X188079655Y-127555977D01*
X188225977Y-127409655D01*
X188340941Y-127237598D01*
X188420130Y-127046420D01*
X188460500Y-126843465D01*
X188460500Y-126636535D01*
X188420130Y-126433580D01*
X188340941Y-126242402D01*
X188225977Y-126070345D01*
X188079655Y-125924023D01*
X187907598Y-125809059D01*
X187907599Y-125809059D01*
X187907597Y-125809058D01*
X187716418Y-125729869D01*
X187513467Y-125689500D01*
X187513465Y-125689500D01*
X187306535Y-125689500D01*
X187306532Y-125689500D01*
X187103581Y-125729869D01*
X186912402Y-125809058D01*
X186740348Y-125924020D01*
X186594020Y-126070348D01*
X186479058Y-126242402D01*
X186399869Y-126433581D01*
X186359500Y-126636532D01*
X168001000Y-126636532D01*
X168001000Y-123330253D01*
X186359500Y-123330253D01*
X186359500Y-125069746D01*
X186359501Y-125069758D01*
X186371132Y-125128227D01*
X186371133Y-125128231D01*
X186415448Y-125194552D01*
X186481769Y-125238867D01*
X186526231Y-125247711D01*
X186540241Y-125250498D01*
X186540246Y-125250498D01*
X186540252Y-125250500D01*
X186540253Y-125250500D01*
X188279747Y-125250500D01*
X188279748Y-125250500D01*
X188338231Y-125238867D01*
X188404552Y-125194552D01*
X188448867Y-125128231D01*
X188460500Y-125069748D01*
X188460500Y-123330252D01*
X188448867Y-123271769D01*
X188404552Y-123205448D01*
X188404548Y-123205445D01*
X188338233Y-123161134D01*
X188338231Y-123161133D01*
X188338228Y-123161132D01*
X188338227Y-123161132D01*
X188279758Y-123149501D01*
X188279748Y-123149500D01*
X186540252Y-123149500D01*
X186540251Y-123149500D01*
X186540241Y-123149501D01*
X186481772Y-123161132D01*
X186481766Y-123161134D01*
X186415451Y-123205445D01*
X186415445Y-123205451D01*
X186371134Y-123271766D01*
X186371132Y-123271772D01*
X186359501Y-123330241D01*
X186359500Y-123330253D01*
X168001000Y-123330253D01*
X168001000Y-114613385D01*
X174809500Y-114613385D01*
X174809500Y-114786614D01*
X174836597Y-114957702D01*
X174836598Y-114957706D01*
X174890123Y-115122438D01*
X174890125Y-115122441D01*
X174890126Y-115122444D01*
X174890127Y-115122445D01*
X174968768Y-115276788D01*
X175070586Y-115416928D01*
X175193072Y-115539414D01*
X175333212Y-115641232D01*
X175487555Y-115719873D01*
X175487557Y-115719873D01*
X175487558Y-115719874D01*
X175487561Y-115719876D01*
X175652293Y-115773401D01*
X175652297Y-115773402D01*
X175823386Y-115800500D01*
X175823389Y-115800500D01*
X175996614Y-115800500D01*
X176167702Y-115773402D01*
X176167706Y-115773401D01*
X176332438Y-115719876D01*
X176332440Y-115719874D01*
X176332445Y-115719873D01*
X176486788Y-115641232D01*
X176626928Y-115539414D01*
X176749414Y-115416928D01*
X176851232Y-115276788D01*
X176929873Y-115122445D01*
X176929874Y-115122440D01*
X176929876Y-115122438D01*
X176983401Y-114957706D01*
X176983402Y-114957702D01*
X177010500Y-114786614D01*
X177010500Y-114613385D01*
X181809500Y-114613385D01*
X181809500Y-114786614D01*
X181836597Y-114957702D01*
X181836598Y-114957706D01*
X181890123Y-115122438D01*
X181890125Y-115122441D01*
X181890126Y-115122444D01*
X181890127Y-115122445D01*
X181968768Y-115276788D01*
X182070586Y-115416928D01*
X182193072Y-115539414D01*
X182333212Y-115641232D01*
X182487555Y-115719873D01*
X182487557Y-115719873D01*
X182487558Y-115719874D01*
X182487561Y-115719876D01*
X182652293Y-115773401D01*
X182652297Y-115773402D01*
X182823386Y-115800500D01*
X182823389Y-115800500D01*
X182996614Y-115800500D01*
X183167702Y-115773402D01*
X183167706Y-115773401D01*
X183332438Y-115719876D01*
X183332440Y-115719874D01*
X183332445Y-115719873D01*
X183486788Y-115641232D01*
X183626928Y-115539414D01*
X183749414Y-115416928D01*
X183851232Y-115276788D01*
X183929873Y-115122445D01*
X183929874Y-115122440D01*
X183929876Y-115122438D01*
X183983401Y-114957706D01*
X183983402Y-114957702D01*
X184010500Y-114786614D01*
X184010500Y-114613385D01*
X183983402Y-114442297D01*
X183983401Y-114442293D01*
X183929876Y-114277561D01*
X183929874Y-114277558D01*
X183929873Y-114277557D01*
X183929873Y-114277555D01*
X183851232Y-114123212D01*
X183749414Y-113983072D01*
X183626928Y-113860586D01*
X183486788Y-113758768D01*
X183486787Y-113758767D01*
X183486785Y-113758766D01*
X183332441Y-113680125D01*
X183332438Y-113680123D01*
X183167706Y-113626598D01*
X183167702Y-113626597D01*
X182996614Y-113599500D01*
X182996611Y-113599500D01*
X182823389Y-113599500D01*
X182823386Y-113599500D01*
X182652297Y-113626597D01*
X182652293Y-113626598D01*
X182487561Y-113680123D01*
X182487558Y-113680125D01*
X182333214Y-113758766D01*
X182193073Y-113860585D01*
X182070585Y-113983073D01*
X181968766Y-114123214D01*
X181890125Y-114277558D01*
X181890123Y-114277561D01*
X181836598Y-114442293D01*
X181836597Y-114442297D01*
X181809500Y-114613385D01*
X177010500Y-114613385D01*
X176983402Y-114442297D01*
X176983401Y-114442293D01*
X176929876Y-114277561D01*
X176929874Y-114277558D01*
X176929873Y-114277557D01*
X176929873Y-114277555D01*
X176851232Y-114123212D01*
X176749414Y-113983072D01*
X176626928Y-113860586D01*
X176486788Y-113758768D01*
X176486787Y-113758767D01*
X176486785Y-113758766D01*
X176332441Y-113680125D01*
X176332438Y-113680123D01*
X176167706Y-113626598D01*
X176167702Y-113626597D01*
X175996614Y-113599500D01*
X175996611Y-113599500D01*
X175823389Y-113599500D01*
X175823386Y-113599500D01*
X175652297Y-113626597D01*
X175652293Y-113626598D01*
X175487561Y-113680123D01*
X175487558Y-113680125D01*
X175333214Y-113758766D01*
X175193073Y-113860585D01*
X175070585Y-113983073D01*
X174968766Y-114123214D01*
X174890125Y-114277558D01*
X174890123Y-114277561D01*
X174836598Y-114442293D01*
X174836597Y-114442297D01*
X174809500Y-114613385D01*
X168001000Y-114613385D01*
X168001000Y-111202966D01*
X168019907Y-111144775D01*
X168029996Y-111132962D01*
X168256149Y-110906809D01*
X168538786Y-110624171D01*
X168583162Y-110598551D01*
X168703186Y-110566392D01*
X168817314Y-110500500D01*
X168910500Y-110407314D01*
X168976392Y-110293186D01*
X169010500Y-110165892D01*
X169010500Y-110034108D01*
X168976392Y-109906814D01*
X168976390Y-109906811D01*
X168976390Y-109906809D01*
X168910503Y-109792690D01*
X168910501Y-109792688D01*
X168910500Y-109792686D01*
X168817314Y-109699500D01*
X168817311Y-109699498D01*
X168817309Y-109699496D01*
X168703189Y-109633609D01*
X168703191Y-109633609D01*
X168653799Y-109620375D01*
X168575892Y-109599500D01*
X168444108Y-109599500D01*
X168366200Y-109620375D01*
X168316809Y-109633609D01*
X168202690Y-109699496D01*
X168109496Y-109792690D01*
X168043609Y-109906809D01*
X168011449Y-110026834D01*
X167985826Y-110071214D01*
X167297121Y-110759920D01*
X167245645Y-110849078D01*
X167245645Y-110849079D01*
X167245646Y-110849080D01*
X167219000Y-110948525D01*
X167219000Y-138149704D01*
X167205736Y-138199204D01*
X167143609Y-138306809D01*
X167143608Y-138306814D01*
X167109500Y-138434108D01*
X119160000Y-138434108D01*
X119160000Y-138280302D01*
X119159999Y-138280299D01*
X119148396Y-138221963D01*
X119104193Y-138155810D01*
X119104189Y-138155806D01*
X119038036Y-138111603D01*
X118979700Y-138100000D01*
X117460001Y-138100000D01*
X117460000Y-138100001D01*
X117460000Y-138550000D01*
X117260000Y-138550000D01*
X117260000Y-138100001D01*
X117259999Y-138100000D01*
X115740299Y-138100000D01*
X115681963Y-138111603D01*
X115615810Y-138155806D01*
X115615806Y-138155810D01*
X115571603Y-138221963D01*
X115560000Y-138280299D01*
X101900500Y-138280299D01*
X101900500Y-130180253D01*
X108659500Y-130180253D01*
X108659500Y-132219746D01*
X108659501Y-132219758D01*
X108671132Y-132278227D01*
X108671133Y-132278231D01*
X108715448Y-132344552D01*
X108781769Y-132388867D01*
X108826231Y-132397711D01*
X108840241Y-132400498D01*
X108840246Y-132400498D01*
X108840252Y-132400500D01*
X108840253Y-132400500D01*
X109354821Y-132400500D01*
X109413012Y-132419407D01*
X109448976Y-132468907D01*
X109448976Y-132530093D01*
X109413012Y-132579593D01*
X109399766Y-132587710D01*
X109231063Y-132673667D01*
X109231059Y-132673669D01*
X109082804Y-132781382D01*
X109583632Y-133282210D01*
X109552993Y-133299901D01*
X109459901Y-133392993D01*
X109442210Y-133423632D01*
X108941382Y-132922804D01*
X108833669Y-133071059D01*
X108833667Y-133071063D01*
X108747914Y-133239364D01*
X108689546Y-133419003D01*
X108660000Y-133605554D01*
X108660000Y-133794445D01*
X108689546Y-133980996D01*
X108747914Y-134160635D01*
X108833667Y-134328936D01*
X108833669Y-134328940D01*
X108941382Y-134477194D01*
X109442210Y-133976365D01*
X109459901Y-134007007D01*
X109552993Y-134100099D01*
X109583632Y-134117788D01*
X109082804Y-134618616D01*
X109231059Y-134726330D01*
X109231063Y-134726332D01*
X109399364Y-134812085D01*
X109533234Y-134855582D01*
X109582734Y-134891546D01*
X109601641Y-134949737D01*
X109582734Y-135007928D01*
X109533234Y-135043892D01*
X109399167Y-135087453D01*
X109230803Y-135173238D01*
X109077928Y-135284309D01*
X108944309Y-135417928D01*
X108833238Y-135570803D01*
X108747453Y-135739167D01*
X108689058Y-135918886D01*
X108659500Y-136105515D01*
X108659500Y-136294484D01*
X108689058Y-136481113D01*
X108747453Y-136660832D01*
X108792885Y-136749999D01*
X108833240Y-136829199D01*
X108944310Y-136982073D01*
X109077927Y-137115690D01*
X109230801Y-137226760D01*
X109399168Y-137312547D01*
X109578882Y-137370940D01*
X109578883Y-137370940D01*
X109578886Y-137370941D01*
X109765516Y-137400500D01*
X109765519Y-137400500D01*
X109954484Y-137400500D01*
X110141113Y-137370941D01*
X110141114Y-137370940D01*
X110141118Y-137370940D01*
X110320832Y-137312547D01*
X110489199Y-137226760D01*
X110642073Y-137115690D01*
X110775690Y-136982073D01*
X110886760Y-136829199D01*
X110972547Y-136660832D01*
X111030940Y-136481118D01*
X111048594Y-136369655D01*
X111060500Y-136294484D01*
X111060500Y-136105515D01*
X123159500Y-136105515D01*
X123159500Y-136294484D01*
X123189058Y-136481113D01*
X123247453Y-136660832D01*
X123292885Y-136749999D01*
X123333240Y-136829199D01*
X123444310Y-136982073D01*
X123577927Y-137115690D01*
X123730801Y-137226760D01*
X123899168Y-137312547D01*
X124078882Y-137370940D01*
X124078883Y-137370940D01*
X124078886Y-137370941D01*
X124265516Y-137400500D01*
X124265519Y-137400500D01*
X124454484Y-137400500D01*
X124641113Y-137370941D01*
X124641114Y-137370940D01*
X124641118Y-137370940D01*
X124820832Y-137312547D01*
X124989199Y-137226760D01*
X125142073Y-137115690D01*
X125275690Y-136982073D01*
X125386760Y-136829199D01*
X125472547Y-136660832D01*
X125530940Y-136481118D01*
X125548594Y-136369655D01*
X125560500Y-136294484D01*
X125560500Y-136105515D01*
X125530941Y-135918886D01*
X125522528Y-135892993D01*
X125472547Y-135739168D01*
X125386760Y-135570801D01*
X125275690Y-135417927D01*
X125142073Y-135284310D01*
X124989199Y-135173240D01*
X124989198Y-135173239D01*
X124989196Y-135173238D01*
X124820832Y-135087453D01*
X124641113Y-135029058D01*
X124454484Y-134999500D01*
X124454481Y-134999500D01*
X124265519Y-134999500D01*
X124265516Y-134999500D01*
X124078886Y-135029058D01*
X123899167Y-135087453D01*
X123730803Y-135173238D01*
X123577928Y-135284309D01*
X123444309Y-135417928D01*
X123333238Y-135570803D01*
X123247453Y-135739167D01*
X123189058Y-135918886D01*
X123159500Y-136105515D01*
X111060500Y-136105515D01*
X111030941Y-135918886D01*
X111022528Y-135892993D01*
X110972547Y-135739168D01*
X110886760Y-135570801D01*
X110775690Y-135417927D01*
X110642073Y-135284310D01*
X110489199Y-135173240D01*
X110489198Y-135173239D01*
X110489196Y-135173238D01*
X110320832Y-135087453D01*
X110305958Y-135082620D01*
X110186764Y-135043891D01*
X110137265Y-135007928D01*
X110118358Y-134949737D01*
X110137265Y-134891546D01*
X110186765Y-134855582D01*
X110186766Y-134855582D01*
X110264721Y-134830253D01*
X139719500Y-134830253D01*
X139719500Y-136569746D01*
X139719501Y-136569758D01*
X139731132Y-136628227D01*
X139731134Y-136628233D01*
X139775445Y-136694548D01*
X139775448Y-136694552D01*
X139841769Y-136738867D01*
X139886231Y-136747711D01*
X139900241Y-136750498D01*
X139900246Y-136750498D01*
X139900252Y-136750500D01*
X139900253Y-136750500D01*
X141639747Y-136750500D01*
X141639748Y-136750500D01*
X141698231Y-136738867D01*
X141764552Y-136694552D01*
X141808867Y-136628231D01*
X141820500Y-136569748D01*
X141820500Y-135596581D01*
X142260000Y-135596581D01*
X142260000Y-135803418D01*
X142300349Y-136006272D01*
X142379501Y-136197360D01*
X142379508Y-136197374D01*
X142494405Y-136369329D01*
X142496826Y-136371750D01*
X142892210Y-135976365D01*
X142909901Y-136007007D01*
X143002993Y-136100099D01*
X143033632Y-136117788D01*
X142638249Y-136513173D01*
X142640670Y-136515594D01*
X142812625Y-136630491D01*
X142812639Y-136630498D01*
X143003727Y-136709650D01*
X143206581Y-136749999D01*
X143206586Y-136750000D01*
X143413414Y-136750000D01*
X143413418Y-136749999D01*
X143616272Y-136709650D01*
X143807360Y-136630498D01*
X143807366Y-136630495D01*
X143979333Y-136515591D01*
X143981750Y-136513173D01*
X143586366Y-136117789D01*
X143617007Y-136100099D01*
X143710099Y-136007007D01*
X143727789Y-135976366D01*
X144123173Y-136371750D01*
X144125591Y-136369333D01*
X144240495Y-136197366D01*
X144240498Y-136197360D01*
X144319650Y-136006272D01*
X144359999Y-135803418D01*
X144360000Y-135803413D01*
X144360000Y-135596585D01*
X144359999Y-135596582D01*
X144359989Y-135596532D01*
X144799500Y-135596532D01*
X144799500Y-135803467D01*
X144839869Y-136006418D01*
X144919058Y-136197597D01*
X145033805Y-136369329D01*
X145034023Y-136369655D01*
X145180345Y-136515977D01*
X145352402Y-136630941D01*
X145543580Y-136710130D01*
X145746535Y-136750500D01*
X145746536Y-136750500D01*
X145953464Y-136750500D01*
X145953465Y-136750500D01*
X146156420Y-136710130D01*
X146347598Y-136630941D01*
X146519655Y-136515977D01*
X146665977Y-136369655D01*
X146780941Y-136197598D01*
X146860130Y-136006420D01*
X146900500Y-135803465D01*
X146900500Y-135596535D01*
X146860130Y-135393580D01*
X146780941Y-135202402D01*
X146668491Y-135034108D01*
X165809500Y-135034108D01*
X165809500Y-135165892D01*
X165839579Y-135278151D01*
X165843609Y-135293190D01*
X165909496Y-135407309D01*
X165909498Y-135407311D01*
X165909500Y-135407314D01*
X166002686Y-135500500D01*
X166002688Y-135500501D01*
X166002690Y-135500503D01*
X166116810Y-135566390D01*
X166116808Y-135566390D01*
X166116812Y-135566391D01*
X166116814Y-135566392D01*
X166244108Y-135600500D01*
X166244110Y-135600500D01*
X166375890Y-135600500D01*
X166375892Y-135600500D01*
X166503186Y-135566392D01*
X166503188Y-135566390D01*
X166503190Y-135566390D01*
X166617309Y-135500503D01*
X166617309Y-135500502D01*
X166617314Y-135500500D01*
X166710500Y-135407314D01*
X166710503Y-135407309D01*
X166776390Y-135293190D01*
X166776390Y-135293188D01*
X166776392Y-135293186D01*
X166810500Y-135165892D01*
X166810500Y-135034108D01*
X166776392Y-134906814D01*
X166776390Y-134906811D01*
X166776390Y-134906809D01*
X166710503Y-134792690D01*
X166710501Y-134792688D01*
X166710500Y-134792686D01*
X166617314Y-134699500D01*
X166617311Y-134699498D01*
X166617309Y-134699496D01*
X166503189Y-134633609D01*
X166503191Y-134633609D01*
X166453799Y-134620375D01*
X166375892Y-134599500D01*
X166244108Y-134599500D01*
X166166200Y-134620375D01*
X166116809Y-134633609D01*
X166002690Y-134699496D01*
X165909496Y-134792690D01*
X165843609Y-134906809D01*
X165843608Y-134906814D01*
X165809500Y-135034108D01*
X146668491Y-135034108D01*
X146665977Y-135030345D01*
X146519655Y-134884023D01*
X146515933Y-134881536D01*
X146347597Y-134769058D01*
X146156418Y-134689869D01*
X145953467Y-134649500D01*
X145953465Y-134649500D01*
X145746535Y-134649500D01*
X145746532Y-134649500D01*
X145543581Y-134689869D01*
X145352402Y-134769058D01*
X145180348Y-134884020D01*
X145034020Y-135030348D01*
X144919058Y-135202402D01*
X144839869Y-135393581D01*
X144799500Y-135596532D01*
X144359989Y-135596532D01*
X144319650Y-135393727D01*
X144240498Y-135202639D01*
X144240491Y-135202625D01*
X144125594Y-135030670D01*
X144123173Y-135028249D01*
X143727788Y-135423632D01*
X143710099Y-135392993D01*
X143617007Y-135299901D01*
X143586365Y-135282210D01*
X143981750Y-134886826D01*
X143979329Y-134884405D01*
X143807374Y-134769508D01*
X143807360Y-134769501D01*
X143616272Y-134690349D01*
X143413418Y-134650000D01*
X143206581Y-134650000D01*
X143003727Y-134690349D01*
X142812639Y-134769501D01*
X142812630Y-134769505D01*
X142640665Y-134884410D01*
X142638248Y-134886825D01*
X143033633Y-135282210D01*
X143002993Y-135299901D01*
X142909901Y-135392993D01*
X142892210Y-135423633D01*
X142496825Y-135028248D01*
X142494410Y-135030665D01*
X142379505Y-135202630D01*
X142379501Y-135202639D01*
X142300349Y-135393727D01*
X142260000Y-135596581D01*
X141820500Y-135596581D01*
X141820500Y-134830252D01*
X141808867Y-134771769D01*
X141764552Y-134705448D01*
X141764548Y-134705445D01*
X141698233Y-134661134D01*
X141698231Y-134661133D01*
X141698228Y-134661132D01*
X141698227Y-134661132D01*
X141639758Y-134649501D01*
X141639748Y-134649500D01*
X139900252Y-134649500D01*
X139900251Y-134649500D01*
X139900241Y-134649501D01*
X139841772Y-134661132D01*
X139841766Y-134661134D01*
X139775451Y-134705445D01*
X139775445Y-134705451D01*
X139731134Y-134771766D01*
X139731132Y-134771772D01*
X139719501Y-134830241D01*
X139719500Y-134830253D01*
X110264721Y-134830253D01*
X110320633Y-134812086D01*
X110467650Y-134737178D01*
X110467651Y-134737177D01*
X110488931Y-134726335D01*
X110488933Y-134726334D01*
X110637194Y-134618615D01*
X110136367Y-134117788D01*
X110167007Y-134100099D01*
X110260099Y-134007007D01*
X110277788Y-133976367D01*
X110778615Y-134477194D01*
X110886333Y-134328934D01*
X110972085Y-134160635D01*
X111030453Y-133980996D01*
X111060000Y-133794445D01*
X111060000Y-133605554D01*
X111030453Y-133419003D01*
X110972085Y-133239364D01*
X110886332Y-133071063D01*
X110886330Y-133071059D01*
X110778616Y-132922804D01*
X110277788Y-133423632D01*
X110260099Y-133392993D01*
X110167007Y-133299901D01*
X110136365Y-133282210D01*
X110637194Y-132781382D01*
X110488940Y-132673669D01*
X110488936Y-132673667D01*
X110320234Y-132587710D01*
X110276969Y-132544445D01*
X110267398Y-132484013D01*
X110295175Y-132429497D01*
X110349692Y-132401719D01*
X110365179Y-132400500D01*
X110879747Y-132400500D01*
X110879748Y-132400500D01*
X110938231Y-132388867D01*
X111004552Y-132344552D01*
X111048867Y-132278231D01*
X111060500Y-132219748D01*
X111060500Y-131105554D01*
X123160000Y-131105554D01*
X123160000Y-131294445D01*
X123189546Y-131480996D01*
X123247914Y-131660635D01*
X123333667Y-131828936D01*
X123333669Y-131828940D01*
X123441382Y-131977194D01*
X123942210Y-131476365D01*
X123959901Y-131507007D01*
X124052993Y-131600099D01*
X124083632Y-131617788D01*
X123582804Y-132118616D01*
X123731059Y-132226330D01*
X123731063Y-132226332D01*
X123899364Y-132312085D01*
X124079003Y-132370453D01*
X124265555Y-132400000D01*
X124454445Y-132400000D01*
X124640996Y-132370453D01*
X124820635Y-132312085D01*
X124988934Y-132226333D01*
X125137194Y-132118615D01*
X124636367Y-131617788D01*
X124667007Y-131600099D01*
X124760099Y-131507007D01*
X124777788Y-131476367D01*
X125278615Y-131977194D01*
X125386333Y-131828934D01*
X125472085Y-131660635D01*
X125530453Y-131480996D01*
X125560000Y-131294445D01*
X125560000Y-131134108D01*
X159709500Y-131134108D01*
X159709500Y-131265892D01*
X159717151Y-131294445D01*
X159743609Y-131393190D01*
X159809496Y-131507309D01*
X159809498Y-131507311D01*
X159809500Y-131507314D01*
X159902686Y-131600500D01*
X159902688Y-131600501D01*
X159902690Y-131600503D01*
X160016810Y-131666390D01*
X160016808Y-131666390D01*
X160016812Y-131666391D01*
X160016814Y-131666392D01*
X160144108Y-131700500D01*
X160144110Y-131700500D01*
X160275890Y-131700500D01*
X160275892Y-131700500D01*
X160403186Y-131666392D01*
X160403188Y-131666390D01*
X160403190Y-131666390D01*
X160517309Y-131600503D01*
X160517309Y-131600502D01*
X160517314Y-131600500D01*
X160610500Y-131507314D01*
X160676392Y-131393186D01*
X160710500Y-131265892D01*
X160710500Y-131134108D01*
X160676392Y-131006814D01*
X160676390Y-131006811D01*
X160676390Y-131006809D01*
X160610503Y-130892690D01*
X160610501Y-130892688D01*
X160610500Y-130892686D01*
X160517314Y-130799500D01*
X160517311Y-130799498D01*
X160517309Y-130799496D01*
X160403189Y-130733609D01*
X160403191Y-130733609D01*
X160353799Y-130720375D01*
X160275892Y-130699500D01*
X160144108Y-130699500D01*
X160066200Y-130720375D01*
X160016809Y-130733609D01*
X159902690Y-130799496D01*
X159809496Y-130892690D01*
X159743609Y-131006809D01*
X159743608Y-131006814D01*
X159709500Y-131134108D01*
X125560000Y-131134108D01*
X125560000Y-131105554D01*
X125530453Y-130919003D01*
X125472085Y-130739364D01*
X125386332Y-130571063D01*
X125386330Y-130571059D01*
X125278616Y-130422804D01*
X124777788Y-130923632D01*
X124760099Y-130892993D01*
X124667007Y-130799901D01*
X124636365Y-130782210D01*
X125137194Y-130281382D01*
X124988940Y-130173669D01*
X124988936Y-130173667D01*
X124820635Y-130087914D01*
X124640996Y-130029546D01*
X124454445Y-130000000D01*
X124265555Y-130000000D01*
X124079003Y-130029546D01*
X123899364Y-130087914D01*
X123731063Y-130173667D01*
X123731059Y-130173669D01*
X123582804Y-130281382D01*
X124083632Y-130782210D01*
X124052993Y-130799901D01*
X123959901Y-130892993D01*
X123942210Y-130923632D01*
X123441382Y-130422804D01*
X123333669Y-130571059D01*
X123333667Y-130571063D01*
X123247914Y-130739364D01*
X123189546Y-130919003D01*
X123160000Y-131105554D01*
X111060500Y-131105554D01*
X111060500Y-130180252D01*
X111048867Y-130121769D01*
X111004552Y-130055448D01*
X110965788Y-130029546D01*
X110938233Y-130011134D01*
X110938231Y-130011133D01*
X110938228Y-130011132D01*
X110938227Y-130011132D01*
X110879758Y-129999501D01*
X110879748Y-129999500D01*
X108840252Y-129999500D01*
X108840251Y-129999500D01*
X108840241Y-129999501D01*
X108781772Y-130011132D01*
X108781766Y-130011134D01*
X108715451Y-130055445D01*
X108715445Y-130055451D01*
X108671134Y-130121766D01*
X108671132Y-130121772D01*
X108659501Y-130180241D01*
X108659500Y-130180253D01*
X101900500Y-130180253D01*
X101900500Y-127080299D01*
X115560000Y-127080299D01*
X115560000Y-127999999D01*
X115560001Y-128000000D01*
X115965198Y-128000000D01*
X115960000Y-128026131D01*
X115960000Y-128173869D01*
X115965198Y-128200000D01*
X115560001Y-128200000D01*
X115560000Y-128200001D01*
X115560000Y-129119700D01*
X115571603Y-129178036D01*
X115615806Y-129244189D01*
X115615810Y-129244193D01*
X115681963Y-129288396D01*
X115740299Y-129299999D01*
X115740303Y-129300000D01*
X117259999Y-129300000D01*
X117260000Y-129299999D01*
X117260000Y-128850000D01*
X117460000Y-128850000D01*
X117460000Y-129299999D01*
X117460001Y-129300000D01*
X118979697Y-129300000D01*
X118979700Y-129299999D01*
X119038036Y-129288396D01*
X119104189Y-129244193D01*
X119104193Y-129244189D01*
X119148396Y-129178036D01*
X119159999Y-129119700D01*
X119160000Y-129119697D01*
X119160000Y-128200001D01*
X119159999Y-128200000D01*
X118754802Y-128200000D01*
X118760000Y-128173869D01*
X118760000Y-128026131D01*
X118754802Y-128000000D01*
X119159999Y-128000000D01*
X119160000Y-127999999D01*
X119160000Y-127080302D01*
X119159999Y-127080299D01*
X119148396Y-127021963D01*
X119104193Y-126955810D01*
X119104189Y-126955806D01*
X119038036Y-126911603D01*
X118979700Y-126900000D01*
X117460001Y-126900000D01*
X117460000Y-126900001D01*
X117460000Y-127350000D01*
X117260000Y-127350000D01*
X117260000Y-126900001D01*
X117259999Y-126900000D01*
X115740299Y-126900000D01*
X115681963Y-126911603D01*
X115615810Y-126955806D01*
X115615806Y-126955810D01*
X115571603Y-127021963D01*
X115560000Y-127080299D01*
X101900500Y-127080299D01*
X101900500Y-123993542D01*
X104804500Y-123993542D01*
X104804500Y-124216457D01*
X104833595Y-124437455D01*
X104833595Y-124437460D01*
X104891290Y-124652782D01*
X104976592Y-124858722D01*
X104976595Y-124858727D01*
X105088050Y-125051771D01*
X105088052Y-125051774D01*
X105223753Y-125228624D01*
X105381376Y-125386247D01*
X105558226Y-125521948D01*
X105558228Y-125521949D01*
X105751272Y-125633404D01*
X105751277Y-125633407D01*
X105919179Y-125702953D01*
X105957219Y-125718710D01*
X106172537Y-125776404D01*
X106393543Y-125805500D01*
X106393544Y-125805500D01*
X106616456Y-125805500D01*
X106616457Y-125805500D01*
X106837463Y-125776404D01*
X107052781Y-125718710D01*
X107182647Y-125664917D01*
X107258722Y-125633407D01*
X107258723Y-125633405D01*
X107258726Y-125633405D01*
X107451774Y-125521948D01*
X107628624Y-125386247D01*
X107786247Y-125228624D01*
X107921948Y-125051774D01*
X108033405Y-124858726D01*
X108118710Y-124652781D01*
X108176404Y-124437463D01*
X108205500Y-124216457D01*
X108205500Y-123993543D01*
X108205500Y-123993542D01*
X126804500Y-123993542D01*
X126804500Y-124216457D01*
X126833595Y-124437455D01*
X126833595Y-124437460D01*
X126891290Y-124652782D01*
X126976592Y-124858722D01*
X126976595Y-124858727D01*
X127088050Y-125051771D01*
X127088052Y-125051774D01*
X127223753Y-125228624D01*
X127381376Y-125386247D01*
X127558226Y-125521948D01*
X127558228Y-125521949D01*
X127751272Y-125633404D01*
X127751277Y-125633407D01*
X127919179Y-125702953D01*
X127957219Y-125718710D01*
X128172537Y-125776404D01*
X128393543Y-125805500D01*
X128393544Y-125805500D01*
X128616456Y-125805500D01*
X128616457Y-125805500D01*
X128837463Y-125776404D01*
X129052781Y-125718710D01*
X129182647Y-125664917D01*
X129258722Y-125633407D01*
X129258723Y-125633405D01*
X129258726Y-125633405D01*
X129451774Y-125521948D01*
X129628624Y-125386247D01*
X129786247Y-125228624D01*
X129921948Y-125051774D01*
X130033405Y-124858726D01*
X130118710Y-124652781D01*
X130176404Y-124437463D01*
X130205500Y-124216457D01*
X130205500Y-123993543D01*
X130184510Y-123834108D01*
X155078500Y-123834108D01*
X155078500Y-123965892D01*
X155087773Y-124000500D01*
X155112609Y-124093190D01*
X155178496Y-124207309D01*
X155178498Y-124207311D01*
X155178500Y-124207314D01*
X155271686Y-124300500D01*
X155271688Y-124300501D01*
X155271690Y-124300503D01*
X155385810Y-124366390D01*
X155385808Y-124366390D01*
X155385812Y-124366391D01*
X155385814Y-124366392D01*
X155513108Y-124400500D01*
X155513110Y-124400500D01*
X155644890Y-124400500D01*
X155644892Y-124400500D01*
X155772186Y-124366392D01*
X155772188Y-124366390D01*
X155772190Y-124366390D01*
X155879796Y-124304264D01*
X155929296Y-124291000D01*
X156609704Y-124291000D01*
X156659204Y-124304264D01*
X156766810Y-124366390D01*
X156766808Y-124366390D01*
X156766812Y-124366391D01*
X156766814Y-124366392D01*
X156894108Y-124400500D01*
X156894110Y-124400500D01*
X157025890Y-124400500D01*
X157025892Y-124400500D01*
X157153186Y-124366392D01*
X157153188Y-124366390D01*
X157153190Y-124366390D01*
X157267309Y-124300503D01*
X157267309Y-124300502D01*
X157267314Y-124300500D01*
X157360500Y-124207314D01*
X157360503Y-124207309D01*
X157426390Y-124093190D01*
X157426390Y-124093188D01*
X157426392Y-124093186D01*
X157460500Y-123965892D01*
X157460500Y-123834108D01*
X157426392Y-123706814D01*
X157426390Y-123706811D01*
X157426390Y-123706809D01*
X157360503Y-123592690D01*
X157360501Y-123592688D01*
X157360500Y-123592686D01*
X157301922Y-123534108D01*
X165909500Y-123534108D01*
X165909500Y-123665892D01*
X165920464Y-123706809D01*
X165943609Y-123793190D01*
X166009496Y-123907309D01*
X166009498Y-123907311D01*
X166009500Y-123907314D01*
X166102686Y-124000500D01*
X166102688Y-124000501D01*
X166102690Y-124000503D01*
X166216810Y-124066390D01*
X166216808Y-124066390D01*
X166216812Y-124066391D01*
X166216814Y-124066392D01*
X166344108Y-124100500D01*
X166344110Y-124100500D01*
X166475890Y-124100500D01*
X166475892Y-124100500D01*
X166603186Y-124066392D01*
X166603188Y-124066390D01*
X166603190Y-124066390D01*
X166717309Y-124000503D01*
X166717309Y-124000502D01*
X166717314Y-124000500D01*
X166810500Y-123907314D01*
X166876392Y-123793186D01*
X166910500Y-123665892D01*
X166910500Y-123534108D01*
X166876392Y-123406814D01*
X166876390Y-123406811D01*
X166876390Y-123406809D01*
X166814264Y-123299204D01*
X166801000Y-123249704D01*
X166801000Y-110502966D01*
X166819907Y-110444775D01*
X166829996Y-110432962D01*
X167563462Y-109699496D01*
X168338786Y-108924171D01*
X168383162Y-108898551D01*
X168503186Y-108866392D01*
X168617314Y-108800500D01*
X168710500Y-108707314D01*
X168734416Y-108665890D01*
X168776390Y-108593190D01*
X168776390Y-108593188D01*
X168776392Y-108593186D01*
X168810500Y-108465892D01*
X168810500Y-108334108D01*
X168776392Y-108206814D01*
X168776390Y-108206811D01*
X168776390Y-108206809D01*
X168710503Y-108092690D01*
X168710501Y-108092688D01*
X168710500Y-108092686D01*
X168617314Y-107999500D01*
X168617311Y-107999498D01*
X168617309Y-107999496D01*
X168503189Y-107933609D01*
X168503191Y-107933609D01*
X168453799Y-107920375D01*
X168375892Y-107899500D01*
X168244108Y-107899500D01*
X168166200Y-107920375D01*
X168116809Y-107933609D01*
X168002690Y-107999496D01*
X167909496Y-108092690D01*
X167843609Y-108206809D01*
X167811449Y-108326834D01*
X167785826Y-108371215D01*
X166097120Y-110059922D01*
X166045645Y-110149078D01*
X166045645Y-110149079D01*
X166045646Y-110149080D01*
X166019000Y-110248525D01*
X166019000Y-123249704D01*
X166005736Y-123299204D01*
X165943609Y-123406809D01*
X165936428Y-123433609D01*
X165909500Y-123534108D01*
X157301922Y-123534108D01*
X157267314Y-123499500D01*
X157267311Y-123499498D01*
X157267309Y-123499496D01*
X157153189Y-123433609D01*
X157153191Y-123433609D01*
X157103799Y-123420375D01*
X157025892Y-123399500D01*
X156894108Y-123399500D01*
X156816200Y-123420375D01*
X156766809Y-123433609D01*
X156659204Y-123495736D01*
X156609704Y-123509000D01*
X155929296Y-123509000D01*
X155879796Y-123495736D01*
X155772189Y-123433609D01*
X155772191Y-123433609D01*
X155722799Y-123420375D01*
X155644892Y-123399500D01*
X155513108Y-123399500D01*
X155435200Y-123420375D01*
X155385809Y-123433609D01*
X155271690Y-123499496D01*
X155178496Y-123592690D01*
X155112609Y-123706809D01*
X155112608Y-123706814D01*
X155078500Y-123834108D01*
X130184510Y-123834108D01*
X130176404Y-123772537D01*
X130118710Y-123557219D01*
X130093243Y-123495736D01*
X130033407Y-123351277D01*
X130033404Y-123351272D01*
X129974763Y-123249704D01*
X129921948Y-123158226D01*
X129786247Y-122981376D01*
X129628624Y-122823753D01*
X129451774Y-122688052D01*
X129451771Y-122688050D01*
X129258727Y-122576595D01*
X129258722Y-122576592D01*
X129052782Y-122491290D01*
X128957839Y-122465850D01*
X128837463Y-122433596D01*
X128837460Y-122433595D01*
X128837458Y-122433595D01*
X128616457Y-122404500D01*
X128393543Y-122404500D01*
X128393542Y-122404500D01*
X128172544Y-122433595D01*
X128172539Y-122433595D01*
X127957217Y-122491290D01*
X127751277Y-122576592D01*
X127751272Y-122576595D01*
X127558228Y-122688050D01*
X127381379Y-122823750D01*
X127223750Y-122981379D01*
X127088050Y-123158228D01*
X126976595Y-123351272D01*
X126976592Y-123351277D01*
X126891290Y-123557217D01*
X126833595Y-123772539D01*
X126833595Y-123772544D01*
X126804500Y-123993542D01*
X108205500Y-123993542D01*
X108176404Y-123772537D01*
X108118710Y-123557219D01*
X108093243Y-123495736D01*
X108033407Y-123351277D01*
X108033404Y-123351272D01*
X107974763Y-123249704D01*
X107921948Y-123158226D01*
X107786247Y-122981376D01*
X107628624Y-122823753D01*
X107451774Y-122688052D01*
X107451771Y-122688050D01*
X107258727Y-122576595D01*
X107258722Y-122576592D01*
X107052782Y-122491290D01*
X106957839Y-122465850D01*
X106837463Y-122433596D01*
X106837460Y-122433595D01*
X106837458Y-122433595D01*
X106616457Y-122404500D01*
X106393543Y-122404500D01*
X106393542Y-122404500D01*
X106172544Y-122433595D01*
X106172539Y-122433595D01*
X105957217Y-122491290D01*
X105751277Y-122576592D01*
X105751272Y-122576595D01*
X105558228Y-122688050D01*
X105381379Y-122823750D01*
X105223750Y-122981379D01*
X105088050Y-123158228D01*
X104976595Y-123351272D01*
X104976592Y-123351277D01*
X104891290Y-123557217D01*
X104833595Y-123772539D01*
X104833595Y-123772544D01*
X104804500Y-123993542D01*
X101900500Y-123993542D01*
X101900500Y-101993543D01*
X104804500Y-101993543D01*
X104804500Y-102216457D01*
X104832165Y-102426597D01*
X104833595Y-102437455D01*
X104833595Y-102437460D01*
X104891290Y-102652782D01*
X104976592Y-102858722D01*
X104976595Y-102858727D01*
X105077564Y-103033609D01*
X105088052Y-103051774D01*
X105223753Y-103228624D01*
X105381376Y-103386247D01*
X105558226Y-103521948D01*
X105594876Y-103543108D01*
X105751272Y-103633404D01*
X105751277Y-103633407D01*
X105895598Y-103693186D01*
X105957219Y-103718710D01*
X106172537Y-103776404D01*
X106393543Y-103805500D01*
X106393544Y-103805500D01*
X106616456Y-103805500D01*
X106616457Y-103805500D01*
X106837463Y-103776404D01*
X107052781Y-103718710D01*
X107182647Y-103664917D01*
X107258722Y-103633407D01*
X107258723Y-103633405D01*
X107258726Y-103633405D01*
X107451774Y-103521948D01*
X107628624Y-103386247D01*
X107786247Y-103228624D01*
X107921948Y-103051774D01*
X108033405Y-102858726D01*
X108118710Y-102652781D01*
X108176404Y-102437463D01*
X108190982Y-102326738D01*
X108197510Y-102277148D01*
X108205500Y-102216457D01*
X108205500Y-101993543D01*
X108176404Y-101772537D01*
X108118710Y-101557219D01*
X108097704Y-101506506D01*
X112695000Y-101506506D01*
X112695000Y-101703493D01*
X112733429Y-101896688D01*
X112733429Y-101896690D01*
X112808809Y-102078675D01*
X112808812Y-102078681D01*
X112917392Y-102241182D01*
X113350414Y-101808160D01*
X113374920Y-101850606D01*
X113449394Y-101925080D01*
X113491836Y-101949584D01*
X113058816Y-102382605D01*
X113221324Y-102491190D01*
X113403310Y-102566570D01*
X113596506Y-102604999D01*
X113596510Y-102605000D01*
X113793490Y-102605000D01*
X113793493Y-102604999D01*
X113986688Y-102566570D01*
X113986690Y-102566570D01*
X114168675Y-102491190D01*
X114331182Y-102382605D01*
X113898161Y-101949584D01*
X113940606Y-101925080D01*
X114015080Y-101850606D01*
X114039584Y-101808161D01*
X114472605Y-102241182D01*
X114581190Y-102078675D01*
X114656570Y-101896690D01*
X114656570Y-101896688D01*
X114694999Y-101703493D01*
X114695000Y-101703490D01*
X114695000Y-101506509D01*
X114694999Y-101506506D01*
X114694989Y-101506456D01*
X115234500Y-101506456D01*
X115234500Y-101703543D01*
X115245610Y-101759394D01*
X115272124Y-101892690D01*
X115272949Y-101896834D01*
X115272949Y-101896836D01*
X115348367Y-102078913D01*
X115348368Y-102078914D01*
X115457861Y-102242782D01*
X115597218Y-102382139D01*
X115761086Y-102491632D01*
X115943165Y-102567051D01*
X116136459Y-102605500D01*
X116136460Y-102605500D01*
X116333540Y-102605500D01*
X116333541Y-102605500D01*
X116526835Y-102567051D01*
X116708914Y-102491632D01*
X116872782Y-102382139D01*
X116949996Y-102304925D01*
X117004513Y-102277148D01*
X117064945Y-102286719D01*
X117108210Y-102329984D01*
X117119000Y-102374929D01*
X117119000Y-115848524D01*
X117119000Y-115951476D01*
X117141141Y-116034108D01*
X117145647Y-116050925D01*
X117197120Y-116140077D01*
X117197122Y-116140080D01*
X120069920Y-119012878D01*
X120069922Y-119012879D01*
X120159075Y-119064352D01*
X120159073Y-119064352D01*
X120159077Y-119064353D01*
X120159079Y-119064354D01*
X120258524Y-119091000D01*
X120361476Y-119091000D01*
X154959704Y-119091000D01*
X155009204Y-119104264D01*
X155116810Y-119166390D01*
X155116808Y-119166390D01*
X155116812Y-119166391D01*
X155116814Y-119166392D01*
X155244108Y-119200500D01*
X155244110Y-119200500D01*
X155375890Y-119200500D01*
X155375892Y-119200500D01*
X155503186Y-119166392D01*
X155503188Y-119166390D01*
X155503190Y-119166390D01*
X155610796Y-119104264D01*
X155660296Y-119091000D01*
X160261474Y-119091000D01*
X160261476Y-119091000D01*
X160360921Y-119064354D01*
X160360923Y-119064352D01*
X160360925Y-119064352D01*
X160387410Y-119049060D01*
X160450080Y-119012878D01*
X163313378Y-116149580D01*
X163364854Y-116060421D01*
X163391500Y-115960976D01*
X163391500Y-115858024D01*
X163391500Y-104949963D01*
X163391501Y-104949950D01*
X163391501Y-104839023D01*
X163391500Y-104839021D01*
X163364855Y-104739583D01*
X163364854Y-104739581D01*
X163364854Y-104739580D01*
X163347199Y-104709000D01*
X163347198Y-104708998D01*
X163347198Y-104708997D01*
X163322278Y-104665836D01*
X163313516Y-104640017D01*
X163312179Y-104640376D01*
X163309474Y-104630279D01*
X163276392Y-104506814D01*
X163276390Y-104506811D01*
X163276390Y-104506809D01*
X163210503Y-104392690D01*
X163210501Y-104392688D01*
X163210500Y-104392686D01*
X163117314Y-104299500D01*
X163117311Y-104299498D01*
X163117309Y-104299496D01*
X163003189Y-104233609D01*
X163003190Y-104233609D01*
X162879480Y-104200461D01*
X162828165Y-104167136D01*
X162806239Y-104110015D01*
X162809477Y-104079209D01*
X162810500Y-104075392D01*
X162810500Y-103943608D01*
X162776392Y-103816314D01*
X162776390Y-103816311D01*
X162776390Y-103816309D01*
X162710503Y-103702190D01*
X162710501Y-103702188D01*
X162710500Y-103702186D01*
X162617314Y-103609000D01*
X162617311Y-103608998D01*
X162617309Y-103608996D01*
X162503189Y-103543109D01*
X162503191Y-103543109D01*
X162449724Y-103528783D01*
X162375892Y-103509000D01*
X162244108Y-103509000D01*
X162170276Y-103528783D01*
X162116809Y-103543109D01*
X162009204Y-103605236D01*
X161959704Y-103618500D01*
X151551976Y-103618500D01*
X151449024Y-103618500D01*
X151393390Y-103633407D01*
X151349574Y-103645147D01*
X151260422Y-103696620D01*
X150097120Y-104859922D01*
X150045645Y-104949078D01*
X150045645Y-104949079D01*
X150045646Y-104949080D01*
X150019000Y-105048525D01*
X150019000Y-115610000D01*
X150000093Y-115668191D01*
X149950593Y-115704155D01*
X149920000Y-115709000D01*
X121512966Y-115709000D01*
X121454775Y-115690093D01*
X121442962Y-115680004D01*
X119194996Y-113432038D01*
X119167219Y-113377521D01*
X119166000Y-113362034D01*
X119166000Y-102592125D01*
X119184907Y-102533934D01*
X119227114Y-102500661D01*
X119248914Y-102491632D01*
X119412782Y-102382139D01*
X119552139Y-102242782D01*
X119661632Y-102078914D01*
X119737051Y-101896835D01*
X119775500Y-101703541D01*
X119775500Y-101506459D01*
X119737051Y-101313165D01*
X119661632Y-101131086D01*
X119552139Y-100967218D01*
X119412782Y-100827861D01*
X119329650Y-100772314D01*
X119291772Y-100724265D01*
X119289370Y-100663127D01*
X119323363Y-100612254D01*
X119380766Y-100591076D01*
X119384653Y-100591000D01*
X120607034Y-100591000D01*
X120665225Y-100609907D01*
X120677038Y-100619996D01*
X120716416Y-100659374D01*
X120744193Y-100713891D01*
X120734622Y-100774323D01*
X120701416Y-100811692D01*
X120688269Y-100820476D01*
X120677919Y-100827393D01*
X120677217Y-100827862D01*
X120677214Y-100827864D01*
X120537864Y-100967214D01*
X120537861Y-100967218D01*
X120428367Y-101131086D01*
X120352949Y-101313163D01*
X120352949Y-101313165D01*
X120314500Y-101506456D01*
X120314500Y-101703543D01*
X120325610Y-101759394D01*
X120352124Y-101892690D01*
X120352949Y-101896834D01*
X120352949Y-101896836D01*
X120428367Y-102078913D01*
X120428368Y-102078914D01*
X120537861Y-102242782D01*
X120677218Y-102382139D01*
X120841086Y-102491632D01*
X121023165Y-102567051D01*
X121216459Y-102605500D01*
X121216460Y-102605500D01*
X121413540Y-102605500D01*
X121413541Y-102605500D01*
X121606835Y-102567051D01*
X121788914Y-102491632D01*
X121952782Y-102382139D01*
X122092139Y-102242782D01*
X122201632Y-102078914D01*
X122277051Y-101896835D01*
X122315500Y-101703541D01*
X122315500Y-101506459D01*
X122277051Y-101313165D01*
X122201632Y-101131086D01*
X122092139Y-100967218D01*
X121952782Y-100827861D01*
X121872657Y-100774323D01*
X121788921Y-100718371D01*
X121788915Y-100718369D01*
X121788916Y-100718369D01*
X121788914Y-100718368D01*
X121760296Y-100706514D01*
X121713771Y-100666777D01*
X121702557Y-100640676D01*
X121679354Y-100554080D01*
X121679354Y-100554079D01*
X121679354Y-100554078D01*
X121627879Y-100464922D01*
X121627878Y-100464920D01*
X121050080Y-99887122D01*
X121050077Y-99887120D01*
X120960924Y-99835647D01*
X120960926Y-99835647D01*
X120922339Y-99825308D01*
X120861476Y-99809000D01*
X120861474Y-99809000D01*
X118067555Y-99809000D01*
X118067539Y-99808999D01*
X118061476Y-99808999D01*
X117958524Y-99808999D01*
X117958521Y-99808999D01*
X117859083Y-99835644D01*
X117859082Y-99835644D01*
X117769920Y-99887122D01*
X117197120Y-100459922D01*
X117145647Y-100549075D01*
X117145645Y-100549079D01*
X117130795Y-100604498D01*
X117130796Y-100604499D01*
X117119000Y-100648524D01*
X117119000Y-100835071D01*
X117100093Y-100893262D01*
X117050593Y-100929226D01*
X116989407Y-100929226D01*
X116949996Y-100905075D01*
X116872785Y-100827864D01*
X116872782Y-100827861D01*
X116748284Y-100744674D01*
X116708913Y-100718367D01*
X116526835Y-100642949D01*
X116333543Y-100604500D01*
X116333541Y-100604500D01*
X116136459Y-100604500D01*
X116136456Y-100604500D01*
X115943165Y-100642949D01*
X115943163Y-100642949D01*
X115761086Y-100718367D01*
X115597218Y-100827861D01*
X115597214Y-100827864D01*
X115457864Y-100967214D01*
X115457861Y-100967218D01*
X115348367Y-101131086D01*
X115272949Y-101313163D01*
X115272949Y-101313165D01*
X115234500Y-101506456D01*
X114694989Y-101506456D01*
X114656570Y-101313311D01*
X114656570Y-101313309D01*
X114581190Y-101131324D01*
X114472605Y-100968816D01*
X114039584Y-101401836D01*
X114015080Y-101359394D01*
X113940606Y-101284920D01*
X113898160Y-101260414D01*
X114331183Y-100827392D01*
X114168681Y-100718812D01*
X114168675Y-100718809D01*
X113986689Y-100643429D01*
X113793493Y-100605000D01*
X113596506Y-100605000D01*
X113403311Y-100643429D01*
X113403309Y-100643429D01*
X113221326Y-100718808D01*
X113221314Y-100718814D01*
X113058816Y-100827393D01*
X113491838Y-101260415D01*
X113449394Y-101284920D01*
X113374920Y-101359394D01*
X113350415Y-101401838D01*
X112917393Y-100968816D01*
X112808814Y-101131314D01*
X112808808Y-101131326D01*
X112733429Y-101313309D01*
X112733429Y-101313311D01*
X112695000Y-101506506D01*
X108097704Y-101506506D01*
X108033405Y-101351274D01*
X108011401Y-101313163D01*
X107921949Y-101158228D01*
X107921948Y-101158226D01*
X107786247Y-100981376D01*
X107628624Y-100823753D01*
X107451774Y-100688052D01*
X107451771Y-100688050D01*
X107258727Y-100576595D01*
X107258722Y-100576592D01*
X107052782Y-100491290D01*
X106935706Y-100459920D01*
X106837463Y-100433596D01*
X106837460Y-100433595D01*
X106837458Y-100433595D01*
X106616457Y-100404500D01*
X106393543Y-100404500D01*
X106393542Y-100404500D01*
X106172544Y-100433595D01*
X106172539Y-100433595D01*
X105957217Y-100491290D01*
X105751277Y-100576592D01*
X105751272Y-100576595D01*
X105558228Y-100688050D01*
X105381379Y-100823750D01*
X105223750Y-100981379D01*
X105088050Y-101158228D01*
X104976595Y-101351272D01*
X104976592Y-101351277D01*
X104891290Y-101557217D01*
X104833595Y-101772539D01*
X104833595Y-101772544D01*
X104817778Y-101892690D01*
X104804500Y-101993543D01*
X101900500Y-101993543D01*
X101900500Y-95584108D01*
X110949500Y-95584108D01*
X110949500Y-95715892D01*
X110954381Y-95734108D01*
X110983609Y-95843190D01*
X111049496Y-95957309D01*
X111049498Y-95957311D01*
X111049500Y-95957314D01*
X111142686Y-96050500D01*
X111142688Y-96050501D01*
X111142690Y-96050503D01*
X111256810Y-96116390D01*
X111256808Y-96116390D01*
X111256812Y-96116391D01*
X111256814Y-96116392D01*
X111384108Y-96150500D01*
X111384110Y-96150500D01*
X111515890Y-96150500D01*
X111515892Y-96150500D01*
X111643186Y-96116392D01*
X111643188Y-96116390D01*
X111643190Y-96116390D01*
X111750796Y-96054264D01*
X111800296Y-96041000D01*
X119173463Y-96041000D01*
X119231654Y-96059907D01*
X119243467Y-96069996D01*
X130666004Y-107492533D01*
X130693781Y-107547050D01*
X130695000Y-107562537D01*
X130695000Y-110749704D01*
X130681736Y-110799204D01*
X130619609Y-110906809D01*
X130619608Y-110906814D01*
X130585500Y-111034108D01*
X130585500Y-111165892D01*
X130595434Y-111202966D01*
X130619609Y-111293190D01*
X130685496Y-111407309D01*
X130685498Y-111407311D01*
X130685500Y-111407314D01*
X130778686Y-111500500D01*
X130778688Y-111500501D01*
X130778690Y-111500503D01*
X130892810Y-111566390D01*
X130892808Y-111566390D01*
X130892812Y-111566391D01*
X130892814Y-111566392D01*
X131020108Y-111600500D01*
X131020110Y-111600500D01*
X131151890Y-111600500D01*
X131151892Y-111600500D01*
X131279186Y-111566392D01*
X131279188Y-111566390D01*
X131279190Y-111566390D01*
X131393309Y-111500503D01*
X131393309Y-111500502D01*
X131393314Y-111500500D01*
X131486500Y-111407314D01*
X131552392Y-111293186D01*
X131586500Y-111165892D01*
X131586500Y-111034108D01*
X131552392Y-110906814D01*
X131552390Y-110906811D01*
X131552390Y-110906809D01*
X131490264Y-110799204D01*
X131477000Y-110749704D01*
X131477000Y-107308096D01*
X131450354Y-107208651D01*
X131450354Y-107208649D01*
X131398879Y-107119493D01*
X131398878Y-107119491D01*
X128244315Y-103964928D01*
X128216538Y-103910411D01*
X128226109Y-103849979D01*
X128269374Y-103806714D01*
X128327240Y-103796771D01*
X128393543Y-103805500D01*
X128393544Y-103805500D01*
X128616456Y-103805500D01*
X128616457Y-103805500D01*
X128837463Y-103776404D01*
X129052781Y-103718710D01*
X129182647Y-103664917D01*
X129258722Y-103633407D01*
X129258723Y-103633405D01*
X129258726Y-103633405D01*
X129451774Y-103521948D01*
X129628624Y-103386247D01*
X129786247Y-103228624D01*
X129921948Y-103051774D01*
X130033405Y-102858726D01*
X130118710Y-102652781D01*
X130176404Y-102437463D01*
X130205500Y-102216457D01*
X130205500Y-101993543D01*
X130176404Y-101772537D01*
X130118710Y-101557219D01*
X130074550Y-101450606D01*
X130033407Y-101351277D01*
X130033404Y-101351272D01*
X129921949Y-101158228D01*
X129921948Y-101158226D01*
X129786247Y-100981376D01*
X129628624Y-100823753D01*
X129451774Y-100688052D01*
X129451771Y-100688050D01*
X129258727Y-100576595D01*
X129258722Y-100576592D01*
X129052782Y-100491290D01*
X128935706Y-100459920D01*
X128837463Y-100433596D01*
X128837460Y-100433595D01*
X128837458Y-100433595D01*
X128616457Y-100404500D01*
X128393543Y-100404500D01*
X128393542Y-100404500D01*
X128172544Y-100433595D01*
X128172539Y-100433595D01*
X127957217Y-100491290D01*
X127751277Y-100576592D01*
X127751272Y-100576595D01*
X127558228Y-100688050D01*
X127381379Y-100823750D01*
X127223750Y-100981379D01*
X127088050Y-101158228D01*
X126976595Y-101351272D01*
X126976592Y-101351277D01*
X126891290Y-101557217D01*
X126833595Y-101772539D01*
X126833595Y-101772544D01*
X126804500Y-101993542D01*
X126804500Y-102216460D01*
X126813228Y-102282759D01*
X126802077Y-102342920D01*
X126757695Y-102385036D01*
X126697033Y-102393022D01*
X126645071Y-102365684D01*
X123151345Y-98871958D01*
X119616509Y-95337122D01*
X119616506Y-95337120D01*
X119527353Y-95285647D01*
X119527355Y-95285647D01*
X119488768Y-95275308D01*
X119427905Y-95259000D01*
X119427903Y-95259000D01*
X111800296Y-95259000D01*
X111750796Y-95245736D01*
X111643189Y-95183609D01*
X111643191Y-95183609D01*
X111593799Y-95170375D01*
X111515892Y-95149500D01*
X111384108Y-95149500D01*
X111306200Y-95170375D01*
X111256809Y-95183609D01*
X111142690Y-95249496D01*
X111049496Y-95342690D01*
X110983609Y-95456809D01*
X110983608Y-95456814D01*
X110949500Y-95584108D01*
X101900500Y-95584108D01*
X101900500Y-91534108D01*
X110899500Y-91534108D01*
X110899500Y-91665892D01*
X110926602Y-91767038D01*
X110933609Y-91793190D01*
X110999496Y-91907309D01*
X110999498Y-91907311D01*
X110999500Y-91907314D01*
X111092686Y-92000500D01*
X111092688Y-92000501D01*
X111092690Y-92000503D01*
X111206810Y-92066390D01*
X111206808Y-92066390D01*
X111206812Y-92066391D01*
X111206814Y-92066392D01*
X111334108Y-92100500D01*
X111334110Y-92100500D01*
X111465890Y-92100500D01*
X111465892Y-92100500D01*
X111593186Y-92066392D01*
X111593188Y-92066390D01*
X111593190Y-92066390D01*
X111700796Y-92004264D01*
X111750296Y-91991000D01*
X122697034Y-91991000D01*
X122755225Y-92009907D01*
X122767038Y-92019996D01*
X123787038Y-93039996D01*
X123814815Y-93094513D01*
X123805244Y-93154945D01*
X123761979Y-93198210D01*
X123717034Y-93209000D01*
X111750296Y-93209000D01*
X111700796Y-93195736D01*
X111593189Y-93133609D01*
X111593191Y-93133609D01*
X111543799Y-93120375D01*
X111465892Y-93099500D01*
X111334108Y-93099500D01*
X111256200Y-93120375D01*
X111206809Y-93133609D01*
X111092690Y-93199496D01*
X110999496Y-93292690D01*
X110933609Y-93406809D01*
X110933608Y-93406814D01*
X110899500Y-93534108D01*
X110899500Y-93665892D01*
X110914153Y-93720579D01*
X110933609Y-93793190D01*
X110999496Y-93907309D01*
X110999498Y-93907311D01*
X110999500Y-93907314D01*
X111092686Y-94000500D01*
X111092688Y-94000501D01*
X111092690Y-94000503D01*
X111206810Y-94066390D01*
X111206808Y-94066390D01*
X111206812Y-94066391D01*
X111206814Y-94066392D01*
X111334108Y-94100500D01*
X111334110Y-94100500D01*
X111465890Y-94100500D01*
X111465892Y-94100500D01*
X111593186Y-94066392D01*
X111593188Y-94066390D01*
X111593190Y-94066390D01*
X111700796Y-94004264D01*
X111750296Y-93991000D01*
X123847034Y-93991000D01*
X123905225Y-94009907D01*
X123917038Y-94019996D01*
X135230004Y-105332962D01*
X135257781Y-105387479D01*
X135259000Y-105402966D01*
X135259000Y-108336306D01*
X135245737Y-108385804D01*
X135233610Y-108406809D01*
X135233609Y-108406809D01*
X135233608Y-108406814D01*
X135199500Y-108534108D01*
X135199500Y-108665892D01*
X135210598Y-108707309D01*
X135233609Y-108793190D01*
X135299496Y-108907309D01*
X135299498Y-108907311D01*
X135299500Y-108907314D01*
X135392686Y-109000500D01*
X135392688Y-109000501D01*
X135392690Y-109000503D01*
X135506810Y-109066390D01*
X135506808Y-109066390D01*
X135506812Y-109066391D01*
X135506814Y-109066392D01*
X135634108Y-109100500D01*
X135634110Y-109100500D01*
X135765890Y-109100500D01*
X135765892Y-109100500D01*
X135893186Y-109066392D01*
X135893188Y-109066390D01*
X135893190Y-109066390D01*
X136007309Y-109000503D01*
X136007309Y-109000502D01*
X136007314Y-109000500D01*
X136100500Y-108907314D01*
X136105560Y-108898550D01*
X136166390Y-108793190D01*
X136166390Y-108793188D01*
X136166392Y-108793186D01*
X136200500Y-108665892D01*
X136200500Y-108534108D01*
X136166392Y-108406814D01*
X136166390Y-108406811D01*
X136166390Y-108406809D01*
X136100503Y-108292690D01*
X136100502Y-108292689D01*
X136100501Y-108292688D01*
X136100500Y-108292686D01*
X136069995Y-108262181D01*
X136042219Y-108207664D01*
X136041000Y-108192178D01*
X136041000Y-106592132D01*
X136059907Y-106533941D01*
X136109407Y-106497977D01*
X136170593Y-106497977D01*
X136189495Y-106506393D01*
X136206814Y-106516392D01*
X136334108Y-106550500D01*
X136334110Y-106550500D01*
X136465890Y-106550500D01*
X136465892Y-106550500D01*
X136593186Y-106516392D01*
X136593188Y-106516390D01*
X136593190Y-106516390D01*
X136707309Y-106450503D01*
X136707309Y-106450502D01*
X136707314Y-106450500D01*
X136800500Y-106357314D01*
X136837523Y-106293189D01*
X136866390Y-106243190D01*
X136866390Y-106243188D01*
X136866392Y-106243186D01*
X136900500Y-106115892D01*
X136900500Y-105984108D01*
X136866392Y-105856814D01*
X136866390Y-105856811D01*
X136866390Y-105856809D01*
X136804264Y-105749204D01*
X136791000Y-105699704D01*
X136791000Y-105048525D01*
X136764354Y-104949080D01*
X136764354Y-104949078D01*
X136712879Y-104859922D01*
X136712878Y-104859920D01*
X123140080Y-91287122D01*
X123140077Y-91287120D01*
X123050924Y-91235647D01*
X123050926Y-91235647D01*
X123012339Y-91225308D01*
X122951476Y-91209000D01*
X122951474Y-91209000D01*
X111750296Y-91209000D01*
X111700796Y-91195736D01*
X111593189Y-91133609D01*
X111593191Y-91133609D01*
X111543799Y-91120375D01*
X111465892Y-91099500D01*
X111334108Y-91099500D01*
X111256200Y-91120375D01*
X111206809Y-91133609D01*
X111092690Y-91199496D01*
X110999496Y-91292690D01*
X110933609Y-91406809D01*
X110933608Y-91406814D01*
X110899500Y-91534108D01*
X101900500Y-91534108D01*
X101900500Y-89534108D01*
X110799500Y-89534108D01*
X110799500Y-89665892D01*
X110824073Y-89757599D01*
X110833609Y-89793190D01*
X110899496Y-89907309D01*
X110899498Y-89907311D01*
X110899500Y-89907314D01*
X110992686Y-90000500D01*
X110992688Y-90000501D01*
X110992690Y-90000503D01*
X111106810Y-90066390D01*
X111106808Y-90066390D01*
X111106812Y-90066391D01*
X111106814Y-90066392D01*
X111234108Y-90100500D01*
X111234110Y-90100500D01*
X111365890Y-90100500D01*
X111365892Y-90100500D01*
X111493186Y-90066392D01*
X111493188Y-90066390D01*
X111493190Y-90066390D01*
X111600796Y-90004264D01*
X111650296Y-89991000D01*
X122347034Y-89991000D01*
X122405225Y-90009907D01*
X122417038Y-90019996D01*
X135925826Y-103528783D01*
X135951448Y-103573162D01*
X135970736Y-103645146D01*
X135983609Y-103693190D01*
X136049496Y-103807309D01*
X136049498Y-103807311D01*
X136049500Y-103807314D01*
X136142686Y-103900500D01*
X136142688Y-103900501D01*
X136142690Y-103900503D01*
X136256810Y-103966390D01*
X136256808Y-103966390D01*
X136256812Y-103966391D01*
X136256814Y-103966392D01*
X136384108Y-104000500D01*
X136384110Y-104000500D01*
X136515890Y-104000500D01*
X136515892Y-104000500D01*
X136643186Y-103966392D01*
X136643188Y-103966390D01*
X136643190Y-103966390D01*
X136757309Y-103900503D01*
X136757309Y-103900502D01*
X136757314Y-103900500D01*
X136850500Y-103807314D01*
X136850503Y-103807309D01*
X136916390Y-103693190D01*
X136916390Y-103693188D01*
X136916392Y-103693186D01*
X136950500Y-103565892D01*
X136950500Y-103434108D01*
X136916392Y-103306814D01*
X136916390Y-103306811D01*
X136916390Y-103306809D01*
X136850503Y-103192690D01*
X136850501Y-103192688D01*
X136850500Y-103192686D01*
X136757314Y-103099500D01*
X136757311Y-103099498D01*
X136757309Y-103099496D01*
X136643189Y-103033609D01*
X136643190Y-103033609D01*
X136523163Y-103001448D01*
X136478782Y-102975825D01*
X135637065Y-102134108D01*
X159709500Y-102134108D01*
X159709500Y-102265892D01*
X159736239Y-102365684D01*
X159743609Y-102393190D01*
X159809496Y-102507309D01*
X159809498Y-102507311D01*
X159809500Y-102507314D01*
X159902686Y-102600500D01*
X159902688Y-102600501D01*
X159902690Y-102600503D01*
X160016810Y-102666390D01*
X160016808Y-102666390D01*
X160016812Y-102666391D01*
X160016814Y-102666392D01*
X160144108Y-102700500D01*
X160144110Y-102700500D01*
X160275890Y-102700500D01*
X160275892Y-102700500D01*
X160403186Y-102666392D01*
X160403188Y-102666390D01*
X160403190Y-102666390D01*
X160517309Y-102600503D01*
X160517309Y-102600502D01*
X160517314Y-102600500D01*
X160610500Y-102507314D01*
X160619809Y-102491190D01*
X160676390Y-102393190D01*
X160676390Y-102393188D01*
X160676392Y-102393186D01*
X160710500Y-102265892D01*
X160710500Y-102134108D01*
X160676392Y-102006814D01*
X160676390Y-102006811D01*
X160676390Y-102006809D01*
X160610503Y-101892690D01*
X160610501Y-101892688D01*
X160610500Y-101892686D01*
X160517314Y-101799500D01*
X160517311Y-101799498D01*
X160517309Y-101799496D01*
X160403189Y-101733609D01*
X160403191Y-101733609D01*
X160353799Y-101720375D01*
X160275892Y-101699500D01*
X160144108Y-101699500D01*
X160066200Y-101720375D01*
X160016809Y-101733609D01*
X159902690Y-101799496D01*
X159809496Y-101892690D01*
X159743609Y-102006809D01*
X159743608Y-102006814D01*
X159709500Y-102134108D01*
X135637065Y-102134108D01*
X129653457Y-96150500D01*
X123037066Y-89534108D01*
X126949500Y-89534108D01*
X126949500Y-89665892D01*
X126974073Y-89757599D01*
X126983609Y-89793190D01*
X127045736Y-89900795D01*
X127059000Y-89950295D01*
X127059000Y-91848524D01*
X127059000Y-91951476D01*
X127077360Y-92019996D01*
X127085647Y-92050925D01*
X127114270Y-92100500D01*
X127137122Y-92140080D01*
X128988042Y-93991000D01*
X130825826Y-95828784D01*
X130851449Y-95873165D01*
X130883609Y-95993190D01*
X130949496Y-96107309D01*
X130949498Y-96107311D01*
X130949500Y-96107314D01*
X131042686Y-96200500D01*
X131042688Y-96200501D01*
X131042690Y-96200503D01*
X131156810Y-96266390D01*
X131156808Y-96266390D01*
X131156812Y-96266391D01*
X131156814Y-96266392D01*
X131284108Y-96300500D01*
X131284110Y-96300500D01*
X131415890Y-96300500D01*
X131415892Y-96300500D01*
X131543186Y-96266392D01*
X131543188Y-96266390D01*
X131543190Y-96266390D01*
X131657309Y-96200503D01*
X131657309Y-96200502D01*
X131657314Y-96200500D01*
X131750500Y-96107314D01*
X131816392Y-95993186D01*
X131840446Y-95903412D01*
X131873769Y-95852101D01*
X131930890Y-95830174D01*
X131989991Y-95846009D01*
X132006076Y-95859034D01*
X133759920Y-97612878D01*
X133759922Y-97612879D01*
X133849075Y-97664352D01*
X133849073Y-97664352D01*
X133849077Y-97664353D01*
X133849079Y-97664354D01*
X133948524Y-97691000D01*
X134051476Y-97691000D01*
X167997034Y-97691000D01*
X168055225Y-97709907D01*
X168067038Y-97719996D01*
X169190004Y-98842962D01*
X169217781Y-98897479D01*
X169219000Y-98912966D01*
X169219000Y-113149704D01*
X169205736Y-113199204D01*
X169143609Y-113306809D01*
X169143608Y-113306814D01*
X169109500Y-113434108D01*
X169109500Y-113565892D01*
X169139579Y-113678151D01*
X169143609Y-113693190D01*
X169209496Y-113807309D01*
X169209498Y-113807311D01*
X169209500Y-113807314D01*
X169302686Y-113900500D01*
X169302688Y-113900501D01*
X169302690Y-113900503D01*
X169416810Y-113966390D01*
X169416808Y-113966390D01*
X169416812Y-113966391D01*
X169416814Y-113966392D01*
X169544108Y-114000500D01*
X169544110Y-114000500D01*
X169675890Y-114000500D01*
X169675892Y-114000500D01*
X169803186Y-113966392D01*
X169803188Y-113966390D01*
X169803190Y-113966390D01*
X169917309Y-113900503D01*
X169917309Y-113900502D01*
X169917314Y-113900500D01*
X170010500Y-113807314D01*
X170076392Y-113693186D01*
X170110500Y-113565892D01*
X170110500Y-113434108D01*
X170076392Y-113306814D01*
X170076390Y-113306811D01*
X170076390Y-113306809D01*
X170014264Y-113199204D01*
X170001000Y-113149704D01*
X170001000Y-103413385D01*
X174809500Y-103413385D01*
X174809500Y-103586614D01*
X174836597Y-103757702D01*
X174836598Y-103757706D01*
X174890123Y-103922438D01*
X174890125Y-103922441D01*
X174968056Y-104075392D01*
X174968768Y-104076788D01*
X175070586Y-104216928D01*
X175193072Y-104339414D01*
X175333212Y-104441232D01*
X175487555Y-104519873D01*
X175487557Y-104519873D01*
X175487558Y-104519874D01*
X175487561Y-104519876D01*
X175652293Y-104573401D01*
X175652297Y-104573402D01*
X175823386Y-104600500D01*
X175823389Y-104600500D01*
X175996614Y-104600500D01*
X176167702Y-104573402D01*
X176167706Y-104573401D01*
X176332438Y-104519876D01*
X176332440Y-104519874D01*
X176332445Y-104519873D01*
X176486788Y-104441232D01*
X176626928Y-104339414D01*
X176749414Y-104216928D01*
X176851232Y-104076788D01*
X176929873Y-103922445D01*
X176929874Y-103922440D01*
X176929876Y-103922438D01*
X176983401Y-103757706D01*
X176983402Y-103757702D01*
X177010500Y-103586614D01*
X177010500Y-103413385D01*
X181809500Y-103413385D01*
X181809500Y-103586614D01*
X181836597Y-103757702D01*
X181836598Y-103757706D01*
X181890123Y-103922438D01*
X181890125Y-103922441D01*
X181968056Y-104075392D01*
X181968768Y-104076788D01*
X182070586Y-104216928D01*
X182193072Y-104339414D01*
X182333212Y-104441232D01*
X182487555Y-104519873D01*
X182487557Y-104519873D01*
X182487558Y-104519874D01*
X182487561Y-104519876D01*
X182652293Y-104573401D01*
X182652297Y-104573402D01*
X182823386Y-104600500D01*
X182823389Y-104600500D01*
X182996614Y-104600500D01*
X183167702Y-104573402D01*
X183167706Y-104573401D01*
X183332438Y-104519876D01*
X183332440Y-104519874D01*
X183332445Y-104519873D01*
X183486788Y-104441232D01*
X183626928Y-104339414D01*
X183749414Y-104216928D01*
X183851232Y-104076788D01*
X183929873Y-103922445D01*
X183929874Y-103922440D01*
X183929876Y-103922438D01*
X183983401Y-103757706D01*
X183983402Y-103757702D01*
X184010500Y-103586614D01*
X184010500Y-103413385D01*
X183983402Y-103242297D01*
X183983401Y-103242293D01*
X183929876Y-103077561D01*
X183929874Y-103077558D01*
X183929873Y-103077557D01*
X183929873Y-103077555D01*
X183851232Y-102923212D01*
X183749414Y-102783072D01*
X183626928Y-102660586D01*
X183486788Y-102558768D01*
X183486787Y-102558767D01*
X183486785Y-102558766D01*
X183332441Y-102480125D01*
X183332438Y-102480123D01*
X183167706Y-102426598D01*
X183167702Y-102426597D01*
X182996614Y-102399500D01*
X182996611Y-102399500D01*
X182823389Y-102399500D01*
X182823386Y-102399500D01*
X182652297Y-102426597D01*
X182652293Y-102426598D01*
X182487561Y-102480123D01*
X182487558Y-102480125D01*
X182333214Y-102558766D01*
X182193073Y-102660585D01*
X182070585Y-102783073D01*
X181968766Y-102923214D01*
X181890125Y-103077558D01*
X181890123Y-103077561D01*
X181836598Y-103242293D01*
X181836597Y-103242297D01*
X181809500Y-103413385D01*
X177010500Y-103413385D01*
X176983402Y-103242297D01*
X176983401Y-103242293D01*
X176929876Y-103077561D01*
X176929874Y-103077558D01*
X176929873Y-103077557D01*
X176929873Y-103077555D01*
X176851232Y-102923212D01*
X176749414Y-102783072D01*
X176626928Y-102660586D01*
X176486788Y-102558768D01*
X176486787Y-102558767D01*
X176486785Y-102558766D01*
X176332441Y-102480125D01*
X176332438Y-102480123D01*
X176167706Y-102426598D01*
X176167702Y-102426597D01*
X175996614Y-102399500D01*
X175996611Y-102399500D01*
X175823389Y-102399500D01*
X175823386Y-102399500D01*
X175652297Y-102426597D01*
X175652293Y-102426598D01*
X175487561Y-102480123D01*
X175487558Y-102480125D01*
X175333214Y-102558766D01*
X175193073Y-102660585D01*
X175070585Y-102783073D01*
X174968766Y-102923214D01*
X174890125Y-103077558D01*
X174890123Y-103077561D01*
X174836598Y-103242293D01*
X174836597Y-103242297D01*
X174809500Y-103413385D01*
X170001000Y-103413385D01*
X170001000Y-98658525D01*
X169974354Y-98559080D01*
X169974354Y-98559078D01*
X169922879Y-98469922D01*
X169922878Y-98469920D01*
X168440080Y-96987122D01*
X168440077Y-96987120D01*
X168350924Y-96935647D01*
X168350926Y-96935647D01*
X168312339Y-96925308D01*
X168251476Y-96909000D01*
X168251474Y-96909000D01*
X134202966Y-96909000D01*
X134144775Y-96890093D01*
X134132962Y-96880004D01*
X131229996Y-93977038D01*
X131202219Y-93922521D01*
X131201000Y-93907034D01*
X131201000Y-93234108D01*
X154609500Y-93234108D01*
X154609500Y-93365892D01*
X154620464Y-93406809D01*
X154643609Y-93493190D01*
X154709496Y-93607309D01*
X154709498Y-93607311D01*
X154709500Y-93607314D01*
X154802686Y-93700500D01*
X154802688Y-93700501D01*
X154802690Y-93700503D01*
X154916810Y-93766390D01*
X154916808Y-93766390D01*
X154916812Y-93766391D01*
X154916814Y-93766392D01*
X155044108Y-93800500D01*
X155044110Y-93800500D01*
X155175890Y-93800500D01*
X155175892Y-93800500D01*
X155303186Y-93766392D01*
X155410500Y-93704433D01*
X155470348Y-93691712D01*
X155509498Y-93704433D01*
X155616814Y-93766392D01*
X155744108Y-93800500D01*
X155744110Y-93800500D01*
X155875890Y-93800500D01*
X155875892Y-93800500D01*
X156003186Y-93766392D01*
X156060501Y-93733300D01*
X156120346Y-93720579D01*
X156159496Y-93733299D01*
X156216814Y-93766392D01*
X156344108Y-93800500D01*
X156344110Y-93800500D01*
X156475890Y-93800500D01*
X156475892Y-93800500D01*
X156603186Y-93766392D01*
X156603188Y-93766390D01*
X156603190Y-93766390D01*
X156717309Y-93700503D01*
X156717309Y-93700502D01*
X156717314Y-93700500D01*
X156810500Y-93607314D01*
X156876392Y-93493186D01*
X156910500Y-93365892D01*
X156910500Y-93234108D01*
X156876392Y-93106814D01*
X156876390Y-93106811D01*
X156876390Y-93106809D01*
X156810503Y-92992690D01*
X156810501Y-92992688D01*
X156810500Y-92992686D01*
X156717314Y-92899500D01*
X156717311Y-92899498D01*
X156717309Y-92899496D01*
X156603189Y-92833609D01*
X156603191Y-92833609D01*
X156553799Y-92820375D01*
X156475892Y-92799500D01*
X156344108Y-92799500D01*
X156280461Y-92816554D01*
X156216812Y-92833608D01*
X156159499Y-92866698D01*
X156099651Y-92879419D01*
X156060501Y-92866698D01*
X156003187Y-92833608D01*
X155960754Y-92822238D01*
X155875892Y-92799500D01*
X155744108Y-92799500D01*
X155666200Y-92820375D01*
X155616809Y-92833609D01*
X155509500Y-92895565D01*
X155449652Y-92908287D01*
X155410500Y-92895565D01*
X155303189Y-92833609D01*
X155303191Y-92833609D01*
X155253799Y-92820375D01*
X155175892Y-92799500D01*
X155044108Y-92799500D01*
X154966200Y-92820375D01*
X154916809Y-92833609D01*
X154802690Y-92899496D01*
X154709496Y-92992690D01*
X154643609Y-93106809D01*
X154636428Y-93133609D01*
X154609500Y-93234108D01*
X131201000Y-93234108D01*
X131201000Y-86587753D01*
X172249500Y-86587753D01*
X172249500Y-90127246D01*
X172249501Y-90127258D01*
X172254983Y-90154815D01*
X172261133Y-90185731D01*
X172305448Y-90252052D01*
X172371769Y-90296367D01*
X172416231Y-90305211D01*
X172430241Y-90307998D01*
X172430246Y-90307998D01*
X172430252Y-90308000D01*
X172430253Y-90308000D01*
X175969747Y-90308000D01*
X175969748Y-90308000D01*
X176028231Y-90296367D01*
X176094552Y-90252052D01*
X176138867Y-90185731D01*
X176150500Y-90127248D01*
X176150500Y-87302402D01*
X178500000Y-87302402D01*
X178500000Y-88257499D01*
X178500001Y-88257500D01*
X179700000Y-88257500D01*
X179700000Y-88457500D01*
X178500002Y-88457500D01*
X178500001Y-88457501D01*
X178500001Y-89412596D01*
X178510079Y-89525961D01*
X178510080Y-89525968D01*
X178563229Y-89711716D01*
X178652684Y-89882971D01*
X178774781Y-90032712D01*
X178774787Y-90032718D01*
X178924528Y-90154815D01*
X179095783Y-90244270D01*
X179281533Y-90297420D01*
X179394902Y-90307499D01*
X180099998Y-90307499D01*
X180100000Y-90307498D01*
X180100000Y-89848342D01*
X180134174Y-89857500D01*
X180265826Y-89857500D01*
X180300000Y-89848342D01*
X180300000Y-90307498D01*
X180300001Y-90307499D01*
X181005096Y-90307499D01*
X181118461Y-90297420D01*
X181118468Y-90297419D01*
X181304216Y-90244270D01*
X181475471Y-90154815D01*
X181625212Y-90032718D01*
X181625218Y-90032712D01*
X181747315Y-89882971D01*
X181836770Y-89711716D01*
X181889920Y-89525966D01*
X181900000Y-89412597D01*
X181900000Y-88457501D01*
X181899999Y-88457500D01*
X180700000Y-88457500D01*
X180700000Y-88257500D01*
X181899998Y-88257500D01*
X181899999Y-88257499D01*
X181899999Y-87302403D01*
X181889920Y-87189038D01*
X181889919Y-87189031D01*
X181836770Y-87003283D01*
X181747315Y-86832028D01*
X181625218Y-86682287D01*
X181625212Y-86682281D01*
X181475471Y-86560184D01*
X181304216Y-86470729D01*
X181118466Y-86417579D01*
X181005097Y-86407500D01*
X180300001Y-86407500D01*
X180300000Y-86407501D01*
X180300000Y-86866657D01*
X180265826Y-86857500D01*
X180134174Y-86857500D01*
X180100000Y-86866657D01*
X180100000Y-86407501D01*
X180099999Y-86407500D01*
X179394903Y-86407500D01*
X179281538Y-86417579D01*
X179281531Y-86417580D01*
X179095783Y-86470729D01*
X178924528Y-86560184D01*
X178774787Y-86682281D01*
X178774781Y-86682287D01*
X178652684Y-86832028D01*
X178563229Y-87003283D01*
X178510079Y-87189033D01*
X178500000Y-87302402D01*
X176150500Y-87302402D01*
X176150500Y-86587752D01*
X176138867Y-86529269D01*
X176094552Y-86462948D01*
X176094548Y-86462945D01*
X176028233Y-86418634D01*
X176028231Y-86418633D01*
X176028228Y-86418632D01*
X176028227Y-86418632D01*
X175969758Y-86407001D01*
X175969748Y-86407000D01*
X172430252Y-86407000D01*
X172430251Y-86407000D01*
X172430241Y-86407001D01*
X172371772Y-86418632D01*
X172371766Y-86418634D01*
X172305451Y-86462945D01*
X172305445Y-86462951D01*
X172261134Y-86529266D01*
X172261132Y-86529272D01*
X172249501Y-86587741D01*
X172249500Y-86587753D01*
X131201000Y-86587753D01*
X131201000Y-86050295D01*
X131214264Y-86000795D01*
X131276390Y-85893190D01*
X131276390Y-85893188D01*
X131276392Y-85893186D01*
X131310500Y-85765892D01*
X131310500Y-85634108D01*
X148659500Y-85634108D01*
X148659500Y-85765892D01*
X148689579Y-85878151D01*
X148693609Y-85893190D01*
X148759496Y-86007309D01*
X148759498Y-86007311D01*
X148759500Y-86007314D01*
X148852686Y-86100500D01*
X148852688Y-86100501D01*
X148852690Y-86100503D01*
X148966810Y-86166390D01*
X148966808Y-86166390D01*
X148966812Y-86166391D01*
X148966814Y-86166392D01*
X149094108Y-86200500D01*
X149094110Y-86200500D01*
X149225890Y-86200500D01*
X149225892Y-86200500D01*
X149353186Y-86166392D01*
X149460500Y-86104433D01*
X149520348Y-86091712D01*
X149559498Y-86104433D01*
X149666814Y-86166392D01*
X149794108Y-86200500D01*
X149794110Y-86200500D01*
X149925890Y-86200500D01*
X149925892Y-86200500D01*
X150053186Y-86166392D01*
X150160500Y-86104433D01*
X150220348Y-86091712D01*
X150259498Y-86104433D01*
X150366814Y-86166392D01*
X150494108Y-86200500D01*
X150494110Y-86200500D01*
X150625890Y-86200500D01*
X150625892Y-86200500D01*
X150753186Y-86166392D01*
X150753188Y-86166390D01*
X150753190Y-86166390D01*
X150867309Y-86100503D01*
X150867309Y-86100502D01*
X150867314Y-86100500D01*
X150960500Y-86007314D01*
X151026392Y-85893186D01*
X151060500Y-85765892D01*
X151060500Y-85634108D01*
X151026392Y-85506814D01*
X151026390Y-85506811D01*
X151026390Y-85506809D01*
X150960503Y-85392690D01*
X150960501Y-85392688D01*
X150960500Y-85392686D01*
X150867314Y-85299500D01*
X150867311Y-85299498D01*
X150867309Y-85299496D01*
X150753189Y-85233609D01*
X150753191Y-85233609D01*
X150703777Y-85220369D01*
X150625892Y-85199500D01*
X150494108Y-85199500D01*
X150416223Y-85220369D01*
X150366809Y-85233609D01*
X150259500Y-85295565D01*
X150199652Y-85308287D01*
X150160500Y-85295565D01*
X150053189Y-85233609D01*
X150053191Y-85233609D01*
X150003777Y-85220369D01*
X149925892Y-85199500D01*
X149794108Y-85199500D01*
X149716223Y-85220369D01*
X149666809Y-85233609D01*
X149559500Y-85295565D01*
X149499652Y-85308287D01*
X149460500Y-85295565D01*
X149353189Y-85233609D01*
X149353191Y-85233609D01*
X149303777Y-85220369D01*
X149225892Y-85199500D01*
X149094108Y-85199500D01*
X149016223Y-85220369D01*
X148966809Y-85233609D01*
X148852690Y-85299496D01*
X148759496Y-85392690D01*
X148693609Y-85506809D01*
X148693608Y-85506814D01*
X148659500Y-85634108D01*
X131310500Y-85634108D01*
X131276392Y-85506814D01*
X131276390Y-85506811D01*
X131276390Y-85506809D01*
X131210503Y-85392690D01*
X131210501Y-85392688D01*
X131210500Y-85392686D01*
X131117314Y-85299500D01*
X131117311Y-85299498D01*
X131117309Y-85299496D01*
X131003189Y-85233609D01*
X131003191Y-85233609D01*
X130953777Y-85220369D01*
X130875892Y-85199500D01*
X130744108Y-85199500D01*
X130666223Y-85220369D01*
X130616809Y-85233609D01*
X130502690Y-85299496D01*
X130409496Y-85392690D01*
X130343609Y-85506809D01*
X130343608Y-85506814D01*
X130309500Y-85634108D01*
X130309500Y-85765892D01*
X130339579Y-85878151D01*
X130343609Y-85893190D01*
X130405736Y-86000795D01*
X130419000Y-86050295D01*
X130419000Y-94077034D01*
X130400093Y-94135225D01*
X130350593Y-94171189D01*
X130289407Y-94171189D01*
X130249996Y-94147038D01*
X127869996Y-91767038D01*
X127842219Y-91712521D01*
X127841000Y-91697034D01*
X127841000Y-89950295D01*
X127854264Y-89900795D01*
X127916390Y-89793190D01*
X127916390Y-89793188D01*
X127916392Y-89793186D01*
X127950500Y-89665892D01*
X127950500Y-89534108D01*
X127916392Y-89406814D01*
X127916390Y-89406811D01*
X127916390Y-89406809D01*
X127850503Y-89292690D01*
X127850501Y-89292688D01*
X127850500Y-89292686D01*
X127757314Y-89199500D01*
X127757311Y-89199498D01*
X127757309Y-89199496D01*
X127643189Y-89133609D01*
X127643191Y-89133609D01*
X127593799Y-89120375D01*
X127515892Y-89099500D01*
X127384108Y-89099500D01*
X127306200Y-89120375D01*
X127256809Y-89133609D01*
X127142690Y-89199496D01*
X127049496Y-89292690D01*
X126983609Y-89406809D01*
X126964539Y-89477978D01*
X126949500Y-89534108D01*
X123037066Y-89534108D01*
X122790080Y-89287122D01*
X122790077Y-89287120D01*
X122700924Y-89235647D01*
X122700926Y-89235647D01*
X122662339Y-89225308D01*
X122601476Y-89209000D01*
X122601474Y-89209000D01*
X111650296Y-89209000D01*
X111600796Y-89195736D01*
X111493189Y-89133609D01*
X111493191Y-89133609D01*
X111443799Y-89120375D01*
X111365892Y-89099500D01*
X111234108Y-89099500D01*
X111156200Y-89120375D01*
X111106809Y-89133609D01*
X110992690Y-89199496D01*
X110899496Y-89292690D01*
X110833609Y-89406809D01*
X110814539Y-89477978D01*
X110799500Y-89534108D01*
X101900500Y-89534108D01*
X101900500Y-89421104D01*
X101919407Y-89362913D01*
X101968907Y-89326949D01*
X102000712Y-89322111D01*
X103672500Y-89342576D01*
X103672500Y-88575001D01*
X103872500Y-88575001D01*
X103872500Y-89345024D01*
X104278828Y-89349999D01*
X105426703Y-89349999D01*
X105457100Y-89347149D01*
X105457102Y-89347149D01*
X105585147Y-89302345D01*
X105694290Y-89221792D01*
X105694292Y-89221790D01*
X105774845Y-89112647D01*
X105819649Y-88984601D01*
X105822499Y-88954211D01*
X105822500Y-88954210D01*
X105822500Y-88575001D01*
X105822499Y-88575000D01*
X103872501Y-88575000D01*
X103872500Y-88575001D01*
X103672500Y-88575001D01*
X103672500Y-87600001D01*
X103872500Y-87600001D01*
X103872500Y-88374999D01*
X103872501Y-88375000D01*
X105822498Y-88375000D01*
X105822499Y-88374999D01*
X105822499Y-87995796D01*
X105819649Y-87965399D01*
X105819649Y-87965397D01*
X105774845Y-87837352D01*
X105694292Y-87728209D01*
X105694290Y-87728207D01*
X105585147Y-87647654D01*
X105509154Y-87621064D01*
X105457101Y-87602850D01*
X105426711Y-87600000D01*
X103872501Y-87600000D01*
X103872500Y-87600001D01*
X103672500Y-87600001D01*
X103672499Y-87600000D01*
X102118296Y-87600000D01*
X102087899Y-87602850D01*
X102087894Y-87602851D01*
X102032196Y-87622340D01*
X101971026Y-87623712D01*
X101920732Y-87588867D01*
X101901572Y-87534108D01*
X110909500Y-87534108D01*
X110909500Y-87665892D01*
X110926197Y-87728207D01*
X110943609Y-87793190D01*
X111009496Y-87907309D01*
X111009498Y-87907311D01*
X111009500Y-87907314D01*
X111102686Y-88000500D01*
X111102688Y-88000501D01*
X111102690Y-88000503D01*
X111216810Y-88066390D01*
X111216808Y-88066390D01*
X111216812Y-88066391D01*
X111216814Y-88066392D01*
X111344108Y-88100500D01*
X111344110Y-88100500D01*
X111475890Y-88100500D01*
X111475892Y-88100500D01*
X111603186Y-88066392D01*
X111603188Y-88066390D01*
X111603190Y-88066390D01*
X111717309Y-88000503D01*
X111717309Y-88000502D01*
X111717314Y-88000500D01*
X111810500Y-87907314D01*
X111876392Y-87793186D01*
X111910500Y-87665892D01*
X111910500Y-87534108D01*
X111876392Y-87406814D01*
X111876390Y-87406811D01*
X111876390Y-87406809D01*
X111810503Y-87292690D01*
X111810501Y-87292688D01*
X111810500Y-87292686D01*
X111717314Y-87199500D01*
X111717311Y-87199498D01*
X111717309Y-87199496D01*
X111603189Y-87133609D01*
X111603191Y-87133609D01*
X111553799Y-87120375D01*
X111475892Y-87099500D01*
X111344108Y-87099500D01*
X111266200Y-87120375D01*
X111216809Y-87133609D01*
X111102690Y-87199496D01*
X111009496Y-87292690D01*
X110943609Y-87406809D01*
X110943608Y-87406814D01*
X110909500Y-87534108D01*
X101901572Y-87534108D01*
X101900525Y-87531115D01*
X101900500Y-87528895D01*
X101900500Y-83771104D01*
X101919407Y-83712913D01*
X101968907Y-83676949D01*
X102030093Y-83676949D01*
X102032197Y-83677659D01*
X102087898Y-83697149D01*
X102118289Y-83699999D01*
X103672498Y-83699999D01*
X103672500Y-83699998D01*
X103872500Y-83699998D01*
X103872501Y-83699999D01*
X105426703Y-83699999D01*
X105457100Y-83697149D01*
X105457102Y-83697149D01*
X105585147Y-83652345D01*
X105694290Y-83571792D01*
X105694292Y-83571790D01*
X105774845Y-83462647D01*
X105819649Y-83334601D01*
X105822499Y-83304211D01*
X105822500Y-83304210D01*
X105822500Y-82925001D01*
X105822499Y-82925000D01*
X103872500Y-82925000D01*
X103872500Y-83699998D01*
X103672500Y-83699998D01*
X103672500Y-82924000D01*
X103691407Y-82865809D01*
X103740907Y-82829845D01*
X103771500Y-82825000D01*
X103772500Y-82825000D01*
X103772500Y-82824000D01*
X103791407Y-82765809D01*
X103840907Y-82729845D01*
X103871500Y-82725000D01*
X105822498Y-82725000D01*
X105822499Y-82724999D01*
X105822499Y-82345796D01*
X105819649Y-82315399D01*
X105819649Y-82315397D01*
X105774845Y-82187352D01*
X105694292Y-82078209D01*
X105694290Y-82078207D01*
X105585145Y-81997653D01*
X105571686Y-81992944D01*
X105523006Y-81955879D01*
X105505409Y-81897278D01*
X105525617Y-81839527D01*
X105575912Y-81804683D01*
X105604384Y-81800500D01*
X175547006Y-81800500D01*
X175569053Y-81807663D01*
G37*
%TD.AperFunction*%
%TD*%
M02*
