%TF.GenerationSoftware,KiCad,Pcbnew,10.0.0*%
%TF.CreationDate,2026-04-09T11:15:40-07:00*%
%TF.ProjectId,combined,636f6d62-696e-4656-942e-6b696361645f,rev?*%
%TF.SameCoordinates,Original*%
%TF.FileFunction,Copper,L2,Inr*%
%TF.FilePolarity,Positive*%
%FSLAX46Y46*%
G04 Gerber Fmt 4.6, Leading zero omitted, Abs format (unit mm)*
G04 Created by KiCad (PCBNEW 10.0.0) date 2026-04-09 11:15:40*
%MOMM*%
%LPD*%
G01*
G04 APERTURE LIST*
G04 Aperture macros list*
%AMRoundRect*
0 Rectangle with rounded corners*
0 $1 Rounding radius*
0 $2 $3 $4 $5 $6 $7 $8 $9 X,Y pos of 4 corners*
0 Add a 4 corners polygon primitive as box body*
4,1,4,$2,$3,$4,$5,$6,$7,$8,$9,$2,$3,0*
0 Add four circle primitives for the rounded corners*
1,1,$1+$1,$2,$3*
1,1,$1+$1,$4,$5*
1,1,$1+$1,$6,$7*
1,1,$1+$1,$8,$9*
0 Add four rect primitives between the rounded corners*
20,1,$1+$1,$2,$3,$4,$5,0*
20,1,$1+$1,$4,$5,$6,$7,0*
20,1,$1+$1,$6,$7,$8,$9,0*
20,1,$1+$1,$8,$9,$2,$3,0*%
G04 Aperture macros list end*
%TA.AperFunction,ComponentPad*%
%ADD10C,3.600000*%
%TD*%
%TA.AperFunction,ComponentPad*%
%ADD11R,2.000000X2.000000*%
%TD*%
%TA.AperFunction,ComponentPad*%
%ADD12C,2.000000*%
%TD*%
%TA.AperFunction,ComponentPad*%
%ADD13R,3.200000X2.000000*%
%TD*%
%TA.AperFunction,ComponentPad*%
%ADD14R,1.700000X1.700000*%
%TD*%
%TA.AperFunction,ComponentPad*%
%ADD15C,1.700000*%
%TD*%
%TA.AperFunction,ComponentPad*%
%ADD16R,3.500000X3.500000*%
%TD*%
%TA.AperFunction,ComponentPad*%
%ADD17RoundRect,0.750000X0.750000X1.000000X-0.750000X1.000000X-0.750000X-1.000000X0.750000X-1.000000X0*%
%TD*%
%TA.AperFunction,ComponentPad*%
%ADD18RoundRect,0.875000X0.875000X0.875000X-0.875000X0.875000X-0.875000X-0.875000X0.875000X-0.875000X0*%
%TD*%
%TA.AperFunction,WasherPad*%
%ADD19C,3.000000*%
%TD*%
%TA.AperFunction,ComponentPad*%
%ADD20C,1.600000*%
%TD*%
%TA.AperFunction,ViaPad*%
%ADD21C,0.600000*%
%TD*%
G04 APERTURE END LIST*
D10*
%TO.N,GND*%
%TO.C,H1*%
X104410000Y-138300000D03*
%TD*%
D11*
%TO.N,ENCODER_A*%
%TO.C,SW1*%
X109860000Y-131200000D03*
D12*
%TO.N,ENCODER_B*%
X109860000Y-136200000D03*
%TO.N,GND*%
X109860000Y-133700000D03*
D13*
X117360000Y-128100000D03*
X117360000Y-139300000D03*
D12*
%TO.N,ENCODER_SW*%
X124360000Y-136200000D03*
%TO.N,GND*%
X124360000Y-131200000D03*
%TD*%
D10*
%TO.N,GND*%
%TO.C,H4*%
X159410000Y-138300000D03*
%TD*%
D14*
%TO.N,Net-(A1-SWCLK)*%
%TO.C,J2*%
X140770000Y-135700000D03*
D15*
%TO.N,GND*%
X143310000Y-135700000D03*
%TO.N,Net-(A1-SWDIO)*%
X145850000Y-135700000D03*
%TD*%
D16*
%TO.N,Net-(U1-VI)*%
%TO.C,J1*%
X174200000Y-88357500D03*
D17*
%TO.N,GND*%
X180200000Y-88357500D03*
D18*
%TO.N,N/C*%
X177200000Y-83657500D03*
%TD*%
D10*
%TO.N,GND*%
%TO.C,H2*%
X104410000Y-96300000D03*
%TD*%
D19*
%TO.N,*%
%TO.C,U4*%
X106505000Y-102105000D03*
X106505000Y-124105000D03*
X128505000Y-102105000D03*
X128505000Y-124105000D03*
D20*
%TO.N,GND*%
X113695000Y-101605000D03*
%TO.N,+3.3V*%
X116235000Y-101605000D03*
%TO.N,I2C_SCL*%
X118775000Y-101605000D03*
%TO.N,I2C_SDA*%
X121315000Y-101605000D03*
%TD*%
D14*
%TO.N,Net-(J3-Pin_1)*%
%TO.C,J3*%
X187410000Y-124200000D03*
D15*
%TO.N,Net-(J3-Pin_2)*%
X187410000Y-126740000D03*
%TD*%
D14*
%TO.N,Net-(J7-Pin_1)*%
%TO.C,J7*%
X187410000Y-137525000D03*
D15*
%TO.N,Net-(J7-Pin_2)*%
X187410000Y-134985000D03*
%TD*%
D21*
%TO.N,GND*%
X163000000Y-119000000D03*
X165000000Y-119000000D03*
X181000000Y-116000000D03*
X179000000Y-116000000D03*
X181000000Y-113000000D03*
X179000000Y-113000000D03*
X179000000Y-105000000D03*
X179000000Y-102000000D03*
X179000000Y-99000000D03*
X181000000Y-105000000D03*
X181000000Y-102000000D03*
X181000000Y-99000000D03*
X186000000Y-110000000D03*
X183000000Y-140000000D03*
X185000000Y-131000000D03*
X173000000Y-139000000D03*
X175000000Y-139000000D03*
X179000000Y-139000000D03*
X177000000Y-139000000D03*
%TO.N,OUT_R*%
X167610000Y-138500000D03*
X168510000Y-110100000D03*
%TO.N,GND*%
X115000000Y-83000000D03*
X185000000Y-94000000D03*
X177000000Y-131000000D03*
X144000000Y-127000000D03*
X183000000Y-90000000D03*
X140000000Y-109000000D03*
X165000000Y-94000000D03*
X171000000Y-94000000D03*
X144000000Y-115000000D03*
X129000000Y-85000000D03*
X165000000Y-96000000D03*
X121000000Y-83000000D03*
X146000000Y-121000000D03*
X175000000Y-96000000D03*
X110000000Y-122000000D03*
X148000000Y-121000000D03*
X148000000Y-111000000D03*
X159000000Y-127000000D03*
X104000000Y-109000000D03*
X148000000Y-125000000D03*
X108000000Y-120000000D03*
X142000000Y-101000000D03*
X127000000Y-107000000D03*
X144000000Y-95000000D03*
X170550000Y-88100000D03*
X148000000Y-115000000D03*
X148000000Y-89000000D03*
X104000000Y-122000000D03*
X144000000Y-105000000D03*
X142000000Y-111000000D03*
X102500000Y-90500000D03*
X144000000Y-125000000D03*
X130000000Y-88800000D03*
X123000000Y-115000000D03*
X179000000Y-129000000D03*
X183000000Y-88000000D03*
X185000000Y-96000000D03*
X113000000Y-115000000D03*
X121000000Y-125000000D03*
X103500000Y-90500000D03*
X169000000Y-94000000D03*
X148000000Y-123000000D03*
X140000000Y-115000000D03*
X187000000Y-88000000D03*
X107000000Y-127000000D03*
X119000000Y-83000000D03*
X168500000Y-104000000D03*
X112000000Y-118000000D03*
X146000000Y-101000000D03*
X144000000Y-111000000D03*
X107000000Y-86000000D03*
X104000000Y-105000000D03*
X116000000Y-125000000D03*
X146000000Y-105000000D03*
X108000000Y-85000000D03*
X116000000Y-113000000D03*
X142000000Y-127000000D03*
X171000000Y-121000000D03*
X113000000Y-107000000D03*
X119000000Y-85000000D03*
X140000000Y-103000000D03*
X148000000Y-101000000D03*
X159710000Y-108700000D03*
X169000000Y-96000000D03*
X112000000Y-125000000D03*
X146000000Y-91000000D03*
X104000000Y-111000000D03*
X112000000Y-120000000D03*
X173000000Y-131000000D03*
X163000000Y-121000000D03*
X146000000Y-93000000D03*
X117000000Y-87000000D03*
X142000000Y-129000000D03*
X185000000Y-90000000D03*
X107000000Y-131000000D03*
X113000000Y-109000000D03*
X148000000Y-95000000D03*
X140000000Y-129000000D03*
X183000000Y-84000000D03*
X187000000Y-90000000D03*
X148000000Y-129000000D03*
X146000000Y-99000000D03*
X115000000Y-87000000D03*
X148000000Y-109000000D03*
X188000000Y-113000000D03*
X138000000Y-125000000D03*
X170550000Y-87350000D03*
X104000000Y-127000000D03*
X116000000Y-118000000D03*
X107000000Y-129000000D03*
X163000000Y-94000000D03*
X116000000Y-115000000D03*
X179000000Y-131000000D03*
X140000000Y-107000000D03*
X114000000Y-122000000D03*
X127000000Y-111000000D03*
X114000000Y-120000000D03*
X146000000Y-111000000D03*
X113000000Y-113000000D03*
X108000000Y-111000000D03*
X144000000Y-109000000D03*
X146000000Y-95000000D03*
X108000000Y-115000000D03*
X170550000Y-88850000D03*
X113000000Y-83000000D03*
X185000000Y-86000000D03*
X123000000Y-125000000D03*
X179000000Y-96000000D03*
X119000000Y-120000000D03*
X146000000Y-103000000D03*
X129000000Y-88800000D03*
X123000000Y-111000000D03*
X116000000Y-109000000D03*
X140000000Y-125000000D03*
X187000000Y-84000000D03*
X127000000Y-113000000D03*
X187000000Y-86000000D03*
X165210000Y-107300000D03*
X142000000Y-109000000D03*
X140000000Y-105000000D03*
X107500000Y-82000000D03*
X127000000Y-122000000D03*
X165000000Y-121000000D03*
X140000000Y-99000000D03*
X107000000Y-133000000D03*
X165210000Y-111900000D03*
X104500000Y-90500000D03*
X171000000Y-96000000D03*
X146000000Y-115000000D03*
X116000000Y-120000000D03*
X187000000Y-92000000D03*
X140000000Y-101000000D03*
X186000000Y-116000000D03*
X123000000Y-122000000D03*
X123000000Y-120000000D03*
X108000000Y-107000000D03*
X185000000Y-92000000D03*
X104000000Y-135000000D03*
X187000000Y-96000000D03*
X148000000Y-113000000D03*
X144000000Y-99000000D03*
X183000000Y-94000000D03*
X144000000Y-89000000D03*
X179000000Y-133000000D03*
X181000000Y-94000000D03*
X144000000Y-101000000D03*
X116000000Y-111000000D03*
X144000000Y-107000000D03*
X183000000Y-92000000D03*
X177000000Y-94000000D03*
X104000000Y-129000000D03*
X142000000Y-113000000D03*
X142000000Y-103000000D03*
X107000000Y-135000000D03*
X146000000Y-129000000D03*
X125000000Y-122000000D03*
X159000000Y-131000000D03*
X142000000Y-125000000D03*
X140000000Y-127000000D03*
X159000000Y-121000000D03*
X188000000Y-105000000D03*
X121000000Y-87000000D03*
X173000000Y-121000000D03*
X108000000Y-118000000D03*
X112000000Y-122000000D03*
X142000000Y-121000000D03*
X146000000Y-113000000D03*
X144000000Y-93000000D03*
X142000000Y-123000000D03*
X144000000Y-123000000D03*
X188000000Y-102000000D03*
X142000000Y-105000000D03*
X113000000Y-85000000D03*
X117000000Y-85000000D03*
X148000000Y-107000000D03*
X123000000Y-109000000D03*
X110000000Y-118000000D03*
X177000000Y-133000000D03*
X104000000Y-131000000D03*
X125000000Y-120000000D03*
X108000000Y-109000000D03*
X186000000Y-105000000D03*
X127000000Y-120000000D03*
X140000000Y-111000000D03*
X142000000Y-107000000D03*
X175000000Y-94000000D03*
X163000000Y-96000000D03*
X121000000Y-85000000D03*
X104000000Y-133000000D03*
X173000000Y-94000000D03*
X108000000Y-113000000D03*
X121000000Y-120000000D03*
X148000000Y-91000000D03*
X148000000Y-93000000D03*
X116000000Y-107000000D03*
X173000000Y-105000000D03*
X110000000Y-120000000D03*
X167000000Y-96000000D03*
X175000000Y-131000000D03*
X140000000Y-121000000D03*
X140000000Y-113000000D03*
X177000000Y-96000000D03*
X114000000Y-118000000D03*
X148000000Y-103000000D03*
X148000000Y-105000000D03*
X104000000Y-113000000D03*
X127000000Y-109000000D03*
X110000000Y-125000000D03*
X117000000Y-83000000D03*
X144000000Y-121000000D03*
X175000000Y-121000000D03*
X146000000Y-89000000D03*
X156000000Y-111000000D03*
X188000000Y-116000000D03*
X104000000Y-116000000D03*
X146000000Y-127000000D03*
X118000000Y-125000000D03*
X167000000Y-94000000D03*
X186000000Y-113000000D03*
X129000000Y-83000000D03*
X186000000Y-102000000D03*
X104000000Y-124000000D03*
X104000000Y-107000000D03*
X185000000Y-84000000D03*
X113000000Y-111000000D03*
X185000000Y-88000000D03*
X138000000Y-123000000D03*
X177000000Y-129000000D03*
X104000000Y-118000000D03*
X142000000Y-115000000D03*
X159000000Y-125000000D03*
X116000000Y-122000000D03*
X146000000Y-107000000D03*
X138000000Y-127000000D03*
X106500000Y-82000000D03*
X148000000Y-127000000D03*
X140000000Y-123000000D03*
X146000000Y-123000000D03*
X123000000Y-107000000D03*
X138000000Y-129000000D03*
X170550000Y-86600000D03*
X125000000Y-125000000D03*
X104000000Y-120000000D03*
X173000000Y-103000000D03*
X164000000Y-108000000D03*
X127650000Y-98450000D03*
X159000000Y-129000000D03*
X173000000Y-96000000D03*
X181000000Y-96000000D03*
X183000000Y-96000000D03*
X144000000Y-129000000D03*
X174310000Y-135300000D03*
X114000000Y-125000000D03*
X144000000Y-113000000D03*
X144000000Y-91000000D03*
X187000000Y-94000000D03*
X106500000Y-83000000D03*
X119000000Y-87000000D03*
X115000000Y-85000000D03*
X123000000Y-113000000D03*
X148000000Y-99000000D03*
X146000000Y-125000000D03*
X142000000Y-99000000D03*
X146000000Y-109000000D03*
X121000000Y-122000000D03*
X179000000Y-94000000D03*
X159000000Y-123000000D03*
X113000000Y-87000000D03*
X129000000Y-90000000D03*
X169000000Y-121000000D03*
X127000000Y-115000000D03*
X174210000Y-126800000D03*
X183000000Y-86000000D03*
X124400000Y-97500000D03*
X118000000Y-122000000D03*
%TO.N,+5V*%
X160210000Y-102200000D03*
X160210000Y-131200000D03*
X166310000Y-135100000D03*
X149860000Y-85700000D03*
X149160000Y-85700000D03*
X150560000Y-85700000D03*
%TO.N,OUT_L*%
X168310000Y-108400000D03*
X166410000Y-123600000D03*
%TO.N,I2C_SDA*%
X155310000Y-118700000D03*
X162810000Y-104700000D03*
%TO.N,+3.3V*%
X155110000Y-93300000D03*
X156410000Y-93300000D03*
X157760000Y-108100000D03*
X111410000Y-87600000D03*
X155810000Y-93300000D03*
X159560000Y-113150000D03*
%TO.N,I2C_SCL*%
X162310000Y-104009500D03*
X150410000Y-116100000D03*
%TO.N,OUT_DET*%
X169610000Y-113500000D03*
X130810000Y-85700000D03*
%TO.N,SPI_MISO*%
X127450000Y-89600000D03*
X131350000Y-95800000D03*
%TO.N,RADIO_RST*%
X111300000Y-89600000D03*
X136450000Y-103500000D03*
%TO.N,RADIO_DIO0*%
X111400000Y-91600000D03*
X136400000Y-106050000D03*
%TO.N,RADIO_DIO1*%
X111400000Y-93600000D03*
X135700000Y-108600000D03*
%TO.N,RADIO_DIO2*%
X111450000Y-95650000D03*
X131086000Y-111100000D03*
%TO.N,DAC_LRCK*%
X156960000Y-123900000D03*
X155579000Y-123900000D03*
%TO.N,ADC_I2S*%
X162310000Y-105600000D03*
X155310000Y-106100000D03*
%TD*%
%TA.AperFunction,Conductor*%
%TO.N,GND*%
G36*
X175561917Y-81805345D02*
G01*
X175572317Y-81808724D01*
X175621818Y-81844687D01*
X175640726Y-81902878D01*
X175626136Y-81954609D01*
X175623130Y-81959514D01*
X175610909Y-81969950D01*
X175612806Y-81971790D01*
X175552443Y-82034053D01*
X175551367Y-82035145D01*
X175491883Y-82094629D01*
X175376764Y-82264719D01*
X175295909Y-82453533D01*
X175252249Y-82654237D01*
X175249500Y-82700387D01*
X175249500Y-84614612D01*
X175252249Y-84660761D01*
X175295909Y-84861465D01*
X175376764Y-85050279D01*
X175477758Y-85199500D01*
X175491883Y-85220369D01*
X175491885Y-85220371D01*
X175491888Y-85220375D01*
X175637125Y-85365612D01*
X175637128Y-85365614D01*
X175637130Y-85365616D01*
X175807220Y-85480735D01*
X175807223Y-85480737D01*
X175996035Y-85561591D01*
X176196737Y-85605251D01*
X176242882Y-85608000D01*
X176242895Y-85608000D01*
X178157105Y-85608000D01*
X178157118Y-85608000D01*
X178203263Y-85605251D01*
X178403965Y-85561591D01*
X178592777Y-85480737D01*
X178762875Y-85365612D01*
X178908112Y-85220375D01*
X179023237Y-85050277D01*
X179104091Y-84861465D01*
X179147751Y-84660763D01*
X179150500Y-84614618D01*
X179150500Y-82700382D01*
X179147751Y-82654237D01*
X179104091Y-82453535D01*
X179023237Y-82264723D01*
X179023235Y-82264720D01*
X178908116Y-82094630D01*
X178908114Y-82094628D01*
X178908112Y-82094625D01*
X178854351Y-82040864D01*
X178794073Y-81980585D01*
X178775870Y-81955530D01*
X178770903Y-81945782D01*
X178761334Y-81885354D01*
X178789113Y-81830838D01*
X178836016Y-81804576D01*
X178841613Y-81803233D01*
X178864712Y-81800500D01*
X187404696Y-81800500D01*
X187408194Y-81800561D01*
X187411786Y-81800690D01*
X187415230Y-81800874D01*
X187438503Y-81802537D01*
X187438504Y-81802538D01*
X187438505Y-81802538D01*
X187612825Y-81815006D01*
X187619836Y-81815760D01*
X187621990Y-81816069D01*
X187626804Y-81816761D01*
X187633739Y-81818011D01*
X187822119Y-81858990D01*
X187828924Y-81860728D01*
X187835721Y-81862724D01*
X187842385Y-81864942D01*
X188022981Y-81932300D01*
X188029493Y-81934998D01*
X188035912Y-81937929D01*
X188042224Y-81941089D01*
X188102030Y-81973746D01*
X188211369Y-82033450D01*
X188217440Y-82037051D01*
X188223391Y-82040875D01*
X188229179Y-82044894D01*
X188383463Y-82160389D01*
X188388964Y-82164822D01*
X188394288Y-82169435D01*
X188399463Y-82174252D01*
X188535746Y-82310535D01*
X188540563Y-82315710D01*
X188545176Y-82321034D01*
X188549598Y-82326521D01*
X188665104Y-82480818D01*
X188669125Y-82486611D01*
X188672937Y-82492541D01*
X188672942Y-82492549D01*
X188676545Y-82498622D01*
X188768908Y-82667772D01*
X188772070Y-82674088D01*
X188774994Y-82680490D01*
X188777700Y-82687023D01*
X188845047Y-82867589D01*
X188847276Y-82874285D01*
X188849264Y-82881053D01*
X188851015Y-82887910D01*
X188891983Y-83076238D01*
X188893236Y-83083187D01*
X188894237Y-83090146D01*
X188894238Y-83090156D01*
X188894993Y-83097178D01*
X188909121Y-83294716D01*
X188909310Y-83298256D01*
X188909435Y-83301767D01*
X188909498Y-83305307D01*
X188899563Y-138944742D01*
X188899512Y-139227956D01*
X188899500Y-139228154D01*
X188899500Y-139294687D01*
X188899437Y-139298220D01*
X188899311Y-139301748D01*
X188899122Y-139305278D01*
X188884993Y-139502821D01*
X188884238Y-139509842D01*
X188883238Y-139516800D01*
X188881983Y-139523760D01*
X188841015Y-139712088D01*
X188839264Y-139718945D01*
X188837276Y-139725713D01*
X188835047Y-139732409D01*
X188767700Y-139912975D01*
X188764994Y-139919508D01*
X188762070Y-139925910D01*
X188758908Y-139932226D01*
X188666545Y-140101376D01*
X188662942Y-140107449D01*
X188659134Y-140113375D01*
X188655101Y-140119185D01*
X188539609Y-140273464D01*
X188535176Y-140278964D01*
X188530563Y-140284288D01*
X188525746Y-140289463D01*
X188389463Y-140425746D01*
X188384288Y-140430563D01*
X188378964Y-140435176D01*
X188373463Y-140439609D01*
X188292793Y-140499999D01*
X188219185Y-140555101D01*
X188213375Y-140559134D01*
X188207449Y-140562942D01*
X188201376Y-140566545D01*
X188032226Y-140658908D01*
X188025910Y-140662070D01*
X188019508Y-140664994D01*
X188012975Y-140667700D01*
X187832409Y-140735047D01*
X187825713Y-140737276D01*
X187818945Y-140739264D01*
X187812088Y-140741015D01*
X187623760Y-140781983D01*
X187616806Y-140783236D01*
X187611929Y-140783938D01*
X187609842Y-140784238D01*
X187602821Y-140784993D01*
X187405279Y-140799122D01*
X187401756Y-140799311D01*
X187398214Y-140799437D01*
X187394696Y-140799500D01*
X103405304Y-140799500D01*
X103401784Y-140799437D01*
X103398243Y-140799311D01*
X103394720Y-140799122D01*
X103197177Y-140784993D01*
X103190156Y-140784238D01*
X103183187Y-140783236D01*
X103176238Y-140781983D01*
X102987910Y-140741015D01*
X102981053Y-140739264D01*
X102974285Y-140737276D01*
X102967589Y-140735047D01*
X102787023Y-140667700D01*
X102780490Y-140664994D01*
X102774088Y-140662070D01*
X102767772Y-140658908D01*
X102598622Y-140566545D01*
X102592549Y-140562942D01*
X102586611Y-140559125D01*
X102580831Y-140555113D01*
X102426521Y-140439598D01*
X102421034Y-140435176D01*
X102415710Y-140430563D01*
X102410535Y-140425746D01*
X102274252Y-140289463D01*
X102269435Y-140284288D01*
X102264822Y-140278964D01*
X102260402Y-140273481D01*
X102144880Y-140119161D01*
X102140887Y-140113410D01*
X102137038Y-140107421D01*
X102133468Y-140101403D01*
X102102815Y-140045266D01*
X102041090Y-139932226D01*
X102037929Y-139925912D01*
X102037928Y-139925910D01*
X102034998Y-139919493D01*
X102032296Y-139912970D01*
X101964946Y-139732396D01*
X101962724Y-139725721D01*
X101960728Y-139718924D01*
X101958990Y-139712119D01*
X101918014Y-139523752D01*
X101916762Y-139516807D01*
X101915761Y-139509845D01*
X101915006Y-139502834D01*
X101900875Y-139305242D01*
X101900689Y-139301783D01*
X101900561Y-139298189D01*
X101900500Y-139294695D01*
X101900500Y-138280294D01*
X115560000Y-138280294D01*
X115560000Y-138280299D01*
X115560000Y-139199999D01*
X115560001Y-139200000D01*
X115861000Y-139200000D01*
X115919191Y-139218907D01*
X115955155Y-139268407D01*
X115960000Y-139299000D01*
X115960000Y-139301000D01*
X115941093Y-139359191D01*
X115891593Y-139395155D01*
X115861000Y-139400000D01*
X115560001Y-139400000D01*
X115560000Y-139400001D01*
X115560000Y-139400002D01*
X115560000Y-140319704D01*
X115571602Y-140378033D01*
X115571603Y-140378036D01*
X115612745Y-140439609D01*
X115615806Y-140444189D01*
X115615810Y-140444193D01*
X115681963Y-140488396D01*
X115737958Y-140499533D01*
X115739711Y-140499926D01*
X115740297Y-140499998D01*
X115740299Y-140499999D01*
X115740303Y-140500000D01*
X117259998Y-140500000D01*
X117259999Y-140500000D01*
X117260000Y-140499999D01*
X117260000Y-140149000D01*
X117278907Y-140090809D01*
X117328407Y-140054845D01*
X117359000Y-140050000D01*
X117361000Y-140050000D01*
X117419191Y-140068907D01*
X117455155Y-140118407D01*
X117460000Y-140149000D01*
X117460000Y-140499999D01*
X117460001Y-140500000D01*
X117460002Y-140500000D01*
X118979697Y-140500000D01*
X118979699Y-140500000D01*
X118983617Y-140499363D01*
X118985792Y-140498787D01*
X119017271Y-140492526D01*
X119038032Y-140488397D01*
X119038032Y-140488396D01*
X119038036Y-140488396D01*
X119104189Y-140444193D01*
X119104193Y-140444189D01*
X119148396Y-140378036D01*
X119158787Y-140325792D01*
X119159363Y-140323617D01*
X119160000Y-140319698D01*
X119160000Y-139400002D01*
X119160000Y-139400001D01*
X119159999Y-139400000D01*
X119159998Y-139400000D01*
X118859000Y-139400000D01*
X118800809Y-139381093D01*
X118764845Y-139331593D01*
X118760000Y-139301000D01*
X118760000Y-139299000D01*
X118778907Y-139240809D01*
X118828407Y-139204845D01*
X118859000Y-139200000D01*
X119159998Y-139200000D01*
X119159999Y-139200000D01*
X119160000Y-139199999D01*
X119160000Y-138434108D01*
X167109500Y-138434108D01*
X167109500Y-138565892D01*
X167139579Y-138678151D01*
X167143609Y-138693190D01*
X167209496Y-138807309D01*
X167209498Y-138807311D01*
X167209500Y-138807314D01*
X167302686Y-138900500D01*
X167302688Y-138900501D01*
X167302690Y-138900503D01*
X167303237Y-138900898D01*
X167305239Y-138901975D01*
X167349207Y-138927359D01*
X167360040Y-138933614D01*
X167381634Y-138957596D01*
X167415944Y-138966174D01*
X167417548Y-138966588D01*
X167544108Y-139000500D01*
X167544110Y-139000500D01*
X167675890Y-139000500D01*
X167675892Y-139000500D01*
X167803186Y-138966392D01*
X167803188Y-138966390D01*
X167803190Y-138966390D01*
X167911190Y-138904035D01*
X167914067Y-138902639D01*
X167914853Y-138902122D01*
X167919862Y-138899028D01*
X167921161Y-138898277D01*
X167926519Y-138891294D01*
X168010500Y-138807314D01*
X168076392Y-138693186D01*
X168110500Y-138565892D01*
X168110500Y-138434108D01*
X168076392Y-138306814D01*
X168076390Y-138306811D01*
X168076390Y-138306809D01*
X168076383Y-138306798D01*
X168076066Y-138306094D01*
X168074812Y-138304076D01*
X168010503Y-138192690D01*
X168010501Y-138192688D01*
X168010500Y-138192686D01*
X167917314Y-138099500D01*
X167917311Y-138099498D01*
X167917309Y-138099496D01*
X167917302Y-138099492D01*
X167860476Y-138066683D01*
X167839442Y-138043322D01*
X167753799Y-138020375D01*
X167753798Y-138020374D01*
X167696766Y-138005093D01*
X167675892Y-137999500D01*
X167675891Y-137999500D01*
X167544109Y-137999500D01*
X167544108Y-137999500D01*
X167505154Y-138009937D01*
X167466199Y-138020375D01*
X167466198Y-138020374D01*
X167416807Y-138033609D01*
X167416805Y-138033610D01*
X167302694Y-138099492D01*
X167209492Y-138192694D01*
X167143608Y-138306809D01*
X167143330Y-138307545D01*
X167142784Y-138309886D01*
X167110998Y-138428518D01*
X167109500Y-138434108D01*
X119160000Y-138434108D01*
X119160000Y-138280302D01*
X119159999Y-138280299D01*
X119148396Y-138221963D01*
X119104193Y-138155810D01*
X119104189Y-138155806D01*
X119038036Y-138111603D01*
X119038033Y-138111602D01*
X118979704Y-138100000D01*
X118979700Y-138100000D01*
X117460001Y-138100000D01*
X117460000Y-138100001D01*
X117460000Y-138100002D01*
X117460000Y-138451000D01*
X117441093Y-138509191D01*
X117391593Y-138545155D01*
X117361000Y-138550000D01*
X117359000Y-138550000D01*
X117300809Y-138531093D01*
X117264845Y-138481593D01*
X117260000Y-138451000D01*
X117260000Y-138100002D01*
X117260000Y-138100001D01*
X117259999Y-138100000D01*
X117259998Y-138100000D01*
X115740294Y-138100000D01*
X115681965Y-138111602D01*
X115681962Y-138111603D01*
X115615813Y-138155803D01*
X115615803Y-138155813D01*
X115571603Y-138221962D01*
X115571602Y-138221965D01*
X115560000Y-138280294D01*
X101900500Y-138280294D01*
X101900500Y-130180245D01*
X108659500Y-130180245D01*
X108659500Y-132219753D01*
X108660809Y-132226336D01*
X108671132Y-132278227D01*
X108671133Y-132278231D01*
X108715448Y-132344552D01*
X108781769Y-132388867D01*
X108804000Y-132393289D01*
X108826228Y-132397711D01*
X108826231Y-132397711D01*
X108834159Y-132399288D01*
X108836324Y-132399861D01*
X108838514Y-132400217D01*
X108840081Y-132400500D01*
X108840252Y-132400500D01*
X108840253Y-132400500D01*
X109339141Y-132400500D01*
X109361889Y-132407891D01*
X109377564Y-132407890D01*
X109390252Y-132417106D01*
X109397332Y-132419407D01*
X109400297Y-132421648D01*
X109406466Y-132426494D01*
X109405270Y-132428015D01*
X109427067Y-132443849D01*
X109445980Y-132502038D01*
X109427078Y-132560230D01*
X109425408Y-132562529D01*
X109390254Y-132592556D01*
X109231383Y-132673503D01*
X109231082Y-132673654D01*
X109231056Y-132673670D01*
X109082804Y-132781381D01*
X109082803Y-132781382D01*
X109507154Y-133205733D01*
X109534931Y-133260249D01*
X109525360Y-133320681D01*
X109507154Y-133345740D01*
X109505740Y-133347154D01*
X109451223Y-133374931D01*
X109390791Y-133365360D01*
X109365733Y-133347154D01*
X108941382Y-132922803D01*
X108941381Y-132922804D01*
X108833670Y-133071056D01*
X108833656Y-133071079D01*
X108833530Y-133071331D01*
X108747914Y-133239363D01*
X108689544Y-133419007D01*
X108660000Y-133605550D01*
X108660000Y-133794448D01*
X108689544Y-133980991D01*
X108747914Y-134160635D01*
X108833527Y-134328662D01*
X108833660Y-134328927D01*
X108833671Y-134328945D01*
X108941381Y-134477193D01*
X108941382Y-134477194D01*
X109171095Y-134247479D01*
X109365731Y-134052845D01*
X109420248Y-134025067D01*
X109480680Y-134034638D01*
X109505735Y-134052841D01*
X109507154Y-134054260D01*
X109534930Y-134108775D01*
X109525359Y-134169207D01*
X109507153Y-134194265D01*
X109082803Y-134618614D01*
X109082804Y-134618616D01*
X109231053Y-134726327D01*
X109231068Y-134726336D01*
X109231318Y-134726462D01*
X109399364Y-134812085D01*
X109518320Y-134850736D01*
X109545924Y-134864802D01*
X109552593Y-134869648D01*
X109588554Y-134919151D01*
X109588550Y-134980336D01*
X109552585Y-135029831D01*
X109545916Y-135034676D01*
X109518321Y-135048736D01*
X109399173Y-135087449D01*
X109399170Y-135087451D01*
X109230803Y-135173237D01*
X109230797Y-135173241D01*
X109077933Y-135284304D01*
X108944304Y-135417933D01*
X108833241Y-135570797D01*
X108833237Y-135570803D01*
X108747451Y-135739170D01*
X108747449Y-135739173D01*
X108689057Y-135918885D01*
X108659500Y-136105510D01*
X108659500Y-136294488D01*
X108689057Y-136481113D01*
X108747449Y-136660825D01*
X108747453Y-136660834D01*
X108792884Y-136749998D01*
X108833236Y-136829193D01*
X108833237Y-136829195D01*
X108833238Y-136829196D01*
X108833240Y-136829199D01*
X108944310Y-136982073D01*
X109077927Y-137115690D01*
X109230801Y-137226760D01*
X109399168Y-137312547D01*
X109578882Y-137370940D01*
X109578883Y-137370940D01*
X109578886Y-137370941D01*
X109698169Y-137389833D01*
X109765513Y-137400500D01*
X109954484Y-137400500D01*
X109954487Y-137400500D01*
X110028692Y-137388746D01*
X110141113Y-137370941D01*
X110141113Y-137370940D01*
X110141115Y-137370940D01*
X110141118Y-137370940D01*
X110141121Y-137370939D01*
X110143697Y-137370531D01*
X110148504Y-137368539D01*
X110320832Y-137312547D01*
X110489199Y-137226760D01*
X110642073Y-137115690D01*
X110775690Y-136982073D01*
X110886760Y-136829199D01*
X110972547Y-136660832D01*
X111030940Y-136481118D01*
X111048594Y-136369655D01*
X111054547Y-136332069D01*
X111060500Y-136294485D01*
X111060500Y-136105511D01*
X111060500Y-136105510D01*
X123159500Y-136105510D01*
X123159500Y-136294488D01*
X123189057Y-136481113D01*
X123247449Y-136660825D01*
X123247453Y-136660834D01*
X123292884Y-136749998D01*
X123333236Y-136829193D01*
X123333237Y-136829195D01*
X123333238Y-136829196D01*
X123333240Y-136829199D01*
X123444310Y-136982073D01*
X123577927Y-137115690D01*
X123730801Y-137226760D01*
X123899168Y-137312547D01*
X124078882Y-137370940D01*
X124078883Y-137370940D01*
X124078886Y-137370941D01*
X124198169Y-137389833D01*
X124265513Y-137400500D01*
X124454484Y-137400500D01*
X124454487Y-137400500D01*
X124528692Y-137388746D01*
X124641113Y-137370941D01*
X124641113Y-137370940D01*
X124641115Y-137370940D01*
X124641118Y-137370940D01*
X124641121Y-137370939D01*
X124643697Y-137370531D01*
X124648504Y-137368539D01*
X124820832Y-137312547D01*
X124989199Y-137226760D01*
X125142073Y-137115690D01*
X125275690Y-136982073D01*
X125386760Y-136829199D01*
X125472547Y-136660832D01*
X125530940Y-136481118D01*
X125548594Y-136369655D01*
X125554547Y-136332069D01*
X125560500Y-136294485D01*
X125560500Y-136105511D01*
X125530941Y-135918888D01*
X125530941Y-135918886D01*
X125522528Y-135892993D01*
X125472547Y-135739168D01*
X125386760Y-135570801D01*
X125275690Y-135417927D01*
X125142073Y-135284310D01*
X125142069Y-135284307D01*
X125142067Y-135284305D01*
X124997658Y-135179385D01*
X124997647Y-135179378D01*
X124989199Y-135173240D01*
X124989198Y-135173239D01*
X124989196Y-135173238D01*
X124820832Y-135087453D01*
X124820831Y-135087452D01*
X124820828Y-135087451D01*
X124820825Y-135087449D01*
X124641113Y-135029057D01*
X124641114Y-135029057D01*
X124454488Y-134999500D01*
X124454484Y-134999500D01*
X124454481Y-134999500D01*
X124265519Y-134999500D01*
X124265516Y-134999500D01*
X124265512Y-134999500D01*
X124078887Y-135029057D01*
X124078881Y-135029058D01*
X123899173Y-135087449D01*
X123899170Y-135087451D01*
X123730803Y-135173237D01*
X123730797Y-135173241D01*
X123577933Y-135284304D01*
X123444304Y-135417933D01*
X123333241Y-135570797D01*
X123333237Y-135570803D01*
X123247451Y-135739170D01*
X123247449Y-135739173D01*
X123189057Y-135918885D01*
X123159500Y-136105510D01*
X111060500Y-136105510D01*
X111030941Y-135918888D01*
X111030941Y-135918886D01*
X111022528Y-135892993D01*
X110972547Y-135739168D01*
X110886760Y-135570801D01*
X110775690Y-135417927D01*
X110642073Y-135284310D01*
X110642069Y-135284307D01*
X110642067Y-135284305D01*
X110497658Y-135179385D01*
X110497647Y-135179378D01*
X110489199Y-135173240D01*
X110489198Y-135173239D01*
X110489196Y-135173238D01*
X110320832Y-135087453D01*
X110305958Y-135082620D01*
X110201677Y-135048736D01*
X110174073Y-135034670D01*
X110167403Y-135029823D01*
X110131444Y-134980320D01*
X110131449Y-134919134D01*
X110167417Y-134869639D01*
X110174089Y-134864791D01*
X110201676Y-134850737D01*
X110264745Y-134830245D01*
X139719500Y-134830245D01*
X139719500Y-136569753D01*
X139731130Y-136628220D01*
X139731131Y-136628224D01*
X139731132Y-136628227D01*
X139731134Y-136628231D01*
X139731135Y-136628235D01*
X139775445Y-136694548D01*
X139775448Y-136694552D01*
X139841769Y-136738867D01*
X139864000Y-136743289D01*
X139886228Y-136747711D01*
X139886231Y-136747711D01*
X139894159Y-136749288D01*
X139896324Y-136749861D01*
X139898514Y-136750217D01*
X139900081Y-136750500D01*
X139900252Y-136750500D01*
X139900253Y-136750500D01*
X141639747Y-136750500D01*
X141639748Y-136750500D01*
X141698231Y-136738867D01*
X141764552Y-136694552D01*
X141808867Y-136628231D01*
X141820500Y-136569748D01*
X141820500Y-135596578D01*
X142260000Y-135596578D01*
X142260000Y-135803418D01*
X142300348Y-136006270D01*
X142379503Y-136197366D01*
X142379507Y-136197373D01*
X142417632Y-136254431D01*
X142494405Y-136369329D01*
X142496826Y-136371750D01*
X142815732Y-136052842D01*
X142870247Y-136025066D01*
X142930679Y-136034637D01*
X142955734Y-136052840D01*
X142957155Y-136054261D01*
X142984931Y-136108776D01*
X142975360Y-136169208D01*
X142957154Y-136194266D01*
X142638249Y-136513172D01*
X142638249Y-136513173D01*
X142640670Y-136515594D01*
X142809226Y-136628220D01*
X142812625Y-136630491D01*
X142812632Y-136630495D01*
X142812637Y-136630497D01*
X142812639Y-136630498D01*
X143003727Y-136709650D01*
X143206581Y-136749999D01*
X143206582Y-136749999D01*
X143206586Y-136750000D01*
X143413409Y-136750000D01*
X143413414Y-136750000D01*
X143413418Y-136749999D01*
X143413419Y-136749998D01*
X143414003Y-136749926D01*
X143415740Y-136749536D01*
X143616272Y-136709650D01*
X143807360Y-136630498D01*
X143807366Y-136630495D01*
X143979333Y-136515591D01*
X143981750Y-136513173D01*
X143662842Y-136194265D01*
X143635067Y-136139751D01*
X143644638Y-136079319D01*
X143662838Y-136054267D01*
X143664264Y-136052841D01*
X143718777Y-136025067D01*
X143779209Y-136034638D01*
X143804264Y-136052841D01*
X144123173Y-136371750D01*
X144125591Y-136369333D01*
X144240495Y-136197366D01*
X144240498Y-136197360D01*
X144319650Y-136006272D01*
X144359999Y-135803418D01*
X144360000Y-135803413D01*
X144360000Y-135596585D01*
X144359999Y-135596582D01*
X144359988Y-135596529D01*
X144799500Y-135596529D01*
X144799500Y-135803469D01*
X144821872Y-135915941D01*
X144839839Y-136006269D01*
X144839869Y-136006417D01*
X144839869Y-136006419D01*
X144919056Y-136197594D01*
X144919057Y-136197596D01*
X144919058Y-136197597D01*
X145033805Y-136369329D01*
X145034023Y-136369655D01*
X145180345Y-136515977D01*
X145352402Y-136630941D01*
X145543580Y-136710130D01*
X145746535Y-136750500D01*
X145746536Y-136750500D01*
X145953464Y-136750500D01*
X145953465Y-136750500D01*
X146156420Y-136710130D01*
X146288923Y-136655245D01*
X186359500Y-136655245D01*
X186359500Y-136655252D01*
X186359500Y-136655253D01*
X186359500Y-138394746D01*
X186359501Y-138394758D01*
X186366217Y-138428518D01*
X186367329Y-138434107D01*
X186367329Y-138434114D01*
X186371132Y-138453229D01*
X186371133Y-138453232D01*
X186371134Y-138453233D01*
X186415448Y-138519552D01*
X186481769Y-138563867D01*
X186504000Y-138568289D01*
X186526228Y-138572711D01*
X186526231Y-138572711D01*
X186534159Y-138574288D01*
X186536324Y-138574861D01*
X186538514Y-138575217D01*
X186540081Y-138575500D01*
X186540252Y-138575500D01*
X186540253Y-138575500D01*
X188279747Y-138575500D01*
X188279748Y-138575500D01*
X188338231Y-138563867D01*
X188404552Y-138519552D01*
X188448867Y-138453231D01*
X188460500Y-138394748D01*
X188460500Y-136655252D01*
X188448867Y-136596769D01*
X188404552Y-136530448D01*
X188404543Y-136530442D01*
X188385968Y-136518030D01*
X188385965Y-136518028D01*
X188382322Y-136515594D01*
X188338233Y-136486134D01*
X188338231Y-136486133D01*
X188338228Y-136486132D01*
X188338227Y-136486132D01*
X188321606Y-136482825D01*
X188321605Y-136482825D01*
X188279768Y-136474503D01*
X188279758Y-136474501D01*
X188279753Y-136474500D01*
X188279750Y-136474500D01*
X188279748Y-136474500D01*
X186540252Y-136474500D01*
X186540251Y-136474500D01*
X186540245Y-136474500D01*
X186481778Y-136486130D01*
X186481763Y-136486135D01*
X186415454Y-136530442D01*
X186415442Y-136530454D01*
X186371135Y-136596763D01*
X186371130Y-136596778D01*
X186359500Y-136655245D01*
X146288923Y-136655245D01*
X146347598Y-136630941D01*
X146351670Y-136628220D01*
X146424231Y-136579737D01*
X146424233Y-136579734D01*
X146441689Y-136568072D01*
X146456075Y-136558459D01*
X146519655Y-136515977D01*
X146665977Y-136369655D01*
X146780941Y-136197598D01*
X146860130Y-136006420D01*
X146900500Y-135803465D01*
X146900500Y-135596535D01*
X146860130Y-135393580D01*
X146780941Y-135202402D01*
X146759810Y-135170777D01*
X146700906Y-135082620D01*
X146668491Y-135034108D01*
X165809500Y-135034108D01*
X165809500Y-135165892D01*
X165810600Y-135169997D01*
X165810600Y-135169998D01*
X165811469Y-135173240D01*
X165839579Y-135278151D01*
X165843609Y-135293190D01*
X165909496Y-135407309D01*
X165909498Y-135407311D01*
X165909500Y-135407314D01*
X166002686Y-135500500D01*
X166002688Y-135500501D01*
X166002690Y-135500503D01*
X166003237Y-135500898D01*
X166005239Y-135501975D01*
X166049207Y-135527359D01*
X166060040Y-135533614D01*
X166081634Y-135557596D01*
X166115944Y-135566174D01*
X166117548Y-135566588D01*
X166244108Y-135600500D01*
X166244110Y-135600500D01*
X166375890Y-135600500D01*
X166375892Y-135600500D01*
X166503186Y-135566392D01*
X166503188Y-135566390D01*
X166503190Y-135566390D01*
X166611190Y-135504035D01*
X166614067Y-135502639D01*
X166614853Y-135502122D01*
X166619862Y-135499028D01*
X166621161Y-135498277D01*
X166626519Y-135491294D01*
X166710500Y-135407314D01*
X166710503Y-135407309D01*
X166776390Y-135293190D01*
X166776390Y-135293188D01*
X166776392Y-135293186D01*
X166810500Y-135165892D01*
X166810500Y-135034108D01*
X166776392Y-134906814D01*
X166764852Y-134886826D01*
X166761794Y-134881529D01*
X186359500Y-134881529D01*
X186359500Y-135088469D01*
X186382163Y-135202402D01*
X186398037Y-135282210D01*
X186399869Y-135291417D01*
X186399869Y-135291419D01*
X186479056Y-135482594D01*
X186555188Y-135596535D01*
X186594022Y-135654654D01*
X186594030Y-135654663D01*
X186678535Y-135739167D01*
X186740345Y-135800977D01*
X186912402Y-135915941D01*
X187103580Y-135995130D01*
X187306535Y-136035500D01*
X187306536Y-136035500D01*
X187513464Y-136035500D01*
X187513465Y-136035500D01*
X187716420Y-135995130D01*
X187907598Y-135915941D01*
X188079655Y-135800977D01*
X188225977Y-135654655D01*
X188340941Y-135482598D01*
X188420130Y-135291420D01*
X188460500Y-135088465D01*
X188460500Y-134881535D01*
X188420130Y-134678580D01*
X188340941Y-134487402D01*
X188225977Y-134315345D01*
X188079655Y-134169023D01*
X188079651Y-134169020D01*
X188002976Y-134117788D01*
X187907594Y-134054056D01*
X187716418Y-133974869D01*
X187513469Y-133934500D01*
X187513467Y-133934500D01*
X187513465Y-133934500D01*
X187306535Y-133934500D01*
X187306532Y-133934500D01*
X187306529Y-133934500D01*
X187103581Y-133974869D01*
X187103579Y-133974869D01*
X186912404Y-134054056D01*
X186740351Y-134169017D01*
X186594017Y-134315351D01*
X186479056Y-134487404D01*
X186399869Y-134678579D01*
X186399869Y-134678581D01*
X186359500Y-134881529D01*
X166761794Y-134881529D01*
X166711602Y-134794594D01*
X166711274Y-134794006D01*
X166711252Y-134793897D01*
X166710793Y-134793044D01*
X166710608Y-134792795D01*
X166710501Y-134792688D01*
X166710500Y-134792686D01*
X166617314Y-134699500D01*
X166617311Y-134699498D01*
X166617309Y-134699496D01*
X166601464Y-134690348D01*
X166560476Y-134666683D01*
X166539442Y-134643322D01*
X166453799Y-134620375D01*
X166453798Y-134620374D01*
X166396766Y-134605093D01*
X166375892Y-134599500D01*
X166375891Y-134599500D01*
X166244109Y-134599500D01*
X166244108Y-134599500D01*
X166205154Y-134609937D01*
X166166199Y-134620375D01*
X166166198Y-134620374D01*
X166116807Y-134633609D01*
X166116805Y-134633610D01*
X166002694Y-134699492D01*
X165909492Y-134792694D01*
X165844221Y-134905747D01*
X165844220Y-134905749D01*
X165843609Y-134906809D01*
X165843608Y-134906814D01*
X165809500Y-135034108D01*
X146668491Y-135034108D01*
X146665979Y-135030348D01*
X146665977Y-135030345D01*
X146519655Y-134884023D01*
X146515933Y-134881536D01*
X146347597Y-134769058D01*
X146347596Y-134769057D01*
X146347594Y-134769056D01*
X146156418Y-134689869D01*
X145953469Y-134649500D01*
X145953467Y-134649500D01*
X145953465Y-134649500D01*
X145746535Y-134649500D01*
X145746532Y-134649500D01*
X145746529Y-134649500D01*
X145543581Y-134689869D01*
X145543579Y-134689869D01*
X145352404Y-134769056D01*
X145180351Y-134884017D01*
X145034017Y-135030351D01*
X144919056Y-135202404D01*
X144839869Y-135393579D01*
X144839869Y-135393581D01*
X144799500Y-135596529D01*
X144359988Y-135596529D01*
X144319650Y-135393727D01*
X144240498Y-135202639D01*
X144240497Y-135202637D01*
X144240495Y-135202632D01*
X144240491Y-135202625D01*
X144220857Y-135173241D01*
X144125594Y-135030670D01*
X144123173Y-135028249D01*
X143804266Y-135347154D01*
X143749750Y-135374931D01*
X143689318Y-135365360D01*
X143664262Y-135347156D01*
X143662841Y-135345735D01*
X143635066Y-135291221D01*
X143644637Y-135230789D01*
X143662840Y-135205734D01*
X143981750Y-134886826D01*
X143979329Y-134884405D01*
X143842598Y-134793044D01*
X143807373Y-134769507D01*
X143807366Y-134769503D01*
X143616270Y-134690348D01*
X143413420Y-134650000D01*
X143413418Y-134650000D01*
X143206581Y-134650000D01*
X143206578Y-134650000D01*
X143003728Y-134690348D01*
X142883896Y-134739985D01*
X142813709Y-134769058D01*
X142812627Y-134769506D01*
X142640665Y-134884409D01*
X142638248Y-134886824D01*
X142638248Y-134886825D01*
X142957156Y-135205733D01*
X142984932Y-135260248D01*
X142975361Y-135320680D01*
X142957155Y-135345739D01*
X142955739Y-135347155D01*
X142901222Y-135374932D01*
X142840790Y-135365361D01*
X142815734Y-135347157D01*
X142496825Y-135028248D01*
X142496824Y-135028248D01*
X142494409Y-135030665D01*
X142379506Y-135202627D01*
X142300348Y-135393728D01*
X142260000Y-135596578D01*
X141820500Y-135596578D01*
X141820500Y-134830252D01*
X141808867Y-134771769D01*
X141764552Y-134705448D01*
X141764548Y-134705445D01*
X141724344Y-134678581D01*
X141698232Y-134661133D01*
X141698227Y-134661131D01*
X141698025Y-134661063D01*
X141696488Y-134660786D01*
X141639768Y-134649503D01*
X141639758Y-134649501D01*
X141639753Y-134649500D01*
X141639750Y-134649500D01*
X141639748Y-134649500D01*
X139900252Y-134649500D01*
X139900251Y-134649500D01*
X139900245Y-134649500D01*
X139841778Y-134661130D01*
X139841763Y-134661135D01*
X139775454Y-134705442D01*
X139775442Y-134705454D01*
X139731135Y-134771763D01*
X139731130Y-134771778D01*
X139719500Y-134830245D01*
X110264745Y-134830245D01*
X110320633Y-134812086D01*
X110467650Y-134737178D01*
X110467651Y-134737177D01*
X110488931Y-134726335D01*
X110488933Y-134726334D01*
X110637194Y-134618615D01*
X110212846Y-134194267D01*
X110185069Y-134139750D01*
X110194640Y-134079318D01*
X110212843Y-134054262D01*
X110214261Y-134052844D01*
X110268776Y-134025069D01*
X110329208Y-134034640D01*
X110354266Y-134052845D01*
X110778615Y-134477194D01*
X110886333Y-134328934D01*
X110972085Y-134160635D01*
X111030453Y-133980996D01*
X111031186Y-133976367D01*
X111060000Y-133794448D01*
X111060000Y-133605550D01*
X111030454Y-133419007D01*
X111016133Y-133374931D01*
X110972085Y-133239364D01*
X110886462Y-133071318D01*
X110886336Y-133071068D01*
X110886327Y-133071053D01*
X110778616Y-132922804D01*
X110778614Y-132922803D01*
X110354265Y-133347153D01*
X110299749Y-133374930D01*
X110239317Y-133365359D01*
X110214261Y-133347155D01*
X110212842Y-133345736D01*
X110185067Y-133291222D01*
X110194638Y-133230790D01*
X110212845Y-133205731D01*
X110407479Y-133011095D01*
X110637194Y-132781382D01*
X110637193Y-132781381D01*
X110488945Y-132673671D01*
X110488930Y-132673662D01*
X110488661Y-132673527D01*
X110334206Y-132594829D01*
X110309147Y-132576623D01*
X110303317Y-132570793D01*
X110275540Y-132516276D01*
X110285111Y-132455844D01*
X110328373Y-132412581D01*
X110329142Y-132412189D01*
X110330939Y-132411275D01*
X110375853Y-132400500D01*
X110879747Y-132400500D01*
X110879748Y-132400500D01*
X110938231Y-132388867D01*
X111004552Y-132344552D01*
X111048867Y-132278231D01*
X111060500Y-132219748D01*
X111060500Y-131294446D01*
X123159999Y-131294446D01*
X123189544Y-131480991D01*
X123247914Y-131660635D01*
X123333527Y-131828662D01*
X123333660Y-131828927D01*
X123333671Y-131828945D01*
X123441381Y-131977193D01*
X123441382Y-131977194D01*
X123671095Y-131747479D01*
X123865731Y-131552845D01*
X123920248Y-131525067D01*
X123980680Y-131534638D01*
X124005735Y-131552841D01*
X124007154Y-131554260D01*
X124034930Y-131608775D01*
X124025359Y-131669207D01*
X124007153Y-131694265D01*
X123582803Y-132118614D01*
X123582804Y-132118616D01*
X123731053Y-132226327D01*
X123731068Y-132226336D01*
X123731318Y-132226462D01*
X123899364Y-132312085D01*
X124079003Y-132370453D01*
X124079004Y-132370453D01*
X124079007Y-132370454D01*
X124265552Y-132400000D01*
X124454445Y-132400000D01*
X124454448Y-132400000D01*
X124640991Y-132370454D01*
X124640992Y-132370453D01*
X124640996Y-132370453D01*
X124820635Y-132312085D01*
X124988934Y-132226333D01*
X125137194Y-132118615D01*
X124712846Y-131694267D01*
X124685069Y-131639750D01*
X124694640Y-131579318D01*
X124712843Y-131554262D01*
X124714261Y-131552844D01*
X124768776Y-131525069D01*
X124829208Y-131534640D01*
X124854266Y-131552845D01*
X125278615Y-131977194D01*
X125386333Y-131828934D01*
X125472085Y-131660635D01*
X125530453Y-131480996D01*
X125531187Y-131476365D01*
X125560000Y-131294445D01*
X125560000Y-131134108D01*
X159709500Y-131134108D01*
X159709500Y-131265892D01*
X159710600Y-131269998D01*
X159710600Y-131270000D01*
X159717150Y-131294443D01*
X159717150Y-131294445D01*
X159717151Y-131294445D01*
X159743609Y-131393190D01*
X159743610Y-131393192D01*
X159743611Y-131393195D01*
X159809494Y-131507307D01*
X159809496Y-131507309D01*
X159809498Y-131507311D01*
X159809500Y-131507314D01*
X159902686Y-131600500D01*
X159902688Y-131600501D01*
X159902690Y-131600503D01*
X159903237Y-131600898D01*
X159905239Y-131601975D01*
X159917018Y-131608775D01*
X159960040Y-131633614D01*
X159981634Y-131657596D01*
X160015944Y-131666174D01*
X160017548Y-131666588D01*
X160144108Y-131700500D01*
X160144110Y-131700500D01*
X160275890Y-131700500D01*
X160275892Y-131700500D01*
X160403186Y-131666392D01*
X160403188Y-131666390D01*
X160403190Y-131666390D01*
X160511190Y-131604035D01*
X160514067Y-131602639D01*
X160514853Y-131602122D01*
X160519862Y-131599028D01*
X160521161Y-131598277D01*
X160526519Y-131591294D01*
X160610500Y-131507314D01*
X160628367Y-131476367D01*
X160676390Y-131393190D01*
X160676390Y-131393188D01*
X160676392Y-131393186D01*
X160710500Y-131265892D01*
X160710500Y-131134108D01*
X160676392Y-131006814D01*
X160676390Y-131006811D01*
X160676390Y-131006809D01*
X160676383Y-131006798D01*
X160676066Y-131006094D01*
X160674812Y-131004076D01*
X160610503Y-130892690D01*
X160610501Y-130892688D01*
X160610500Y-130892686D01*
X160517314Y-130799500D01*
X160517311Y-130799498D01*
X160517309Y-130799496D01*
X160487369Y-130782210D01*
X160460476Y-130766683D01*
X160439442Y-130743322D01*
X160353799Y-130720375D01*
X160353798Y-130720374D01*
X160296766Y-130705093D01*
X160275892Y-130699500D01*
X160275891Y-130699500D01*
X160144109Y-130699500D01*
X160144108Y-130699500D01*
X160120846Y-130705733D01*
X160066199Y-130720375D01*
X160066198Y-130720374D01*
X160016807Y-130733609D01*
X160016805Y-130733610D01*
X159902694Y-130799492D01*
X159809492Y-130892694D01*
X159744221Y-131005747D01*
X159744220Y-131005749D01*
X159743609Y-131006809D01*
X159743608Y-131006814D01*
X159709500Y-131134108D01*
X125560000Y-131134108D01*
X125560000Y-131105550D01*
X125530454Y-130919007D01*
X125522732Y-130895240D01*
X125472085Y-130739364D01*
X125386462Y-130571318D01*
X125386336Y-130571068D01*
X125386327Y-130571053D01*
X125278616Y-130422804D01*
X125278614Y-130422803D01*
X124854265Y-130847153D01*
X124799749Y-130874930D01*
X124739317Y-130865359D01*
X124714261Y-130847155D01*
X124712842Y-130845736D01*
X124685067Y-130791222D01*
X124694638Y-130730790D01*
X124712845Y-130705731D01*
X124907479Y-130511095D01*
X125137194Y-130281382D01*
X125137193Y-130281381D01*
X124988945Y-130173671D01*
X124988927Y-130173660D01*
X124988662Y-130173527D01*
X124820635Y-130087914D01*
X124640991Y-130029544D01*
X124454448Y-130000000D01*
X124454445Y-130000000D01*
X124265555Y-130000000D01*
X124265552Y-130000000D01*
X124079006Y-130029545D01*
X123899363Y-130087914D01*
X123731331Y-130173530D01*
X123731079Y-130173656D01*
X123731056Y-130173670D01*
X123582804Y-130281381D01*
X123582803Y-130281382D01*
X124007154Y-130705733D01*
X124034931Y-130760249D01*
X124025360Y-130820681D01*
X124007154Y-130845740D01*
X124005740Y-130847154D01*
X123951223Y-130874931D01*
X123890791Y-130865360D01*
X123865733Y-130847154D01*
X123441382Y-130422803D01*
X123441381Y-130422804D01*
X123333670Y-130571056D01*
X123333656Y-130571079D01*
X123333530Y-130571331D01*
X123247914Y-130739363D01*
X123189544Y-130919007D01*
X123160000Y-131105550D01*
X123160000Y-131294445D01*
X123159999Y-131294446D01*
X111060500Y-131294446D01*
X111060500Y-130180252D01*
X111048867Y-130121769D01*
X111004552Y-130055448D01*
X111004548Y-130055445D01*
X110970425Y-130032644D01*
X110970422Y-130032642D01*
X110965788Y-130029546D01*
X110938233Y-130011134D01*
X110938231Y-130011133D01*
X110938228Y-130011132D01*
X110938227Y-130011132D01*
X110922800Y-130008063D01*
X110922798Y-130008062D01*
X110879768Y-129999503D01*
X110879758Y-129999501D01*
X110879753Y-129999500D01*
X110879750Y-129999500D01*
X110879748Y-129999500D01*
X108840252Y-129999500D01*
X108840251Y-129999500D01*
X108840245Y-129999500D01*
X108781778Y-130011130D01*
X108781763Y-130011135D01*
X108715454Y-130055442D01*
X108715442Y-130055454D01*
X108671135Y-130121763D01*
X108671130Y-130121778D01*
X108659500Y-130180245D01*
X101900500Y-130180245D01*
X101900500Y-127080294D01*
X115560000Y-127080294D01*
X115560000Y-127080299D01*
X115560000Y-127999999D01*
X115560001Y-128000000D01*
X115861000Y-128000000D01*
X115919191Y-128018907D01*
X115955155Y-128068407D01*
X115960000Y-128099000D01*
X115960000Y-128101000D01*
X115941093Y-128159191D01*
X115891593Y-128195155D01*
X115861000Y-128200000D01*
X115560001Y-128200000D01*
X115560000Y-128200001D01*
X115560000Y-128200002D01*
X115560000Y-129119704D01*
X115571602Y-129178032D01*
X115571603Y-129178036D01*
X115615806Y-129244189D01*
X115615810Y-129244193D01*
X115681963Y-129288396D01*
X115737958Y-129299533D01*
X115739711Y-129299926D01*
X115740297Y-129299998D01*
X115740299Y-129299999D01*
X115740303Y-129300000D01*
X117259998Y-129300000D01*
X117259999Y-129300000D01*
X117260000Y-129299999D01*
X117260000Y-128949000D01*
X117278907Y-128890809D01*
X117328407Y-128854845D01*
X117359000Y-128850000D01*
X117361000Y-128850000D01*
X117419191Y-128868907D01*
X117455155Y-128918407D01*
X117460000Y-128949000D01*
X117460000Y-129299999D01*
X117460001Y-129300000D01*
X117460002Y-129300000D01*
X118979697Y-129300000D01*
X118979699Y-129300000D01*
X118983617Y-129299363D01*
X118985792Y-129298787D01*
X119017271Y-129292526D01*
X119038032Y-129288397D01*
X119038032Y-129288396D01*
X119038036Y-129288396D01*
X119104189Y-129244193D01*
X119104193Y-129244189D01*
X119148396Y-129178036D01*
X119158787Y-129125792D01*
X119159363Y-129123617D01*
X119160000Y-129119698D01*
X119160000Y-128200002D01*
X119160000Y-128200001D01*
X119159999Y-128200000D01*
X119159998Y-128200000D01*
X118859000Y-128200000D01*
X118800809Y-128181093D01*
X118764845Y-128131593D01*
X118760000Y-128101000D01*
X118760000Y-128099000D01*
X118778907Y-128040809D01*
X118828407Y-128004845D01*
X118859000Y-128000000D01*
X119159998Y-128000000D01*
X119159999Y-128000000D01*
X119160000Y-127999999D01*
X119160000Y-127080302D01*
X119160000Y-127080300D01*
X119159364Y-127076383D01*
X119158786Y-127074202D01*
X119148396Y-127021965D01*
X119148396Y-127021963D01*
X119104193Y-126955810D01*
X119104189Y-126955806D01*
X119038036Y-126911603D01*
X119038033Y-126911602D01*
X118979704Y-126900000D01*
X118979700Y-126900000D01*
X117460001Y-126900000D01*
X117460000Y-126900001D01*
X117460000Y-126900002D01*
X117460000Y-127251000D01*
X117441093Y-127309191D01*
X117391593Y-127345155D01*
X117361000Y-127350000D01*
X117359000Y-127350000D01*
X117300809Y-127331093D01*
X117264845Y-127281593D01*
X117260000Y-127251000D01*
X117260000Y-126900002D01*
X117260000Y-126900001D01*
X117259999Y-126900000D01*
X117259998Y-126900000D01*
X115740294Y-126900000D01*
X115681965Y-126911602D01*
X115681962Y-126911603D01*
X115615813Y-126955803D01*
X115615803Y-126955813D01*
X115571603Y-127021962D01*
X115571602Y-127021965D01*
X115560000Y-127080294D01*
X101900500Y-127080294D01*
X101900500Y-126636529D01*
X186359500Y-126636529D01*
X186359500Y-126636532D01*
X186359500Y-126843467D01*
X186395004Y-127021962D01*
X186399869Y-127046417D01*
X186399869Y-127046419D01*
X186479055Y-127237593D01*
X186479057Y-127237595D01*
X186479059Y-127237598D01*
X186526895Y-127309191D01*
X186594023Y-127409655D01*
X186740345Y-127555977D01*
X186912402Y-127670941D01*
X187103580Y-127750130D01*
X187306535Y-127790500D01*
X187306536Y-127790500D01*
X187513464Y-127790500D01*
X187513465Y-127790500D01*
X187716420Y-127750130D01*
X187907598Y-127670941D01*
X188079655Y-127555977D01*
X188225977Y-127409655D01*
X188340941Y-127237598D01*
X188420130Y-127046420D01*
X188460500Y-126843465D01*
X188460500Y-126636535D01*
X188420130Y-126433580D01*
X188340941Y-126242402D01*
X188225977Y-126070345D01*
X188079655Y-125924023D01*
X188079651Y-125924020D01*
X187964738Y-125847238D01*
X187952232Y-125831375D01*
X187907604Y-125809061D01*
X187716416Y-125729868D01*
X187513469Y-125689500D01*
X187513467Y-125689500D01*
X187513465Y-125689500D01*
X187306535Y-125689500D01*
X187306532Y-125689500D01*
X187306529Y-125689500D01*
X187103581Y-125729869D01*
X187103579Y-125729869D01*
X186912404Y-125809056D01*
X186740351Y-125924017D01*
X186594017Y-126070351D01*
X186479056Y-126242404D01*
X186399869Y-126433579D01*
X186399869Y-126433581D01*
X186359500Y-126636529D01*
X101900500Y-126636529D01*
X101900500Y-123993542D01*
X104804500Y-123993542D01*
X104804500Y-124216457D01*
X104815564Y-124300500D01*
X104832748Y-124431021D01*
X104832748Y-124431026D01*
X104833594Y-124437457D01*
X104891290Y-124652783D01*
X104976590Y-124858719D01*
X104976640Y-124858817D01*
X104977019Y-124859462D01*
X105088050Y-125051771D01*
X105088052Y-125051774D01*
X105223753Y-125228624D01*
X105381376Y-125386247D01*
X105381379Y-125386249D01*
X105558220Y-125521944D01*
X105559382Y-125522671D01*
X105560801Y-125523434D01*
X105751272Y-125633404D01*
X105751277Y-125633407D01*
X105919179Y-125702953D01*
X105957219Y-125718710D01*
X106172537Y-125776404D01*
X106393543Y-125805500D01*
X106393544Y-125805500D01*
X106616456Y-125805500D01*
X106616457Y-125805500D01*
X106837463Y-125776404D01*
X107052781Y-125718710D01*
X107182647Y-125664917D01*
X107252745Y-125635882D01*
X107258889Y-125633797D01*
X107263211Y-125631665D01*
X107268453Y-125627788D01*
X107451774Y-125521948D01*
X107628624Y-125386247D01*
X107786247Y-125228624D01*
X107921948Y-125051774D01*
X108033405Y-124858726D01*
X108118710Y-124652781D01*
X108176404Y-124437463D01*
X108205500Y-124216457D01*
X108205500Y-123993543D01*
X108205500Y-123993542D01*
X126804500Y-123993542D01*
X126804500Y-124216457D01*
X126815564Y-124300500D01*
X126832748Y-124431021D01*
X126832748Y-124431026D01*
X126833594Y-124437457D01*
X126891290Y-124652783D01*
X126976590Y-124858719D01*
X126976640Y-124858817D01*
X126977019Y-124859462D01*
X127088050Y-125051771D01*
X127088052Y-125051774D01*
X127223753Y-125228624D01*
X127381376Y-125386247D01*
X127381379Y-125386249D01*
X127558220Y-125521944D01*
X127559382Y-125522671D01*
X127560801Y-125523434D01*
X127751272Y-125633404D01*
X127751277Y-125633407D01*
X127919179Y-125702953D01*
X127957219Y-125718710D01*
X128172537Y-125776404D01*
X128393543Y-125805500D01*
X128393544Y-125805500D01*
X128616456Y-125805500D01*
X128616457Y-125805500D01*
X128837463Y-125776404D01*
X129052781Y-125718710D01*
X129182647Y-125664917D01*
X129252745Y-125635882D01*
X129258889Y-125633797D01*
X129263211Y-125631665D01*
X129268453Y-125627788D01*
X129451774Y-125521948D01*
X129628624Y-125386247D01*
X129786247Y-125228624D01*
X129921948Y-125051774D01*
X130033405Y-124858726D01*
X130118710Y-124652781D01*
X130176404Y-124437463D01*
X130205500Y-124216457D01*
X130205500Y-123993543D01*
X130184510Y-123834108D01*
X155078500Y-123834108D01*
X155078500Y-123965892D01*
X155079600Y-123969997D01*
X155079600Y-123969999D01*
X155087773Y-124000500D01*
X155112610Y-124093194D01*
X155178494Y-124207307D01*
X155178496Y-124207309D01*
X155178498Y-124207311D01*
X155178500Y-124207314D01*
X155271686Y-124300500D01*
X155271688Y-124300501D01*
X155271690Y-124300503D01*
X155272237Y-124300898D01*
X155274239Y-124301975D01*
X155318207Y-124327359D01*
X155329040Y-124333614D01*
X155350634Y-124357596D01*
X155384944Y-124366174D01*
X155386548Y-124366588D01*
X155513108Y-124400500D01*
X155513110Y-124400500D01*
X155644890Y-124400500D01*
X155644892Y-124400500D01*
X155772186Y-124366392D01*
X155772188Y-124366390D01*
X155772190Y-124366390D01*
X155880190Y-124304035D01*
X155883067Y-124302639D01*
X155883853Y-124302122D01*
X155888862Y-124299028D01*
X155890161Y-124298277D01*
X155895519Y-124291294D01*
X155979500Y-124207314D01*
X155979503Y-124207309D01*
X156045390Y-124093190D01*
X156045390Y-124093188D01*
X156045392Y-124093186D01*
X156079500Y-123965892D01*
X156079500Y-123834108D01*
X156459500Y-123834108D01*
X156459500Y-123965892D01*
X156468773Y-124000500D01*
X156493610Y-124093194D01*
X156559494Y-124207307D01*
X156559496Y-124207309D01*
X156559498Y-124207311D01*
X156559500Y-124207314D01*
X156652686Y-124300500D01*
X156652688Y-124300501D01*
X156652690Y-124300503D01*
X156653237Y-124300898D01*
X156655239Y-124301975D01*
X156699207Y-124327359D01*
X156710040Y-124333614D01*
X156731634Y-124357596D01*
X156765944Y-124366174D01*
X156767548Y-124366588D01*
X156894108Y-124400500D01*
X156894110Y-124400500D01*
X157025890Y-124400500D01*
X157025892Y-124400500D01*
X157153186Y-124366392D01*
X157153188Y-124366390D01*
X157153190Y-124366390D01*
X157261190Y-124304035D01*
X157264067Y-124302639D01*
X157264853Y-124302122D01*
X157269862Y-124299028D01*
X157271161Y-124298277D01*
X157276519Y-124291294D01*
X157360500Y-124207314D01*
X157360503Y-124207309D01*
X157426390Y-124093190D01*
X157426390Y-124093188D01*
X157426392Y-124093186D01*
X157460500Y-123965892D01*
X157460500Y-123834108D01*
X157426392Y-123706814D01*
X157426390Y-123706811D01*
X157426390Y-123706809D01*
X157426383Y-123706798D01*
X157426066Y-123706094D01*
X157424812Y-123704076D01*
X157360503Y-123592690D01*
X157360501Y-123592688D01*
X157360500Y-123592686D01*
X157301922Y-123534108D01*
X165909500Y-123534108D01*
X165909500Y-123665894D01*
X165920463Y-123706806D01*
X165920463Y-123706808D01*
X165920464Y-123706808D01*
X165920464Y-123706809D01*
X165943609Y-123793190D01*
X165943610Y-123793192D01*
X165943611Y-123793195D01*
X166009494Y-123907307D01*
X166009496Y-123907309D01*
X166009498Y-123907311D01*
X166009500Y-123907314D01*
X166102686Y-124000500D01*
X166102688Y-124000501D01*
X166102690Y-124000503D01*
X166103237Y-124000898D01*
X166105239Y-124001975D01*
X166149207Y-124027359D01*
X166160040Y-124033614D01*
X166181634Y-124057596D01*
X166215944Y-124066174D01*
X166217548Y-124066588D01*
X166344108Y-124100500D01*
X166344110Y-124100500D01*
X166475890Y-124100500D01*
X166475892Y-124100500D01*
X166603186Y-124066392D01*
X166603188Y-124066390D01*
X166603190Y-124066390D01*
X166711190Y-124004035D01*
X166714067Y-124002639D01*
X166714853Y-124002122D01*
X166719862Y-123999028D01*
X166721161Y-123998277D01*
X166726519Y-123991294D01*
X166810500Y-123907314D01*
X166876392Y-123793186D01*
X166910500Y-123665892D01*
X166910500Y-123534108D01*
X166876392Y-123406814D01*
X166859579Y-123377694D01*
X166859579Y-123377692D01*
X166832185Y-123330245D01*
X186359500Y-123330245D01*
X186359500Y-125069753D01*
X186359501Y-125069758D01*
X186371132Y-125128227D01*
X186371133Y-125128231D01*
X186415448Y-125194552D01*
X186481769Y-125238867D01*
X186504000Y-125243289D01*
X186526228Y-125247711D01*
X186526231Y-125247711D01*
X186534159Y-125249288D01*
X186536324Y-125249861D01*
X186538514Y-125250217D01*
X186540081Y-125250500D01*
X186540252Y-125250500D01*
X186540253Y-125250500D01*
X188279747Y-125250500D01*
X188279748Y-125250500D01*
X188338231Y-125238867D01*
X188404552Y-125194552D01*
X188448867Y-125128231D01*
X188460500Y-125069748D01*
X188460500Y-123330252D01*
X188448867Y-123271769D01*
X188404552Y-123205448D01*
X188404548Y-123205445D01*
X188346538Y-123166683D01*
X188338232Y-123161133D01*
X188338227Y-123161131D01*
X188338025Y-123161063D01*
X188336488Y-123160786D01*
X188279768Y-123149503D01*
X188279758Y-123149501D01*
X188279753Y-123149500D01*
X188279750Y-123149500D01*
X188279748Y-123149500D01*
X186540252Y-123149500D01*
X186540251Y-123149500D01*
X186540245Y-123149500D01*
X186481778Y-123161130D01*
X186481763Y-123161135D01*
X186415454Y-123205442D01*
X186415442Y-123205454D01*
X186371135Y-123271763D01*
X186371130Y-123271778D01*
X186359500Y-123330245D01*
X166832185Y-123330245D01*
X166810503Y-123292690D01*
X166810501Y-123292688D01*
X166810500Y-123292686D01*
X166717314Y-123199500D01*
X166717311Y-123199498D01*
X166717309Y-123199496D01*
X166717302Y-123199492D01*
X166660476Y-123166683D01*
X166639442Y-123143322D01*
X166553799Y-123120375D01*
X166553798Y-123120374D01*
X166496766Y-123105093D01*
X166475892Y-123099500D01*
X166475891Y-123099500D01*
X166344109Y-123099500D01*
X166344108Y-123099500D01*
X166305154Y-123109937D01*
X166266199Y-123120375D01*
X166266198Y-123120374D01*
X166216807Y-123133609D01*
X166216805Y-123133610D01*
X166102694Y-123199492D01*
X166009492Y-123292694D01*
X165943610Y-123406805D01*
X165943608Y-123406809D01*
X165936427Y-123433607D01*
X165936428Y-123433608D01*
X165909500Y-123534108D01*
X157301922Y-123534108D01*
X157267314Y-123499500D01*
X157267311Y-123499498D01*
X157267309Y-123499496D01*
X157267302Y-123499492D01*
X157210476Y-123466683D01*
X157189442Y-123443322D01*
X157103799Y-123420375D01*
X157103798Y-123420374D01*
X157046766Y-123405093D01*
X157025892Y-123399500D01*
X157025891Y-123399500D01*
X156894109Y-123399500D01*
X156894108Y-123399500D01*
X156855154Y-123409937D01*
X156816199Y-123420375D01*
X156816198Y-123420374D01*
X156766807Y-123433609D01*
X156766805Y-123433610D01*
X156652694Y-123499492D01*
X156559492Y-123592694D01*
X156493610Y-123706806D01*
X156493330Y-123707545D01*
X156492784Y-123709886D01*
X156459500Y-123834108D01*
X156079500Y-123834108D01*
X156045392Y-123706814D01*
X156045390Y-123706811D01*
X156045390Y-123706809D01*
X156045217Y-123706509D01*
X156045142Y-123706217D01*
X156043812Y-123704076D01*
X155979503Y-123592690D01*
X155979501Y-123592688D01*
X155979500Y-123592686D01*
X155886314Y-123499500D01*
X155886311Y-123499498D01*
X155886309Y-123499496D01*
X155886302Y-123499492D01*
X155829476Y-123466683D01*
X155808442Y-123443322D01*
X155722799Y-123420375D01*
X155722798Y-123420374D01*
X155665766Y-123405093D01*
X155644892Y-123399500D01*
X155644891Y-123399500D01*
X155513109Y-123399500D01*
X155513108Y-123399500D01*
X155474154Y-123409937D01*
X155435199Y-123420375D01*
X155435198Y-123420374D01*
X155385807Y-123433609D01*
X155385805Y-123433610D01*
X155271694Y-123499492D01*
X155178492Y-123592694D01*
X155113221Y-123705747D01*
X155113220Y-123705749D01*
X155112609Y-123706809D01*
X155112608Y-123706814D01*
X155078500Y-123834108D01*
X130184510Y-123834108D01*
X130176404Y-123772537D01*
X130118710Y-123557219D01*
X130094800Y-123499496D01*
X130033407Y-123351277D01*
X130033404Y-123351272D01*
X130017893Y-123324407D01*
X129977676Y-123254749D01*
X129977675Y-123254749D01*
X129921948Y-123158226D01*
X129786247Y-122981376D01*
X129628624Y-122823753D01*
X129451774Y-122688052D01*
X129451771Y-122688050D01*
X129451765Y-122688046D01*
X129451763Y-122688045D01*
X129259475Y-122577027D01*
X129258817Y-122576640D01*
X129258719Y-122576590D01*
X129052787Y-122491292D01*
X129052786Y-122491291D01*
X129052782Y-122491290D01*
X128957839Y-122465850D01*
X128840329Y-122434363D01*
X128838134Y-122433704D01*
X128833068Y-122432882D01*
X128831024Y-122432748D01*
X128616458Y-122404500D01*
X128616457Y-122404500D01*
X128393543Y-122404500D01*
X128393542Y-122404500D01*
X128393541Y-122404500D01*
X128178978Y-122432748D01*
X128178968Y-122432748D01*
X128172541Y-122433594D01*
X127957215Y-122491290D01*
X127751279Y-122576590D01*
X127751175Y-122576643D01*
X127750523Y-122577027D01*
X127558230Y-122688048D01*
X127381382Y-122823747D01*
X127223747Y-122981382D01*
X127088048Y-123158230D01*
X126977027Y-123350523D01*
X126976643Y-123351175D01*
X126976590Y-123351279D01*
X126891290Y-123557215D01*
X126833594Y-123772541D01*
X126832748Y-123778973D01*
X126832748Y-123778977D01*
X126807600Y-123969999D01*
X126804500Y-123993542D01*
X108205500Y-123993542D01*
X108176404Y-123772537D01*
X108118710Y-123557219D01*
X108094800Y-123499496D01*
X108033407Y-123351277D01*
X108033404Y-123351272D01*
X108017893Y-123324407D01*
X107977676Y-123254749D01*
X107977675Y-123254749D01*
X107921948Y-123158226D01*
X107786247Y-122981376D01*
X107628624Y-122823753D01*
X107451774Y-122688052D01*
X107451771Y-122688050D01*
X107451765Y-122688046D01*
X107451763Y-122688045D01*
X107259475Y-122577027D01*
X107258817Y-122576640D01*
X107258719Y-122576590D01*
X107052787Y-122491292D01*
X107052786Y-122491291D01*
X107052782Y-122491290D01*
X106957839Y-122465850D01*
X106840329Y-122434363D01*
X106838134Y-122433704D01*
X106833068Y-122432882D01*
X106831024Y-122432748D01*
X106616458Y-122404500D01*
X106616457Y-122404500D01*
X106393543Y-122404500D01*
X106393542Y-122404500D01*
X106393541Y-122404500D01*
X106178978Y-122432748D01*
X106178968Y-122432748D01*
X106172541Y-122433594D01*
X105957215Y-122491290D01*
X105751279Y-122576590D01*
X105751175Y-122576643D01*
X105750523Y-122577027D01*
X105558230Y-122688048D01*
X105381382Y-122823747D01*
X105223747Y-122981382D01*
X105088048Y-123158230D01*
X104977027Y-123350523D01*
X104976643Y-123351175D01*
X104976590Y-123351279D01*
X104891290Y-123557215D01*
X104833594Y-123772541D01*
X104832748Y-123778973D01*
X104832748Y-123778977D01*
X104807600Y-123969999D01*
X104804500Y-123993542D01*
X101900500Y-123993542D01*
X101900500Y-118634108D01*
X154809500Y-118634108D01*
X154809500Y-118765892D01*
X154839579Y-118878151D01*
X154843609Y-118893190D01*
X154909496Y-119007309D01*
X154909498Y-119007311D01*
X154909500Y-119007314D01*
X155002686Y-119100500D01*
X155002688Y-119100501D01*
X155002690Y-119100503D01*
X155003237Y-119100898D01*
X155005239Y-119101975D01*
X155049207Y-119127359D01*
X155060040Y-119133614D01*
X155081634Y-119157596D01*
X155115944Y-119166174D01*
X155117548Y-119166588D01*
X155244108Y-119200500D01*
X155244110Y-119200500D01*
X155375890Y-119200500D01*
X155375892Y-119200500D01*
X155503186Y-119166392D01*
X155503188Y-119166390D01*
X155503190Y-119166390D01*
X155611190Y-119104035D01*
X155614067Y-119102639D01*
X155614853Y-119102122D01*
X155619862Y-119099028D01*
X155621161Y-119098277D01*
X155626519Y-119091294D01*
X155710500Y-119007314D01*
X155776392Y-118893186D01*
X155810500Y-118765892D01*
X155810500Y-118634108D01*
X155776392Y-118506814D01*
X155776390Y-118506811D01*
X155776390Y-118506809D01*
X155776383Y-118506798D01*
X155776066Y-118506094D01*
X155774812Y-118504076D01*
X155710503Y-118392690D01*
X155710501Y-118392688D01*
X155710500Y-118392686D01*
X155617314Y-118299500D01*
X155617311Y-118299498D01*
X155617309Y-118299496D01*
X155617302Y-118299492D01*
X155560476Y-118266683D01*
X155539442Y-118243322D01*
X155453799Y-118220375D01*
X155453798Y-118220374D01*
X155396766Y-118205093D01*
X155375892Y-118199500D01*
X155375891Y-118199500D01*
X155244109Y-118199500D01*
X155244108Y-118199500D01*
X155205154Y-118209937D01*
X155166199Y-118220375D01*
X155166198Y-118220374D01*
X155116807Y-118233609D01*
X155116805Y-118233610D01*
X155002694Y-118299492D01*
X154909492Y-118392694D01*
X154844221Y-118505747D01*
X154844220Y-118505749D01*
X154843609Y-118506809D01*
X154843608Y-118506814D01*
X154809500Y-118634108D01*
X101900500Y-118634108D01*
X101900500Y-116034108D01*
X149909500Y-116034108D01*
X149909500Y-116165892D01*
X149939579Y-116278151D01*
X149943609Y-116293190D01*
X150009496Y-116407309D01*
X150009498Y-116407311D01*
X150009500Y-116407314D01*
X150102686Y-116500500D01*
X150102688Y-116500501D01*
X150102690Y-116500503D01*
X150103237Y-116500898D01*
X150105239Y-116501975D01*
X150149207Y-116527359D01*
X150160040Y-116533614D01*
X150181634Y-116557596D01*
X150215944Y-116566174D01*
X150217548Y-116566588D01*
X150344108Y-116600500D01*
X150344110Y-116600500D01*
X150475890Y-116600500D01*
X150475892Y-116600500D01*
X150603186Y-116566392D01*
X150603188Y-116566390D01*
X150603190Y-116566390D01*
X150711190Y-116504035D01*
X150714067Y-116502639D01*
X150714853Y-116502122D01*
X150719862Y-116499028D01*
X150721161Y-116498277D01*
X150726519Y-116491294D01*
X150810500Y-116407314D01*
X150876392Y-116293186D01*
X150910500Y-116165892D01*
X150910500Y-116034108D01*
X150876392Y-115906814D01*
X150876390Y-115906811D01*
X150876390Y-115906809D01*
X150876383Y-115906798D01*
X150876066Y-115906094D01*
X150874812Y-115904076D01*
X150810503Y-115792690D01*
X150810501Y-115792688D01*
X150810500Y-115792686D01*
X150717314Y-115699500D01*
X150717311Y-115699498D01*
X150717309Y-115699496D01*
X150717302Y-115699492D01*
X150660476Y-115666683D01*
X150639442Y-115643322D01*
X150553799Y-115620375D01*
X150553798Y-115620374D01*
X150496766Y-115605093D01*
X150475892Y-115599500D01*
X150475891Y-115599500D01*
X150344109Y-115599500D01*
X150344108Y-115599500D01*
X150305154Y-115609937D01*
X150266199Y-115620375D01*
X150266198Y-115620374D01*
X150216807Y-115633609D01*
X150216805Y-115633610D01*
X150102694Y-115699492D01*
X150009492Y-115792694D01*
X149944221Y-115905747D01*
X149944220Y-115905749D01*
X149943609Y-115906809D01*
X149943608Y-115906814D01*
X149909500Y-116034108D01*
X101900500Y-116034108D01*
X101900500Y-114613381D01*
X174809500Y-114613381D01*
X174809500Y-114786617D01*
X174836595Y-114957696D01*
X174836596Y-114957701D01*
X174836598Y-114957706D01*
X174888340Y-115116952D01*
X174890125Y-115122443D01*
X174891995Y-115126303D01*
X174892749Y-115127591D01*
X174968765Y-115276784D01*
X174968768Y-115276788D01*
X175070586Y-115416928D01*
X175193072Y-115539414D01*
X175333212Y-115641232D01*
X175482407Y-115717250D01*
X175488254Y-115720229D01*
X175491227Y-115721067D01*
X175652293Y-115773401D01*
X175652297Y-115773402D01*
X175652303Y-115773403D01*
X175823383Y-115800500D01*
X175996614Y-115800500D01*
X175996617Y-115800500D01*
X176135843Y-115778447D01*
X176167702Y-115773402D01*
X176167706Y-115773401D01*
X176332438Y-115719876D01*
X176332438Y-115719875D01*
X176333182Y-115719634D01*
X176335899Y-115718113D01*
X176372430Y-115699500D01*
X176486788Y-115641232D01*
X176626928Y-115539414D01*
X176749414Y-115416928D01*
X176851232Y-115276788D01*
X176929873Y-115122445D01*
X176929874Y-115122440D01*
X176929876Y-115122438D01*
X176931100Y-115118669D01*
X176931369Y-115118057D01*
X176931655Y-115116960D01*
X176983401Y-114957706D01*
X176983402Y-114957702D01*
X177010500Y-114786614D01*
X177010500Y-114613385D01*
X177010500Y-114613381D01*
X181809500Y-114613381D01*
X181809500Y-114786617D01*
X181836595Y-114957696D01*
X181836596Y-114957701D01*
X181836598Y-114957706D01*
X181888340Y-115116952D01*
X181890125Y-115122443D01*
X181891995Y-115126303D01*
X181892749Y-115127591D01*
X181968765Y-115276784D01*
X181968768Y-115276788D01*
X182070586Y-115416928D01*
X182193072Y-115539414D01*
X182333212Y-115641232D01*
X182482407Y-115717250D01*
X182488254Y-115720229D01*
X182491227Y-115721067D01*
X182652293Y-115773401D01*
X182652297Y-115773402D01*
X182652303Y-115773403D01*
X182823383Y-115800500D01*
X182996614Y-115800500D01*
X182996617Y-115800500D01*
X183135843Y-115778447D01*
X183167702Y-115773402D01*
X183167706Y-115773401D01*
X183332438Y-115719876D01*
X183332438Y-115719875D01*
X183333182Y-115719634D01*
X183335899Y-115718113D01*
X183372430Y-115699500D01*
X183486788Y-115641232D01*
X183626928Y-115539414D01*
X183749414Y-115416928D01*
X183851232Y-115276788D01*
X183929873Y-115122445D01*
X183929874Y-115122440D01*
X183929876Y-115122438D01*
X183931100Y-115118669D01*
X183931369Y-115118057D01*
X183931655Y-115116960D01*
X183983401Y-114957706D01*
X183983402Y-114957702D01*
X184010500Y-114786614D01*
X184010500Y-114613385D01*
X184010500Y-114613381D01*
X183983403Y-114442303D01*
X183983402Y-114442297D01*
X183983401Y-114442293D01*
X183929876Y-114277561D01*
X183929874Y-114277558D01*
X183929873Y-114277557D01*
X183929873Y-114277555D01*
X183928090Y-114274055D01*
X183927842Y-114273420D01*
X183927250Y-114272408D01*
X183851232Y-114123212D01*
X183749414Y-113983072D01*
X183626928Y-113860586D01*
X183626924Y-113860583D01*
X183626922Y-113860581D01*
X183495247Y-113764913D01*
X183495236Y-113764906D01*
X183486788Y-113758768D01*
X183486787Y-113758767D01*
X183486785Y-113758766D01*
X183337591Y-113682749D01*
X183336311Y-113682000D01*
X183332440Y-113680124D01*
X183332438Y-113680123D01*
X183256005Y-113655288D01*
X183167701Y-113626596D01*
X183167696Y-113626595D01*
X182996617Y-113599500D01*
X182996614Y-113599500D01*
X182996611Y-113599500D01*
X182823389Y-113599500D01*
X182823386Y-113599500D01*
X182823383Y-113599500D01*
X182652302Y-113626595D01*
X182652297Y-113626596D01*
X182487561Y-113680123D01*
X182483685Y-113682000D01*
X182482407Y-113682749D01*
X182333209Y-113758768D01*
X182193078Y-113860580D01*
X182070580Y-113983078D01*
X181968768Y-114123209D01*
X181892749Y-114272407D01*
X181892000Y-114273685D01*
X181890123Y-114277561D01*
X181836596Y-114442297D01*
X181836595Y-114442302D01*
X181809500Y-114613381D01*
X177010500Y-114613381D01*
X176983403Y-114442303D01*
X176983402Y-114442297D01*
X176983401Y-114442293D01*
X176929876Y-114277561D01*
X176929874Y-114277558D01*
X176929873Y-114277557D01*
X176929873Y-114277555D01*
X176928090Y-114274055D01*
X176927842Y-114273420D01*
X176927250Y-114272408D01*
X176851232Y-114123212D01*
X176749414Y-113983072D01*
X176626928Y-113860586D01*
X176626924Y-113860583D01*
X176626922Y-113860581D01*
X176495247Y-113764913D01*
X176495236Y-113764906D01*
X176486788Y-113758768D01*
X176486787Y-113758767D01*
X176486785Y-113758766D01*
X176337591Y-113682749D01*
X176336311Y-113682000D01*
X176332440Y-113680124D01*
X176332438Y-113680123D01*
X176256005Y-113655288D01*
X176167701Y-113626596D01*
X176167696Y-113626595D01*
X175996617Y-113599500D01*
X175996614Y-113599500D01*
X175996611Y-113599500D01*
X175823389Y-113599500D01*
X175823386Y-113599500D01*
X175823383Y-113599500D01*
X175652302Y-113626595D01*
X175652297Y-113626596D01*
X175487561Y-113680123D01*
X175483685Y-113682000D01*
X175482407Y-113682749D01*
X175333209Y-113758768D01*
X175193078Y-113860580D01*
X175070580Y-113983078D01*
X174968768Y-114123209D01*
X174892749Y-114272407D01*
X174892000Y-114273685D01*
X174890123Y-114277561D01*
X174836596Y-114442297D01*
X174836595Y-114442302D01*
X174809500Y-114613381D01*
X101900500Y-114613381D01*
X101900500Y-113084108D01*
X159059500Y-113084108D01*
X159059500Y-113215892D01*
X159060600Y-113219997D01*
X159060600Y-113219999D01*
X159083860Y-113306808D01*
X159093609Y-113343191D01*
X159093610Y-113343193D01*
X159159494Y-113457307D01*
X159159496Y-113457309D01*
X159159498Y-113457311D01*
X159159500Y-113457314D01*
X159252686Y-113550500D01*
X159252688Y-113550501D01*
X159252690Y-113550503D01*
X159253237Y-113550898D01*
X159255239Y-113551975D01*
X159279341Y-113565890D01*
X159310040Y-113583614D01*
X159331634Y-113607596D01*
X159365944Y-113616174D01*
X159367548Y-113616588D01*
X159494108Y-113650500D01*
X159494110Y-113650500D01*
X159625890Y-113650500D01*
X159625892Y-113650500D01*
X159753186Y-113616392D01*
X159753188Y-113616390D01*
X159753190Y-113616390D01*
X159861190Y-113554035D01*
X159864067Y-113552639D01*
X159864853Y-113552122D01*
X159869862Y-113549028D01*
X159871161Y-113548277D01*
X159876519Y-113541294D01*
X159960500Y-113457314D01*
X159960503Y-113457309D01*
X159973898Y-113434108D01*
X169109500Y-113434108D01*
X169109500Y-113565892D01*
X169139579Y-113678151D01*
X169143609Y-113693190D01*
X169209496Y-113807309D01*
X169209498Y-113807311D01*
X169209500Y-113807314D01*
X169302686Y-113900500D01*
X169302688Y-113900501D01*
X169302690Y-113900503D01*
X169303237Y-113900898D01*
X169305239Y-113901975D01*
X169349207Y-113927359D01*
X169360040Y-113933614D01*
X169381634Y-113957596D01*
X169415944Y-113966174D01*
X169417548Y-113966588D01*
X169544108Y-114000500D01*
X169544110Y-114000500D01*
X169675890Y-114000500D01*
X169675892Y-114000500D01*
X169803186Y-113966392D01*
X169803188Y-113966390D01*
X169803190Y-113966390D01*
X169911190Y-113904035D01*
X169914067Y-113902639D01*
X169914853Y-113902122D01*
X169919862Y-113899028D01*
X169921161Y-113898277D01*
X169926519Y-113891294D01*
X170010500Y-113807314D01*
X170076392Y-113693186D01*
X170110500Y-113565892D01*
X170110500Y-113434108D01*
X170076392Y-113306814D01*
X170076390Y-113306811D01*
X170076390Y-113306809D01*
X170076387Y-113306805D01*
X170076066Y-113306094D01*
X170074812Y-113304076D01*
X170010503Y-113192690D01*
X170010501Y-113192688D01*
X170010500Y-113192686D01*
X169917314Y-113099500D01*
X169917311Y-113099498D01*
X169917309Y-113099496D01*
X169890658Y-113084109D01*
X169860476Y-113066683D01*
X169839442Y-113043322D01*
X169753799Y-113020375D01*
X169753798Y-113020374D01*
X169696766Y-113005093D01*
X169675892Y-112999500D01*
X169675891Y-112999500D01*
X169544109Y-112999500D01*
X169544108Y-112999500D01*
X169505154Y-113009937D01*
X169466199Y-113020375D01*
X169466198Y-113020374D01*
X169416807Y-113033609D01*
X169416805Y-113033610D01*
X169302694Y-113099492D01*
X169209492Y-113192694D01*
X169143609Y-113306808D01*
X169143330Y-113307545D01*
X169142784Y-113309886D01*
X169133860Y-113343193D01*
X169109500Y-113434108D01*
X159973898Y-113434108D01*
X160006224Y-113378119D01*
X160026390Y-113343190D01*
X160026390Y-113343188D01*
X160026392Y-113343186D01*
X160060500Y-113215892D01*
X160060500Y-113084108D01*
X160026392Y-112956814D01*
X160026390Y-112956811D01*
X160026390Y-112956809D01*
X160026383Y-112956798D01*
X160026066Y-112956094D01*
X160024812Y-112954076D01*
X159960503Y-112842690D01*
X159960501Y-112842688D01*
X159960500Y-112842686D01*
X159867314Y-112749500D01*
X159867311Y-112749498D01*
X159867309Y-112749496D01*
X159867302Y-112749492D01*
X159810476Y-112716683D01*
X159789442Y-112693322D01*
X159703799Y-112670375D01*
X159703798Y-112670374D01*
X159646766Y-112655093D01*
X159625892Y-112649500D01*
X159625891Y-112649500D01*
X159494109Y-112649500D01*
X159494108Y-112649500D01*
X159455154Y-112659937D01*
X159416199Y-112670375D01*
X159416198Y-112670374D01*
X159366807Y-112683609D01*
X159366805Y-112683610D01*
X159252694Y-112749492D01*
X159159492Y-112842694D01*
X159094221Y-112955747D01*
X159094220Y-112955749D01*
X159093609Y-112956809D01*
X159093608Y-112956814D01*
X159059500Y-113084108D01*
X101900500Y-113084108D01*
X101900500Y-111034108D01*
X130585500Y-111034108D01*
X130585500Y-111165892D01*
X130615579Y-111278151D01*
X130619609Y-111293190D01*
X130685496Y-111407309D01*
X130685498Y-111407311D01*
X130685500Y-111407314D01*
X130778686Y-111500500D01*
X130778688Y-111500501D01*
X130778690Y-111500503D01*
X130779237Y-111500898D01*
X130781239Y-111501975D01*
X130825207Y-111527359D01*
X130836040Y-111533614D01*
X130857634Y-111557596D01*
X130891944Y-111566174D01*
X130893548Y-111566588D01*
X131020108Y-111600500D01*
X131020110Y-111600500D01*
X131151890Y-111600500D01*
X131151892Y-111600500D01*
X131279186Y-111566392D01*
X131279188Y-111566390D01*
X131279190Y-111566390D01*
X131387190Y-111504035D01*
X131390067Y-111502639D01*
X131390853Y-111502122D01*
X131395862Y-111499028D01*
X131397161Y-111498277D01*
X131402519Y-111491294D01*
X131486500Y-111407314D01*
X131552392Y-111293186D01*
X131586500Y-111165892D01*
X131586500Y-111034108D01*
X131552392Y-110906814D01*
X131552390Y-110906811D01*
X131552390Y-110906809D01*
X131552383Y-110906798D01*
X131552066Y-110906094D01*
X131550812Y-110904076D01*
X131486503Y-110792690D01*
X131486501Y-110792688D01*
X131486500Y-110792686D01*
X131393314Y-110699500D01*
X131393311Y-110699498D01*
X131393309Y-110699496D01*
X131393302Y-110699492D01*
X131336476Y-110666683D01*
X131315442Y-110643322D01*
X131229799Y-110620375D01*
X131229798Y-110620374D01*
X131172766Y-110605093D01*
X131151892Y-110599500D01*
X131151891Y-110599500D01*
X131020109Y-110599500D01*
X131020108Y-110599500D01*
X130981154Y-110609937D01*
X130942199Y-110620375D01*
X130942198Y-110620374D01*
X130892807Y-110633609D01*
X130892805Y-110633610D01*
X130778694Y-110699492D01*
X130685492Y-110792694D01*
X130620221Y-110905747D01*
X130620220Y-110905749D01*
X130619609Y-110906809D01*
X130619608Y-110906814D01*
X130585500Y-111034108D01*
X101900500Y-111034108D01*
X101900500Y-110034108D01*
X168009500Y-110034108D01*
X168009500Y-110165892D01*
X168039579Y-110278151D01*
X168043609Y-110293190D01*
X168109496Y-110407309D01*
X168109498Y-110407311D01*
X168109500Y-110407314D01*
X168202686Y-110500500D01*
X168202688Y-110500501D01*
X168202690Y-110500503D01*
X168203237Y-110500898D01*
X168205239Y-110501975D01*
X168249207Y-110527359D01*
X168260040Y-110533614D01*
X168281634Y-110557596D01*
X168315944Y-110566174D01*
X168317548Y-110566588D01*
X168444108Y-110600500D01*
X168444110Y-110600500D01*
X168575890Y-110600500D01*
X168575892Y-110600500D01*
X168703186Y-110566392D01*
X168703188Y-110566390D01*
X168703190Y-110566390D01*
X168811190Y-110504035D01*
X168814067Y-110502639D01*
X168814853Y-110502122D01*
X168819862Y-110499028D01*
X168821161Y-110498277D01*
X168826519Y-110491294D01*
X168910500Y-110407314D01*
X168976392Y-110293186D01*
X169010500Y-110165892D01*
X169010500Y-110034108D01*
X168976392Y-109906814D01*
X168976390Y-109906811D01*
X168976390Y-109906809D01*
X168976383Y-109906798D01*
X168976066Y-109906094D01*
X168974812Y-109904076D01*
X168910503Y-109792690D01*
X168910501Y-109792688D01*
X168910500Y-109792686D01*
X168817314Y-109699500D01*
X168817311Y-109699498D01*
X168817309Y-109699496D01*
X168817302Y-109699492D01*
X168760476Y-109666683D01*
X168739442Y-109643322D01*
X168653799Y-109620375D01*
X168653798Y-109620374D01*
X168596766Y-109605093D01*
X168575892Y-109599500D01*
X168575891Y-109599500D01*
X168444109Y-109599500D01*
X168444108Y-109599500D01*
X168405154Y-109609937D01*
X168366199Y-109620375D01*
X168366198Y-109620374D01*
X168316807Y-109633609D01*
X168316805Y-109633610D01*
X168202694Y-109699492D01*
X168109492Y-109792694D01*
X168044221Y-109905747D01*
X168044220Y-109905749D01*
X168043609Y-109906809D01*
X168043608Y-109906814D01*
X168009500Y-110034108D01*
X101900500Y-110034108D01*
X101900500Y-108534108D01*
X135199500Y-108534108D01*
X135199500Y-108665892D01*
X135200600Y-108669998D01*
X135200600Y-108670000D01*
X135210597Y-108707306D01*
X135210597Y-108707308D01*
X135210598Y-108707308D01*
X135210598Y-108707309D01*
X135233609Y-108793190D01*
X135233610Y-108793192D01*
X135233611Y-108793195D01*
X135299494Y-108907307D01*
X135299496Y-108907309D01*
X135299498Y-108907311D01*
X135299500Y-108907314D01*
X135392686Y-109000500D01*
X135392688Y-109000501D01*
X135392690Y-109000503D01*
X135393237Y-109000898D01*
X135395239Y-109001975D01*
X135439207Y-109027359D01*
X135450040Y-109033614D01*
X135471634Y-109057596D01*
X135505944Y-109066174D01*
X135507548Y-109066588D01*
X135634108Y-109100500D01*
X135634110Y-109100500D01*
X135765890Y-109100500D01*
X135765892Y-109100500D01*
X135893186Y-109066392D01*
X135893188Y-109066390D01*
X135893190Y-109066390D01*
X136001190Y-109004035D01*
X136004067Y-109002639D01*
X136004853Y-109002122D01*
X136009862Y-108999028D01*
X136011161Y-108998277D01*
X136016519Y-108991294D01*
X136100500Y-108907314D01*
X136104434Y-108900500D01*
X136166390Y-108793190D01*
X136166390Y-108793188D01*
X136166392Y-108793186D01*
X136200500Y-108665892D01*
X136200500Y-108534108D01*
X136166392Y-108406814D01*
X136166390Y-108406811D01*
X136166390Y-108406809D01*
X136166383Y-108406798D01*
X136166066Y-108406094D01*
X136164812Y-108404076D01*
X136100503Y-108292690D01*
X136100501Y-108292688D01*
X136100500Y-108292686D01*
X136007314Y-108199500D01*
X136007311Y-108199498D01*
X136007309Y-108199496D01*
X135950475Y-108166683D01*
X135929441Y-108143322D01*
X135878722Y-108129732D01*
X135878722Y-108129731D01*
X135854516Y-108123246D01*
X135819670Y-108113909D01*
X135765892Y-108099500D01*
X135765891Y-108099500D01*
X135634109Y-108099500D01*
X135634108Y-108099500D01*
X135595154Y-108109937D01*
X135556199Y-108120375D01*
X135556198Y-108120374D01*
X135506807Y-108133609D01*
X135506805Y-108133610D01*
X135392694Y-108199492D01*
X135299492Y-108292694D01*
X135234221Y-108405747D01*
X135234220Y-108405749D01*
X135233609Y-108406809D01*
X135233608Y-108406814D01*
X135199500Y-108534108D01*
X101900500Y-108534108D01*
X101900500Y-108034109D01*
X157259500Y-108034109D01*
X157259500Y-108165894D01*
X157270463Y-108206806D01*
X157270463Y-108206808D01*
X157270464Y-108206808D01*
X157270464Y-108206809D01*
X157293609Y-108293190D01*
X157293610Y-108293192D01*
X157293611Y-108293195D01*
X157359494Y-108407307D01*
X157359496Y-108407309D01*
X157359498Y-108407311D01*
X157359500Y-108407314D01*
X157452686Y-108500500D01*
X157452688Y-108500501D01*
X157452690Y-108500503D01*
X157453237Y-108500898D01*
X157455239Y-108501975D01*
X157499207Y-108527359D01*
X157510040Y-108533614D01*
X157531634Y-108557596D01*
X157565944Y-108566174D01*
X157567548Y-108566588D01*
X157694108Y-108600500D01*
X157694110Y-108600500D01*
X157825890Y-108600500D01*
X157825892Y-108600500D01*
X157953186Y-108566392D01*
X157953188Y-108566390D01*
X157953190Y-108566390D01*
X158061190Y-108504035D01*
X158064067Y-108502639D01*
X158064853Y-108502122D01*
X158069862Y-108499028D01*
X158071161Y-108498277D01*
X158076519Y-108491294D01*
X158160500Y-108407314D01*
X158160791Y-108406811D01*
X158202766Y-108334108D01*
X167809500Y-108334108D01*
X167809500Y-108465892D01*
X167810600Y-108469997D01*
X167810600Y-108469999D01*
X167818773Y-108500500D01*
X167843610Y-108593194D01*
X167909494Y-108707307D01*
X167909495Y-108707308D01*
X167909496Y-108707309D01*
X167909498Y-108707311D01*
X167909500Y-108707314D01*
X168002686Y-108800500D01*
X168002688Y-108800501D01*
X168002690Y-108800503D01*
X168003237Y-108800898D01*
X168005239Y-108801975D01*
X168049207Y-108827359D01*
X168060040Y-108833614D01*
X168081634Y-108857596D01*
X168115944Y-108866174D01*
X168117548Y-108866588D01*
X168244108Y-108900500D01*
X168244110Y-108900500D01*
X168375890Y-108900500D01*
X168375892Y-108900500D01*
X168503186Y-108866392D01*
X168503188Y-108866390D01*
X168503190Y-108866390D01*
X168611190Y-108804035D01*
X168614067Y-108802639D01*
X168614853Y-108802122D01*
X168619862Y-108799028D01*
X168621161Y-108798277D01*
X168626519Y-108791294D01*
X168710500Y-108707314D01*
X168734416Y-108665890D01*
X168776390Y-108593190D01*
X168776390Y-108593188D01*
X168776392Y-108593186D01*
X168810500Y-108465892D01*
X168810500Y-108334108D01*
X168776392Y-108206814D01*
X168776390Y-108206811D01*
X168776390Y-108206809D01*
X168776383Y-108206798D01*
X168776066Y-108206094D01*
X168774812Y-108204076D01*
X168710503Y-108092690D01*
X168710501Y-108092688D01*
X168710500Y-108092686D01*
X168617314Y-107999500D01*
X168617311Y-107999498D01*
X168617309Y-107999496D01*
X168617302Y-107999492D01*
X168560476Y-107966683D01*
X168539442Y-107943322D01*
X168453799Y-107920375D01*
X168453798Y-107920374D01*
X168392921Y-107904063D01*
X168375892Y-107899500D01*
X168375891Y-107899500D01*
X168244109Y-107899500D01*
X168244108Y-107899500D01*
X168205154Y-107909937D01*
X168166199Y-107920375D01*
X168166198Y-107920374D01*
X168116807Y-107933609D01*
X168116805Y-107933610D01*
X168002694Y-107999492D01*
X167909492Y-108092694D01*
X167844221Y-108205747D01*
X167844220Y-108205749D01*
X167843609Y-108206809D01*
X167843608Y-108206814D01*
X167809500Y-108334108D01*
X158202766Y-108334108D01*
X158226388Y-108293193D01*
X158226388Y-108293192D01*
X158226392Y-108293186D01*
X158260500Y-108165892D01*
X158260500Y-108034108D01*
X158226392Y-107906814D01*
X158226390Y-107906811D01*
X158226390Y-107906809D01*
X158226383Y-107906798D01*
X158226066Y-107906094D01*
X158224812Y-107904076D01*
X158160503Y-107792690D01*
X158160501Y-107792688D01*
X158160500Y-107792686D01*
X158067314Y-107699500D01*
X158067311Y-107699498D01*
X158067309Y-107699496D01*
X158067302Y-107699492D01*
X158010476Y-107666683D01*
X157989442Y-107643322D01*
X157903799Y-107620375D01*
X157903798Y-107620374D01*
X157846766Y-107605093D01*
X157825892Y-107599500D01*
X157825891Y-107599500D01*
X157694109Y-107599500D01*
X157694108Y-107599500D01*
X157655154Y-107609937D01*
X157616199Y-107620375D01*
X157616198Y-107620374D01*
X157566807Y-107633609D01*
X157566805Y-107633610D01*
X157452694Y-107699492D01*
X157359492Y-107792694D01*
X157293610Y-107906805D01*
X157293608Y-107906809D01*
X157286427Y-107933607D01*
X157286428Y-107933608D01*
X157259501Y-108034105D01*
X157259500Y-108034109D01*
X101900500Y-108034109D01*
X101900500Y-105984108D01*
X135899500Y-105984108D01*
X135899500Y-106115892D01*
X135929579Y-106228151D01*
X135933609Y-106243190D01*
X135999496Y-106357309D01*
X135999498Y-106357311D01*
X135999500Y-106357314D01*
X136092686Y-106450500D01*
X136092688Y-106450501D01*
X136092690Y-106450503D01*
X136093237Y-106450898D01*
X136095239Y-106451975D01*
X136139207Y-106477359D01*
X136150040Y-106483614D01*
X136171634Y-106507596D01*
X136205944Y-106516174D01*
X136207548Y-106516588D01*
X136334108Y-106550500D01*
X136334110Y-106550500D01*
X136465890Y-106550500D01*
X136465892Y-106550500D01*
X136593186Y-106516392D01*
X136593188Y-106516390D01*
X136593190Y-106516390D01*
X136701190Y-106454035D01*
X136704067Y-106452639D01*
X136704853Y-106452122D01*
X136709862Y-106449028D01*
X136711161Y-106448277D01*
X136716519Y-106441294D01*
X136800500Y-106357314D01*
X136837522Y-106293190D01*
X136866390Y-106243190D01*
X136866390Y-106243188D01*
X136866392Y-106243186D01*
X136900500Y-106115892D01*
X136900500Y-106034108D01*
X154809500Y-106034108D01*
X154809500Y-106165892D01*
X154830211Y-106243186D01*
X154843609Y-106293190D01*
X154909496Y-106407309D01*
X154909498Y-106407311D01*
X154909500Y-106407314D01*
X155002686Y-106500500D01*
X155002688Y-106500501D01*
X155002690Y-106500503D01*
X155003237Y-106500898D01*
X155005239Y-106501975D01*
X155049207Y-106527359D01*
X155060040Y-106533614D01*
X155081634Y-106557596D01*
X155115944Y-106566174D01*
X155117548Y-106566588D01*
X155244108Y-106600500D01*
X155244110Y-106600500D01*
X155375890Y-106600500D01*
X155375892Y-106600500D01*
X155503186Y-106566392D01*
X155503188Y-106566390D01*
X155503190Y-106566390D01*
X155611190Y-106504035D01*
X155614067Y-106502639D01*
X155614853Y-106502122D01*
X155619862Y-106499028D01*
X155621161Y-106498277D01*
X155626519Y-106491294D01*
X155710500Y-106407314D01*
X155739368Y-106357314D01*
X155776390Y-106293190D01*
X155776390Y-106293188D01*
X155776392Y-106293186D01*
X155810500Y-106165892D01*
X155810500Y-106034108D01*
X155776392Y-105906814D01*
X155776390Y-105906811D01*
X155776390Y-105906809D01*
X155776383Y-105906798D01*
X155776066Y-105906094D01*
X155774812Y-105904076D01*
X155710503Y-105792690D01*
X155710501Y-105792688D01*
X155710500Y-105792686D01*
X155617314Y-105699500D01*
X155617311Y-105699498D01*
X155617309Y-105699496D01*
X155617302Y-105699492D01*
X155560476Y-105666683D01*
X155539442Y-105643322D01*
X155453799Y-105620375D01*
X155453798Y-105620374D01*
X155396766Y-105605093D01*
X155375892Y-105599500D01*
X155375891Y-105599500D01*
X155244109Y-105599500D01*
X155244108Y-105599500D01*
X155205154Y-105609937D01*
X155166199Y-105620375D01*
X155166198Y-105620374D01*
X155116807Y-105633609D01*
X155116805Y-105633610D01*
X155002694Y-105699492D01*
X154909492Y-105792694D01*
X154844221Y-105905747D01*
X154844220Y-105905749D01*
X154843609Y-105906809D01*
X154843608Y-105906814D01*
X154809500Y-106034108D01*
X136900500Y-106034108D01*
X136900500Y-105984108D01*
X136866392Y-105856814D01*
X136866390Y-105856811D01*
X136866390Y-105856809D01*
X136866383Y-105856798D01*
X136866066Y-105856094D01*
X136864812Y-105854076D01*
X136800503Y-105742690D01*
X136800501Y-105742688D01*
X136800500Y-105742686D01*
X136707314Y-105649500D01*
X136707311Y-105649498D01*
X136707309Y-105649496D01*
X136679792Y-105633609D01*
X136650476Y-105616683D01*
X136629442Y-105593322D01*
X136543799Y-105570375D01*
X136543798Y-105570374D01*
X136486766Y-105555093D01*
X136465892Y-105549500D01*
X136465891Y-105549500D01*
X136334109Y-105549500D01*
X136334108Y-105549500D01*
X136295154Y-105559937D01*
X136256199Y-105570375D01*
X136256198Y-105570374D01*
X136206807Y-105583609D01*
X136206805Y-105583610D01*
X136092694Y-105649492D01*
X135999492Y-105742694D01*
X135934221Y-105855747D01*
X135934220Y-105855749D01*
X135933609Y-105856809D01*
X135933608Y-105856814D01*
X135899500Y-105984108D01*
X101900500Y-105984108D01*
X101900500Y-101993543D01*
X104804500Y-101993543D01*
X104804500Y-102216457D01*
X104804667Y-102217726D01*
X104804667Y-102217729D01*
X104832163Y-102426586D01*
X104832746Y-102431010D01*
X104832747Y-102431026D01*
X104832748Y-102431026D01*
X104833594Y-102437457D01*
X104891290Y-102652783D01*
X104976590Y-102858719D01*
X104976640Y-102858817D01*
X104977027Y-102859475D01*
X105077563Y-103033608D01*
X105083172Y-103043322D01*
X105088052Y-103051774D01*
X105223753Y-103228624D01*
X105381376Y-103386247D01*
X105381379Y-103386249D01*
X105558220Y-103521944D01*
X105559382Y-103522671D01*
X105560801Y-103523434D01*
X105709003Y-103609000D01*
X105750517Y-103632968D01*
X105751188Y-103633362D01*
X105751271Y-103633404D01*
X105751274Y-103633405D01*
X105751277Y-103633407D01*
X105895598Y-103693186D01*
X105957219Y-103718710D01*
X106172537Y-103776404D01*
X106393543Y-103805500D01*
X106393544Y-103805500D01*
X106616456Y-103805500D01*
X106616457Y-103805500D01*
X106837463Y-103776404D01*
X107052781Y-103718710D01*
X107182647Y-103664917D01*
X107252745Y-103635882D01*
X107258889Y-103633797D01*
X107263211Y-103631665D01*
X107268453Y-103627788D01*
X107451774Y-103521948D01*
X107628624Y-103386247D01*
X107786247Y-103228624D01*
X107921948Y-103051774D01*
X108033405Y-102858726D01*
X108118710Y-102652781D01*
X108176404Y-102437463D01*
X108205500Y-102216457D01*
X108205500Y-101993543D01*
X108176404Y-101772537D01*
X108118710Y-101557219D01*
X108097703Y-101506503D01*
X112695000Y-101506503D01*
X112695000Y-101703495D01*
X112731527Y-101887126D01*
X112731527Y-101887129D01*
X112733428Y-101896689D01*
X112773546Y-101993542D01*
X112808809Y-102078675D01*
X112808812Y-102078681D01*
X112845848Y-102134109D01*
X112900870Y-102216456D01*
X112917392Y-102241182D01*
X113271442Y-101887131D01*
X113325957Y-101859356D01*
X113386389Y-101868927D01*
X113411444Y-101887130D01*
X113412865Y-101888551D01*
X113440641Y-101943066D01*
X113431070Y-102003498D01*
X113412864Y-102028556D01*
X113058815Y-102382605D01*
X113221316Y-102491186D01*
X113221328Y-102491192D01*
X113260251Y-102507314D01*
X113403310Y-102566570D01*
X113594178Y-102604535D01*
X113595920Y-102604926D01*
X113596504Y-102604998D01*
X113596506Y-102604999D01*
X113596510Y-102605000D01*
X113596515Y-102605000D01*
X113793490Y-102605000D01*
X113793492Y-102605000D01*
X113797404Y-102604364D01*
X113799574Y-102603789D01*
X113943485Y-102575163D01*
X113977127Y-102568472D01*
X113977128Y-102568471D01*
X113984275Y-102567050D01*
X113986689Y-102566570D01*
X113986690Y-102566570D01*
X114168675Y-102491190D01*
X114331182Y-102382605D01*
X113977132Y-102028555D01*
X113949357Y-101974041D01*
X113958928Y-101913609D01*
X113977128Y-101888557D01*
X113978554Y-101887131D01*
X114033067Y-101859357D01*
X114093499Y-101868928D01*
X114118554Y-101887131D01*
X114472605Y-102241182D01*
X114581190Y-102078675D01*
X114656570Y-101896690D01*
X114656570Y-101896688D01*
X114656858Y-101895239D01*
X114658472Y-101887129D01*
X114658472Y-101887127D01*
X114675902Y-101799498D01*
X114693789Y-101709574D01*
X114694364Y-101707404D01*
X114695000Y-101703491D01*
X114695000Y-101509073D01*
X114695000Y-101506509D01*
X114694999Y-101506506D01*
X114694989Y-101506456D01*
X115234500Y-101506456D01*
X115234500Y-101703543D01*
X115245610Y-101759394D01*
X115272124Y-101892688D01*
X115272932Y-101896750D01*
X115272950Y-101896841D01*
X115348364Y-102078909D01*
X115348366Y-102078911D01*
X115348367Y-102078913D01*
X115348368Y-102078914D01*
X115457861Y-102242782D01*
X115597218Y-102382139D01*
X115761086Y-102491632D01*
X115943165Y-102567051D01*
X116136459Y-102605500D01*
X116136460Y-102605500D01*
X116333540Y-102605500D01*
X116333541Y-102605500D01*
X116526835Y-102567051D01*
X116708914Y-102491632D01*
X116872782Y-102382139D01*
X117012139Y-102242782D01*
X117121632Y-102078914D01*
X117121633Y-102078911D01*
X117121634Y-102078911D01*
X117175202Y-101949584D01*
X117197051Y-101896835D01*
X117235500Y-101703541D01*
X117235500Y-101506459D01*
X117235499Y-101506456D01*
X117774500Y-101506456D01*
X117774500Y-101703543D01*
X117785610Y-101759394D01*
X117812124Y-101892688D01*
X117812932Y-101896750D01*
X117812950Y-101896841D01*
X117888364Y-102078909D01*
X117888366Y-102078911D01*
X117888367Y-102078913D01*
X117888368Y-102078914D01*
X117997861Y-102242782D01*
X118137218Y-102382139D01*
X118301086Y-102491632D01*
X118483165Y-102567051D01*
X118676459Y-102605500D01*
X118676460Y-102605500D01*
X118873540Y-102605500D01*
X118873541Y-102605500D01*
X119066835Y-102567051D01*
X119248914Y-102491632D01*
X119412782Y-102382139D01*
X119552139Y-102242782D01*
X119661632Y-102078914D01*
X119661633Y-102078911D01*
X119661634Y-102078911D01*
X119715202Y-101949584D01*
X119737051Y-101896835D01*
X119775500Y-101703541D01*
X119775500Y-101506459D01*
X119775499Y-101506456D01*
X120314500Y-101506456D01*
X120314500Y-101703543D01*
X120325610Y-101759394D01*
X120352124Y-101892688D01*
X120352932Y-101896750D01*
X120352950Y-101896841D01*
X120428364Y-102078909D01*
X120428366Y-102078911D01*
X120428367Y-102078913D01*
X120428368Y-102078914D01*
X120537861Y-102242782D01*
X120677218Y-102382139D01*
X120841086Y-102491632D01*
X121023165Y-102567051D01*
X121216459Y-102605500D01*
X121216460Y-102605500D01*
X121413540Y-102605500D01*
X121413541Y-102605500D01*
X121606835Y-102567051D01*
X121788914Y-102491632D01*
X121952782Y-102382139D01*
X122092139Y-102242782D01*
X122201632Y-102078914D01*
X122201633Y-102078911D01*
X122201634Y-102078911D01*
X122236994Y-101993543D01*
X126804500Y-101993543D01*
X126804500Y-102216457D01*
X126804667Y-102217726D01*
X126804667Y-102217729D01*
X126832163Y-102426586D01*
X126832746Y-102431010D01*
X126832747Y-102431026D01*
X126832748Y-102431026D01*
X126833594Y-102437457D01*
X126891290Y-102652783D01*
X126976590Y-102858719D01*
X126976640Y-102858817D01*
X126977027Y-102859475D01*
X127077563Y-103033608D01*
X127083172Y-103043322D01*
X127088052Y-103051774D01*
X127223753Y-103228624D01*
X127381376Y-103386247D01*
X127381379Y-103386249D01*
X127558220Y-103521944D01*
X127559382Y-103522671D01*
X127560801Y-103523434D01*
X127709003Y-103609000D01*
X127750517Y-103632968D01*
X127751188Y-103633362D01*
X127751271Y-103633404D01*
X127751274Y-103633405D01*
X127751277Y-103633407D01*
X127895598Y-103693186D01*
X127957219Y-103718710D01*
X128172537Y-103776404D01*
X128393543Y-103805500D01*
X128393544Y-103805500D01*
X128616456Y-103805500D01*
X128616457Y-103805500D01*
X128837463Y-103776404D01*
X129052781Y-103718710D01*
X129182647Y-103664917D01*
X129252745Y-103635882D01*
X129258889Y-103633797D01*
X129263211Y-103631665D01*
X129268453Y-103627788D01*
X129451774Y-103521948D01*
X129566250Y-103434108D01*
X135949500Y-103434108D01*
X135949500Y-103565892D01*
X135979579Y-103678151D01*
X135983609Y-103693190D01*
X136049496Y-103807309D01*
X136049498Y-103807311D01*
X136049500Y-103807314D01*
X136142686Y-103900500D01*
X136142688Y-103900501D01*
X136142690Y-103900503D01*
X136143237Y-103900898D01*
X136145239Y-103901975D01*
X136171181Y-103916952D01*
X136200040Y-103933614D01*
X136221634Y-103957596D01*
X136255944Y-103966174D01*
X136257548Y-103966588D01*
X136384108Y-104000500D01*
X136384110Y-104000500D01*
X136515890Y-104000500D01*
X136515892Y-104000500D01*
X136643186Y-103966392D01*
X136643188Y-103966390D01*
X136643190Y-103966390D01*
X136682649Y-103943608D01*
X161809500Y-103943608D01*
X161809500Y-104075392D01*
X161839579Y-104187651D01*
X161843609Y-104202690D01*
X161909496Y-104316809D01*
X161909498Y-104316811D01*
X161909500Y-104316814D01*
X162002686Y-104410000D01*
X162002688Y-104410001D01*
X162002690Y-104410003D01*
X162003237Y-104410398D01*
X162005247Y-104411479D01*
X162060040Y-104443114D01*
X162081634Y-104467096D01*
X162115958Y-104475677D01*
X162117482Y-104476071D01*
X162225377Y-104504980D01*
X162253671Y-104517579D01*
X162264856Y-104524843D01*
X162303357Y-104572386D01*
X162305183Y-104577142D01*
X162307816Y-104627331D01*
X162310348Y-104627665D01*
X162309500Y-104634102D01*
X162309500Y-104765891D01*
X162332237Y-104850753D01*
X162343607Y-104893186D01*
X162369146Y-104937419D01*
X162380248Y-104966343D01*
X162382616Y-104977487D01*
X162376216Y-105038337D01*
X162335289Y-105083794D01*
X162331071Y-105086230D01*
X162281560Y-105099500D01*
X162244108Y-105099500D01*
X162205154Y-105109937D01*
X162166199Y-105120375D01*
X162166198Y-105120374D01*
X162116807Y-105133609D01*
X162116805Y-105133610D01*
X162002694Y-105199492D01*
X161909492Y-105292694D01*
X161843608Y-105406809D01*
X161843330Y-105407545D01*
X161842784Y-105409886D01*
X161809500Y-105534108D01*
X161809500Y-105665892D01*
X161830077Y-105742686D01*
X161843609Y-105793190D01*
X161909496Y-105907309D01*
X161909498Y-105907311D01*
X161909500Y-105907314D01*
X162002686Y-106000500D01*
X162002688Y-106000501D01*
X162002690Y-106000503D01*
X162003237Y-106000898D01*
X162005239Y-106001975D01*
X162049207Y-106027359D01*
X162060040Y-106033614D01*
X162081634Y-106057596D01*
X162115944Y-106066174D01*
X162117548Y-106066588D01*
X162244108Y-106100500D01*
X162244110Y-106100500D01*
X162375890Y-106100500D01*
X162375892Y-106100500D01*
X162503186Y-106066392D01*
X162503188Y-106066390D01*
X162503190Y-106066390D01*
X162611190Y-106004035D01*
X162614067Y-106002639D01*
X162614853Y-106002122D01*
X162619862Y-105999028D01*
X162621161Y-105998277D01*
X162626519Y-105991294D01*
X162710500Y-105907314D01*
X162710790Y-105906812D01*
X162776390Y-105793190D01*
X162776390Y-105793188D01*
X162776392Y-105793186D01*
X162810500Y-105665892D01*
X162810500Y-105534108D01*
X162776392Y-105406814D01*
X162750852Y-105362578D01*
X162739753Y-105333663D01*
X162737384Y-105322517D01*
X162743781Y-105261667D01*
X162784719Y-105216200D01*
X162788954Y-105213755D01*
X162838440Y-105200500D01*
X162875890Y-105200500D01*
X162875892Y-105200500D01*
X163003186Y-105166392D01*
X163003188Y-105166390D01*
X163003190Y-105166390D01*
X163111190Y-105104035D01*
X163114067Y-105102639D01*
X163114853Y-105102122D01*
X163119862Y-105099028D01*
X163121161Y-105098277D01*
X163126519Y-105091294D01*
X163210500Y-105007314D01*
X163276392Y-104893186D01*
X163310500Y-104765892D01*
X163310500Y-104634108D01*
X163276392Y-104506814D01*
X163276390Y-104506811D01*
X163276390Y-104506809D01*
X163276383Y-104506798D01*
X163276066Y-104506094D01*
X163274812Y-104504076D01*
X163210503Y-104392690D01*
X163210501Y-104392688D01*
X163210500Y-104392686D01*
X163117314Y-104299500D01*
X163117311Y-104299498D01*
X163117309Y-104299496D01*
X163117308Y-104299495D01*
X163060476Y-104266683D01*
X163039442Y-104243322D01*
X162894625Y-104204519D01*
X162866325Y-104191918D01*
X162855139Y-104184653D01*
X162816640Y-104137111D01*
X162814814Y-104132355D01*
X162812180Y-104082157D01*
X162809653Y-104081825D01*
X162810500Y-104075393D01*
X162810500Y-103943609D01*
X162804828Y-103922440D01*
X162776392Y-103816314D01*
X162776390Y-103816311D01*
X162776390Y-103816309D01*
X162776383Y-103816298D01*
X162776066Y-103815594D01*
X162774812Y-103813576D01*
X162710503Y-103702190D01*
X162710501Y-103702188D01*
X162710500Y-103702186D01*
X162617314Y-103609000D01*
X162617311Y-103608998D01*
X162617309Y-103608996D01*
X162617302Y-103608992D01*
X162560476Y-103576183D01*
X162539442Y-103552822D01*
X162453799Y-103529875D01*
X162453798Y-103529874D01*
X162396766Y-103514593D01*
X162375892Y-103509000D01*
X162375891Y-103509000D01*
X162244109Y-103509000D01*
X162244108Y-103509000D01*
X162205154Y-103519437D01*
X162166199Y-103529875D01*
X162166198Y-103529874D01*
X162116807Y-103543109D01*
X162116805Y-103543110D01*
X162002694Y-103608992D01*
X161909492Y-103702194D01*
X161843608Y-103816309D01*
X161843330Y-103817045D01*
X161842784Y-103819386D01*
X161814134Y-103926314D01*
X161809500Y-103943608D01*
X136682649Y-103943608D01*
X136751190Y-103904035D01*
X136754067Y-103902639D01*
X136754853Y-103902122D01*
X136759862Y-103899028D01*
X136761159Y-103898278D01*
X136766515Y-103891298D01*
X136850500Y-103807314D01*
X136901656Y-103718710D01*
X136916390Y-103693190D01*
X136916390Y-103693188D01*
X136916392Y-103693186D01*
X136950500Y-103565892D01*
X136950500Y-103434108D01*
X136944946Y-103413381D01*
X174809500Y-103413381D01*
X174809500Y-103586617D01*
X174836595Y-103757696D01*
X174836596Y-103757701D01*
X174856639Y-103819386D01*
X174888340Y-103916952D01*
X174890123Y-103922437D01*
X174892001Y-103926314D01*
X174892751Y-103927595D01*
X174968049Y-104075379D01*
X174968764Y-104076782D01*
X174968767Y-104076786D01*
X174968768Y-104076788D01*
X175070586Y-104216928D01*
X175193072Y-104339414D01*
X175333212Y-104441232D01*
X175482407Y-104517250D01*
X175488254Y-104520229D01*
X175491227Y-104521067D01*
X175652293Y-104573401D01*
X175652297Y-104573402D01*
X175652303Y-104573403D01*
X175823383Y-104600500D01*
X175996614Y-104600500D01*
X175996617Y-104600500D01*
X176144089Y-104577142D01*
X176167702Y-104573402D01*
X176167706Y-104573401D01*
X176332438Y-104519876D01*
X176332438Y-104519875D01*
X176333182Y-104519634D01*
X176335899Y-104518113D01*
X176436027Y-104467096D01*
X176486788Y-104441232D01*
X176626928Y-104339414D01*
X176749414Y-104216928D01*
X176851232Y-104076788D01*
X176929873Y-103922445D01*
X176929874Y-103922440D01*
X176929876Y-103922438D01*
X176931100Y-103918669D01*
X176931369Y-103918057D01*
X176931655Y-103916960D01*
X176983401Y-103757706D01*
X176983402Y-103757702D01*
X176989578Y-103718709D01*
X177010500Y-103586617D01*
X177010500Y-103413381D01*
X181809500Y-103413381D01*
X181809500Y-103586617D01*
X181836595Y-103757696D01*
X181836596Y-103757701D01*
X181856639Y-103819386D01*
X181888340Y-103916952D01*
X181890123Y-103922437D01*
X181892001Y-103926314D01*
X181892751Y-103927595D01*
X181968049Y-104075379D01*
X181968764Y-104076782D01*
X181968767Y-104076786D01*
X181968768Y-104076788D01*
X182070586Y-104216928D01*
X182193072Y-104339414D01*
X182333212Y-104441232D01*
X182482407Y-104517250D01*
X182488254Y-104520229D01*
X182491227Y-104521067D01*
X182652293Y-104573401D01*
X182652297Y-104573402D01*
X182652303Y-104573403D01*
X182823383Y-104600500D01*
X182996614Y-104600500D01*
X182996617Y-104600500D01*
X183144089Y-104577142D01*
X183167702Y-104573402D01*
X183167706Y-104573401D01*
X183332438Y-104519876D01*
X183332438Y-104519875D01*
X183333182Y-104519634D01*
X183335899Y-104518113D01*
X183436027Y-104467096D01*
X183486788Y-104441232D01*
X183626928Y-104339414D01*
X183749414Y-104216928D01*
X183851232Y-104076788D01*
X183929873Y-103922445D01*
X183929874Y-103922440D01*
X183929876Y-103922438D01*
X183931100Y-103918669D01*
X183931369Y-103918057D01*
X183931655Y-103916960D01*
X183983401Y-103757706D01*
X183983402Y-103757702D01*
X183989578Y-103718709D01*
X184010500Y-103586617D01*
X184010500Y-103413381D01*
X183983403Y-103242303D01*
X183983402Y-103242297D01*
X183983401Y-103242293D01*
X183929876Y-103077561D01*
X183929874Y-103077558D01*
X183929873Y-103077557D01*
X183929873Y-103077555D01*
X183928090Y-103074055D01*
X183927842Y-103073420D01*
X183927250Y-103072408D01*
X183851232Y-102923212D01*
X183749414Y-102783072D01*
X183626928Y-102660586D01*
X183626924Y-102660583D01*
X183626922Y-102660581D01*
X183495247Y-102564913D01*
X183495236Y-102564906D01*
X183486788Y-102558768D01*
X183486787Y-102558767D01*
X183486785Y-102558766D01*
X183385789Y-102507307D01*
X183337591Y-102482749D01*
X183336311Y-102482000D01*
X183332440Y-102480124D01*
X183332438Y-102480123D01*
X183256005Y-102455288D01*
X183167701Y-102426596D01*
X183167696Y-102426595D01*
X182996617Y-102399500D01*
X182996614Y-102399500D01*
X182996611Y-102399500D01*
X182823389Y-102399500D01*
X182823386Y-102399500D01*
X182823383Y-102399500D01*
X182652302Y-102426595D01*
X182652297Y-102426596D01*
X182487561Y-102480123D01*
X182483685Y-102482000D01*
X182482407Y-102482749D01*
X182333209Y-102558768D01*
X182193078Y-102660580D01*
X182070580Y-102783078D01*
X181968768Y-102923209D01*
X181892749Y-103072407D01*
X181892000Y-103073685D01*
X181890123Y-103077561D01*
X181836596Y-103242297D01*
X181836595Y-103242302D01*
X181809500Y-103413381D01*
X177010500Y-103413381D01*
X176983403Y-103242303D01*
X176983402Y-103242297D01*
X176983401Y-103242293D01*
X176929876Y-103077561D01*
X176929874Y-103077558D01*
X176929873Y-103077557D01*
X176929873Y-103077555D01*
X176928090Y-103074055D01*
X176927842Y-103073420D01*
X176927250Y-103072408D01*
X176851232Y-102923212D01*
X176749414Y-102783072D01*
X176626928Y-102660586D01*
X176626924Y-102660583D01*
X176626922Y-102660581D01*
X176495247Y-102564913D01*
X176495236Y-102564906D01*
X176486788Y-102558768D01*
X176486787Y-102558767D01*
X176486785Y-102558766D01*
X176385789Y-102507307D01*
X176337591Y-102482749D01*
X176336311Y-102482000D01*
X176332440Y-102480124D01*
X176332438Y-102480123D01*
X176256005Y-102455288D01*
X176167701Y-102426596D01*
X176167696Y-102426595D01*
X175996617Y-102399500D01*
X175996614Y-102399500D01*
X175996611Y-102399500D01*
X175823389Y-102399500D01*
X175823386Y-102399500D01*
X175823383Y-102399500D01*
X175652302Y-102426595D01*
X175652297Y-102426596D01*
X175487561Y-102480123D01*
X175483685Y-102482000D01*
X175482407Y-102482749D01*
X175333209Y-102558768D01*
X175193078Y-102660580D01*
X175070580Y-102783078D01*
X174968768Y-102923209D01*
X174892749Y-103072407D01*
X174892000Y-103073685D01*
X174890123Y-103077561D01*
X174836596Y-103242297D01*
X174836595Y-103242302D01*
X174809500Y-103413381D01*
X136944946Y-103413381D01*
X136916392Y-103306814D01*
X136916390Y-103306811D01*
X136916390Y-103306809D01*
X136916388Y-103306806D01*
X136916298Y-103306468D01*
X136914812Y-103304076D01*
X136850503Y-103192690D01*
X136850501Y-103192688D01*
X136850500Y-103192686D01*
X136757314Y-103099500D01*
X136757311Y-103099498D01*
X136757309Y-103099496D01*
X136757302Y-103099492D01*
X136700476Y-103066683D01*
X136679442Y-103043322D01*
X136593799Y-103020375D01*
X136593798Y-103020374D01*
X136536766Y-103005093D01*
X136515892Y-102999500D01*
X136515891Y-102999500D01*
X136384109Y-102999500D01*
X136384108Y-102999500D01*
X136345154Y-103009937D01*
X136306199Y-103020375D01*
X136306198Y-103020374D01*
X136256807Y-103033609D01*
X136256805Y-103033610D01*
X136142694Y-103099492D01*
X136049492Y-103192694D01*
X135984221Y-103305747D01*
X135984220Y-103305749D01*
X135983609Y-103306809D01*
X135983608Y-103306814D01*
X135949500Y-103434108D01*
X129566250Y-103434108D01*
X129628624Y-103386247D01*
X129786247Y-103228624D01*
X129921948Y-103051774D01*
X130033405Y-102858726D01*
X130118710Y-102652781D01*
X130176404Y-102437463D01*
X130205500Y-102216457D01*
X130205500Y-102134108D01*
X159709500Y-102134108D01*
X159709500Y-102265892D01*
X159710600Y-102269997D01*
X159710600Y-102269999D01*
X159727424Y-102332788D01*
X159727425Y-102332788D01*
X159727425Y-102332789D01*
X159743609Y-102393190D01*
X159743610Y-102393192D01*
X159743611Y-102393195D01*
X159809494Y-102507307D01*
X159809496Y-102507309D01*
X159809498Y-102507311D01*
X159809500Y-102507314D01*
X159902686Y-102600500D01*
X159902688Y-102600501D01*
X159902690Y-102600503D01*
X159903237Y-102600898D01*
X159905239Y-102601975D01*
X159949207Y-102627359D01*
X159960040Y-102633614D01*
X159981634Y-102657596D01*
X160015944Y-102666174D01*
X160017548Y-102666588D01*
X160144108Y-102700500D01*
X160144110Y-102700500D01*
X160275890Y-102700500D01*
X160275892Y-102700500D01*
X160403186Y-102666392D01*
X160403188Y-102666390D01*
X160403190Y-102666390D01*
X160511190Y-102604035D01*
X160514067Y-102602639D01*
X160514853Y-102602122D01*
X160519862Y-102599028D01*
X160521161Y-102598277D01*
X160526519Y-102591294D01*
X160610500Y-102507314D01*
X160619809Y-102491190D01*
X160676390Y-102393190D01*
X160676390Y-102393188D01*
X160676392Y-102393186D01*
X160710500Y-102265892D01*
X160710500Y-102134108D01*
X160676392Y-102006814D01*
X160676390Y-102006811D01*
X160676390Y-102006809D01*
X160676383Y-102006798D01*
X160676066Y-102006094D01*
X160674812Y-102004076D01*
X160610503Y-101892690D01*
X160610501Y-101892688D01*
X160610500Y-101892686D01*
X160517314Y-101799500D01*
X160517311Y-101799498D01*
X160517309Y-101799496D01*
X160517302Y-101799492D01*
X160460476Y-101766683D01*
X160439442Y-101743322D01*
X160353799Y-101720375D01*
X160353798Y-101720374D01*
X160296766Y-101705093D01*
X160275892Y-101699500D01*
X160275891Y-101699500D01*
X160144109Y-101699500D01*
X160144108Y-101699500D01*
X160106462Y-101709587D01*
X160066199Y-101720375D01*
X160066198Y-101720374D01*
X160016807Y-101733609D01*
X160016805Y-101733610D01*
X159902694Y-101799492D01*
X159809492Y-101892694D01*
X159744221Y-102005747D01*
X159744220Y-102005749D01*
X159743609Y-102006809D01*
X159743608Y-102006814D01*
X159709500Y-102134108D01*
X130205500Y-102134108D01*
X130205500Y-101993543D01*
X130176404Y-101772537D01*
X130118710Y-101557219D01*
X130074550Y-101450606D01*
X130033407Y-101351277D01*
X130033404Y-101351272D01*
X130033404Y-101351271D01*
X130033362Y-101351188D01*
X130032968Y-101350517D01*
X130016185Y-101321449D01*
X129923434Y-101160800D01*
X129922671Y-101159382D01*
X129921944Y-101158220D01*
X129831480Y-101040326D01*
X129786247Y-100981376D01*
X129628624Y-100823753D01*
X129451774Y-100688052D01*
X129451771Y-100688050D01*
X129451765Y-100688046D01*
X129451763Y-100688045D01*
X129259475Y-100577027D01*
X129258817Y-100576640D01*
X129258719Y-100576590D01*
X129052787Y-100491292D01*
X129052786Y-100491291D01*
X129052782Y-100491290D01*
X128957839Y-100465850D01*
X128840329Y-100434363D01*
X128838134Y-100433704D01*
X128833068Y-100432882D01*
X128831024Y-100432748D01*
X128616458Y-100404500D01*
X128616457Y-100404500D01*
X128393543Y-100404500D01*
X128393542Y-100404500D01*
X128393541Y-100404500D01*
X128178978Y-100432748D01*
X128178968Y-100432748D01*
X128172541Y-100433594D01*
X127957215Y-100491290D01*
X127751279Y-100576590D01*
X127751175Y-100576643D01*
X127750523Y-100577027D01*
X127558230Y-100688048D01*
X127381382Y-100823747D01*
X127223747Y-100981382D01*
X127088048Y-101158230D01*
X126977027Y-101350523D01*
X126976643Y-101351175D01*
X126976590Y-101351279D01*
X126891290Y-101557215D01*
X126833594Y-101772541D01*
X126832748Y-101778973D01*
X126832748Y-101778977D01*
X126818356Y-101888295D01*
X126818355Y-101888301D01*
X126817778Y-101892690D01*
X126804500Y-101993543D01*
X122236994Y-101993543D01*
X122254028Y-101952417D01*
X122277051Y-101896835D01*
X122315500Y-101703541D01*
X122315500Y-101506459D01*
X122277051Y-101313165D01*
X122257900Y-101266931D01*
X122201632Y-101131086D01*
X122092139Y-100967218D01*
X121952782Y-100827861D01*
X121843288Y-100754699D01*
X121788913Y-100718367D01*
X121788911Y-100718366D01*
X121606836Y-100642949D01*
X121606835Y-100642949D01*
X121542404Y-100630132D01*
X121413545Y-100604500D01*
X121413543Y-100604500D01*
X121413541Y-100604500D01*
X121216459Y-100604500D01*
X121216456Y-100604500D01*
X121216455Y-100604500D01*
X121135027Y-100620697D01*
X121032727Y-100641047D01*
X121032720Y-100641047D01*
X121023161Y-100642948D01*
X120841088Y-100718365D01*
X120841087Y-100718365D01*
X120677220Y-100827858D01*
X120537858Y-100967220D01*
X120428365Y-101131087D01*
X120428365Y-101131088D01*
X120352950Y-101313158D01*
X120352949Y-101313162D01*
X120352949Y-101313163D01*
X120352949Y-101313165D01*
X120343753Y-101359394D01*
X120325610Y-101450606D01*
X120314500Y-101506456D01*
X119775499Y-101506456D01*
X119754689Y-101401836D01*
X119737051Y-101313165D01*
X119717900Y-101266931D01*
X119661632Y-101131086D01*
X119552139Y-100967218D01*
X119412782Y-100827861D01*
X119303288Y-100754699D01*
X119248913Y-100718367D01*
X119248911Y-100718366D01*
X119066836Y-100642949D01*
X119066835Y-100642949D01*
X119002404Y-100630132D01*
X118873545Y-100604500D01*
X118873543Y-100604500D01*
X118873541Y-100604500D01*
X118676459Y-100604500D01*
X118676456Y-100604500D01*
X118676455Y-100604500D01*
X118595027Y-100620697D01*
X118492727Y-100641047D01*
X118492720Y-100641047D01*
X118483161Y-100642948D01*
X118301088Y-100718365D01*
X118301087Y-100718365D01*
X118137220Y-100827858D01*
X117997858Y-100967220D01*
X117888365Y-101131087D01*
X117888365Y-101131088D01*
X117812950Y-101313158D01*
X117812949Y-101313162D01*
X117812949Y-101313163D01*
X117812949Y-101313165D01*
X117803753Y-101359394D01*
X117785610Y-101450606D01*
X117774500Y-101506456D01*
X117235499Y-101506456D01*
X117214689Y-101401836D01*
X117197051Y-101313165D01*
X117177900Y-101266931D01*
X117121632Y-101131086D01*
X117012139Y-100967218D01*
X116872782Y-100827861D01*
X116763288Y-100754699D01*
X116708913Y-100718367D01*
X116708911Y-100718366D01*
X116526836Y-100642949D01*
X116526835Y-100642949D01*
X116462404Y-100630132D01*
X116333545Y-100604500D01*
X116333543Y-100604500D01*
X116333541Y-100604500D01*
X116136459Y-100604500D01*
X116136456Y-100604500D01*
X116136455Y-100604500D01*
X116055027Y-100620697D01*
X115952727Y-100641047D01*
X115952720Y-100641047D01*
X115943161Y-100642948D01*
X115761088Y-100718365D01*
X115761087Y-100718365D01*
X115597220Y-100827858D01*
X115457858Y-100967220D01*
X115348365Y-101131087D01*
X115348365Y-101131088D01*
X115272950Y-101313158D01*
X115272949Y-101313162D01*
X115272949Y-101313163D01*
X115272949Y-101313165D01*
X115263753Y-101359394D01*
X115245610Y-101450606D01*
X115234500Y-101506456D01*
X114694989Y-101506456D01*
X114656570Y-101313311D01*
X114656570Y-101313309D01*
X114656569Y-101313307D01*
X114656569Y-101313305D01*
X114601949Y-101181441D01*
X114581190Y-101131324D01*
X114581188Y-101131322D01*
X114581188Y-101131320D01*
X114472605Y-100968815D01*
X114118556Y-101322864D01*
X114064040Y-101350641D01*
X114003608Y-101341070D01*
X113978552Y-101322866D01*
X113977131Y-101321445D01*
X113949356Y-101266931D01*
X113958927Y-101206499D01*
X113977134Y-101181440D01*
X114027488Y-101131086D01*
X114331183Y-100827392D01*
X114325732Y-100823750D01*
X114222390Y-100754699D01*
X114168681Y-100718812D01*
X114168678Y-100718810D01*
X114168676Y-100718809D01*
X114168675Y-100718808D01*
X113986690Y-100643429D01*
X113986689Y-100643429D01*
X113922290Y-100630619D01*
X113793495Y-100605000D01*
X113793493Y-100605000D01*
X113596506Y-100605000D01*
X113596503Y-100605000D01*
X113412873Y-100641527D01*
X113412867Y-100641527D01*
X113403309Y-100643428D01*
X113221320Y-100718810D01*
X113221314Y-100718813D01*
X113058816Y-100827392D01*
X113058816Y-100827393D01*
X113412866Y-101181443D01*
X113440642Y-101235958D01*
X113431071Y-101296390D01*
X113412865Y-101321449D01*
X113411449Y-101322865D01*
X113356932Y-101350642D01*
X113296500Y-101341071D01*
X113271444Y-101322867D01*
X112917393Y-100968816D01*
X112917392Y-100968816D01*
X112808813Y-101131314D01*
X112808810Y-101131320D01*
X112733430Y-101313305D01*
X112733429Y-101313311D01*
X112695000Y-101506503D01*
X108097703Y-101506503D01*
X108033405Y-101351274D01*
X108011401Y-101313163D01*
X107923419Y-101160775D01*
X107922665Y-101159373D01*
X107921944Y-101158220D01*
X107831480Y-101040326D01*
X107786247Y-100981376D01*
X107628624Y-100823753D01*
X107451774Y-100688052D01*
X107451771Y-100688050D01*
X107451765Y-100688046D01*
X107451763Y-100688045D01*
X107259475Y-100577027D01*
X107258817Y-100576640D01*
X107258719Y-100576590D01*
X107052787Y-100491292D01*
X107052786Y-100491291D01*
X107052782Y-100491290D01*
X106957839Y-100465850D01*
X106840329Y-100434363D01*
X106838134Y-100433704D01*
X106833068Y-100432882D01*
X106831024Y-100432748D01*
X106616458Y-100404500D01*
X106616457Y-100404500D01*
X106393543Y-100404500D01*
X106393542Y-100404500D01*
X106393541Y-100404500D01*
X106178978Y-100432748D01*
X106178968Y-100432748D01*
X106172541Y-100433594D01*
X105957215Y-100491290D01*
X105751279Y-100576590D01*
X105751175Y-100576643D01*
X105750523Y-100577027D01*
X105558230Y-100688048D01*
X105381382Y-100823747D01*
X105223747Y-100981382D01*
X105088048Y-101158230D01*
X104977027Y-101350523D01*
X104976643Y-101351175D01*
X104976590Y-101351279D01*
X104891290Y-101557215D01*
X104833594Y-101772541D01*
X104832748Y-101778973D01*
X104832748Y-101778977D01*
X104818356Y-101888295D01*
X104818355Y-101888301D01*
X104817778Y-101892690D01*
X104804500Y-101993543D01*
X101900500Y-101993543D01*
X101900500Y-95584108D01*
X110949500Y-95584108D01*
X110949500Y-95715892D01*
X110979579Y-95828151D01*
X110983609Y-95843190D01*
X111049496Y-95957309D01*
X111049498Y-95957311D01*
X111049500Y-95957314D01*
X111142686Y-96050500D01*
X111142688Y-96050501D01*
X111142690Y-96050503D01*
X111143237Y-96050898D01*
X111145239Y-96051975D01*
X111189207Y-96077359D01*
X111200040Y-96083614D01*
X111221634Y-96107596D01*
X111255944Y-96116174D01*
X111257548Y-96116588D01*
X111384108Y-96150500D01*
X111384110Y-96150500D01*
X111515890Y-96150500D01*
X111515892Y-96150500D01*
X111643186Y-96116392D01*
X111643188Y-96116390D01*
X111643190Y-96116390D01*
X111751190Y-96054035D01*
X111754067Y-96052639D01*
X111754853Y-96052122D01*
X111759862Y-96049028D01*
X111761161Y-96048277D01*
X111766519Y-96041294D01*
X111850500Y-95957314D01*
X111850503Y-95957309D01*
X111850504Y-95957308D01*
X111916390Y-95843190D01*
X111916390Y-95843188D01*
X111916392Y-95843186D01*
X111945619Y-95734108D01*
X130849500Y-95734108D01*
X130849500Y-95865892D01*
X130850600Y-95869997D01*
X130850600Y-95869998D01*
X130873995Y-95957309D01*
X130873994Y-95957309D01*
X130883609Y-95993191D01*
X130883610Y-95993193D01*
X130949494Y-96107307D01*
X130949496Y-96107309D01*
X130949498Y-96107311D01*
X130949500Y-96107314D01*
X131042686Y-96200500D01*
X131042688Y-96200501D01*
X131042690Y-96200503D01*
X131043237Y-96200898D01*
X131045239Y-96201975D01*
X131089207Y-96227359D01*
X131100040Y-96233614D01*
X131121634Y-96257596D01*
X131155944Y-96266174D01*
X131157548Y-96266588D01*
X131284108Y-96300500D01*
X131284110Y-96300500D01*
X131415890Y-96300500D01*
X131415892Y-96300500D01*
X131543186Y-96266392D01*
X131543188Y-96266390D01*
X131543190Y-96266390D01*
X131651190Y-96204035D01*
X131654067Y-96202639D01*
X131654853Y-96202122D01*
X131659862Y-96199028D01*
X131661161Y-96198277D01*
X131666519Y-96191294D01*
X131750500Y-96107314D01*
X131781254Y-96054047D01*
X131816390Y-95993190D01*
X131816390Y-95993188D01*
X131816392Y-95993186D01*
X131850500Y-95865892D01*
X131850500Y-95734108D01*
X131816392Y-95606814D01*
X131816390Y-95606811D01*
X131816390Y-95606809D01*
X131816383Y-95606798D01*
X131816066Y-95606094D01*
X131814812Y-95604076D01*
X131750503Y-95492690D01*
X131750501Y-95492688D01*
X131750500Y-95492686D01*
X131657314Y-95399500D01*
X131657311Y-95399498D01*
X131657309Y-95399496D01*
X131657302Y-95399492D01*
X131600476Y-95366683D01*
X131579442Y-95343322D01*
X131493799Y-95320375D01*
X131493798Y-95320374D01*
X131436766Y-95305093D01*
X131415892Y-95299500D01*
X131415891Y-95299500D01*
X131284109Y-95299500D01*
X131284108Y-95299500D01*
X131245154Y-95309937D01*
X131206199Y-95320375D01*
X131206198Y-95320374D01*
X131156807Y-95333609D01*
X131156805Y-95333610D01*
X131042694Y-95399492D01*
X130949492Y-95492694D01*
X130884221Y-95605747D01*
X130884220Y-95605749D01*
X130883609Y-95606809D01*
X130883608Y-95606814D01*
X130849500Y-95734108D01*
X111945619Y-95734108D01*
X111950500Y-95715892D01*
X111950500Y-95584108D01*
X111916392Y-95456814D01*
X111916390Y-95456811D01*
X111916390Y-95456809D01*
X111916383Y-95456798D01*
X111916066Y-95456094D01*
X111914812Y-95454076D01*
X111850503Y-95342690D01*
X111850501Y-95342688D01*
X111850500Y-95342686D01*
X111757314Y-95249500D01*
X111757311Y-95249498D01*
X111757309Y-95249496D01*
X111757302Y-95249492D01*
X111700476Y-95216683D01*
X111679442Y-95193322D01*
X111593799Y-95170375D01*
X111593798Y-95170374D01*
X111536766Y-95155093D01*
X111515892Y-95149500D01*
X111515891Y-95149500D01*
X111384109Y-95149500D01*
X111384108Y-95149500D01*
X111345154Y-95159937D01*
X111306199Y-95170375D01*
X111306198Y-95170374D01*
X111256807Y-95183609D01*
X111256805Y-95183610D01*
X111142694Y-95249492D01*
X111049492Y-95342694D01*
X110984221Y-95455747D01*
X110984220Y-95455749D01*
X110983609Y-95456809D01*
X110983608Y-95456814D01*
X110949500Y-95584108D01*
X101900500Y-95584108D01*
X101900500Y-93534108D01*
X110899500Y-93534108D01*
X110899500Y-93665892D01*
X110900600Y-93669997D01*
X110900600Y-93669999D01*
X110914152Y-93720578D01*
X110914153Y-93720578D01*
X110914153Y-93720579D01*
X110933609Y-93793190D01*
X110933610Y-93793192D01*
X110933611Y-93793195D01*
X110999494Y-93907307D01*
X110999496Y-93907309D01*
X110999498Y-93907311D01*
X110999500Y-93907314D01*
X111092686Y-94000500D01*
X111092688Y-94000501D01*
X111092690Y-94000503D01*
X111093237Y-94000898D01*
X111095239Y-94001975D01*
X111139207Y-94027359D01*
X111150040Y-94033614D01*
X111171634Y-94057596D01*
X111205944Y-94066174D01*
X111207548Y-94066588D01*
X111334108Y-94100500D01*
X111334110Y-94100500D01*
X111465890Y-94100500D01*
X111465892Y-94100500D01*
X111593186Y-94066392D01*
X111593188Y-94066390D01*
X111593190Y-94066390D01*
X111701190Y-94004035D01*
X111704067Y-94002639D01*
X111704853Y-94002122D01*
X111709862Y-93999028D01*
X111711161Y-93998277D01*
X111716519Y-93991294D01*
X111800500Y-93907314D01*
X111800503Y-93907309D01*
X111866390Y-93793190D01*
X111866390Y-93793188D01*
X111866392Y-93793186D01*
X111900500Y-93665892D01*
X111900500Y-93534108D01*
X111866392Y-93406814D01*
X111866390Y-93406811D01*
X111866390Y-93406809D01*
X111866383Y-93406798D01*
X111866066Y-93406094D01*
X111864812Y-93404076D01*
X111800503Y-93292690D01*
X111800501Y-93292688D01*
X111800500Y-93292686D01*
X111741922Y-93234108D01*
X154609500Y-93234108D01*
X154609500Y-93365894D01*
X154620463Y-93406806D01*
X154620463Y-93406808D01*
X154620464Y-93406808D01*
X154620464Y-93406809D01*
X154643609Y-93493190D01*
X154643610Y-93493192D01*
X154643611Y-93493195D01*
X154709494Y-93607307D01*
X154709496Y-93607309D01*
X154709498Y-93607311D01*
X154709500Y-93607314D01*
X154802686Y-93700500D01*
X154802688Y-93700501D01*
X154802690Y-93700503D01*
X154803237Y-93700898D01*
X154805239Y-93701975D01*
X154837461Y-93720578D01*
X154860040Y-93733614D01*
X154881634Y-93757596D01*
X154915944Y-93766174D01*
X154917548Y-93766588D01*
X155044108Y-93800500D01*
X155044110Y-93800500D01*
X155175890Y-93800500D01*
X155175892Y-93800500D01*
X155303186Y-93766392D01*
X155396926Y-93712269D01*
X155425834Y-93701173D01*
X155444406Y-93697226D01*
X155495581Y-93699911D01*
X155499606Y-93701219D01*
X155518509Y-93709636D01*
X155616810Y-93766390D01*
X155616808Y-93766390D01*
X155616812Y-93766391D01*
X155616814Y-93766392D01*
X155744108Y-93800500D01*
X155744110Y-93800500D01*
X155875890Y-93800500D01*
X155875892Y-93800500D01*
X156003186Y-93766392D01*
X156046927Y-93741136D01*
X156075835Y-93730040D01*
X156094400Y-93726094D01*
X156145571Y-93728774D01*
X156149462Y-93730039D01*
X156149598Y-93730083D01*
X156168500Y-93738497D01*
X156216814Y-93766392D01*
X156344108Y-93800500D01*
X156344110Y-93800500D01*
X156475890Y-93800500D01*
X156475892Y-93800500D01*
X156603186Y-93766392D01*
X156603188Y-93766390D01*
X156603190Y-93766390D01*
X156711190Y-93704035D01*
X156714067Y-93702639D01*
X156714853Y-93702122D01*
X156719862Y-93699028D01*
X156721161Y-93698277D01*
X156726519Y-93691294D01*
X156810500Y-93607314D01*
X156876392Y-93493186D01*
X156910500Y-93365892D01*
X156910500Y-93234108D01*
X156876392Y-93106814D01*
X156876390Y-93106811D01*
X156876390Y-93106809D01*
X156876383Y-93106798D01*
X156876066Y-93106094D01*
X156874812Y-93104076D01*
X156810503Y-92992690D01*
X156810501Y-92992688D01*
X156810500Y-92992686D01*
X156717314Y-92899500D01*
X156717311Y-92899498D01*
X156717309Y-92899496D01*
X156682535Y-92879419D01*
X156660476Y-92866683D01*
X156639442Y-92843322D01*
X156553799Y-92820375D01*
X156553798Y-92820374D01*
X156496766Y-92805093D01*
X156475892Y-92799500D01*
X156475891Y-92799500D01*
X156344109Y-92799500D01*
X156344108Y-92799500D01*
X156333005Y-92802475D01*
X156280460Y-92816553D01*
X156280461Y-92816554D01*
X156216812Y-92833608D01*
X156216810Y-92833608D01*
X156216806Y-92833610D01*
X156173080Y-92858856D01*
X156144162Y-92869957D01*
X156125596Y-92873903D01*
X156074418Y-92871219D01*
X156070396Y-92869912D01*
X156051494Y-92861497D01*
X156003190Y-92833610D01*
X156003187Y-92833608D01*
X156003186Y-92833607D01*
X156003185Y-92833607D01*
X156003183Y-92833606D01*
X155960755Y-92822237D01*
X155960755Y-92822238D01*
X155918323Y-92810869D01*
X155875892Y-92799500D01*
X155875891Y-92799500D01*
X155744109Y-92799500D01*
X155744108Y-92799500D01*
X155730517Y-92803141D01*
X155666199Y-92820374D01*
X155666200Y-92820375D01*
X155616804Y-92833610D01*
X155523077Y-92887725D01*
X155494159Y-92898826D01*
X155475598Y-92902771D01*
X155424433Y-92900092D01*
X155421735Y-92899215D01*
X155420407Y-92898784D01*
X155401492Y-92890364D01*
X155360477Y-92866684D01*
X155339441Y-92843321D01*
X155253799Y-92820375D01*
X155253798Y-92820374D01*
X155196766Y-92805093D01*
X155175892Y-92799500D01*
X155175891Y-92799500D01*
X155044109Y-92799500D01*
X155044108Y-92799500D01*
X155005154Y-92809937D01*
X154966199Y-92820375D01*
X154966198Y-92820374D01*
X154916807Y-92833609D01*
X154916805Y-92833610D01*
X154802694Y-92899492D01*
X154709492Y-92992694D01*
X154643610Y-93106805D01*
X154643608Y-93106809D01*
X154636427Y-93133607D01*
X154636428Y-93133608D01*
X154609500Y-93234108D01*
X111741922Y-93234108D01*
X111707314Y-93199500D01*
X111707311Y-93199498D01*
X111707309Y-93199496D01*
X111707302Y-93199492D01*
X111650476Y-93166683D01*
X111629442Y-93143322D01*
X111543799Y-93120375D01*
X111543798Y-93120374D01*
X111482921Y-93104063D01*
X111465892Y-93099500D01*
X111465891Y-93099500D01*
X111334109Y-93099500D01*
X111334108Y-93099500D01*
X111295154Y-93109937D01*
X111256199Y-93120375D01*
X111256198Y-93120374D01*
X111206807Y-93133609D01*
X111206805Y-93133610D01*
X111092694Y-93199492D01*
X110999492Y-93292694D01*
X110934221Y-93405747D01*
X110934220Y-93405749D01*
X110933609Y-93406809D01*
X110933608Y-93406814D01*
X110899500Y-93534108D01*
X101900500Y-93534108D01*
X101900500Y-91534108D01*
X110899500Y-91534108D01*
X110899500Y-91665892D01*
X110929579Y-91778151D01*
X110933609Y-91793190D01*
X110999496Y-91907309D01*
X110999498Y-91907311D01*
X110999500Y-91907314D01*
X111092686Y-92000500D01*
X111092688Y-92000501D01*
X111092690Y-92000503D01*
X111093237Y-92000898D01*
X111095239Y-92001975D01*
X111139207Y-92027359D01*
X111150040Y-92033614D01*
X111171634Y-92057596D01*
X111205944Y-92066174D01*
X111207548Y-92066588D01*
X111334108Y-92100500D01*
X111334110Y-92100500D01*
X111465890Y-92100500D01*
X111465892Y-92100500D01*
X111593186Y-92066392D01*
X111593188Y-92066390D01*
X111593190Y-92066390D01*
X111701190Y-92004035D01*
X111704067Y-92002639D01*
X111704853Y-92002122D01*
X111709862Y-91999028D01*
X111711161Y-91998277D01*
X111716519Y-91991294D01*
X111800500Y-91907314D01*
X111866392Y-91793186D01*
X111900500Y-91665892D01*
X111900500Y-91534108D01*
X111866392Y-91406814D01*
X111866390Y-91406811D01*
X111866390Y-91406809D01*
X111866383Y-91406798D01*
X111866066Y-91406094D01*
X111864812Y-91404076D01*
X111800503Y-91292690D01*
X111800501Y-91292688D01*
X111800500Y-91292686D01*
X111707314Y-91199500D01*
X111707311Y-91199498D01*
X111707309Y-91199496D01*
X111707302Y-91199492D01*
X111650476Y-91166683D01*
X111629442Y-91143322D01*
X111543799Y-91120375D01*
X111543798Y-91120374D01*
X111486766Y-91105093D01*
X111465892Y-91099500D01*
X111465891Y-91099500D01*
X111334109Y-91099500D01*
X111334108Y-91099500D01*
X111295154Y-91109937D01*
X111256199Y-91120375D01*
X111256198Y-91120374D01*
X111206807Y-91133609D01*
X111206805Y-91133610D01*
X111092694Y-91199492D01*
X110999492Y-91292694D01*
X110934221Y-91405747D01*
X110934220Y-91405749D01*
X110933609Y-91406809D01*
X110933608Y-91406814D01*
X110899500Y-91534108D01*
X101900500Y-91534108D01*
X101900500Y-89534106D01*
X110799500Y-89534106D01*
X110799500Y-89665891D01*
X110824073Y-89757599D01*
X110824073Y-89757601D01*
X110833606Y-89793184D01*
X110833607Y-89793186D01*
X110833608Y-89793188D01*
X110833609Y-89793190D01*
X110899496Y-89907309D01*
X110899498Y-89907311D01*
X110899500Y-89907314D01*
X110992686Y-90000500D01*
X110992688Y-90000501D01*
X110992690Y-90000503D01*
X110993237Y-90000898D01*
X110995239Y-90001975D01*
X111039207Y-90027359D01*
X111050040Y-90033614D01*
X111071634Y-90057596D01*
X111105944Y-90066174D01*
X111107548Y-90066588D01*
X111234108Y-90100500D01*
X111234110Y-90100500D01*
X111365890Y-90100500D01*
X111365892Y-90100500D01*
X111493186Y-90066392D01*
X111493188Y-90066390D01*
X111493190Y-90066390D01*
X111601190Y-90004035D01*
X111604067Y-90002639D01*
X111604853Y-90002122D01*
X111609862Y-89999028D01*
X111611161Y-89998277D01*
X111616519Y-89991294D01*
X111700500Y-89907314D01*
X111700503Y-89907309D01*
X111766390Y-89793190D01*
X111766390Y-89793188D01*
X111766392Y-89793186D01*
X111800500Y-89665892D01*
X111800500Y-89534108D01*
X111800499Y-89534106D01*
X126949500Y-89534106D01*
X126949500Y-89665891D01*
X126974073Y-89757599D01*
X126974073Y-89757601D01*
X126983606Y-89793184D01*
X126983607Y-89793186D01*
X126983608Y-89793188D01*
X126983609Y-89793190D01*
X127049496Y-89907309D01*
X127049498Y-89907311D01*
X127049500Y-89907314D01*
X127142686Y-90000500D01*
X127142688Y-90000501D01*
X127142690Y-90000503D01*
X127143237Y-90000898D01*
X127145239Y-90001975D01*
X127189207Y-90027359D01*
X127200040Y-90033614D01*
X127221634Y-90057596D01*
X127255944Y-90066174D01*
X127257548Y-90066588D01*
X127384108Y-90100500D01*
X127384110Y-90100500D01*
X127515890Y-90100500D01*
X127515892Y-90100500D01*
X127643186Y-90066392D01*
X127643188Y-90066390D01*
X127643190Y-90066390D01*
X127751190Y-90004035D01*
X127754067Y-90002639D01*
X127754853Y-90002122D01*
X127759862Y-89999028D01*
X127761161Y-89998277D01*
X127766519Y-89991294D01*
X127850500Y-89907314D01*
X127850503Y-89907309D01*
X127916390Y-89793190D01*
X127916390Y-89793188D01*
X127916392Y-89793186D01*
X127950500Y-89665892D01*
X127950500Y-89534108D01*
X127916392Y-89406814D01*
X127916390Y-89406811D01*
X127916390Y-89406809D01*
X127916383Y-89406798D01*
X127916066Y-89406094D01*
X127914812Y-89404076D01*
X127850503Y-89292690D01*
X127850501Y-89292688D01*
X127850500Y-89292686D01*
X127757314Y-89199500D01*
X127757311Y-89199498D01*
X127757309Y-89199496D01*
X127757302Y-89199492D01*
X127700476Y-89166683D01*
X127679442Y-89143322D01*
X127593799Y-89120375D01*
X127593798Y-89120374D01*
X127536766Y-89105093D01*
X127515892Y-89099500D01*
X127515891Y-89099500D01*
X127384109Y-89099500D01*
X127384108Y-89099500D01*
X127345154Y-89109937D01*
X127306199Y-89120375D01*
X127306198Y-89120374D01*
X127256807Y-89133609D01*
X127256805Y-89133610D01*
X127142694Y-89199492D01*
X127049492Y-89292694D01*
X126983610Y-89406805D01*
X126983608Y-89406809D01*
X126964538Y-89477975D01*
X126964539Y-89477976D01*
X126949500Y-89534106D01*
X111800499Y-89534106D01*
X111766392Y-89406814D01*
X111766390Y-89406811D01*
X111766390Y-89406809D01*
X111766217Y-89406509D01*
X111766142Y-89406217D01*
X111764812Y-89404076D01*
X111700503Y-89292690D01*
X111700501Y-89292688D01*
X111700500Y-89292686D01*
X111607314Y-89199500D01*
X111607311Y-89199498D01*
X111607309Y-89199496D01*
X111607302Y-89199492D01*
X111550476Y-89166683D01*
X111529442Y-89143322D01*
X111443799Y-89120375D01*
X111443798Y-89120374D01*
X111386766Y-89105093D01*
X111365892Y-89099500D01*
X111365891Y-89099500D01*
X111234109Y-89099500D01*
X111234108Y-89099500D01*
X111195154Y-89109937D01*
X111156199Y-89120375D01*
X111156198Y-89120374D01*
X111106807Y-89133609D01*
X111106805Y-89133610D01*
X110992694Y-89199492D01*
X110899492Y-89292694D01*
X110833610Y-89406805D01*
X110833608Y-89406809D01*
X110814538Y-89477975D01*
X110814539Y-89477976D01*
X110799500Y-89534106D01*
X101900500Y-89534106D01*
X101900500Y-87899000D01*
X101919407Y-87840809D01*
X101968907Y-87804845D01*
X101999500Y-87800000D01*
X105449999Y-87800000D01*
X105450000Y-87800000D01*
X105450000Y-87534108D01*
X110909500Y-87534108D01*
X110909500Y-87665892D01*
X110939579Y-87778151D01*
X110943609Y-87793190D01*
X111009496Y-87907309D01*
X111009498Y-87907311D01*
X111009500Y-87907314D01*
X111102686Y-88000500D01*
X111102688Y-88000501D01*
X111102690Y-88000503D01*
X111103237Y-88000898D01*
X111105239Y-88001975D01*
X111149207Y-88027359D01*
X111160040Y-88033614D01*
X111181634Y-88057596D01*
X111215944Y-88066174D01*
X111217548Y-88066588D01*
X111344108Y-88100500D01*
X111344110Y-88100500D01*
X111475890Y-88100500D01*
X111475892Y-88100500D01*
X111603186Y-88066392D01*
X111603188Y-88066390D01*
X111603190Y-88066390D01*
X111711190Y-88004035D01*
X111714067Y-88002639D01*
X111714853Y-88002122D01*
X111719862Y-87999028D01*
X111721161Y-87998277D01*
X111726519Y-87991294D01*
X111810500Y-87907314D01*
X111876392Y-87793186D01*
X111910500Y-87665892D01*
X111910500Y-87534108D01*
X111876392Y-87406814D01*
X111876390Y-87406811D01*
X111876390Y-87406809D01*
X111876383Y-87406798D01*
X111876066Y-87406094D01*
X111874812Y-87404076D01*
X111810503Y-87292690D01*
X111810501Y-87292688D01*
X111810500Y-87292686D01*
X111717314Y-87199500D01*
X111717311Y-87199498D01*
X111717309Y-87199496D01*
X111699195Y-87189038D01*
X111660476Y-87166683D01*
X111639442Y-87143322D01*
X111553799Y-87120375D01*
X111553798Y-87120374D01*
X111496766Y-87105093D01*
X111475892Y-87099500D01*
X111475891Y-87099500D01*
X111344109Y-87099500D01*
X111344108Y-87099500D01*
X111305154Y-87109937D01*
X111266199Y-87120375D01*
X111266198Y-87120374D01*
X111216807Y-87133609D01*
X111216805Y-87133610D01*
X111102694Y-87199492D01*
X111009492Y-87292694D01*
X110944221Y-87405747D01*
X110944220Y-87405749D01*
X110943609Y-87406809D01*
X110943608Y-87406814D01*
X110909500Y-87534108D01*
X105450000Y-87534108D01*
X105450000Y-86587745D01*
X172249500Y-86587745D01*
X172249500Y-90127251D01*
X172249502Y-90127268D01*
X172254981Y-90154806D01*
X172254983Y-90154815D01*
X172261133Y-90185731D01*
X172261134Y-90185732D01*
X172261133Y-90185732D01*
X172261134Y-90185733D01*
X172305448Y-90252052D01*
X172371769Y-90296367D01*
X172394000Y-90300789D01*
X172416228Y-90305211D01*
X172416231Y-90305211D01*
X172424159Y-90306788D01*
X172426324Y-90307361D01*
X172428514Y-90307717D01*
X172430081Y-90308000D01*
X172430252Y-90308000D01*
X172430253Y-90308000D01*
X175969747Y-90308000D01*
X175969748Y-90308000D01*
X176028231Y-90296367D01*
X176094552Y-90252052D01*
X176138867Y-90185731D01*
X176150500Y-90127248D01*
X176150500Y-87302402D01*
X178500000Y-87302402D01*
X178500000Y-88257499D01*
X178500001Y-88257500D01*
X179601000Y-88257500D01*
X179659191Y-88276407D01*
X179695155Y-88325907D01*
X179700000Y-88356500D01*
X179700000Y-88358500D01*
X179681093Y-88416691D01*
X179631593Y-88452655D01*
X179601000Y-88457500D01*
X178500002Y-88457500D01*
X178500001Y-88457501D01*
X178500001Y-89412596D01*
X178510079Y-89525959D01*
X178510079Y-89525965D01*
X178510082Y-89525978D01*
X178563228Y-89711713D01*
X178563227Y-89711713D01*
X178563228Y-89711714D01*
X178563229Y-89711716D01*
X178652684Y-89882971D01*
X178652687Y-89882975D01*
X178652692Y-89882982D01*
X178736295Y-89985512D01*
X178774781Y-90032712D01*
X178774787Y-90032718D01*
X178805298Y-90057596D01*
X178924516Y-90154806D01*
X178924521Y-90154809D01*
X178924528Y-90154815D01*
X179095783Y-90244270D01*
X179281533Y-90297420D01*
X179394902Y-90307499D01*
X180099997Y-90307499D01*
X180099998Y-90307499D01*
X180100000Y-90307498D01*
X180100000Y-89956500D01*
X180118907Y-89898309D01*
X180168407Y-89862345D01*
X180199000Y-89857500D01*
X180201000Y-89857500D01*
X180259191Y-89876407D01*
X180295155Y-89925907D01*
X180300000Y-89956500D01*
X180300000Y-90307498D01*
X180300001Y-90307499D01*
X181005092Y-90307499D01*
X181005096Y-90307499D01*
X181118461Y-90297420D01*
X181118468Y-90297419D01*
X181304216Y-90244270D01*
X181475471Y-90154815D01*
X181625212Y-90032718D01*
X181625218Y-90032712D01*
X181747315Y-89882971D01*
X181836770Y-89711716D01*
X181889920Y-89525966D01*
X181900000Y-89412597D01*
X181900000Y-88457501D01*
X181899999Y-88457500D01*
X181899998Y-88457500D01*
X180799000Y-88457500D01*
X180740809Y-88438593D01*
X180704845Y-88389093D01*
X180700000Y-88358500D01*
X180700000Y-88356500D01*
X180718907Y-88298309D01*
X180768407Y-88262345D01*
X180799000Y-88257500D01*
X181899997Y-88257500D01*
X181899998Y-88257500D01*
X181899999Y-88257499D01*
X181899999Y-87302403D01*
X181889920Y-87189038D01*
X181889919Y-87189031D01*
X181883524Y-87166683D01*
X181864301Y-87099500D01*
X181836770Y-87003283D01*
X181747315Y-86832028D01*
X181747309Y-86832021D01*
X181747306Y-86832016D01*
X181679626Y-86749013D01*
X181625218Y-86682287D01*
X181625212Y-86682281D01*
X181578012Y-86643795D01*
X181475482Y-86560192D01*
X181475475Y-86560187D01*
X181475471Y-86560184D01*
X181304216Y-86470729D01*
X181304215Y-86470728D01*
X181304214Y-86470728D01*
X181118468Y-86417579D01*
X181080676Y-86414219D01*
X181005097Y-86407500D01*
X181005093Y-86407500D01*
X180300002Y-86407500D01*
X180300001Y-86407500D01*
X180300000Y-86407501D01*
X180300000Y-86407502D01*
X180300000Y-86758500D01*
X180281093Y-86816691D01*
X180231593Y-86852655D01*
X180201000Y-86857500D01*
X180199000Y-86857500D01*
X180140809Y-86838593D01*
X180104845Y-86789093D01*
X180100000Y-86758500D01*
X180100000Y-86407502D01*
X180100000Y-86407501D01*
X180099999Y-86407500D01*
X180099998Y-86407500D01*
X179394907Y-86407500D01*
X179394903Y-86407500D01*
X179351705Y-86411340D01*
X179281554Y-86417577D01*
X179281529Y-86417580D01*
X179281520Y-86417582D01*
X179095785Y-86470728D01*
X179095783Y-86470728D01*
X179095783Y-86470729D01*
X178983707Y-86529272D01*
X178924528Y-86560184D01*
X178924516Y-86560192D01*
X178774789Y-86682279D01*
X178774786Y-86682281D01*
X178774781Y-86682286D01*
X178774779Y-86682289D01*
X178652692Y-86832016D01*
X178652684Y-86832028D01*
X178563228Y-87003284D01*
X178510079Y-87189030D01*
X178509148Y-87199500D01*
X178500000Y-87302402D01*
X176150500Y-87302402D01*
X176150500Y-86587752D01*
X176138867Y-86529269D01*
X176094552Y-86462948D01*
X176094548Y-86462945D01*
X176094544Y-86462942D01*
X176028232Y-86418633D01*
X176028227Y-86418631D01*
X176028025Y-86418563D01*
X176026488Y-86418286D01*
X175977523Y-86408545D01*
X175969758Y-86407001D01*
X175969753Y-86407000D01*
X175969750Y-86407000D01*
X175969748Y-86407000D01*
X172430252Y-86407000D01*
X172430251Y-86407000D01*
X172430245Y-86407000D01*
X172371778Y-86418630D01*
X172371763Y-86418635D01*
X172305454Y-86462942D01*
X172305442Y-86462954D01*
X172261135Y-86529263D01*
X172261130Y-86529278D01*
X172249500Y-86587745D01*
X105450000Y-86587745D01*
X105450000Y-85634108D01*
X130309500Y-85634108D01*
X130309500Y-85765892D01*
X130339579Y-85878151D01*
X130343609Y-85893190D01*
X130409496Y-86007309D01*
X130409498Y-86007311D01*
X130409500Y-86007314D01*
X130502686Y-86100500D01*
X130502688Y-86100501D01*
X130502690Y-86100503D01*
X130503237Y-86100898D01*
X130505239Y-86101975D01*
X130549207Y-86127359D01*
X130560040Y-86133614D01*
X130581634Y-86157596D01*
X130615944Y-86166174D01*
X130617548Y-86166588D01*
X130744108Y-86200500D01*
X130744110Y-86200500D01*
X130875890Y-86200500D01*
X130875892Y-86200500D01*
X131003186Y-86166392D01*
X131003188Y-86166390D01*
X131003190Y-86166390D01*
X131111190Y-86104035D01*
X131114067Y-86102639D01*
X131114853Y-86102122D01*
X131119862Y-86099028D01*
X131121161Y-86098277D01*
X131126519Y-86091294D01*
X131210500Y-86007314D01*
X131276392Y-85893186D01*
X131310500Y-85765892D01*
X131310500Y-85634108D01*
X148659500Y-85634108D01*
X148659500Y-85765892D01*
X148689579Y-85878151D01*
X148693609Y-85893190D01*
X148759496Y-86007309D01*
X148759498Y-86007311D01*
X148759500Y-86007314D01*
X148852686Y-86100500D01*
X148852688Y-86100501D01*
X148852690Y-86100503D01*
X148853237Y-86100898D01*
X148855239Y-86101975D01*
X148899207Y-86127359D01*
X148910040Y-86133614D01*
X148931634Y-86157596D01*
X148965944Y-86166174D01*
X148967548Y-86166588D01*
X149094108Y-86200500D01*
X149094110Y-86200500D01*
X149225890Y-86200500D01*
X149225892Y-86200500D01*
X149353186Y-86166392D01*
X149446926Y-86112269D01*
X149475834Y-86101173D01*
X149494406Y-86097226D01*
X149545581Y-86099911D01*
X149549606Y-86101219D01*
X149568509Y-86109636D01*
X149666810Y-86166390D01*
X149666808Y-86166390D01*
X149666812Y-86166391D01*
X149666814Y-86166392D01*
X149794108Y-86200500D01*
X149794110Y-86200500D01*
X149925890Y-86200500D01*
X149925892Y-86200500D01*
X150053186Y-86166392D01*
X150146926Y-86112269D01*
X150175834Y-86101173D01*
X150194406Y-86097226D01*
X150245581Y-86099911D01*
X150249606Y-86101219D01*
X150268509Y-86109636D01*
X150366810Y-86166390D01*
X150366808Y-86166390D01*
X150366812Y-86166391D01*
X150366814Y-86166392D01*
X150494108Y-86200500D01*
X150494110Y-86200500D01*
X150625890Y-86200500D01*
X150625892Y-86200500D01*
X150753186Y-86166392D01*
X150753188Y-86166390D01*
X150753190Y-86166390D01*
X150861190Y-86104035D01*
X150864067Y-86102639D01*
X150864853Y-86102122D01*
X150869862Y-86099028D01*
X150871161Y-86098277D01*
X150876519Y-86091294D01*
X150960500Y-86007314D01*
X151026392Y-85893186D01*
X151060500Y-85765892D01*
X151060500Y-85634108D01*
X151026392Y-85506814D01*
X151026390Y-85506811D01*
X151026390Y-85506809D01*
X151026383Y-85506798D01*
X151026066Y-85506094D01*
X151024812Y-85504076D01*
X150960503Y-85392690D01*
X150960501Y-85392688D01*
X150960500Y-85392686D01*
X150867314Y-85299500D01*
X150867311Y-85299498D01*
X150867309Y-85299496D01*
X150846921Y-85287725D01*
X150810476Y-85266683D01*
X150789442Y-85243322D01*
X150703777Y-85220369D01*
X150703776Y-85220368D01*
X150646760Y-85205091D01*
X150625892Y-85199500D01*
X150625891Y-85199500D01*
X150494109Y-85199500D01*
X150494108Y-85199500D01*
X150477649Y-85203909D01*
X150416223Y-85220368D01*
X150416223Y-85220369D01*
X150366809Y-85233609D01*
X150366807Y-85233609D01*
X150366803Y-85233611D01*
X150273077Y-85287725D01*
X150244159Y-85298826D01*
X150225598Y-85302771D01*
X150174433Y-85300092D01*
X150171735Y-85299215D01*
X150170407Y-85298784D01*
X150151492Y-85290364D01*
X150110477Y-85266684D01*
X150089441Y-85243321D01*
X150003777Y-85220369D01*
X150003776Y-85220368D01*
X149946760Y-85205091D01*
X149925892Y-85199500D01*
X149925891Y-85199500D01*
X149794109Y-85199500D01*
X149794108Y-85199500D01*
X149777649Y-85203909D01*
X149716223Y-85220368D01*
X149716223Y-85220369D01*
X149666809Y-85233609D01*
X149666807Y-85233609D01*
X149666803Y-85233611D01*
X149573077Y-85287725D01*
X149544159Y-85298826D01*
X149525598Y-85302771D01*
X149474433Y-85300092D01*
X149471735Y-85299215D01*
X149470407Y-85298784D01*
X149451492Y-85290364D01*
X149410477Y-85266684D01*
X149389441Y-85243321D01*
X149303777Y-85220369D01*
X149303776Y-85220368D01*
X149246760Y-85205091D01*
X149225892Y-85199500D01*
X149225891Y-85199500D01*
X149094109Y-85199500D01*
X149094108Y-85199500D01*
X149077649Y-85203909D01*
X149016223Y-85220368D01*
X149016223Y-85220369D01*
X148966809Y-85233609D01*
X148966807Y-85233609D01*
X148966803Y-85233611D01*
X148852694Y-85299492D01*
X148759492Y-85392694D01*
X148693608Y-85506809D01*
X148693330Y-85507545D01*
X148692784Y-85509886D01*
X148659500Y-85634108D01*
X131310500Y-85634108D01*
X131276392Y-85506814D01*
X131276390Y-85506811D01*
X131276390Y-85506809D01*
X131276217Y-85506509D01*
X131276142Y-85506217D01*
X131274812Y-85504076D01*
X131210503Y-85392690D01*
X131210501Y-85392688D01*
X131210500Y-85392686D01*
X131117314Y-85299500D01*
X131117311Y-85299498D01*
X131117309Y-85299496D01*
X131096921Y-85287725D01*
X131060476Y-85266683D01*
X131039442Y-85243322D01*
X130953777Y-85220369D01*
X130953776Y-85220368D01*
X130896760Y-85205091D01*
X130875892Y-85199500D01*
X130875891Y-85199500D01*
X130744109Y-85199500D01*
X130744108Y-85199500D01*
X130727649Y-85203909D01*
X130666223Y-85220368D01*
X130666223Y-85220369D01*
X130616809Y-85233609D01*
X130616807Y-85233609D01*
X130616803Y-85233611D01*
X130502694Y-85299492D01*
X130409492Y-85392694D01*
X130344221Y-85505747D01*
X130344220Y-85505749D01*
X130343609Y-85506809D01*
X130343608Y-85506814D01*
X130309500Y-85634108D01*
X105450000Y-85634108D01*
X105450000Y-83500000D01*
X105449999Y-83500000D01*
X101999500Y-83500000D01*
X101941309Y-83481093D01*
X101905345Y-83431593D01*
X101900500Y-83401000D01*
X101900500Y-83305303D01*
X101900562Y-83301792D01*
X101900563Y-83301767D01*
X101900690Y-83298212D01*
X101900874Y-83294762D01*
X101905206Y-83234197D01*
X101915007Y-83097159D01*
X101915757Y-83090175D01*
X101916765Y-83083166D01*
X101918009Y-83076268D01*
X101958992Y-82887870D01*
X101960730Y-82881064D01*
X101962721Y-82874285D01*
X101964937Y-82867626D01*
X102032306Y-82687001D01*
X102035004Y-82680490D01*
X102037927Y-82674090D01*
X102041081Y-82667787D01*
X102133466Y-82498598D01*
X102137047Y-82492561D01*
X102140877Y-82486602D01*
X102144881Y-82480836D01*
X102260402Y-82326518D01*
X102264822Y-82321034D01*
X102269436Y-82315709D01*
X102274238Y-82310549D01*
X102410549Y-82174238D01*
X102415709Y-82169436D01*
X102421034Y-82164822D01*
X102426518Y-82160402D01*
X102580836Y-82044881D01*
X102586602Y-82040877D01*
X102592561Y-82037047D01*
X102598598Y-82033466D01*
X102767787Y-81941081D01*
X102774090Y-81937927D01*
X102780490Y-81935004D01*
X102787001Y-81932306D01*
X102967626Y-81864937D01*
X102974290Y-81862719D01*
X102981064Y-81860730D01*
X102987870Y-81858992D01*
X103176268Y-81818009D01*
X103183166Y-81816765D01*
X103190175Y-81815757D01*
X103197159Y-81815007D01*
X103373568Y-81802390D01*
X103394767Y-81800874D01*
X103398213Y-81800690D01*
X103401806Y-81800561D01*
X103405304Y-81800500D01*
X175531326Y-81800500D01*
X175561917Y-81805345D01*
G37*
%TD.AperFunction*%
%TD*%
M02*
