%TF.GenerationSoftware,KiCad,Pcbnew,10.0.0*%
%TF.CreationDate,2026-04-09T11:15:41-07:00*%
%TF.ProjectId,combined,636f6d62-696e-4656-942e-6b696361645f,rev?*%
%TF.SameCoordinates,Original*%
%TF.FileFunction,Soldermask,Top*%
%TF.FilePolarity,Negative*%
%FSLAX46Y46*%
G04 Gerber Fmt 4.6, Leading zero omitted, Abs format (unit mm)*
G04 Created by KiCad (PCBNEW 10.0.0) date 2026-04-09 11:15:41*
%MOMM*%
%LPD*%
G01*
G04 APERTURE LIST*
G04 Aperture macros list*
%AMRoundRect*
0 Rectangle with rounded corners*
0 $1 Rounding radius*
0 $2 $3 $4 $5 $6 $7 $8 $9 X,Y pos of 4 corners*
0 Add a 4 corners polygon primitive as box body*
4,1,4,$2,$3,$4,$5,$6,$7,$8,$9,$2,$3,0*
0 Add four circle primitives for the rounded corners*
1,1,$1+$1,$2,$3*
1,1,$1+$1,$4,$5*
1,1,$1+$1,$6,$7*
1,1,$1+$1,$8,$9*
0 Add four rect primitives between the rounded corners*
20,1,$1+$1,$2,$3,$4,$5,0*
20,1,$1+$1,$4,$5,$6,$7,0*
20,1,$1+$1,$6,$7,$8,$9,0*
20,1,$1+$1,$8,$9,$2,$3,0*%
%AMFreePoly0*
4,1,37,0.800000,0.796148,0.878414,0.796148,1.032228,0.765552,1.177117,0.705537,1.307515,0.618408,1.418408,0.507515,1.505537,0.377117,1.565552,0.232228,1.596148,0.078414,1.596148,-0.078414,1.565552,-0.232228,1.505537,-0.377117,1.418408,-0.507515,1.307515,-0.618408,1.177117,-0.705537,1.032228,-0.765552,0.878414,-0.796148,0.800000,-0.796148,0.800000,-0.800000,-1.400000,-0.800000,
-1.403843,-0.796157,-1.439018,-0.796157,-1.511114,-0.766294,-1.566294,-0.711114,-1.596157,-0.639018,-1.596157,-0.603843,-1.600000,-0.600000,-1.600000,0.600000,-1.596157,0.603843,-1.596157,0.639018,-1.566294,0.711114,-1.511114,0.766294,-1.439018,0.796157,-1.403843,0.796157,-1.400000,0.800000,0.800000,0.800000,0.800000,0.796148,0.800000,0.796148,$1*%
%AMFreePoly1*
4,1,37,1.403843,0.796157,1.439018,0.796157,1.511114,0.766294,1.566294,0.711114,1.596157,0.639018,1.596157,0.603843,1.600000,0.600000,1.600000,-0.600000,1.596157,-0.603843,1.596157,-0.639018,1.566294,-0.711114,1.511114,-0.766294,1.439018,-0.796157,1.403843,-0.796157,1.400000,-0.800000,-0.800000,-0.800000,-0.800000,-0.796148,-0.878414,-0.796148,-1.032228,-0.765552,-1.177117,-0.705537,
-1.307515,-0.618408,-1.418408,-0.507515,-1.505537,-0.377117,-1.565552,-0.232228,-1.596148,-0.078414,-1.596148,0.078414,-1.565552,0.232228,-1.505537,0.377117,-1.418408,0.507515,-1.307515,0.618408,-1.177117,0.705537,-1.032228,0.765552,-0.878414,0.796148,-0.800000,0.796148,-0.800000,0.800000,1.400000,0.800000,1.403843,0.796157,1.403843,0.796157,$1*%
%AMFreePoly2*
4,1,37,1.600000,0.796148,1.678414,0.796148,1.832228,0.765552,1.977117,0.705537,2.107515,0.618408,2.218408,0.507515,2.305537,0.377117,2.365552,0.232228,2.396148,0.078414,2.396148,-0.078414,2.365552,-0.232228,2.305537,-0.377117,2.218408,-0.507515,2.107515,-0.618408,1.977117,-0.705537,1.832228,-0.765552,1.678414,-0.796148,1.600000,-0.796148,1.600000,-0.800000,-0.600000,-0.800000,
-0.603843,-0.796157,-0.639018,-0.796157,-0.711114,-0.766294,-0.766294,-0.711114,-0.796157,-0.639018,-0.796157,-0.603843,-0.800000,-0.600000,-0.800000,0.600000,-0.796157,0.603843,-0.796157,0.639018,-0.766294,0.711114,-0.711114,0.766294,-0.639018,0.796157,-0.603843,0.796157,-0.600000,0.800000,1.600000,0.800000,1.600000,0.796148,1.600000,0.796148,$1*%
G04 Aperture macros list end*
%ADD10C,0.312500*%
%ADD11RoundRect,0.250000X-0.250000X-0.475000X0.250000X-0.475000X0.250000X0.475000X-0.250000X0.475000X0*%
%ADD12RoundRect,0.375000X0.375000X-0.625000X0.375000X0.625000X-0.375000X0.625000X-0.375000X-0.625000X0*%
%ADD13RoundRect,0.500000X1.400000X-0.500000X1.400000X0.500000X-1.400000X0.500000X-1.400000X-0.500000X0*%
%ADD14C,3.600000*%
%ADD15C,5.600000*%
%ADD16C,1.700000*%
%ADD17R,2.200000X2.800000*%
%ADD18R,2.800000X2.800000*%
%ADD19R,2.600000X2.800000*%
%ADD20RoundRect,0.218750X-0.218750X-0.256250X0.218750X-0.256250X0.218750X0.256250X-0.218750X0.256250X0*%
%ADD21R,2.000000X2.000000*%
%ADD22C,2.000000*%
%ADD23R,3.200000X2.000000*%
%ADD24RoundRect,0.250000X-0.475000X0.250000X-0.475000X-0.250000X0.475000X-0.250000X0.475000X0.250000X0*%
%ADD25RoundRect,0.250000X0.250000X0.475000X-0.250000X0.475000X-0.250000X-0.475000X0.250000X-0.475000X0*%
%ADD26RoundRect,0.250000X0.475000X-0.250000X0.475000X0.250000X-0.475000X0.250000X-0.475000X-0.250000X0*%
%ADD27RoundRect,0.250000X-0.450000X0.262500X-0.450000X-0.262500X0.450000X-0.262500X0.450000X0.262500X0*%
%ADD28RoundRect,0.250000X0.450000X-0.262500X0.450000X0.262500X-0.450000X0.262500X-0.450000X-0.262500X0*%
%ADD29R,1.700000X1.700000*%
%ADD30RoundRect,0.225000X0.250000X-0.225000X0.250000X0.225000X-0.250000X0.225000X-0.250000X-0.225000X0*%
%ADD31R,3.500000X3.500000*%
%ADD32RoundRect,0.750000X0.750000X1.000000X-0.750000X1.000000X-0.750000X-1.000000X0.750000X-1.000000X0*%
%ADD33RoundRect,0.875000X0.875000X0.875000X-0.875000X0.875000X-0.875000X-0.875000X0.875000X-0.875000X0*%
%ADD34RoundRect,0.250000X-0.262500X-0.450000X0.262500X-0.450000X0.262500X0.450000X-0.262500X0.450000X0*%
%ADD35C,2.200000*%
%ADD36C,1.850000*%
%ADD37FreePoly0,0.000000*%
%ADD38RoundRect,0.800000X-0.800000X-0.000010X0.800000X-0.000010X0.800000X0.000010X-0.800000X0.000010X0*%
%ADD39FreePoly1,0.000000*%
%ADD40RoundRect,0.800000X0.000010X-0.800000X0.000010X0.800000X-0.000010X0.800000X-0.000010X-0.800000X0*%
%ADD41FreePoly2,270.000000*%
%ADD42RoundRect,0.225000X-0.325000X-0.225000X0.325000X-0.225000X0.325000X0.225000X-0.325000X0.225000X0*%
%ADD43RoundRect,0.225000X-0.250000X0.225000X-0.250000X-0.225000X0.250000X-0.225000X0.250000X0.225000X0*%
%ADD44C,3.000000*%
%ADD45C,1.600000*%
%ADD46RoundRect,0.100000X-0.637500X-0.100000X0.637500X-0.100000X0.637500X0.100000X-0.637500X0.100000X0*%
%ADD47RoundRect,0.250000X-1.350000X0.385000X-1.350000X-0.385000X1.350000X-0.385000X1.350000X0.385000X0*%
%ADD48RoundRect,0.250000X-1.600000X0.425000X-1.600000X-0.425000X1.600000X-0.425000X1.600000X0.425000X0*%
%ADD49RoundRect,0.150000X-0.587500X-0.150000X0.587500X-0.150000X0.587500X0.150000X-0.587500X0.150000X0*%
%ADD50RoundRect,0.150000X-0.150000X0.825000X-0.150000X-0.825000X0.150000X-0.825000X0.150000X0.825000X0*%
%ADD51R,2.000000X1.500000*%
G04 APERTURE END LIST*
D10*
G36*
X133471881Y-138699498D02*
G01*
X133497389Y-138613085D01*
X133510349Y-138570202D01*
X133566222Y-138353180D01*
X133573394Y-138325654D01*
X133575327Y-138317952D01*
X133639951Y-138073931D01*
X133667886Y-137944635D01*
X133804357Y-137829230D01*
X133601330Y-137822208D01*
X133444156Y-137827150D01*
X133302195Y-137842204D01*
X133187513Y-137864352D01*
X133082525Y-137895002D01*
X132991801Y-137931731D01*
X132907753Y-137976365D01*
X132834865Y-138025082D01*
X132760023Y-138086602D01*
X132697752Y-138151378D01*
X132651813Y-138213543D01*
X132615640Y-138279456D01*
X132572291Y-138419815D01*
X132561924Y-138545778D01*
X132567576Y-138619731D01*
X132587600Y-138711327D01*
X132589859Y-138720411D01*
X132852420Y-138633094D01*
X132822571Y-138506791D01*
X132814049Y-138406966D01*
X132813952Y-138392057D01*
X132818777Y-138313232D01*
X132833010Y-138241220D01*
X132855142Y-138178990D01*
X132885263Y-138123766D01*
X132921663Y-138077400D01*
X132964940Y-138038249D01*
X133034381Y-137997147D01*
X133108719Y-137973518D01*
X133198192Y-137959276D01*
X133419369Y-137951657D01*
X133275907Y-138482055D01*
X133244430Y-138605159D01*
X133219853Y-138706520D01*
X133093915Y-138839327D01*
X133184896Y-138846196D01*
X133101402Y-139143928D01*
X133022023Y-139351076D01*
X132980823Y-139423966D01*
X132935908Y-139480899D01*
X132893711Y-139518075D01*
X132846787Y-139546186D01*
X132734024Y-139579841D01*
X132565435Y-139590526D01*
X132379963Y-139583657D01*
X132215404Y-139811108D01*
X132386985Y-139825000D01*
X132508877Y-139819878D01*
X132610399Y-139803563D01*
X132656415Y-139790042D01*
X132760027Y-139740568D01*
X132925313Y-139616688D01*
X133121851Y-139429784D01*
X133229123Y-139313867D01*
X133299073Y-139214522D01*
X133354984Y-139089084D01*
X133420138Y-138894894D01*
X133433413Y-138853218D01*
X134189344Y-138814750D01*
X134168168Y-138900181D01*
X134154387Y-138958090D01*
X134073940Y-139255150D01*
X133966683Y-139689063D01*
X133951360Y-139790042D01*
X133968643Y-139835779D01*
X133990008Y-139853685D01*
X134016884Y-139863188D01*
X134028449Y-139864078D01*
X134126452Y-139846676D01*
X134654932Y-139741652D01*
X134717825Y-139654335D01*
X134385349Y-139675248D01*
X134344127Y-139670469D01*
X134311558Y-139656556D01*
X134290523Y-139636985D01*
X134277625Y-139611119D01*
X134273456Y-139580909D01*
X134276955Y-139504645D01*
X134301448Y-139377234D01*
X134497396Y-138601801D01*
X134698610Y-137911223D01*
X134735611Y-137806225D01*
X134763468Y-137755652D01*
X134800393Y-137706093D01*
X134841675Y-137670527D01*
X134924630Y-137639980D01*
X134973364Y-137636584D01*
X135059564Y-137642937D01*
X135148188Y-137667874D01*
X135158836Y-137671693D01*
X135277904Y-137479200D01*
X135200891Y-137459011D01*
X135123879Y-137454623D01*
X135008321Y-137468667D01*
X134913327Y-137518180D01*
X134736600Y-137655291D01*
X134591887Y-137794120D01*
X134502333Y-137898681D01*
X134437400Y-137998308D01*
X134368562Y-138166263D01*
X134343370Y-138252076D01*
X134248879Y-138591268D01*
X134237748Y-138629299D01*
X134217432Y-138699651D01*
X133471881Y-138699498D01*
G37*
G36*
X134534490Y-140670080D02*
G01*
X134881809Y-140694211D01*
X134919478Y-140694504D01*
X135027264Y-140689310D01*
X135123116Y-140672493D01*
X135194498Y-140649191D01*
X135262857Y-140616144D01*
X135398948Y-140516945D01*
X135503982Y-140414846D01*
X135594460Y-140312902D01*
X135659949Y-140221787D01*
X135709909Y-140118605D01*
X135753798Y-139980460D01*
X135843479Y-139590221D01*
X135973268Y-139022995D01*
X136091448Y-138578516D01*
X136151378Y-138374960D01*
X136108341Y-138398156D01*
X136053375Y-138427472D01*
X135930949Y-138487007D01*
X135853859Y-138525475D01*
X135822413Y-138651565D01*
X135748988Y-138938703D01*
X135678920Y-139225994D01*
X135640452Y-139376661D01*
X135317536Y-139571865D01*
X135254546Y-139599228D01*
X135209974Y-139604265D01*
X135167929Y-139586049D01*
X135140427Y-139531351D01*
X135136396Y-139492219D01*
X135142206Y-139412160D01*
X135163333Y-139296573D01*
X135286911Y-138805744D01*
X135370869Y-138430983D01*
X135354475Y-138396173D01*
X135332401Y-138388852D01*
X135275639Y-138407641D01*
X135024031Y-138537326D01*
X134775985Y-138679501D01*
X134765452Y-138774145D01*
X134937376Y-138692285D01*
X135006947Y-138676142D01*
X135034137Y-138681036D01*
X135051531Y-138695752D01*
X135059460Y-138728654D01*
X135035172Y-138880032D01*
X134950924Y-139204928D01*
X134867366Y-139525420D01*
X134852972Y-139608845D01*
X134849411Y-139677843D01*
X134854105Y-139735375D01*
X134867423Y-139784890D01*
X134887498Y-139823852D01*
X134913564Y-139852519D01*
X134941138Y-139868343D01*
X134971928Y-139873848D01*
X134971990Y-139873848D01*
X135051302Y-139850903D01*
X135181886Y-139775846D01*
X135463662Y-139597224D01*
X135629919Y-139481686D01*
X135591451Y-139667310D01*
X135485530Y-140147343D01*
X135455546Y-140250538D01*
X135426892Y-140320660D01*
X135397256Y-140370241D01*
X135360452Y-140411035D01*
X135271658Y-140464214D01*
X135145549Y-140491533D01*
X135062971Y-140495141D01*
X134959232Y-140489436D01*
X134837680Y-140469045D01*
X134674472Y-140432248D01*
X134534490Y-140670080D01*
G37*
G36*
X137447903Y-138397782D02*
G01*
X137484053Y-138416027D01*
X137515183Y-138443486D01*
X137542972Y-138483264D01*
X137563785Y-138532490D01*
X137577708Y-138594469D01*
X137582488Y-138665304D01*
X137564598Y-138855339D01*
X137536801Y-138984840D01*
X137497734Y-139117754D01*
X137396864Y-139364602D01*
X137355883Y-139435872D01*
X137287846Y-139518815D01*
X137183456Y-139609455D01*
X137119335Y-139662498D01*
X136948804Y-139790659D01*
X136884682Y-139824709D01*
X136823963Y-139843910D01*
X136679400Y-139854309D01*
X136599392Y-139850874D01*
X136511483Y-139836906D01*
X136473015Y-139987421D01*
X136450762Y-140089899D01*
X136424014Y-140211514D01*
X136366792Y-140472680D01*
X136343414Y-140582610D01*
X136735423Y-140603524D01*
X136626888Y-140691146D01*
X136462482Y-140694504D01*
X136238389Y-140691146D01*
X135986514Y-140687635D01*
X135867445Y-140684124D01*
X135972470Y-140572077D01*
X136098408Y-140565055D01*
X136338516Y-139595411D01*
X136571017Y-139595411D01*
X136707296Y-139653582D01*
X136836937Y-139672348D01*
X136901797Y-139665039D01*
X136952654Y-139647937D01*
X137001119Y-139620728D01*
X137051189Y-139579481D01*
X137098416Y-139526019D01*
X137147994Y-139451391D01*
X137193989Y-139361091D01*
X137248631Y-139228349D01*
X137311431Y-139001951D01*
X137330460Y-138815666D01*
X137330013Y-138795607D01*
X137310165Y-138697070D01*
X137270415Y-138642126D01*
X137244501Y-138628117D01*
X137214903Y-138623325D01*
X137199038Y-138623926D01*
X137145150Y-138634397D01*
X137080494Y-138660281D01*
X136937272Y-138744533D01*
X136728401Y-138892602D01*
X136712407Y-138964250D01*
X136700466Y-139018387D01*
X136647954Y-139245686D01*
X136595442Y-139483517D01*
X136571017Y-139595411D01*
X136338516Y-139595411D01*
X136370829Y-139464917D01*
X136486118Y-138922642D01*
X136504461Y-138787578D01*
X136502911Y-138761828D01*
X136481961Y-138708703D01*
X136462581Y-138694542D01*
X136437905Y-138689728D01*
X136398139Y-138695414D01*
X136329522Y-138724685D01*
X136186030Y-138784220D01*
X136206943Y-138693239D01*
X136467846Y-138543827D01*
X136732804Y-138407066D01*
X136784425Y-138388852D01*
X136817229Y-138402918D01*
X136833426Y-138434494D01*
X136760000Y-138752621D01*
X136950241Y-138616797D01*
X137046986Y-138546388D01*
X137146570Y-138479444D01*
X137292135Y-138408391D01*
X137393505Y-138388852D01*
X137447903Y-138397782D01*
G37*
G36*
X138579891Y-138393862D02*
G01*
X138656764Y-138426845D01*
X138685453Y-138454605D01*
X138706717Y-138489259D01*
X138720882Y-138533638D01*
X138725697Y-138585009D01*
X138724302Y-138622354D01*
X138697367Y-138738868D01*
X138667341Y-138797476D01*
X138625191Y-138855183D01*
X138555028Y-138927057D01*
X138463136Y-139001901D01*
X138444351Y-139015912D01*
X138206918Y-139188974D01*
X137997701Y-139327660D01*
X138001212Y-139442798D01*
X138015256Y-139523818D01*
X138054155Y-139603541D01*
X138118303Y-139655969D01*
X138157470Y-139669728D01*
X138200728Y-139674485D01*
X138291720Y-139661233D01*
X138365861Y-139633154D01*
X138449311Y-139587776D01*
X138590303Y-139489750D01*
X138764166Y-139348573D01*
X138760655Y-139450239D01*
X138714049Y-139496895D01*
X138506848Y-139674450D01*
X138320483Y-139791306D01*
X138160124Y-139854640D01*
X138025636Y-139873848D01*
X137981162Y-139871008D01*
X137883938Y-139839752D01*
X137843090Y-139811346D01*
X137808509Y-139775070D01*
X137779250Y-139728906D01*
X137757623Y-139674999D01*
X137743465Y-139610189D01*
X137738651Y-139537862D01*
X137744525Y-139422048D01*
X137761205Y-139300187D01*
X137782280Y-139201570D01*
X138008234Y-139201570D01*
X138267263Y-139019989D01*
X138389519Y-138904224D01*
X138451515Y-138803525D01*
X138468458Y-138743421D01*
X138473669Y-138679501D01*
X138463416Y-138608566D01*
X138429474Y-138554412D01*
X138406162Y-138540617D01*
X138379178Y-138535855D01*
X138331853Y-138544684D01*
X138288160Y-138568053D01*
X138245373Y-138604983D01*
X138197187Y-138664016D01*
X138151810Y-138738570D01*
X138106817Y-138834928D01*
X138067188Y-138945501D01*
X138033936Y-139068484D01*
X138008234Y-139201570D01*
X137782280Y-139201570D01*
X137789570Y-139167457D01*
X137827037Y-139038215D01*
X137911154Y-138832978D01*
X137990679Y-138707588D01*
X138114062Y-138588390D01*
X138312622Y-138451897D01*
X138400118Y-138410737D01*
X138461101Y-138394030D01*
X138526181Y-138388852D01*
X138579891Y-138393862D01*
G37*
G36*
X138938647Y-139864078D02*
G01*
X139208077Y-139762565D01*
X139470638Y-138763612D01*
X139557081Y-138703822D01*
X139633326Y-138665470D01*
X139690333Y-138648300D01*
X139747304Y-138641247D01*
X139764645Y-138640880D01*
X139815433Y-138646105D01*
X139859386Y-138663146D01*
X139930332Y-138725363D01*
X139950117Y-138749568D01*
X140055142Y-138416939D01*
X139979884Y-138394996D01*
X139925693Y-138388852D01*
X139830915Y-138408691D01*
X139694578Y-138486854D01*
X139554596Y-138588367D01*
X139488193Y-138637369D01*
X139530172Y-138427472D01*
X139513677Y-138398003D01*
X139484682Y-138388852D01*
X139425422Y-138406816D01*
X139176744Y-138523614D01*
X138917581Y-138665457D01*
X138907200Y-138760101D01*
X138950040Y-138739354D01*
X139099097Y-138669674D01*
X139159076Y-138658435D01*
X139189470Y-138663317D01*
X139210425Y-138677953D01*
X139225520Y-138725941D01*
X139225632Y-138732013D01*
X139208339Y-138848717D01*
X139148695Y-139096545D01*
X138938647Y-139864078D01*
G37*
G36*
X140937203Y-138392590D02*
G01*
X141087284Y-138409092D01*
X141251932Y-138441364D01*
X141241764Y-138452798D01*
X141150418Y-138567454D01*
X141064174Y-138898832D01*
X140959188Y-139366305D01*
X140940369Y-139509621D01*
X140952976Y-139561695D01*
X140982349Y-139579688D01*
X141015853Y-139571490D01*
X141074646Y-139540323D01*
X141332379Y-139369639D01*
X141328868Y-139474664D01*
X141013948Y-139695398D01*
X140837176Y-139810397D01*
X140742000Y-139863474D01*
X140691852Y-139873848D01*
X140654135Y-139859392D01*
X140640560Y-139835597D01*
X140635829Y-139800423D01*
X140647660Y-139694482D01*
X140688341Y-139488708D01*
X140325471Y-139743528D01*
X140147712Y-139849321D01*
X140097327Y-139868340D01*
X140058347Y-139873848D01*
X140038180Y-139871772D01*
X140007047Y-139859202D01*
X139979836Y-139835929D01*
X139953412Y-139796108D01*
X139933420Y-139743958D01*
X139919618Y-139674582D01*
X139914855Y-139593732D01*
X139915962Y-139548752D01*
X139927861Y-139429173D01*
X140184438Y-139429173D01*
X140196231Y-139529536D01*
X140226829Y-139585192D01*
X140248905Y-139599438D01*
X140275418Y-139604265D01*
X140310311Y-139598290D01*
X140403601Y-139558011D01*
X140527446Y-139485197D01*
X140581909Y-139444542D01*
X140716429Y-139345062D01*
X140747875Y-139225994D01*
X140774254Y-139107154D01*
X140807410Y-138959769D01*
X140905412Y-138595389D01*
X140771899Y-138567817D01*
X140607894Y-138549899D01*
X140595088Y-138550192D01*
X140509364Y-138571697D01*
X140467326Y-138599527D01*
X140427919Y-138639843D01*
X140377597Y-138714918D01*
X140327930Y-138816124D01*
X140265478Y-138977452D01*
X140203364Y-139224336D01*
X140184438Y-139429173D01*
X139927861Y-139429173D01*
X139929090Y-139416819D01*
X139955134Y-139274475D01*
X140035496Y-138993078D01*
X140121145Y-138795021D01*
X140191460Y-138690034D01*
X140294368Y-138603070D01*
X140509891Y-138458919D01*
X140591234Y-138417214D01*
X140686295Y-138394839D01*
X140810921Y-138388852D01*
X140937203Y-138392590D01*
G37*
G36*
X142418802Y-139383683D02*
G01*
X142248841Y-139500668D01*
X142102921Y-139587923D01*
X142002580Y-139636531D01*
X141917935Y-139665424D01*
X141851853Y-139674485D01*
X141805798Y-139669660D01*
X141765251Y-139655428D01*
X141703983Y-139603285D01*
X141664894Y-139517406D01*
X141652337Y-139408260D01*
X141670804Y-139188990D01*
X141695814Y-139060653D01*
X141729930Y-138936840D01*
X141760720Y-138851234D01*
X141803515Y-138756553D01*
X141849238Y-138681157D01*
X141890109Y-138632638D01*
X141933073Y-138598044D01*
X141972040Y-138579382D01*
X142012587Y-138571319D01*
X142023281Y-138570965D01*
X142059894Y-138575931D01*
X142091103Y-138591149D01*
X142134919Y-138646943D01*
X142165487Y-138756096D01*
X142170285Y-138791700D01*
X142373312Y-138672631D01*
X142376823Y-138630499D01*
X142372035Y-138568735D01*
X142358063Y-138515080D01*
X142337115Y-138472623D01*
X142309076Y-138438309D01*
X142276270Y-138413669D01*
X142237902Y-138397248D01*
X142177307Y-138388852D01*
X142116276Y-138395942D01*
X142048139Y-138426036D01*
X141949856Y-138486854D01*
X141748011Y-138621476D01*
X141633070Y-138726511D01*
X141554335Y-138847723D01*
X141473719Y-139043184D01*
X141407639Y-139302539D01*
X141389238Y-139431513D01*
X141382754Y-139551753D01*
X141387597Y-139629747D01*
X141401960Y-139697592D01*
X141422964Y-139749970D01*
X141451379Y-139793489D01*
X141484176Y-139825692D01*
X141523034Y-139849859D01*
X141617164Y-139873190D01*
X141638293Y-139873848D01*
X141763711Y-139854635D01*
X141945840Y-139785071D01*
X142193247Y-139646652D01*
X142411780Y-139495730D01*
X142418802Y-139383683D01*
G37*
G36*
X143501561Y-139387500D02*
G01*
X143249514Y-139533895D01*
X143111310Y-139597608D01*
X143074594Y-139604418D01*
X143036354Y-139586866D01*
X142992618Y-139524515D01*
X142973080Y-139439859D01*
X142981908Y-139362744D01*
X143034948Y-139128723D01*
X143053681Y-139048002D01*
X143098842Y-138853553D01*
X143099171Y-138851997D01*
X143123595Y-138753995D01*
X143423036Y-138739238D01*
X143470115Y-138736440D01*
X143603074Y-138634926D01*
X143155041Y-138634926D01*
X143173580Y-138552804D01*
X143190151Y-138477390D01*
X143274110Y-138158958D01*
X143295176Y-138067978D01*
X143235642Y-138099424D01*
X143178528Y-138123941D01*
X143148172Y-138137892D01*
X143101546Y-138160650D01*
X143067572Y-138176513D01*
X143066666Y-138176961D01*
X143018571Y-138197426D01*
X142987124Y-138340919D01*
X142948656Y-138508989D01*
X142920568Y-138634926D01*
X142857676Y-138638437D01*
X142773565Y-138638437D01*
X142721052Y-138641948D01*
X142703296Y-138653226D01*
X142686095Y-138663014D01*
X142648199Y-138692406D01*
X142619539Y-138715374D01*
X142606736Y-138724982D01*
X142567179Y-138753995D01*
X142651138Y-138753995D01*
X142812185Y-138753995D01*
X142889122Y-138753995D01*
X142854165Y-138907868D01*
X142722464Y-139464016D01*
X142706002Y-139565005D01*
X142703650Y-139639375D01*
X142721068Y-139738742D01*
X142743648Y-139789863D01*
X142772448Y-139832004D01*
X142802712Y-139859683D01*
X142834402Y-139873082D01*
X142843632Y-139873848D01*
X142914126Y-139854614D01*
X143085347Y-139761941D01*
X143416356Y-139533696D01*
X143494539Y-139474969D01*
X143501561Y-139387500D01*
G37*
G36*
X144344351Y-137671388D02*
G01*
X144102856Y-137853502D01*
X144136053Y-137935133D01*
X144188218Y-138026696D01*
X144235816Y-138098355D01*
X144252712Y-138083268D01*
X144463267Y-137909372D01*
X144417777Y-137828925D01*
X144403434Y-137801176D01*
X144365265Y-137716878D01*
X144344351Y-137671388D01*
G37*
G36*
X144477311Y-139422151D02*
G01*
X144417777Y-139453598D01*
X144180232Y-139578849D01*
X144126925Y-139599442D01*
X144092323Y-139604265D01*
X144070437Y-139599532D01*
X144052637Y-139585938D01*
X144030975Y-139532113D01*
X144029278Y-139506263D01*
X144043723Y-139396372D01*
X144144836Y-138984346D01*
X144274284Y-138423961D01*
X144269692Y-138406802D01*
X144257087Y-138394791D01*
X144232305Y-138388852D01*
X144165959Y-138407876D01*
X143975612Y-138508438D01*
X143679400Y-138697056D01*
X143672378Y-138795211D01*
X143868307Y-138692285D01*
X143927765Y-138676142D01*
X143947997Y-138680957D01*
X143961668Y-138695124D01*
X143969897Y-138735676D01*
X143963100Y-138802633D01*
X143935066Y-138924536D01*
X143906851Y-139033347D01*
X143762863Y-139577952D01*
X143744864Y-139671658D01*
X143742293Y-139733866D01*
X143747051Y-139786458D01*
X143760818Y-139828378D01*
X143779434Y-139854565D01*
X143803743Y-139870033D01*
X143826251Y-139873848D01*
X143911882Y-139852787D01*
X144083054Y-139761166D01*
X144165749Y-139709289D01*
X144365265Y-139579688D01*
X144413739Y-139550491D01*
X144463267Y-139520154D01*
X144477311Y-139422151D01*
G37*
G36*
X144605233Y-139075937D02*
G01*
X144690460Y-138840034D01*
X144726465Y-138778340D01*
X144765611Y-138743418D01*
X144835052Y-138724317D01*
X144860772Y-138722396D01*
X145069466Y-138714954D01*
X145196759Y-138694460D01*
X144981902Y-138941642D01*
X144885197Y-139075937D01*
X144794185Y-139263070D01*
X144760965Y-139363951D01*
X144738034Y-139464761D01*
X144724302Y-139614951D01*
X144729083Y-139682580D01*
X144743014Y-139741113D01*
X144763712Y-139786911D01*
X144791329Y-139823639D01*
X144822771Y-139849162D01*
X144859354Y-139865915D01*
X144913285Y-139873848D01*
X145042648Y-139854873D01*
X145193367Y-139792971D01*
X145362655Y-139680697D01*
X145540758Y-139514968D01*
X145628591Y-139413026D01*
X145711664Y-139301494D01*
X145795154Y-139170429D01*
X145914557Y-138934818D01*
X145962189Y-138810079D01*
X145997522Y-138690459D01*
X146018475Y-138585799D01*
X146026245Y-138492857D01*
X146026269Y-138487923D01*
X146021090Y-138429841D01*
X146004376Y-138381679D01*
X145945638Y-138308428D01*
X145935288Y-138298940D01*
X145828451Y-138334393D01*
X145700662Y-138393431D01*
X145740916Y-138500793D01*
X145756012Y-138603938D01*
X145756686Y-138638437D01*
X145737370Y-138845938D01*
X145678440Y-139057923D01*
X145579407Y-139267411D01*
X145574725Y-139275453D01*
X145447178Y-139455126D01*
X145376903Y-139530293D01*
X145306014Y-139591745D01*
X145241943Y-139634610D01*
X145180939Y-139662618D01*
X145116159Y-139674485D01*
X145056861Y-139656156D01*
X145008235Y-139601269D01*
X144978989Y-139508344D01*
X144976177Y-139464436D01*
X144995160Y-139290675D01*
X145056416Y-139090035D01*
X145130203Y-138935956D01*
X145202114Y-138818063D01*
X145293102Y-138694713D01*
X145431232Y-138529902D01*
X145431232Y-138505478D01*
X145427721Y-138467009D01*
X145392764Y-138467009D01*
X145361421Y-138497954D01*
X145322620Y-138516156D01*
X145207292Y-138526391D01*
X145011287Y-138519369D01*
X144915355Y-138515285D01*
X144839706Y-138512500D01*
X144772950Y-138517840D01*
X144731956Y-138535681D01*
X144717280Y-138550968D01*
X144661891Y-138651035D01*
X144573686Y-138904984D01*
X144545699Y-139002359D01*
X144605233Y-139075937D01*
G37*
G36*
X146759913Y-137671388D02*
G01*
X146518418Y-137853502D01*
X146551615Y-137935133D01*
X146603780Y-138026696D01*
X146651378Y-138098355D01*
X146668274Y-138083268D01*
X146878829Y-137909372D01*
X146833339Y-137828925D01*
X146818996Y-137801176D01*
X146780826Y-137716878D01*
X146759913Y-137671388D01*
G37*
G36*
X146892873Y-139422151D02*
G01*
X146833339Y-139453598D01*
X146595793Y-139578849D01*
X146542487Y-139599442D01*
X146507885Y-139604265D01*
X146485999Y-139599532D01*
X146468199Y-139585938D01*
X146446537Y-139532113D01*
X146444840Y-139506263D01*
X146459285Y-139396372D01*
X146560397Y-138984346D01*
X146689846Y-138423961D01*
X146685254Y-138406802D01*
X146672648Y-138394791D01*
X146647867Y-138388852D01*
X146581521Y-138407876D01*
X146391174Y-138508438D01*
X146094962Y-138697056D01*
X146087940Y-138795211D01*
X146283869Y-138692285D01*
X146343326Y-138676142D01*
X146363558Y-138680957D01*
X146377230Y-138695124D01*
X146385458Y-138735676D01*
X146378662Y-138802633D01*
X146350628Y-138924536D01*
X146322413Y-139033347D01*
X146178424Y-139577952D01*
X146160426Y-139671658D01*
X146157855Y-139733866D01*
X146162613Y-139786458D01*
X146176380Y-139828378D01*
X146194996Y-139854565D01*
X146219304Y-139870033D01*
X146241813Y-139873848D01*
X146327444Y-139852787D01*
X146498616Y-139761166D01*
X146581311Y-139709289D01*
X146780826Y-139579688D01*
X146829301Y-139550491D01*
X146878829Y-139520154D01*
X146892873Y-139422151D01*
G37*
G36*
X147912587Y-139387500D02*
G01*
X147660540Y-139533895D01*
X147522336Y-139597608D01*
X147485620Y-139604418D01*
X147447379Y-139586866D01*
X147403644Y-139524515D01*
X147384106Y-139439859D01*
X147392934Y-139362744D01*
X147445974Y-139128723D01*
X147464706Y-139048002D01*
X147509868Y-138853553D01*
X147510197Y-138851997D01*
X147534621Y-138753995D01*
X147834062Y-138739238D01*
X147881140Y-138736440D01*
X148014100Y-138634926D01*
X147566067Y-138634926D01*
X147584606Y-138552804D01*
X147601177Y-138477390D01*
X147685136Y-138158958D01*
X147706202Y-138067978D01*
X147646667Y-138099424D01*
X147589554Y-138123941D01*
X147559198Y-138137892D01*
X147512572Y-138160650D01*
X147478598Y-138176513D01*
X147477692Y-138176961D01*
X147429596Y-138197426D01*
X147398150Y-138340919D01*
X147359682Y-138508989D01*
X147331594Y-138634926D01*
X147268702Y-138638437D01*
X147184590Y-138638437D01*
X147132078Y-138641948D01*
X147114321Y-138653226D01*
X147097121Y-138663014D01*
X147059225Y-138692406D01*
X147030565Y-138715374D01*
X147017762Y-138724982D01*
X146978205Y-138753995D01*
X147062164Y-138753995D01*
X147223211Y-138753995D01*
X147300148Y-138753995D01*
X147265191Y-138907868D01*
X147133490Y-139464016D01*
X147117028Y-139565005D01*
X147114676Y-139639375D01*
X147132094Y-139738742D01*
X147154673Y-139789863D01*
X147183474Y-139832004D01*
X147213738Y-139859683D01*
X147245428Y-139873082D01*
X147254658Y-139873848D01*
X147325152Y-139854614D01*
X147496373Y-139761941D01*
X147827382Y-139533696D01*
X147905565Y-139474969D01*
X147912587Y-139387500D01*
G37*
G36*
X147853053Y-140670080D02*
G01*
X148200371Y-140694211D01*
X148238040Y-140694504D01*
X148345826Y-140689310D01*
X148441678Y-140672493D01*
X148513061Y-140649191D01*
X148581419Y-140616144D01*
X148717511Y-140516945D01*
X148822544Y-140414846D01*
X148913022Y-140312902D01*
X148978512Y-140221787D01*
X149028471Y-140118605D01*
X149072360Y-139980460D01*
X149162042Y-139590221D01*
X149291831Y-139022995D01*
X149410010Y-138578516D01*
X149469940Y-138374960D01*
X149426904Y-138398156D01*
X149371938Y-138427472D01*
X149249511Y-138487007D01*
X149172422Y-138525475D01*
X149140976Y-138651565D01*
X149067550Y-138938703D01*
X148997483Y-139225994D01*
X148959015Y-139376661D01*
X148636099Y-139571865D01*
X148573109Y-139599228D01*
X148528537Y-139604265D01*
X148486492Y-139586049D01*
X148458990Y-139531351D01*
X148454959Y-139492219D01*
X148460768Y-139412160D01*
X148481896Y-139296573D01*
X148605473Y-138805744D01*
X148689432Y-138430983D01*
X148673038Y-138396173D01*
X148650963Y-138388852D01*
X148594201Y-138407641D01*
X148342594Y-138537326D01*
X148094548Y-138679501D01*
X148084015Y-138774145D01*
X148255939Y-138692285D01*
X148325510Y-138676142D01*
X148352700Y-138681036D01*
X148370093Y-138695752D01*
X148378022Y-138728654D01*
X148353734Y-138880032D01*
X148269487Y-139204928D01*
X148185929Y-139525420D01*
X148171534Y-139608845D01*
X148167973Y-139677843D01*
X148172667Y-139735375D01*
X148185986Y-139784890D01*
X148206060Y-139823852D01*
X148232126Y-139852519D01*
X148259700Y-139868343D01*
X148290490Y-139873848D01*
X148290553Y-139873848D01*
X148369865Y-139850903D01*
X148500449Y-139775846D01*
X148782225Y-139597224D01*
X148948482Y-139481686D01*
X148910013Y-139667310D01*
X148804092Y-140147343D01*
X148774108Y-140250538D01*
X148745455Y-140320660D01*
X148715818Y-140370241D01*
X148679015Y-140411035D01*
X148590221Y-140464214D01*
X148464112Y-140491533D01*
X148381533Y-140495141D01*
X148277794Y-140489436D01*
X148156243Y-140469045D01*
X147993034Y-140432248D01*
X147853053Y-140670080D01*
G37*
G36*
X150578345Y-138401369D02*
G01*
X150679858Y-138362901D01*
X150889907Y-137753820D01*
X150746414Y-137753820D01*
X150578345Y-138401369D01*
G37*
G36*
X150721227Y-139883618D02*
G01*
X150851090Y-139752004D01*
X150897318Y-139717680D01*
X150938777Y-139698932D01*
X151001190Y-139691124D01*
X151137661Y-139712190D01*
X151203207Y-139725093D01*
X151277643Y-139740125D01*
X151400222Y-139764702D01*
X151704285Y-139826011D01*
X151795743Y-139834769D01*
X151876190Y-139817367D01*
X151935724Y-139729897D01*
X152030216Y-139586405D01*
X152135240Y-139432379D01*
X152156990Y-139398230D01*
X152184241Y-139355290D01*
X152156154Y-139274842D01*
X152021372Y-139442566D01*
X151936106Y-139535171D01*
X151875112Y-139574624D01*
X151813145Y-139582894D01*
X151739719Y-139572361D01*
X151182801Y-139481713D01*
X151113237Y-139470847D01*
X151285721Y-139309731D01*
X151543715Y-139071816D01*
X151855124Y-138781319D01*
X151948680Y-138693327D01*
X152030216Y-138616761D01*
X152091239Y-138514860D01*
X152134508Y-138418941D01*
X152157272Y-138342784D01*
X152170101Y-138264491D01*
X152173709Y-138189794D01*
X152168908Y-138121038D01*
X152154845Y-138058209D01*
X152132671Y-138003038D01*
X152102627Y-137954378D01*
X152065818Y-137913249D01*
X152022289Y-137879252D01*
X151916680Y-137834240D01*
X151813145Y-137822208D01*
X151645113Y-137841318D01*
X151476881Y-137899297D01*
X151397778Y-137942003D01*
X151323691Y-137993373D01*
X151305730Y-138007833D01*
X151245998Y-138060811D01*
X151197472Y-138117341D01*
X151161959Y-138173756D01*
X151136174Y-138233320D01*
X151113495Y-138359442D01*
X151113237Y-138375266D01*
X151122510Y-138452461D01*
X151123770Y-138459377D01*
X151372134Y-138487312D01*
X151339352Y-138370934D01*
X151330155Y-138280774D01*
X151334946Y-138214166D01*
X151348943Y-138154269D01*
X151370699Y-138103199D01*
X151400025Y-138059303D01*
X151435395Y-138023855D01*
X151476997Y-137996051D01*
X151576740Y-137965044D01*
X151620651Y-137962342D01*
X151671597Y-137967122D01*
X151718905Y-137981036D01*
X151801702Y-138034901D01*
X151864392Y-138121875D01*
X151899504Y-138238768D01*
X151904125Y-138305351D01*
X151898583Y-138400357D01*
X151879322Y-138488717D01*
X151853237Y-138554710D01*
X151815340Y-138622799D01*
X151690388Y-138783144D01*
X151382667Y-139089371D01*
X150937363Y-139514601D01*
X150820648Y-139642588D01*
X150707183Y-139782410D01*
X150721227Y-139883618D01*
G37*
G36*
X153737422Y-137773716D02*
G01*
X153833562Y-137785896D01*
X153943401Y-137822361D01*
X153792886Y-138018976D01*
X153770742Y-138003477D01*
X153654949Y-137941441D01*
X153593483Y-137925440D01*
X153526967Y-137920363D01*
X153479530Y-137923042D01*
X153409895Y-137936359D01*
X153340262Y-137960463D01*
X153266852Y-137997459D01*
X153194784Y-138045667D01*
X153121695Y-138107433D01*
X153051607Y-138180295D01*
X152984124Y-138265306D01*
X152921397Y-138360611D01*
X152899357Y-138399011D01*
X152846333Y-138504234D01*
X152800659Y-138617341D01*
X152751897Y-138775482D01*
X152707990Y-138964807D01*
X153022910Y-138779335D01*
X153107037Y-138749842D01*
X153187793Y-138732142D01*
X153271427Y-138726823D01*
X153291570Y-138727214D01*
X153359089Y-138734596D01*
X153421647Y-138750943D01*
X153478629Y-138775680D01*
X153529692Y-138808324D01*
X153574494Y-138848525D01*
X153612346Y-138895666D01*
X153642961Y-138949683D01*
X153665505Y-139009704D01*
X153679552Y-139075795D01*
X153684351Y-139146920D01*
X153666692Y-139277870D01*
X153641030Y-139352200D01*
X153605085Y-139424031D01*
X153556901Y-139496398D01*
X153499173Y-139564401D01*
X153431262Y-139628615D01*
X153355448Y-139686546D01*
X153186615Y-139779126D01*
X153006752Y-139835611D01*
X152826905Y-139854309D01*
X152780055Y-139852153D01*
X152659790Y-139822657D01*
X152607788Y-139795359D01*
X152561501Y-139760006D01*
X152519811Y-139715160D01*
X152484694Y-139662187D01*
X152454962Y-139597622D01*
X152433098Y-139524566D01*
X152418814Y-139438234D01*
X152413982Y-139343078D01*
X152418757Y-139241564D01*
X152683413Y-139241564D01*
X152683851Y-139270490D01*
X152706035Y-139434271D01*
X152755948Y-139557917D01*
X152827742Y-139645085D01*
X152871185Y-139676092D01*
X152919645Y-139698772D01*
X152974164Y-139713012D01*
X153033443Y-139717838D01*
X153034505Y-139717836D01*
X153092954Y-139712278D01*
X153148881Y-139696605D01*
X153204475Y-139670015D01*
X153255490Y-139634200D01*
X153301905Y-139589247D01*
X153341649Y-139536956D01*
X153396410Y-139417962D01*
X153414920Y-139290566D01*
X153405621Y-139197134D01*
X153388451Y-139137478D01*
X153363232Y-139083863D01*
X153292586Y-138998586D01*
X153199779Y-138944938D01*
X153146608Y-138930972D01*
X153089467Y-138926186D01*
X153033838Y-138928960D01*
X152967614Y-138940791D01*
X152900417Y-138963391D01*
X152806178Y-139011464D01*
X152697457Y-139083875D01*
X152683413Y-139241564D01*
X152418757Y-139241564D01*
X152419191Y-139232347D01*
X152434496Y-139118222D01*
X152462077Y-138991491D01*
X152500430Y-138863719D01*
X152549470Y-138735180D01*
X152608218Y-138608769D01*
X152747914Y-138374948D01*
X152907353Y-138177429D01*
X152987168Y-138096821D01*
X153167169Y-137951338D01*
X153347255Y-137851444D01*
X153528390Y-137792839D01*
X153619987Y-137778237D01*
X153712438Y-137773360D01*
X153737422Y-137773716D01*
G37*
D11*
%TO.C,C15*%
X177860000Y-119000000D03*
X179760000Y-119000000D03*
%TD*%
D12*
%TO.C,U1*%
X160760000Y-88950000D03*
X163060000Y-88950000D03*
D13*
X163060000Y-82650000D03*
D12*
X165360000Y-88950000D03*
%TD*%
D14*
%TO.C,H1*%
X104410000Y-138300000D03*
D15*
X104410000Y-138300000D03*
%TD*%
D16*
%TO.C,J8*%
X182910000Y-103500000D03*
X175910000Y-103500000D03*
D17*
X182010000Y-107200000D03*
X184010000Y-99800000D03*
D18*
X174610000Y-99800000D03*
D19*
X170610000Y-104250000D03*
%TD*%
D20*
%TO.C,FB10*%
X181835000Y-135025000D03*
X183410000Y-135025000D03*
%TD*%
D21*
%TO.C,SW1*%
X109860000Y-131200000D03*
D22*
X109860000Y-136200000D03*
X109860000Y-133700000D03*
D23*
X117360000Y-128100000D03*
X117360000Y-139300000D03*
D22*
X124360000Y-136200000D03*
X124360000Y-131200000D03*
%TD*%
D24*
%TO.C,C19*%
X171410000Y-124700000D03*
X171410000Y-126600000D03*
%TD*%
%TO.C,C8*%
X166810000Y-100300000D03*
X166810000Y-102200000D03*
%TD*%
%TO.C,C22*%
X167610000Y-135600000D03*
X167610000Y-137500000D03*
%TD*%
D25*
%TO.C,C1*%
X169400000Y-88850000D03*
X167500000Y-88850000D03*
%TD*%
D26*
%TO.C,C10*%
X166510000Y-116100000D03*
X166510000Y-114200000D03*
%TD*%
D24*
%TO.C,C17*%
X164510000Y-129300000D03*
X164510000Y-131200000D03*
%TD*%
D27*
%TO.C,R1*%
X156310000Y-87187500D03*
X156310000Y-89012500D03*
%TD*%
D24*
%TO.C,C9*%
X164710000Y-100300000D03*
X164710000Y-102200000D03*
%TD*%
D26*
%TO.C,C20*%
X171410000Y-137500000D03*
X171410000Y-135600000D03*
%TD*%
D20*
%TO.C,FB6*%
X161235000Y-131200000D03*
X162810000Y-131200000D03*
%TD*%
D11*
%TO.C,C14*%
X170110000Y-110400000D03*
X172010000Y-110400000D03*
%TD*%
D24*
%TO.C,C2*%
X158460000Y-87150000D03*
X158460000Y-89050000D03*
%TD*%
D20*
%TO.C,FB9*%
X181835000Y-137525000D03*
X183410000Y-137525000D03*
%TD*%
%TO.C,FB8*%
X181720000Y-124245000D03*
X183295000Y-124245000D03*
%TD*%
D28*
%TO.C,R3*%
X157510000Y-100612500D03*
X157510000Y-98787500D03*
%TD*%
D26*
%TO.C,C3*%
X107410000Y-89350000D03*
X107410000Y-87450000D03*
%TD*%
D20*
%TO.C,FB7*%
X181720000Y-126745000D03*
X183295000Y-126745000D03*
%TD*%
D14*
%TO.C,H4*%
X159410000Y-138300000D03*
D15*
X159410000Y-138300000D03*
%TD*%
D26*
%TO.C,C21*%
X166410000Y-126600000D03*
X166410000Y-124700000D03*
%TD*%
D29*
%TO.C,J2*%
X140770000Y-135700000D03*
D16*
X143310000Y-135700000D03*
X145850000Y-135700000D03*
%TD*%
D11*
%TO.C,C12*%
X170160000Y-99200000D03*
X172060000Y-99200000D03*
%TD*%
%TO.C,C7*%
X156710000Y-109100000D03*
X158610000Y-109100000D03*
%TD*%
D30*
%TO.C,C25*%
X184910000Y-139075000D03*
X184910000Y-137525000D03*
%TD*%
D28*
%TO.C,R2*%
X159810000Y-100612500D03*
X159810000Y-98787500D03*
%TD*%
D31*
%TO.C,J1*%
X174200000Y-88357500D03*
D32*
X180200000Y-88357500D03*
D33*
X177200000Y-83657500D03*
%TD*%
D30*
%TO.C,C23*%
X184795000Y-128295000D03*
X184795000Y-126745000D03*
%TD*%
D11*
%TO.C,C13*%
X177760000Y-107800000D03*
X179660000Y-107800000D03*
%TD*%
D34*
%TO.C,R7*%
X177897500Y-121400000D03*
X179722500Y-121400000D03*
%TD*%
D35*
%TO.C,A1*%
X140575000Y-83300000D03*
D36*
X140875000Y-86330000D03*
X145725000Y-86330000D03*
D35*
X146025000Y-83300000D03*
D37*
X133610000Y-83170000D03*
D38*
X133610000Y-85710000D03*
D39*
X133610000Y-88250000D03*
D38*
X133610000Y-90790000D03*
X133610000Y-93330000D03*
X133610000Y-95870000D03*
X133610000Y-98410000D03*
D39*
X133610000Y-100950000D03*
D38*
X133610000Y-103490000D03*
X133610000Y-106030000D03*
X133610000Y-108570000D03*
X133610000Y-111110000D03*
D39*
X133610000Y-113650000D03*
D38*
X133610000Y-116190000D03*
X133610000Y-118730000D03*
X133610000Y-121270000D03*
X133610000Y-123810000D03*
D39*
X133610000Y-126350000D03*
D38*
X133610000Y-128890000D03*
X133610000Y-131430000D03*
X152990000Y-131430000D03*
X152990000Y-128890000D03*
D37*
X152990000Y-126350000D03*
D38*
X152990000Y-123810000D03*
X152990000Y-121270000D03*
X152990000Y-118730000D03*
X152990000Y-116190000D03*
D37*
X152990000Y-113650000D03*
D38*
X152990000Y-111110000D03*
X152990000Y-108570000D03*
X152990000Y-106030000D03*
X152990000Y-103490000D03*
D37*
X152990000Y-100950000D03*
D38*
X152990000Y-98410000D03*
X152990000Y-95870000D03*
X152990000Y-93330000D03*
X152990000Y-90790000D03*
D37*
X152990000Y-88250000D03*
D38*
X152990000Y-85710000D03*
X152990000Y-83170000D03*
D40*
X140760000Y-132000000D03*
D41*
X143300000Y-131200000D03*
D40*
X145840000Y-132000000D03*
%TD*%
D42*
%TO.C,Y1*%
X160610000Y-115600000D03*
X162310000Y-115600000D03*
X162310000Y-114300000D03*
X160610000Y-114300000D03*
%TD*%
D26*
%TO.C,C11*%
X164410000Y-116100000D03*
X164410000Y-114200000D03*
%TD*%
D14*
%TO.C,H2*%
X104410000Y-96300000D03*
D15*
X104410000Y-96300000D03*
%TD*%
D43*
%TO.C,C26*%
X184910000Y-133475000D03*
X184910000Y-135025000D03*
%TD*%
D44*
%TO.C,U4*%
X106505000Y-102105000D03*
X106505000Y-124105000D03*
X128505000Y-102105000D03*
X128505000Y-124105000D03*
D45*
X113695000Y-101605000D03*
X116235000Y-101605000D03*
X118775000Y-101605000D03*
X121315000Y-101605000D03*
%TD*%
D26*
%TO.C,C27*%
X164210000Y-126600000D03*
X164210000Y-124700000D03*
%TD*%
D34*
%TO.C,R4*%
X177097500Y-110400000D03*
X178922500Y-110400000D03*
%TD*%
D24*
%TO.C,C4*%
X158710000Y-114200000D03*
X158710000Y-116100000D03*
%TD*%
D29*
%TO.C,J3*%
X187410000Y-124200000D03*
D16*
X187410000Y-126740000D03*
%TD*%
D46*
%TO.C,U3*%
X161035000Y-104050000D03*
X161035000Y-104700000D03*
X161035000Y-105350000D03*
X161035000Y-106000000D03*
X161035000Y-106650000D03*
X161035000Y-107300000D03*
X161035000Y-107950000D03*
X161035000Y-108600000D03*
X161035000Y-109250000D03*
X161035000Y-109900000D03*
X161035000Y-110550000D03*
X161035000Y-111200000D03*
X161035000Y-111850000D03*
X161035000Y-112500000D03*
X166760000Y-112500000D03*
X166760000Y-111850000D03*
X166760000Y-111200000D03*
X166760000Y-110550000D03*
X166760000Y-109900000D03*
X166760000Y-109250000D03*
X166760000Y-108600000D03*
X166760000Y-107950000D03*
X166760000Y-107300000D03*
X166760000Y-106650000D03*
X166760000Y-106000000D03*
X166760000Y-105350000D03*
X166760000Y-104700000D03*
X166760000Y-104050000D03*
%TD*%
D47*
%TO.C,J4*%
X103522500Y-85650000D03*
D48*
X103772500Y-88475000D03*
X103772500Y-82825000D03*
%TD*%
D49*
%TO.C,Q1*%
X156472500Y-83550000D03*
X156472500Y-85450000D03*
X158347500Y-84500000D03*
%TD*%
D43*
%TO.C,C24*%
X184795000Y-122670000D03*
X184795000Y-124220000D03*
%TD*%
D50*
%TO.C,U6*%
X175210000Y-128625000D03*
X173940000Y-128625000D03*
X172670000Y-128625000D03*
X171400000Y-128625000D03*
X170130000Y-128625000D03*
X168860000Y-128625000D03*
X167590000Y-128625000D03*
X166320000Y-128625000D03*
X166320000Y-133575000D03*
X167590000Y-133575000D03*
X168860000Y-133575000D03*
X170130000Y-133575000D03*
X171400000Y-133575000D03*
X172670000Y-133575000D03*
X173940000Y-133575000D03*
X175210000Y-133575000D03*
%TD*%
D11*
%TO.C,C6*%
X156710000Y-107100000D03*
X158610000Y-107100000D03*
%TD*%
D24*
%TO.C,C18*%
X168910000Y-124700000D03*
X168910000Y-126600000D03*
%TD*%
D51*
%TO.C,U2*%
X109810000Y-83600000D03*
X109810000Y-85600000D03*
X109810000Y-87600000D03*
X109810000Y-89600000D03*
X109810000Y-91600000D03*
X109810000Y-93600000D03*
X109810000Y-95600000D03*
X109810000Y-97600000D03*
X125810000Y-97600000D03*
X125810000Y-95600000D03*
X125810000Y-93600000D03*
X125810000Y-91600000D03*
X125810000Y-89600000D03*
X125810000Y-87600000D03*
X125810000Y-85600000D03*
X125810000Y-83600000D03*
%TD*%
D16*
%TO.C,J9*%
X182910000Y-114700000D03*
X175910000Y-114700000D03*
D17*
X182010000Y-118400000D03*
X184010000Y-111000000D03*
D18*
X174610000Y-111000000D03*
D19*
X170610000Y-115450000D03*
%TD*%
D29*
%TO.C,J7*%
X187410000Y-137525000D03*
D16*
X187410000Y-134985000D03*
%TD*%
D20*
%TO.C,FB1*%
X161335000Y-102200000D03*
X162910000Y-102200000D03*
%TD*%
M02*
