%TF.GenerationSoftware,KiCad,Pcbnew,10.0.0*%
%TF.CreationDate,2026-04-09T11:15:41-07:00*%
%TF.ProjectId,combined,636f6d62-696e-4656-942e-6b696361645f,rev?*%
%TF.SameCoordinates,Original*%
%TF.FileFunction,Soldermask,Bot*%
%TF.FilePolarity,Negative*%
%FSLAX46Y46*%
G04 Gerber Fmt 4.6, Leading zero omitted, Abs format (unit mm)*
G04 Created by KiCad (PCBNEW 10.0.0) date 2026-04-09 11:15:41*
%MOMM*%
%LPD*%
G01*
G04 APERTURE LIST*
G04 Aperture macros list*
%AMRoundRect*
0 Rectangle with rounded corners*
0 $1 Rounding radius*
0 $2 $3 $4 $5 $6 $7 $8 $9 X,Y pos of 4 corners*
0 Add a 4 corners polygon primitive as box body*
4,1,4,$2,$3,$4,$5,$6,$7,$8,$9,$2,$3,0*
0 Add four circle primitives for the rounded corners*
1,1,$1+$1,$2,$3*
1,1,$1+$1,$4,$5*
1,1,$1+$1,$6,$7*
1,1,$1+$1,$8,$9*
0 Add four rect primitives between the rounded corners*
20,1,$1+$1,$2,$3,$4,$5,0*
20,1,$1+$1,$4,$5,$6,$7,0*
20,1,$1+$1,$6,$7,$8,$9,0*
20,1,$1+$1,$8,$9,$2,$3,0*%
G04 Aperture macros list end*
%ADD10C,0.250000*%
%ADD11C,3.600000*%
%ADD12C,5.600000*%
%ADD13C,1.700000*%
%ADD14R,2.000000X2.000000*%
%ADD15C,2.000000*%
%ADD16R,3.200000X2.000000*%
%ADD17R,1.700000X1.700000*%
%ADD18R,3.500000X3.500000*%
%ADD19RoundRect,0.750000X0.750000X1.000000X-0.750000X1.000000X-0.750000X-1.000000X0.750000X-1.000000X0*%
%ADD20RoundRect,0.875000X0.875000X0.875000X-0.875000X0.875000X-0.875000X-0.875000X0.875000X-0.875000X0*%
%ADD21C,2.200000*%
%ADD22C,1.850000*%
%ADD23C,3.000000*%
%ADD24C,1.600000*%
%ADD25RoundRect,0.250000X-1.600000X0.425000X-1.600000X-0.425000X1.600000X-0.425000X1.600000X0.425000X0*%
G04 APERTURE END LIST*
D10*
G36*
X153382833Y-138024916D02*
G01*
X153527768Y-138053853D01*
X153652704Y-138088657D01*
X153742473Y-138122376D01*
X153826521Y-138162632D01*
X153906489Y-138209685D01*
X153984996Y-138265157D01*
X154053461Y-138323576D01*
X154107957Y-138380445D01*
X154153981Y-138440153D01*
X154189977Y-138499757D01*
X154218412Y-138562198D01*
X154252506Y-138693878D01*
X154259298Y-138792083D01*
X154255787Y-138864211D01*
X154239637Y-138948886D01*
X154010048Y-138845327D01*
X154026199Y-138759507D01*
X154029710Y-138688524D01*
X154025813Y-138611855D01*
X154014168Y-138540422D01*
X153995985Y-138477451D01*
X153970925Y-138419310D01*
X153940072Y-138367535D01*
X153902846Y-138320404D01*
X153809614Y-138240348D01*
X153688050Y-138177991D01*
X153532959Y-138134648D01*
X153430460Y-138120048D01*
X153640509Y-138954504D01*
X153691071Y-139150532D01*
X153742557Y-139296093D01*
X153774839Y-139359501D01*
X153810737Y-139410424D01*
X153845004Y-139444973D01*
X153883496Y-139472414D01*
X153975645Y-139509376D01*
X154124842Y-139531284D01*
X154259298Y-139660000D01*
X153903681Y-139660000D01*
X153496678Y-139653816D01*
X153370695Y-139643525D01*
X153272909Y-139626159D01*
X153181332Y-139598450D01*
X152991883Y-139518932D01*
X152804560Y-139408056D01*
X152725350Y-139348133D01*
X152658082Y-139286866D01*
X152618475Y-139242833D01*
X152530579Y-139110509D01*
X152451982Y-138936738D01*
X152420331Y-138838842D01*
X152396424Y-138739532D01*
X152381279Y-138643276D01*
X152377716Y-138590460D01*
X152618475Y-138590460D01*
X152633317Y-138770418D01*
X152680158Y-138971075D01*
X152714574Y-139068551D01*
X152754926Y-139158785D01*
X152794230Y-139229314D01*
X152836828Y-139290460D01*
X152888027Y-139349731D01*
X152942691Y-139399875D01*
X152995914Y-139437709D01*
X153053537Y-139468777D01*
X153183265Y-139511555D01*
X153349761Y-139532285D01*
X153427651Y-139534092D01*
X153469661Y-139534092D01*
X153828087Y-139522857D01*
X153638318Y-139340129D01*
X153575906Y-139267580D01*
X153528096Y-139194931D01*
X153489606Y-139112699D01*
X153455151Y-139011401D01*
X153377215Y-138713681D01*
X153223220Y-138106127D01*
X153058260Y-138117121D01*
X152941096Y-138136841D01*
X152836828Y-138176102D01*
X152751173Y-138238838D01*
X152683897Y-138326292D01*
X152638344Y-138436914D01*
X152618874Y-138567789D01*
X152618475Y-138590460D01*
X152377716Y-138590460D01*
X152374982Y-138549943D01*
X152374842Y-138534528D01*
X152378734Y-138470526D01*
X152390341Y-138410330D01*
X152408796Y-138355887D01*
X152434273Y-138305228D01*
X152505214Y-138216401D01*
X152604883Y-138142518D01*
X152666102Y-138111622D01*
X152736880Y-138084813D01*
X152816580Y-138063483D01*
X153029329Y-138032370D01*
X153200872Y-138019298D01*
X153181332Y-137940896D01*
X153382833Y-138024916D01*
G37*
G36*
X151718725Y-138515224D02*
G01*
X151767511Y-138528589D01*
X151837508Y-138561517D01*
X151996356Y-138670712D01*
X152095062Y-138766071D01*
X152158682Y-138866382D01*
X152225976Y-139030572D01*
X152255949Y-139133966D01*
X152278642Y-139240150D01*
X152291986Y-139337638D01*
X152296685Y-139430289D01*
X152292834Y-139488151D01*
X152281507Y-139539999D01*
X152264205Y-139583125D01*
X152240798Y-139620056D01*
X152213133Y-139649077D01*
X152180455Y-139671801D01*
X152102676Y-139696806D01*
X152067096Y-139699078D01*
X151959507Y-139683712D01*
X151831219Y-139633045D01*
X151682127Y-139539560D01*
X151516366Y-139397516D01*
X151479082Y-139360191D01*
X151476273Y-139278859D01*
X151615363Y-139391800D01*
X151728157Y-139470221D01*
X151794917Y-139506523D01*
X151854229Y-139528986D01*
X151927023Y-139539588D01*
X151961630Y-139535782D01*
X151992963Y-139524775D01*
X152044282Y-139482833D01*
X152075401Y-139419054D01*
X152086636Y-139354238D01*
X152089445Y-139262128D01*
X151922071Y-139151179D01*
X151732125Y-139012729D01*
X151717096Y-139001521D01*
X151643583Y-138941646D01*
X151587453Y-138884146D01*
X151553733Y-138837981D01*
X151529712Y-138791094D01*
X151518733Y-138743600D01*
X151708670Y-138743600D01*
X151712839Y-138794737D01*
X151726394Y-138842820D01*
X151775990Y-138923379D01*
X151873795Y-139015991D01*
X152081018Y-139161256D01*
X152060456Y-139054787D01*
X152033855Y-138956401D01*
X152002152Y-138867942D01*
X151966157Y-138790856D01*
X151929856Y-138731212D01*
X151891307Y-138683986D01*
X151857077Y-138654442D01*
X151822123Y-138635747D01*
X151784263Y-138628684D01*
X151762676Y-138632494D01*
X151744026Y-138643530D01*
X151716873Y-138686853D01*
X151708670Y-138743600D01*
X151518733Y-138743600D01*
X151508164Y-138697883D01*
X151507048Y-138668007D01*
X151510900Y-138626910D01*
X151522232Y-138591407D01*
X151539243Y-138563684D01*
X151562194Y-138541476D01*
X151623693Y-138515090D01*
X151666660Y-138511081D01*
X151718725Y-138515224D01*
G37*
G36*
X151452704Y-139430167D02*
G01*
X151453460Y-139436942D01*
X151458199Y-139494647D01*
X151454377Y-139538711D01*
X151443257Y-139578388D01*
X151425700Y-139612700D01*
X151402074Y-139641902D01*
X151338792Y-139683174D01*
X151255967Y-139699036D01*
X151251081Y-139699078D01*
X151135560Y-139684305D01*
X151066060Y-139663917D01*
X150998548Y-139636025D01*
X150954204Y-139612372D01*
X150891908Y-139572618D01*
X150837176Y-139528636D01*
X150790760Y-139481537D01*
X150752520Y-139431619D01*
X150723588Y-139381133D01*
X150703033Y-139329227D01*
X150688224Y-139234040D01*
X150694837Y-139163026D01*
X150706148Y-139135324D01*
X150725500Y-139109457D01*
X150802823Y-139048887D01*
X150864689Y-139009825D01*
X150922953Y-138967172D01*
X150963821Y-138925128D01*
X150983949Y-138892460D01*
X150995492Y-138857930D01*
X150999023Y-138822124D01*
X150984485Y-138753067D01*
X150941634Y-138691880D01*
X150911344Y-138668480D01*
X150876820Y-138651984D01*
X150822679Y-138642728D01*
X150784603Y-138646780D01*
X150748887Y-138659510D01*
X150684910Y-138709067D01*
X150649023Y-138752027D01*
X150561232Y-138664481D01*
X150517498Y-138606336D01*
X150557399Y-138564830D01*
X150598646Y-138535744D01*
X150634690Y-138520648D01*
X150674321Y-138512677D01*
X150705076Y-138511081D01*
X150798052Y-138525778D01*
X150905310Y-138573392D01*
X151016090Y-138655537D01*
X151066028Y-138706713D01*
X151108407Y-138761567D01*
X151139721Y-138814938D01*
X151161369Y-138868794D01*
X151172679Y-138939849D01*
X151168688Y-138982692D01*
X151156384Y-139022955D01*
X151108826Y-139094761D01*
X151021493Y-139169560D01*
X150910351Y-139254519D01*
X150882347Y-139285741D01*
X150867593Y-139315427D01*
X150861880Y-139363000D01*
X150876304Y-139424807D01*
X150923028Y-139493378D01*
X150999960Y-139553240D01*
X151042110Y-139571683D01*
X151084856Y-139580876D01*
X151099895Y-139581598D01*
X151134537Y-139577733D01*
X151165689Y-139566315D01*
X151215460Y-139523241D01*
X151237037Y-139486221D01*
X151251963Y-139444052D01*
X151260444Y-139390862D01*
X151265003Y-139304138D01*
X151316964Y-139342880D01*
X151329483Y-139351765D01*
X151356328Y-139368048D01*
X151402267Y-139396584D01*
X151420379Y-139408342D01*
X151452704Y-139430167D01*
G37*
G36*
X149913729Y-137937110D02*
G01*
X150106926Y-138082801D01*
X150080368Y-138148106D01*
X150038636Y-138221356D01*
X150000558Y-138278684D01*
X149987041Y-138266614D01*
X149818597Y-138127498D01*
X149854989Y-138063140D01*
X149866463Y-138040941D01*
X149896999Y-137973503D01*
X149913729Y-137937110D01*
G37*
G36*
X149807362Y-139337721D02*
G01*
X149854989Y-139362878D01*
X150045025Y-139463079D01*
X150087670Y-139479554D01*
X150115352Y-139483412D01*
X150132861Y-139479625D01*
X150147101Y-139468750D01*
X150164431Y-139425690D01*
X150165788Y-139405010D01*
X150154232Y-139317098D01*
X150073342Y-138987477D01*
X149969783Y-138539169D01*
X149973457Y-138525442D01*
X149983541Y-138515832D01*
X150003367Y-138511081D01*
X150056443Y-138526301D01*
X150208721Y-138606750D01*
X150445690Y-138757644D01*
X150451308Y-138836168D01*
X150294565Y-138753828D01*
X150246999Y-138740914D01*
X150230813Y-138744766D01*
X150219876Y-138756099D01*
X150213293Y-138788541D01*
X150218730Y-138842106D01*
X150241157Y-138939628D01*
X150263729Y-139026678D01*
X150378920Y-139462361D01*
X150393319Y-139537327D01*
X150395376Y-139587093D01*
X150391570Y-139629166D01*
X150380556Y-139662703D01*
X150365663Y-139683652D01*
X150346216Y-139696027D01*
X150328210Y-139699078D01*
X150259705Y-139682229D01*
X150122767Y-139608933D01*
X150056612Y-139567431D01*
X149896999Y-139463750D01*
X149858220Y-139440393D01*
X149818597Y-139416123D01*
X149807362Y-139337721D01*
G37*
G36*
X148960572Y-138516699D02*
G01*
X149121517Y-138525663D01*
X149175690Y-138537159D01*
X149223058Y-138555916D01*
X149262944Y-138578370D01*
X149357715Y-138640146D01*
X149437605Y-138701350D01*
X149500458Y-138758954D01*
X149550193Y-138815088D01*
X149551395Y-138816629D01*
X149605235Y-138912710D01*
X149673274Y-139096800D01*
X149704781Y-139214058D01*
X149726723Y-139326899D01*
X149736165Y-139436273D01*
X149732018Y-139490790D01*
X149718623Y-139540239D01*
X149674494Y-139618478D01*
X149906744Y-139818857D01*
X149996528Y-139895938D01*
X150078067Y-139973017D01*
X150138366Y-140042235D01*
X150171791Y-140092655D01*
X150192463Y-140139274D01*
X150200959Y-140190373D01*
X150197080Y-140221220D01*
X150185555Y-140249070D01*
X150141004Y-140294894D01*
X150060514Y-140330317D01*
X149931009Y-140350783D01*
X149865003Y-140352794D01*
X149764496Y-140348846D01*
X149669405Y-140336838D01*
X149585161Y-140318185D01*
X149504606Y-140292129D01*
X149356454Y-140219384D01*
X149218126Y-140117466D01*
X149150272Y-140052167D01*
X149101656Y-139982818D01*
X149055561Y-139863919D01*
X149011008Y-139677341D01*
X148923845Y-139284842D01*
X149117376Y-139284842D01*
X149237787Y-139814727D01*
X149271727Y-139952802D01*
X149306274Y-140040570D01*
X149349773Y-140100614D01*
X149414172Y-140152865D01*
X149509733Y-140188829D01*
X149648884Y-140206319D01*
X149691346Y-140207103D01*
X149774676Y-140203208D01*
X149843854Y-140191574D01*
X149890971Y-140175775D01*
X149927488Y-140154557D01*
X149949984Y-140132341D01*
X149964543Y-140106285D01*
X149971371Y-140067030D01*
X149966138Y-140023566D01*
X149945138Y-139977241D01*
X149869642Y-139889187D01*
X149671136Y-139717433D01*
X149117376Y-139284842D01*
X148923845Y-139284842D01*
X148870935Y-139046584D01*
X148838004Y-138900489D01*
X148834542Y-138886727D01*
X148829320Y-138866914D01*
X148792533Y-138729801D01*
X148778611Y-138668129D01*
X148777621Y-138667854D01*
X148770135Y-138665321D01*
X148820498Y-138665321D01*
X148933568Y-138752164D01*
X148977302Y-138805394D01*
X149011629Y-138892669D01*
X149092096Y-139183970D01*
X149152797Y-139225740D01*
X149184542Y-139248450D01*
X149359343Y-139379895D01*
X149377739Y-139394141D01*
X149450523Y-139447386D01*
X149484838Y-139407216D01*
X149506983Y-139366186D01*
X149520481Y-139288259D01*
X149520498Y-139284842D01*
X149515944Y-139221529D01*
X149499694Y-139139669D01*
X149456140Y-138984912D01*
X149415623Y-138864647D01*
X149375598Y-138781115D01*
X149347629Y-138742731D01*
X149316540Y-138714175D01*
X149302145Y-138704521D01*
X149266910Y-138686832D01*
X149217143Y-138675320D01*
X149040622Y-138665988D01*
X148910136Y-138665321D01*
X148820498Y-138665321D01*
X148770135Y-138665321D01*
X148747095Y-138657525D01*
X148721510Y-138637576D01*
X148635729Y-138511081D01*
X148960572Y-138516699D01*
G37*
G36*
X148403698Y-139608953D02*
G01*
X148238590Y-138950840D01*
X148168492Y-138906022D01*
X147920387Y-138755477D01*
X147869693Y-138731919D01*
X147838154Y-138726748D01*
X147824505Y-138730493D01*
X147814961Y-138741082D01*
X147810188Y-138763140D01*
X147832008Y-138892545D01*
X147913747Y-139230865D01*
X147973220Y-139478374D01*
X147986531Y-139580987D01*
X147982296Y-139620070D01*
X147968277Y-139661205D01*
X147944521Y-139706894D01*
X147766088Y-139611468D01*
X147486877Y-139426152D01*
X147426605Y-139382051D01*
X147406943Y-139303649D01*
X147657918Y-139445112D01*
X147702685Y-139465130D01*
X147726168Y-139468879D01*
X147742665Y-139465055D01*
X147755709Y-139453916D01*
X147770300Y-139409225D01*
X147770987Y-139393286D01*
X147763102Y-139308993D01*
X147723536Y-139143343D01*
X147636531Y-138824811D01*
X147566556Y-138558709D01*
X147570371Y-138537705D01*
X147581447Y-138522574D01*
X147619801Y-138511081D01*
X147659864Y-138514482D01*
X147710516Y-138534380D01*
X147959848Y-138681840D01*
X147981210Y-138694902D01*
X147992149Y-138701591D01*
X148074897Y-138753204D01*
X148210502Y-138838733D01*
X148149799Y-138588246D01*
X148143335Y-138547595D01*
X148147081Y-138529569D01*
X148157670Y-138517183D01*
X148179727Y-138511081D01*
X148224840Y-138525889D01*
X148426152Y-138627919D01*
X148619364Y-138737983D01*
X148636095Y-138810767D01*
X148470575Y-138738303D01*
X148420551Y-138726748D01*
X148394483Y-138740427D01*
X148386967Y-138765949D01*
X148401675Y-138871719D01*
X148482185Y-139209713D01*
X148510188Y-139312076D01*
X148574546Y-139538977D01*
X148613747Y-139690163D01*
X148403698Y-139608953D01*
G37*
G36*
X146753756Y-138515224D02*
G01*
X146802543Y-138528589D01*
X146872540Y-138561517D01*
X147031387Y-138670712D01*
X147130094Y-138766071D01*
X147193713Y-138866382D01*
X147261008Y-139030572D01*
X147290981Y-139133966D01*
X147313673Y-139240150D01*
X147327017Y-139337638D01*
X147331716Y-139430289D01*
X147327865Y-139488151D01*
X147316539Y-139539999D01*
X147299237Y-139583125D01*
X147275830Y-139620056D01*
X147248165Y-139649077D01*
X147215487Y-139671801D01*
X147137707Y-139696806D01*
X147102128Y-139699078D01*
X146994538Y-139683712D01*
X146866251Y-139633045D01*
X146717158Y-139539560D01*
X146551398Y-139397516D01*
X146514113Y-139360191D01*
X146511304Y-139278859D01*
X146650395Y-139391800D01*
X146763188Y-139470221D01*
X146829948Y-139506523D01*
X146889261Y-139528986D01*
X146962055Y-139539588D01*
X146996661Y-139535782D01*
X147027994Y-139524775D01*
X147079313Y-139482833D01*
X147110432Y-139419054D01*
X147121667Y-139354238D01*
X147124476Y-139262128D01*
X146957102Y-139151179D01*
X146767156Y-139012729D01*
X146752128Y-139001521D01*
X146678614Y-138941646D01*
X146622484Y-138884146D01*
X146588764Y-138837981D01*
X146564743Y-138791094D01*
X146553764Y-138743600D01*
X146743702Y-138743600D01*
X146747871Y-138794737D01*
X146761425Y-138842820D01*
X146811021Y-138923379D01*
X146908826Y-139015991D01*
X147116050Y-139161256D01*
X147095488Y-139054787D01*
X147068886Y-138956401D01*
X147037183Y-138867942D01*
X147001189Y-138790856D01*
X146964888Y-138731212D01*
X146926338Y-138683986D01*
X146892109Y-138654442D01*
X146857154Y-138635747D01*
X146819295Y-138628684D01*
X146797707Y-138632494D01*
X146779058Y-138643530D01*
X146751904Y-138686853D01*
X146743702Y-138743600D01*
X146553764Y-138743600D01*
X146543195Y-138697883D01*
X146542079Y-138668007D01*
X146545931Y-138626910D01*
X146557264Y-138591407D01*
X146574274Y-138563684D01*
X146597225Y-138541476D01*
X146658724Y-138515090D01*
X146701692Y-138511081D01*
X146753756Y-138515224D01*
G37*
G36*
X145013051Y-137773040D02*
G01*
X145066385Y-137788611D01*
X145120097Y-137816210D01*
X145252646Y-137906639D01*
X145363729Y-138000736D01*
X145431554Y-138068404D01*
X145478093Y-138127512D01*
X145512339Y-138195727D01*
X145543285Y-138290717D01*
X145582083Y-138438663D01*
X145585081Y-138451302D01*
X145604553Y-138527934D01*
X145719347Y-138511081D01*
X145781776Y-138525566D01*
X145903688Y-138586295D01*
X146069945Y-138702669D01*
X146158862Y-138785610D01*
X146211740Y-138868342D01*
X146283522Y-139038399D01*
X146352922Y-139279575D01*
X146372656Y-139387939D01*
X146380138Y-139480754D01*
X146380146Y-139483412D01*
X146366266Y-139578393D01*
X146348714Y-139625231D01*
X146326484Y-139663192D01*
X146303883Y-139687088D01*
X146280347Y-139698472D01*
X146273778Y-139699078D01*
X146216090Y-139682532D01*
X146077552Y-139602472D01*
X145803367Y-139410505D01*
X145819761Y-139519865D01*
X145825715Y-139612372D01*
X145821756Y-139650568D01*
X145809680Y-139678122D01*
X145794825Y-139691623D01*
X145774937Y-139698339D01*
X145764166Y-139699078D01*
X145719407Y-139684293D01*
X145562007Y-139596490D01*
X145243318Y-139382540D01*
X145232083Y-139295711D01*
X145310484Y-139346147D01*
X145385358Y-139397429D01*
X145442131Y-139435785D01*
X145514437Y-139476579D01*
X145562263Y-139496585D01*
X145568161Y-139497456D01*
X145592127Y-139483194D01*
X145606888Y-139436543D01*
X145607362Y-139424549D01*
X145593083Y-139326992D01*
X145494377Y-138863124D01*
X145460062Y-138718443D01*
X145649371Y-138718443D01*
X145780896Y-139306824D01*
X146016032Y-139466770D01*
X146075666Y-139499605D01*
X146112788Y-139511001D01*
X146119783Y-139511378D01*
X146139217Y-139507436D01*
X146154771Y-139495474D01*
X146173860Y-139448555D01*
X146178524Y-139388157D01*
X146162913Y-139221594D01*
X146128087Y-139065879D01*
X146094270Y-138958387D01*
X146056774Y-138866696D01*
X146020568Y-138798716D01*
X145981544Y-138743039D01*
X145944568Y-138703899D01*
X145905415Y-138674407D01*
X145867698Y-138655857D01*
X145828192Y-138645351D01*
X145794940Y-138642728D01*
X145756554Y-138646921D01*
X145721144Y-138660642D01*
X145649371Y-138718443D01*
X145460062Y-138718443D01*
X145396371Y-138449906D01*
X145319718Y-138164807D01*
X145313293Y-138145694D01*
X145277759Y-138060886D01*
X145240572Y-137997012D01*
X145210614Y-137961857D01*
X145178124Y-137936876D01*
X145111640Y-137915403D01*
X145089323Y-137914274D01*
X145035894Y-137918844D01*
X144965486Y-137935204D01*
X144960484Y-137936500D01*
X144862543Y-137779818D01*
X144952180Y-137768583D01*
X145013051Y-137773040D01*
G37*
G36*
X143657546Y-137773885D02*
G01*
X143718909Y-137795367D01*
X143830976Y-137868475D01*
X143984856Y-137992431D01*
X144096456Y-138087866D01*
X144133934Y-138131179D01*
X144163703Y-138180712D01*
X144213639Y-138325903D01*
X144273307Y-138578370D01*
X144339773Y-138867204D01*
X144432798Y-139272508D01*
X144438027Y-139295440D01*
X144533670Y-139698101D01*
X144505704Y-139708237D01*
X144416067Y-139632644D01*
X144344091Y-139657834D01*
X144281967Y-139671461D01*
X144225680Y-139675631D01*
X144152311Y-139665972D01*
X144052329Y-139613992D01*
X143962508Y-139558150D01*
X143819626Y-139476939D01*
X143767586Y-139439554D01*
X143722736Y-139397589D01*
X143651169Y-139299026D01*
X143648900Y-139294979D01*
X143576033Y-139132660D01*
X143516492Y-138927023D01*
X143500733Y-138835680D01*
X143721685Y-138835680D01*
X143736122Y-138987765D01*
X143756969Y-139088897D01*
X143785027Y-139186822D01*
X143802896Y-139236116D01*
X143838957Y-139315128D01*
X143878183Y-139380986D01*
X143915384Y-139428124D01*
X143955129Y-139465150D01*
X143993345Y-139489986D01*
X144033712Y-139506593D01*
X144099651Y-139516140D01*
X144150767Y-139511919D01*
X144204557Y-139497997D01*
X144284420Y-139462896D01*
X144136043Y-138866454D01*
X144018870Y-138785052D01*
X143925688Y-138731495D01*
X143869888Y-138708492D01*
X143824080Y-138698928D01*
X143814009Y-138698538D01*
X143788598Y-138702388D01*
X143766643Y-138713709D01*
X143735102Y-138756615D01*
X143721712Y-138831595D01*
X143721685Y-138835680D01*
X143500733Y-138835680D01*
X143499335Y-138827576D01*
X143492218Y-138736281D01*
X143492096Y-138723939D01*
X143495924Y-138671784D01*
X143507084Y-138625750D01*
X143524010Y-138588351D01*
X143546687Y-138557648D01*
X143572843Y-138535433D01*
X143603362Y-138520107D01*
X143657205Y-138511081D01*
X143706920Y-138515616D01*
X143760318Y-138531727D01*
X143885329Y-138599480D01*
X144108077Y-138751905D01*
X144054832Y-138513890D01*
X143996076Y-138248337D01*
X143937229Y-138095624D01*
X143905451Y-138034458D01*
X143870248Y-137990393D01*
X143841353Y-137968343D01*
X143807817Y-137953059D01*
X143720240Y-137939692D01*
X143702023Y-137939431D01*
X143587229Y-137939431D01*
X143472435Y-137777009D01*
X143595655Y-137768583D01*
X143657546Y-137773885D01*
G37*
G36*
X143574040Y-140336064D02*
G01*
X143296185Y-140355368D01*
X143266050Y-140355603D01*
X143179821Y-140351448D01*
X143103140Y-140337995D01*
X143046033Y-140319353D01*
X142991347Y-140292915D01*
X142882473Y-140213556D01*
X142798447Y-140131877D01*
X142726064Y-140050322D01*
X142673673Y-139977430D01*
X142633705Y-139894884D01*
X142598594Y-139784368D01*
X142526849Y-139472177D01*
X142423017Y-139018396D01*
X142328474Y-138662812D01*
X142280530Y-138499968D01*
X142314959Y-138518525D01*
X142358932Y-138541978D01*
X142456873Y-138589605D01*
X142518545Y-138620380D01*
X142543702Y-138721252D01*
X142602442Y-138950963D01*
X142658496Y-139180795D01*
X142689270Y-139301329D01*
X142947603Y-139457492D01*
X142997995Y-139479382D01*
X143033653Y-139483412D01*
X143067289Y-139468839D01*
X143089290Y-139425081D01*
X143092515Y-139393775D01*
X143087868Y-139329728D01*
X143070965Y-139237258D01*
X142972103Y-138844595D01*
X142904937Y-138544787D01*
X142918052Y-138516938D01*
X142935711Y-138511081D01*
X142981121Y-138526113D01*
X143182407Y-138629861D01*
X143380844Y-138743600D01*
X143389270Y-138819316D01*
X143251731Y-138753828D01*
X143196074Y-138740914D01*
X143174322Y-138744829D01*
X143160407Y-138756601D01*
X143154064Y-138782923D01*
X143173495Y-138904025D01*
X143240893Y-139163942D01*
X143307739Y-139420336D01*
X143319255Y-139487076D01*
X143322103Y-139542274D01*
X143318348Y-139588300D01*
X143307694Y-139627912D01*
X143291634Y-139659082D01*
X143270781Y-139682015D01*
X143248722Y-139694674D01*
X143224090Y-139699078D01*
X143224040Y-139699078D01*
X143160590Y-139680722D01*
X143056123Y-139620676D01*
X142830702Y-139477779D01*
X142697697Y-139385348D01*
X142728471Y-139533848D01*
X142813208Y-139917874D01*
X142837196Y-140000430D01*
X142860118Y-140056528D01*
X142883827Y-140096192D01*
X142913270Y-140128828D01*
X142984306Y-140171371D01*
X143085193Y-140193227D01*
X143151256Y-140196113D01*
X143234247Y-140191549D01*
X143331488Y-140175236D01*
X143462055Y-140145799D01*
X143574040Y-140336064D01*
G37*
G36*
X141410537Y-139608953D02*
G01*
X141245429Y-138950840D01*
X141175331Y-138906022D01*
X140927226Y-138755477D01*
X140876532Y-138731919D01*
X140844993Y-138726748D01*
X140831344Y-138730493D01*
X140821800Y-138741082D01*
X140817027Y-138763140D01*
X140838847Y-138892545D01*
X140920586Y-139230865D01*
X140980059Y-139478374D01*
X140993370Y-139580987D01*
X140989134Y-139620070D01*
X140975116Y-139661205D01*
X140951360Y-139706894D01*
X140772927Y-139611468D01*
X140493716Y-139426152D01*
X140433443Y-139382051D01*
X140413782Y-139303649D01*
X140664757Y-139445112D01*
X140709524Y-139465130D01*
X140733007Y-139468879D01*
X140749504Y-139465055D01*
X140762548Y-139453916D01*
X140777139Y-139409225D01*
X140777826Y-139393286D01*
X140769940Y-139308993D01*
X140730374Y-139143343D01*
X140643370Y-138824811D01*
X140573394Y-138558709D01*
X140577210Y-138537705D01*
X140588286Y-138522574D01*
X140626639Y-138511081D01*
X140666703Y-138514482D01*
X140717355Y-138534380D01*
X140966687Y-138681840D01*
X140988049Y-138694902D01*
X140998988Y-138701591D01*
X141081736Y-138753204D01*
X141217341Y-138838733D01*
X141156638Y-138588246D01*
X141150174Y-138547595D01*
X141153920Y-138529569D01*
X141164508Y-138517183D01*
X141186566Y-138511081D01*
X141231679Y-138525889D01*
X141432990Y-138627919D01*
X141626203Y-138737983D01*
X141642934Y-138810767D01*
X141477414Y-138738303D01*
X141427390Y-138726748D01*
X141401322Y-138740427D01*
X141393806Y-138765949D01*
X141408514Y-138871719D01*
X141489024Y-139209713D01*
X141517027Y-139312076D01*
X141581385Y-139538977D01*
X141620586Y-139690163D01*
X141410537Y-139608953D01*
G37*
G36*
X139721402Y-138515871D02*
G01*
X139797451Y-138533771D01*
X139862526Y-138567135D01*
X140034944Y-138682456D01*
X140117271Y-138752027D01*
X140173523Y-138836017D01*
X140242042Y-138994462D01*
X140306332Y-139219580D01*
X140327167Y-139333455D01*
X140337669Y-139439002D01*
X140338555Y-139474986D01*
X140334745Y-139539666D01*
X140323703Y-139595166D01*
X140307709Y-139636886D01*
X140286570Y-139668743D01*
X140264801Y-139687361D01*
X140239895Y-139697418D01*
X140223761Y-139699078D01*
X140192577Y-139694672D01*
X140152269Y-139679457D01*
X140010062Y-139594822D01*
X139719766Y-139390966D01*
X139752311Y-139555586D01*
X139761775Y-139640338D01*
X139757991Y-139668477D01*
X139747131Y-139687514D01*
X139716957Y-139699078D01*
X139676838Y-139690779D01*
X139600698Y-139648317D01*
X139459281Y-139556318D01*
X139207344Y-139379731D01*
X139204535Y-139295711D01*
X139410722Y-139432258D01*
X139457756Y-139457192D01*
X139484560Y-139463750D01*
X139508058Y-139449356D01*
X139518143Y-139407697D01*
X139503088Y-139293044D01*
X139419099Y-138919065D01*
X139355920Y-138676311D01*
X139546109Y-138676311D01*
X139624511Y-138967815D01*
X139651035Y-139085723D01*
X139672138Y-139180795D01*
X139697295Y-139276050D01*
X139804911Y-139355633D01*
X139848482Y-139388157D01*
X139947558Y-139446409D01*
X140022190Y-139478632D01*
X140050104Y-139483412D01*
X140071314Y-139479551D01*
X140088976Y-139468153D01*
X140113454Y-139423628D01*
X140122889Y-139343339D01*
X140107748Y-139179469D01*
X140058056Y-138981961D01*
X140008094Y-138852899D01*
X139968361Y-138771934D01*
X139928104Y-138711874D01*
X139896578Y-138679621D01*
X139862948Y-138657357D01*
X139794369Y-138640154D01*
X139784124Y-138639919D01*
X139652919Y-138654254D01*
X139546109Y-138676311D01*
X139355920Y-138676311D01*
X139350104Y-138653963D01*
X139277027Y-138562239D01*
X139268893Y-138553091D01*
X139400612Y-138527273D01*
X139520676Y-138514072D01*
X139621702Y-138511081D01*
X139721402Y-138515871D01*
G37*
G36*
X138483775Y-139292903D02*
G01*
X138702351Y-139437046D01*
X138814945Y-139494817D01*
X138830966Y-139497456D01*
X138860681Y-139483043D01*
X138881109Y-139437865D01*
X138884211Y-139405010D01*
X138868249Y-139276093D01*
X138814235Y-139049148D01*
X138808716Y-139028136D01*
X138755373Y-138819316D01*
X138705059Y-138623189D01*
X138691015Y-138547595D01*
X138694681Y-138529569D01*
X138704715Y-138517183D01*
X138724598Y-138511081D01*
X138765974Y-138525749D01*
X138966455Y-138632240D01*
X139158618Y-138746409D01*
X139178157Y-138822124D01*
X139047102Y-138759836D01*
X138977685Y-138740997D01*
X138973848Y-138740914D01*
X138957780Y-138744729D01*
X138945142Y-138755805D01*
X138934647Y-138794159D01*
X138950555Y-138893078D01*
X139013049Y-139141594D01*
X139082643Y-139420046D01*
X139096048Y-139498988D01*
X139099755Y-139561936D01*
X139096018Y-139605673D01*
X139085489Y-139643042D01*
X139069863Y-139671372D01*
X139049792Y-139690509D01*
X139021353Y-139699078D01*
X138990812Y-139694674D01*
X138952159Y-139679475D01*
X138788956Y-139581475D01*
X138500628Y-139393775D01*
X138536027Y-139577639D01*
X138539829Y-139634720D01*
X138536066Y-139662010D01*
X138525363Y-139682580D01*
X138510545Y-139694395D01*
X138491463Y-139699040D01*
X138489392Y-139699078D01*
X138439206Y-139684457D01*
X138288617Y-139606182D01*
X138023631Y-139433778D01*
X137976971Y-139399392D01*
X137957431Y-139315251D01*
X138181417Y-139443478D01*
X138244071Y-139473692D01*
X138279466Y-139483412D01*
X138292853Y-139479362D01*
X138302640Y-139466647D01*
X138310240Y-139416123D01*
X138295532Y-139280427D01*
X138231133Y-138985690D01*
X138173076Y-138773872D01*
X138105183Y-138556015D01*
X138086270Y-138499968D01*
X138125961Y-138521453D01*
X138159054Y-138539169D01*
X138161895Y-138540585D01*
X138262613Y-138586796D01*
X138290869Y-138602570D01*
X138318667Y-138617571D01*
X138455809Y-139180795D01*
X138483775Y-139292903D01*
G37*
G36*
X137999808Y-139430167D02*
G01*
X138000564Y-139436942D01*
X138005303Y-139494647D01*
X138001481Y-139538711D01*
X137990361Y-139578388D01*
X137972804Y-139612700D01*
X137949178Y-139641902D01*
X137885896Y-139683174D01*
X137803071Y-139699036D01*
X137798185Y-139699078D01*
X137682664Y-139684305D01*
X137613164Y-139663917D01*
X137545652Y-139636025D01*
X137501308Y-139612372D01*
X137439012Y-139572618D01*
X137384280Y-139528636D01*
X137337864Y-139481537D01*
X137299624Y-139431619D01*
X137270692Y-139381133D01*
X137250137Y-139329227D01*
X137235327Y-139234040D01*
X137241941Y-139163026D01*
X137253252Y-139135324D01*
X137272604Y-139109457D01*
X137349927Y-139048887D01*
X137411793Y-139009825D01*
X137470057Y-138967172D01*
X137510925Y-138925128D01*
X137531053Y-138892460D01*
X137542595Y-138857930D01*
X137546127Y-138822124D01*
X137531589Y-138753067D01*
X137488738Y-138691880D01*
X137458448Y-138668480D01*
X137423924Y-138651984D01*
X137369783Y-138642728D01*
X137331707Y-138646780D01*
X137295991Y-138659510D01*
X137232014Y-138709067D01*
X137196127Y-138752027D01*
X137108336Y-138664481D01*
X137064602Y-138606336D01*
X137104503Y-138564830D01*
X137145750Y-138535744D01*
X137181794Y-138520648D01*
X137221425Y-138512677D01*
X137252180Y-138511081D01*
X137345155Y-138525778D01*
X137452414Y-138573392D01*
X137563194Y-138655537D01*
X137613132Y-138706713D01*
X137655511Y-138761567D01*
X137686825Y-138814938D01*
X137708473Y-138868794D01*
X137719783Y-138939849D01*
X137715792Y-138982692D01*
X137703488Y-139022955D01*
X137655930Y-139094761D01*
X137568597Y-139169560D01*
X137457455Y-139254519D01*
X137429450Y-139285741D01*
X137414697Y-139315427D01*
X137408984Y-139363000D01*
X137423408Y-139424807D01*
X137470132Y-139493378D01*
X137547064Y-139553240D01*
X137589214Y-139571683D01*
X137631960Y-139580876D01*
X137646999Y-139581598D01*
X137681641Y-139577733D01*
X137712793Y-139566315D01*
X137762564Y-139523241D01*
X137784141Y-139486221D01*
X137799067Y-139444052D01*
X137807548Y-139390862D01*
X137812107Y-139304138D01*
X137864068Y-139342880D01*
X137876587Y-139351765D01*
X137903432Y-139368048D01*
X137949371Y-139396584D01*
X137967483Y-139408342D01*
X137999808Y-139430167D01*
G37*
G36*
X136460833Y-137937110D02*
G01*
X136654030Y-138082801D01*
X136627472Y-138148106D01*
X136585740Y-138221356D01*
X136547662Y-138278684D01*
X136534145Y-138266614D01*
X136365701Y-138127498D01*
X136402093Y-138063140D01*
X136413567Y-138040941D01*
X136444103Y-137973503D01*
X136460833Y-137937110D01*
G37*
G36*
X136354466Y-139337721D02*
G01*
X136402093Y-139362878D01*
X136592129Y-139463079D01*
X136634774Y-139479554D01*
X136662456Y-139483412D01*
X136679965Y-139479625D01*
X136694205Y-139468750D01*
X136711535Y-139425690D01*
X136712892Y-139405010D01*
X136701336Y-139317098D01*
X136620446Y-138987477D01*
X136516887Y-138539169D01*
X136520561Y-138525442D01*
X136530645Y-138515832D01*
X136550471Y-138511081D01*
X136603547Y-138526301D01*
X136755825Y-138606750D01*
X136992794Y-138757644D01*
X136998412Y-138836168D01*
X136841669Y-138753828D01*
X136794103Y-138740914D01*
X136777917Y-138744766D01*
X136766980Y-138756099D01*
X136760397Y-138788541D01*
X136765834Y-138842106D01*
X136788261Y-138939628D01*
X136810833Y-139026678D01*
X136926024Y-139462361D01*
X136940423Y-139537327D01*
X136942480Y-139587093D01*
X136938674Y-139629166D01*
X136927660Y-139662703D01*
X136912767Y-139683652D01*
X136893320Y-139696027D01*
X136875314Y-139699078D01*
X136806809Y-139682229D01*
X136669871Y-139608933D01*
X136603715Y-139567431D01*
X136444103Y-139463750D01*
X136405323Y-139440393D01*
X136365701Y-139416123D01*
X136354466Y-139337721D01*
G37*
G36*
X135482641Y-139306946D02*
G01*
X135618610Y-139400534D01*
X135735346Y-139470338D01*
X135815618Y-139509225D01*
X135883334Y-139532339D01*
X135936200Y-139539588D01*
X135973044Y-139535728D01*
X136005482Y-139524342D01*
X136054496Y-139482628D01*
X136085767Y-139413925D01*
X136095812Y-139326608D01*
X136081039Y-139151192D01*
X136061031Y-139048522D01*
X136033738Y-138949472D01*
X136009106Y-138880987D01*
X135974870Y-138805242D01*
X135938292Y-138744925D01*
X135905595Y-138706110D01*
X135871224Y-138678435D01*
X135840050Y-138663505D01*
X135807613Y-138657055D01*
X135799057Y-138656772D01*
X135769767Y-138660744D01*
X135744800Y-138672919D01*
X135709747Y-138717554D01*
X135685293Y-138804877D01*
X135681454Y-138833360D01*
X135519033Y-138738105D01*
X135516224Y-138704399D01*
X135520054Y-138654988D01*
X135531232Y-138612064D01*
X135547990Y-138578098D01*
X135570422Y-138550647D01*
X135596667Y-138530935D01*
X135627361Y-138517798D01*
X135675837Y-138511081D01*
X135724661Y-138516754D01*
X135779171Y-138540829D01*
X135857798Y-138589483D01*
X136019274Y-138697181D01*
X136111226Y-138781209D01*
X136174214Y-138878178D01*
X136238707Y-139034547D01*
X136291571Y-139242031D01*
X136306292Y-139345211D01*
X136311479Y-139441402D01*
X136307604Y-139503797D01*
X136296114Y-139558074D01*
X136279311Y-139599976D01*
X136256579Y-139634791D01*
X136230341Y-139660554D01*
X136199255Y-139679887D01*
X136123951Y-139698552D01*
X136107048Y-139699078D01*
X136006714Y-139683708D01*
X135861011Y-139628057D01*
X135663085Y-139517322D01*
X135488258Y-139396584D01*
X135482641Y-139306946D01*
G37*
G36*
X134736894Y-138515871D02*
G01*
X134812943Y-138533771D01*
X134878018Y-138567135D01*
X135050436Y-138682456D01*
X135132763Y-138752027D01*
X135189015Y-138836017D01*
X135257534Y-138994462D01*
X135321824Y-139219580D01*
X135342659Y-139333455D01*
X135353161Y-139439002D01*
X135354047Y-139474986D01*
X135350236Y-139539666D01*
X135339195Y-139595166D01*
X135323201Y-139636886D01*
X135302062Y-139668743D01*
X135280293Y-139687361D01*
X135255387Y-139697418D01*
X135239253Y-139699078D01*
X135208069Y-139694672D01*
X135167761Y-139679457D01*
X135025554Y-139594822D01*
X134735258Y-139390966D01*
X134767803Y-139555586D01*
X134777267Y-139640338D01*
X134773483Y-139668477D01*
X134762623Y-139687514D01*
X134732449Y-139699078D01*
X134692330Y-139690779D01*
X134616190Y-139648317D01*
X134474773Y-139556318D01*
X134222836Y-139379731D01*
X134220027Y-139295711D01*
X134426214Y-139432258D01*
X134473248Y-139457192D01*
X134500052Y-139463750D01*
X134523550Y-139449356D01*
X134533635Y-139407697D01*
X134518580Y-139293044D01*
X134434591Y-138919065D01*
X134371412Y-138676311D01*
X134561601Y-138676311D01*
X134640003Y-138967815D01*
X134666527Y-139085723D01*
X134687630Y-139180795D01*
X134712787Y-139276050D01*
X134820403Y-139355633D01*
X134863974Y-139388157D01*
X134963050Y-139446409D01*
X135037682Y-139478632D01*
X135065596Y-139483412D01*
X135086806Y-139479551D01*
X135104468Y-139468153D01*
X135128946Y-139423628D01*
X135138381Y-139343339D01*
X135123240Y-139179469D01*
X135073548Y-138981961D01*
X135023586Y-138852899D01*
X134983853Y-138771934D01*
X134943596Y-138711874D01*
X134912070Y-138679621D01*
X134878440Y-138657357D01*
X134809861Y-138640154D01*
X134799616Y-138639919D01*
X134668411Y-138654254D01*
X134561601Y-138676311D01*
X134371412Y-138676311D01*
X134365596Y-138653963D01*
X134292519Y-138562239D01*
X134284385Y-138553091D01*
X134416104Y-138527273D01*
X134536168Y-138514072D01*
X134637194Y-138511081D01*
X134736894Y-138515871D01*
G37*
G36*
X133562575Y-138515871D02*
G01*
X133638624Y-138533771D01*
X133703698Y-138567135D01*
X133876117Y-138682456D01*
X133958443Y-138752027D01*
X134014695Y-138836017D01*
X134083214Y-138994462D01*
X134147504Y-139219580D01*
X134168339Y-139333455D01*
X134178841Y-139439002D01*
X134179727Y-139474986D01*
X134175917Y-139539666D01*
X134164875Y-139595166D01*
X134148881Y-139636886D01*
X134127743Y-139668743D01*
X134105974Y-139687361D01*
X134081067Y-139697418D01*
X134064933Y-139699078D01*
X134033750Y-139694672D01*
X133993442Y-139679457D01*
X133851234Y-139594822D01*
X133560938Y-139390966D01*
X133593483Y-139555586D01*
X133602948Y-139640338D01*
X133599163Y-139668477D01*
X133588303Y-139687514D01*
X133558129Y-139699078D01*
X133518011Y-139690779D01*
X133441870Y-139648317D01*
X133300453Y-139556318D01*
X133048517Y-139379731D01*
X133045708Y-139295711D01*
X133251895Y-139432258D01*
X133298928Y-139457192D01*
X133325732Y-139463750D01*
X133349230Y-139449356D01*
X133359316Y-139407697D01*
X133344261Y-139293044D01*
X133260272Y-138919065D01*
X133197093Y-138676311D01*
X133387281Y-138676311D01*
X133465683Y-138967815D01*
X133492208Y-139085723D01*
X133513311Y-139180795D01*
X133538468Y-139276050D01*
X133646084Y-139355633D01*
X133689654Y-139388157D01*
X133788730Y-139446409D01*
X133863363Y-139478632D01*
X133891277Y-139483412D01*
X133912487Y-139479551D01*
X133930148Y-139468153D01*
X133954626Y-139423628D01*
X133964061Y-139343339D01*
X133948920Y-139179469D01*
X133899228Y-138981961D01*
X133849267Y-138852899D01*
X133809533Y-138771934D01*
X133769276Y-138711874D01*
X133737750Y-138679621D01*
X133704120Y-138657357D01*
X133635541Y-138640154D01*
X133625296Y-138639919D01*
X133494092Y-138654254D01*
X133387281Y-138676311D01*
X133197093Y-138676311D01*
X133191277Y-138653963D01*
X133118200Y-138562239D01*
X133110066Y-138553091D01*
X133241784Y-138527273D01*
X133361848Y-138514072D01*
X133462875Y-138511081D01*
X133562575Y-138515871D01*
G37*
G36*
X133342463Y-138096723D02*
G01*
X133308855Y-138177110D01*
X133253976Y-138267124D01*
X133236095Y-138292728D01*
X133222615Y-138279858D01*
X133143771Y-138208709D01*
X133130506Y-138198447D01*
X133054134Y-138138733D01*
X133065355Y-138120366D01*
X133110066Y-138043600D01*
X133133198Y-137988695D01*
X133149267Y-137948346D01*
X133342463Y-138096723D01*
G37*
G36*
X133560938Y-137979120D02*
G01*
X133578301Y-137993982D01*
X133622487Y-138032365D01*
X133647568Y-138050520D01*
X133714933Y-138096723D01*
X133682159Y-138174367D01*
X133627073Y-138265115D01*
X133608565Y-138292728D01*
X133554020Y-138242189D01*
X133516120Y-138208709D01*
X133474455Y-138176970D01*
X133426482Y-138138733D01*
X133479727Y-138043600D01*
X133495408Y-138008814D01*
X133521737Y-137948346D01*
X133560938Y-137979120D01*
G37*
G36*
X131269940Y-138217990D02*
G01*
X131243669Y-138292133D01*
X131236357Y-138349515D01*
X131240484Y-138399039D01*
X131253745Y-138443652D01*
X131300849Y-138512971D01*
X131392595Y-138587039D01*
X131465945Y-138632348D01*
X131486813Y-138580834D01*
X131512640Y-138540361D01*
X131538648Y-138514535D01*
X131568757Y-138496187D01*
X131639187Y-138481232D01*
X131645097Y-138481161D01*
X131689196Y-138485167D01*
X131735896Y-138497576D01*
X131846242Y-138552712D01*
X131894347Y-138584720D01*
X131988073Y-138653387D01*
X132059613Y-138717809D01*
X132104621Y-138769556D01*
X132142552Y-138824873D01*
X132157519Y-138850579D01*
X132233489Y-139018308D01*
X132261973Y-139108498D01*
X132281877Y-139197004D01*
X132294661Y-139331859D01*
X132290782Y-139390058D01*
X132279260Y-139443796D01*
X132261153Y-139491098D01*
X132236305Y-139534045D01*
X132167756Y-139605819D01*
X132071804Y-139660245D01*
X131944244Y-139695439D01*
X131796284Y-139706894D01*
X131705587Y-139702992D01*
X131616403Y-139691309D01*
X131444107Y-139645118D01*
X131278692Y-139568277D01*
X131119834Y-139459627D01*
X130984298Y-139334668D01*
X130902326Y-139243115D01*
X130839016Y-139153456D01*
X130768826Y-139006140D01*
X130695969Y-138774986D01*
X130484516Y-138763170D01*
X130437614Y-138750668D01*
X130407519Y-138730289D01*
X130365982Y-138673699D01*
X130301427Y-138530740D01*
X130239480Y-138324357D01*
X130292725Y-138262808D01*
X130350637Y-138441626D01*
X130387857Y-138523171D01*
X130414085Y-138559603D01*
X130450509Y-138580518D01*
X130517809Y-138591369D01*
X130636666Y-138597610D01*
X130667882Y-138598764D01*
X130645533Y-138506318D01*
X130808380Y-138590969D01*
X130821877Y-138598764D01*
X130963656Y-138595207D01*
X131074061Y-138601556D01*
X131159797Y-138624245D01*
X131227568Y-138669706D01*
X131286277Y-138748192D01*
X131348970Y-138888229D01*
X131449092Y-139194839D01*
X131384734Y-139211570D01*
X131336977Y-139078087D01*
X131288373Y-138971965D01*
X131250888Y-138910202D01*
X131210820Y-138860957D01*
X131173575Y-138827886D01*
X131133176Y-138802817D01*
X131043606Y-138774793D01*
X130970254Y-138769490D01*
X130886357Y-138774986D01*
X130924607Y-138944920D01*
X130965873Y-139080098D01*
X131000015Y-139162519D01*
X131039512Y-139236594D01*
X131057083Y-139264692D01*
X131140312Y-139368693D01*
X131247643Y-139453634D01*
X131376873Y-139516287D01*
X131524471Y-139552948D01*
X131642288Y-139561325D01*
X131718118Y-139557481D01*
X131788130Y-139546201D01*
X131850193Y-139528452D01*
X131905820Y-139504375D01*
X131952740Y-139475635D01*
X131992900Y-139441697D01*
X132024658Y-139404599D01*
X132049485Y-139363288D01*
X132066633Y-139319369D01*
X132076573Y-139271979D01*
X132079117Y-139231109D01*
X132075038Y-139182204D01*
X132062120Y-139139251D01*
X132016568Y-139074207D01*
X131978244Y-139040844D01*
X131715073Y-138870118D01*
X131525802Y-138752637D01*
X131659141Y-138752637D01*
X132073499Y-138993339D01*
X132027627Y-138850258D01*
X131983862Y-138763872D01*
X131947648Y-138714064D01*
X131908342Y-138672940D01*
X131868868Y-138642608D01*
X131828997Y-138622344D01*
X131779553Y-138612686D01*
X131748041Y-138616670D01*
X131721388Y-138628926D01*
X131684622Y-138673003D01*
X131659141Y-138752637D01*
X131525802Y-138752637D01*
X131378735Y-138661352D01*
X131233548Y-138559563D01*
X131160462Y-138496622D01*
X131103502Y-138436023D01*
X131067575Y-138386152D01*
X131042098Y-138336595D01*
X131027600Y-138291113D01*
X131021123Y-138244916D01*
X131020690Y-138229103D01*
X131025259Y-138184930D01*
X131041606Y-138143778D01*
X131071127Y-138100387D01*
X131269940Y-138217990D01*
G37*
G36*
X129591870Y-139691140D02*
G01*
X129546283Y-139673970D01*
X129524703Y-139665861D01*
X129507631Y-139660328D01*
X129448988Y-139640582D01*
X129387438Y-139620921D01*
X129278262Y-139120589D01*
X129213904Y-139081266D01*
X129194822Y-139125273D01*
X129057100Y-139446653D01*
X128977126Y-139625984D01*
X128906216Y-139757908D01*
X128859573Y-139826475D01*
X128811309Y-139882731D01*
X128749110Y-139938436D01*
X128630129Y-140011226D01*
X128483271Y-140065566D01*
X128406694Y-140081717D01*
X128331418Y-140089336D01*
X128306664Y-140089867D01*
X128228372Y-140085818D01*
X128158860Y-140073106D01*
X128105150Y-140054908D01*
X128054816Y-140029355D01*
X128001482Y-139991926D01*
X128057414Y-139789570D01*
X128105420Y-139862933D01*
X128153360Y-139919327D01*
X128192684Y-139952995D01*
X128233787Y-139977202D01*
X128317341Y-139999117D01*
X128345865Y-140000352D01*
X128391754Y-139996374D01*
X128435541Y-139984161D01*
X128516477Y-139936310D01*
X128600610Y-139851364D01*
X128648995Y-139789431D01*
X128704215Y-139692957D01*
X128975889Y-139123398D01*
X129057100Y-138949131D01*
X128869399Y-138777672D01*
X128751858Y-138683352D01*
X128713909Y-138665244D01*
X128677979Y-138659754D01*
X128673394Y-138659703D01*
X128641151Y-138663807D01*
X128611643Y-138676903D01*
X128556578Y-138729508D01*
X128547487Y-138741158D01*
X128404605Y-138528056D01*
X128455382Y-138495419D01*
X128503560Y-138477705D01*
X128561409Y-138472002D01*
X128609318Y-138476236D01*
X128653097Y-138490239D01*
X128732022Y-138543001D01*
X128768649Y-138575683D01*
X128781259Y-138587886D01*
X128889061Y-138690600D01*
X129250296Y-139013855D01*
X129143806Y-138584110D01*
X129062790Y-138269402D01*
X129007893Y-138109188D01*
X128975889Y-138048119D01*
X128946814Y-138008883D01*
X128913482Y-137977505D01*
X128878060Y-137954989D01*
X128838829Y-137939333D01*
X128757414Y-137928196D01*
X128659473Y-137939431D01*
X128547487Y-137777009D01*
X128552638Y-137776213D01*
X128628698Y-137768583D01*
X128696003Y-137772762D01*
X128755815Y-137786383D01*
X128852926Y-137834514D01*
X128883443Y-137855411D01*
X128991539Y-137935949D01*
X129082625Y-138013301D01*
X129150589Y-138080816D01*
X129199884Y-138141563D01*
X129225017Y-138184773D01*
X129271779Y-138320414D01*
X129342620Y-138592414D01*
X129591870Y-139691140D01*
G37*
G36*
X127873255Y-137937110D02*
G01*
X128066451Y-138082801D01*
X128039894Y-138148106D01*
X127998162Y-138221356D01*
X127960083Y-138278684D01*
X127946566Y-138266614D01*
X127778122Y-138127498D01*
X127814515Y-138063140D01*
X127825988Y-138040941D01*
X127856524Y-137973503D01*
X127873255Y-137937110D01*
G37*
G36*
X127766887Y-139337721D02*
G01*
X127814515Y-139362878D01*
X128004551Y-139463079D01*
X128047196Y-139479554D01*
X128074877Y-139483412D01*
X128092386Y-139479625D01*
X128106626Y-139468750D01*
X128123956Y-139425690D01*
X128125314Y-139405010D01*
X128113758Y-139317098D01*
X128032868Y-138987477D01*
X127929309Y-138539169D01*
X127932982Y-138525442D01*
X127943067Y-138515832D01*
X127962892Y-138511081D01*
X128015969Y-138526301D01*
X128168246Y-138606750D01*
X128405216Y-138757644D01*
X128410833Y-138836168D01*
X128254091Y-138753828D01*
X128206524Y-138740914D01*
X128190339Y-138744766D01*
X128179402Y-138756099D01*
X128172819Y-138788541D01*
X128178256Y-138842106D01*
X128200683Y-138939628D01*
X128223255Y-139026678D01*
X128338446Y-139462361D01*
X128352845Y-139537327D01*
X128354902Y-139587093D01*
X128351095Y-139629166D01*
X128340082Y-139662703D01*
X128325189Y-139683652D01*
X128305742Y-139696027D01*
X128287735Y-139699078D01*
X128219230Y-139682229D01*
X128082293Y-139608933D01*
X128016137Y-139567431D01*
X127856524Y-139463750D01*
X127817745Y-139440393D01*
X127778122Y-139416123D01*
X127766887Y-139337721D01*
G37*
G36*
X127715474Y-139691263D02*
G01*
X127499930Y-139610052D01*
X127289881Y-138810889D01*
X127220726Y-138763058D01*
X127159730Y-138732376D01*
X127114125Y-138718640D01*
X127068548Y-138712998D01*
X127054675Y-138712704D01*
X127014045Y-138716884D01*
X126978882Y-138730517D01*
X126922126Y-138780290D01*
X126906297Y-138799654D01*
X126822278Y-138533551D01*
X126882484Y-138515997D01*
X126925837Y-138511081D01*
X127001660Y-138526953D01*
X127110729Y-138589483D01*
X127222714Y-138670694D01*
X127275837Y-138709895D01*
X127242254Y-138541978D01*
X127255450Y-138518402D01*
X127278646Y-138511081D01*
X127326053Y-138525453D01*
X127524996Y-138618891D01*
X127732327Y-138732365D01*
X127740631Y-138808080D01*
X127706359Y-138791483D01*
X127587114Y-138735739D01*
X127539131Y-138726748D01*
X127514815Y-138730653D01*
X127498051Y-138742362D01*
X127485975Y-138780753D01*
X127485886Y-138785610D01*
X127499720Y-138878973D01*
X127547435Y-139077236D01*
X127715474Y-139691263D01*
G37*
G36*
X126317355Y-138515871D02*
G01*
X126393404Y-138533771D01*
X126458478Y-138567135D01*
X126630897Y-138682456D01*
X126713224Y-138752027D01*
X126769476Y-138836017D01*
X126837994Y-138994462D01*
X126902284Y-139219580D01*
X126923119Y-139333455D01*
X126933621Y-139439002D01*
X126934508Y-139474986D01*
X126930697Y-139539666D01*
X126919655Y-139595166D01*
X126903662Y-139636886D01*
X126882523Y-139668743D01*
X126860754Y-139687361D01*
X126835847Y-139697418D01*
X126819713Y-139699078D01*
X126788530Y-139694672D01*
X126748222Y-139679457D01*
X126606014Y-139594822D01*
X126315718Y-139390966D01*
X126348264Y-139555586D01*
X126357728Y-139640338D01*
X126353943Y-139668477D01*
X126343083Y-139687514D01*
X126312909Y-139699078D01*
X126272791Y-139690779D01*
X126196650Y-139648317D01*
X126055233Y-139556318D01*
X125803297Y-139379731D01*
X125800488Y-139295711D01*
X126006675Y-139432258D01*
X126053709Y-139457192D01*
X126080512Y-139463750D01*
X126104010Y-139449356D01*
X126114096Y-139407697D01*
X126099041Y-139293044D01*
X126015052Y-138919065D01*
X125951873Y-138676311D01*
X126142062Y-138676311D01*
X126220464Y-138967815D01*
X126246988Y-139085723D01*
X126268091Y-139180795D01*
X126293248Y-139276050D01*
X126400864Y-139355633D01*
X126444434Y-139388157D01*
X126543510Y-139446409D01*
X126618143Y-139478632D01*
X126646057Y-139483412D01*
X126667267Y-139479551D01*
X126684928Y-139468153D01*
X126709407Y-139423628D01*
X126718841Y-139343339D01*
X126703700Y-139179469D01*
X126654009Y-138981961D01*
X126604047Y-138852899D01*
X126564314Y-138771934D01*
X126524056Y-138711874D01*
X126492530Y-138679621D01*
X126458900Y-138657357D01*
X126390321Y-138640154D01*
X126380076Y-138639919D01*
X126248872Y-138654254D01*
X126142062Y-138676311D01*
X125951873Y-138676311D01*
X125946057Y-138653963D01*
X125872980Y-138562239D01*
X125864846Y-138553091D01*
X125996564Y-138527273D01*
X126116628Y-138514072D01*
X126217655Y-138511081D01*
X126317355Y-138515871D01*
G37*
G36*
X125544521Y-139608953D02*
G01*
X125379413Y-138950840D01*
X125309316Y-138906022D01*
X125061211Y-138755477D01*
X125010517Y-138731919D01*
X124978977Y-138726748D01*
X124965328Y-138730493D01*
X124955784Y-138741082D01*
X124951011Y-138763140D01*
X124972832Y-138892545D01*
X125054570Y-139230865D01*
X125114043Y-139478374D01*
X125127355Y-139580987D01*
X125123119Y-139620070D01*
X125109100Y-139661205D01*
X125085345Y-139706894D01*
X124906911Y-139611468D01*
X124627701Y-139426152D01*
X124567428Y-139382051D01*
X124547766Y-139303649D01*
X124798741Y-139445112D01*
X124843508Y-139465130D01*
X124866992Y-139468879D01*
X124883488Y-139465055D01*
X124896532Y-139453916D01*
X124911124Y-139409225D01*
X124911810Y-139393286D01*
X124903925Y-139308993D01*
X124864359Y-139143343D01*
X124777355Y-138824811D01*
X124707379Y-138558709D01*
X124711195Y-138537705D01*
X124722271Y-138522574D01*
X124760624Y-138511081D01*
X124800688Y-138514482D01*
X124851339Y-138534380D01*
X125100672Y-138681840D01*
X125122034Y-138694902D01*
X125132972Y-138701591D01*
X125215721Y-138753204D01*
X125351325Y-138838733D01*
X125290623Y-138588246D01*
X125284159Y-138547595D01*
X125287904Y-138529569D01*
X125298493Y-138517183D01*
X125320551Y-138511081D01*
X125365664Y-138525889D01*
X125566975Y-138627919D01*
X125760188Y-138737983D01*
X125776919Y-138810767D01*
X125611398Y-138738303D01*
X125561374Y-138726748D01*
X125535307Y-138740427D01*
X125527791Y-138765949D01*
X125542499Y-138871719D01*
X125623009Y-139209713D01*
X125651011Y-139312076D01*
X125715369Y-139538977D01*
X125754570Y-139690163D01*
X125544521Y-139608953D01*
G37*
D11*
%TO.C,H1*%
X104410000Y-138300000D03*
D12*
X104410000Y-138300000D03*
%TD*%
D13*
%TO.C,J8*%
X182910000Y-103500000D03*
X175910000Y-103500000D03*
%TD*%
D14*
%TO.C,SW1*%
X109860000Y-131200000D03*
D15*
X109860000Y-136200000D03*
X109860000Y-133700000D03*
D16*
X117360000Y-128100000D03*
X117360000Y-139300000D03*
D15*
X124360000Y-136200000D03*
X124360000Y-131200000D03*
%TD*%
D11*
%TO.C,H4*%
X159410000Y-138300000D03*
D12*
X159410000Y-138300000D03*
%TD*%
D17*
%TO.C,J2*%
X140770000Y-135700000D03*
D13*
X143310000Y-135700000D03*
X145850000Y-135700000D03*
%TD*%
D18*
%TO.C,J1*%
X174200000Y-88357500D03*
D19*
X180200000Y-88357500D03*
D20*
X177200000Y-83657500D03*
%TD*%
D21*
%TO.C,A1*%
X140575000Y-83300000D03*
D22*
X140875000Y-86330000D03*
X145725000Y-86330000D03*
D21*
X146025000Y-83300000D03*
%TD*%
D11*
%TO.C,H2*%
X104410000Y-96300000D03*
D12*
X104410000Y-96300000D03*
%TD*%
D23*
%TO.C,U4*%
X106505000Y-102105000D03*
X106505000Y-124105000D03*
X128505000Y-102105000D03*
X128505000Y-124105000D03*
D24*
X113695000Y-101605000D03*
X116235000Y-101605000D03*
X118775000Y-101605000D03*
X121315000Y-101605000D03*
%TD*%
D17*
%TO.C,J3*%
X187410000Y-124200000D03*
D13*
X187410000Y-126740000D03*
%TD*%
D25*
%TO.C,J4*%
X103772500Y-88475000D03*
X103772500Y-82825000D03*
%TD*%
D13*
%TO.C,J9*%
X182910000Y-114700000D03*
X175910000Y-114700000D03*
%TD*%
D17*
%TO.C,J7*%
X187410000Y-137525000D03*
D13*
X187410000Y-134985000D03*
%TD*%
M02*
