M48
; DRILL file KiCad 10.0.0 date 2026-04-09T11:15:44
; FORMAT={-:-/ absolute / metric / decimal}
; #@! TF.CreationDate,2026-04-09T11:15:44-07:00
; #@! TF.GenerationSoftware,Kicad,Pcbnew,10.0.0
; #@! TF.FileFunction,Plated,1,4,PTH
FMAT,2
METRIC
; #@! TA.AperFunction,Plated,PTH,ViaDrill
T1C0.300
; #@! TA.AperFunction,Plated,PTH,ComponentDrill
T2C0.800
; #@! TA.AperFunction,Plated,PTH,ComponentDrill
T3C1.000
; #@! TA.AperFunction,Plated,PTH,ComponentDrill
T4C1.500
; #@! TA.AperFunction,Plated,PTH,ComponentDrill
T5C3.200
%
G90
G05
T1
X102.5Y-90.5
X103.5Y-90.5
X104.0Y-105.0
X104.0Y-107.0
X104.0Y-109.0
X104.0Y-111.0
X104.0Y-113.0
X104.0Y-116.0
X104.0Y-118.0
X104.0Y-120.0
X104.0Y-122.0
X104.0Y-124.0
X104.0Y-127.0
X104.0Y-129.0
X104.0Y-131.0
X104.0Y-133.0
X104.0Y-135.0
X104.5Y-90.5
X106.5Y-82.0
X106.5Y-83.0
X107.0Y-86.0
X107.0Y-127.0
X107.0Y-129.0
X107.0Y-131.0
X107.0Y-133.0
X107.0Y-135.0
X107.5Y-82.0
X108.0Y-85.0
X108.0Y-107.0
X108.0Y-109.0
X108.0Y-111.0
X108.0Y-113.0
X108.0Y-115.0
X108.0Y-118.0
X108.0Y-120.0
X110.0Y-118.0
X110.0Y-120.0
X110.0Y-122.0
X110.0Y-125.0
X111.3Y-89.6
X111.4Y-91.6
X111.4Y-93.6
X111.41Y-87.6
X111.45Y-95.65
X112.0Y-118.0
X112.0Y-120.0
X112.0Y-122.0
X112.0Y-125.0
X113.0Y-83.0
X113.0Y-85.0
X113.0Y-87.0
X113.0Y-107.0
X113.0Y-109.0
X113.0Y-111.0
X113.0Y-113.0
X113.0Y-115.0
X114.0Y-118.0
X114.0Y-120.0
X114.0Y-122.0
X114.0Y-125.0
X115.0Y-83.0
X115.0Y-85.0
X115.0Y-87.0
X116.0Y-107.0
X116.0Y-109.0
X116.0Y-111.0
X116.0Y-113.0
X116.0Y-115.0
X116.0Y-118.0
X116.0Y-120.0
X116.0Y-122.0
X116.0Y-125.0
X117.0Y-83.0
X117.0Y-85.0
X117.0Y-87.0
X118.0Y-122.0
X118.0Y-125.0
X119.0Y-83.0
X119.0Y-85.0
X119.0Y-87.0
X119.0Y-120.0
X121.0Y-83.0
X121.0Y-85.0
X121.0Y-87.0
X121.0Y-120.0
X121.0Y-122.0
X121.0Y-125.0
X123.0Y-107.0
X123.0Y-109.0
X123.0Y-111.0
X123.0Y-113.0
X123.0Y-115.0
X123.0Y-120.0
X123.0Y-122.0
X123.0Y-125.0
X124.4Y-97.5
X125.0Y-120.0
X125.0Y-122.0
X125.0Y-125.0
X127.0Y-107.0
X127.0Y-109.0
X127.0Y-111.0
X127.0Y-113.0
X127.0Y-115.0
X127.0Y-120.0
X127.0Y-122.0
X127.45Y-89.6
X127.65Y-98.45
X129.0Y-83.0
X129.0Y-85.0
X129.0Y-88.8
X129.0Y-90.0
X130.0Y-88.8
X130.81Y-85.7
X131.086Y-111.1
X131.35Y-95.8
X135.7Y-108.6
X136.4Y-106.05
X136.45Y-103.5
X138.0Y-123.0
X138.0Y-125.0
X138.0Y-127.0
X138.0Y-129.0
X140.0Y-99.0
X140.0Y-101.0
X140.0Y-103.0
X140.0Y-105.0
X140.0Y-107.0
X140.0Y-109.0
X140.0Y-111.0
X140.0Y-113.0
X140.0Y-115.0
X140.0Y-121.0
X140.0Y-123.0
X140.0Y-125.0
X140.0Y-127.0
X140.0Y-129.0
X142.0Y-99.0
X142.0Y-101.0
X142.0Y-103.0
X142.0Y-105.0
X142.0Y-107.0
X142.0Y-109.0
X142.0Y-111.0
X142.0Y-113.0
X142.0Y-115.0
X142.0Y-121.0
X142.0Y-123.0
X142.0Y-125.0
X142.0Y-127.0
X142.0Y-129.0
X144.0Y-89.0
X144.0Y-91.0
X144.0Y-93.0
X144.0Y-95.0
X144.0Y-99.0
X144.0Y-101.0
X144.0Y-105.0
X144.0Y-107.0
X144.0Y-109.0
X144.0Y-111.0
X144.0Y-113.0
X144.0Y-115.0
X144.0Y-121.0
X144.0Y-123.0
X144.0Y-125.0
X144.0Y-127.0
X144.0Y-129.0
X146.0Y-89.0
X146.0Y-91.0
X146.0Y-93.0
X146.0Y-95.0
X146.0Y-99.0
X146.0Y-101.0
X146.0Y-103.0
X146.0Y-105.0
X146.0Y-107.0
X146.0Y-109.0
X146.0Y-111.0
X146.0Y-113.0
X146.0Y-115.0
X146.0Y-121.0
X146.0Y-123.0
X146.0Y-125.0
X146.0Y-127.0
X146.0Y-129.0
X148.0Y-89.0
X148.0Y-91.0
X148.0Y-93.0
X148.0Y-95.0
X148.0Y-99.0
X148.0Y-101.0
X148.0Y-103.0
X148.0Y-105.0
X148.0Y-107.0
X148.0Y-109.0
X148.0Y-111.0
X148.0Y-113.0
X148.0Y-115.0
X148.0Y-121.0
X148.0Y-123.0
X148.0Y-125.0
X148.0Y-127.0
X148.0Y-129.0
X149.16Y-85.7
X149.86Y-85.7
X150.41Y-116.1
X150.56Y-85.7
X155.11Y-93.3
X155.31Y-106.1
X155.31Y-118.7
X155.579Y-123.9
X155.81Y-93.3
X156.0Y-111.0
X156.41Y-93.3
X156.96Y-123.9
X157.76Y-108.1
X159.0Y-121.0
X159.0Y-123.0
X159.0Y-125.0
X159.0Y-127.0
X159.0Y-129.0
X159.0Y-131.0
X159.56Y-113.15
X159.71Y-108.7
X160.21Y-102.2
X160.21Y-131.2
X162.31Y-104.009
X162.31Y-105.6
X162.81Y-104.7
X163.0Y-94.0
X163.0Y-96.0
X163.0Y-119.0
X163.0Y-121.0
X164.0Y-108.0
X165.0Y-94.0
X165.0Y-96.0
X165.0Y-119.0
X165.0Y-121.0
X165.21Y-107.3
X165.21Y-111.9
X166.31Y-135.1
X166.41Y-123.6
X167.0Y-94.0
X167.0Y-96.0
X167.61Y-138.5
X168.31Y-108.4
X168.5Y-104.0
X168.51Y-110.1
X169.0Y-94.0
X169.0Y-96.0
X169.0Y-121.0
X169.61Y-113.5
X170.55Y-86.6
X170.55Y-87.35
X170.55Y-88.1
X170.55Y-88.85
X171.0Y-94.0
X171.0Y-96.0
X171.0Y-121.0
X173.0Y-94.0
X173.0Y-96.0
X173.0Y-103.0
X173.0Y-105.0
X173.0Y-121.0
X173.0Y-131.0
X173.0Y-139.0
X174.21Y-126.8
X174.31Y-135.3
X175.0Y-94.0
X175.0Y-96.0
X175.0Y-121.0
X175.0Y-131.0
X175.0Y-139.0
X177.0Y-94.0
X177.0Y-96.0
X177.0Y-129.0
X177.0Y-131.0
X177.0Y-133.0
X177.0Y-139.0
X179.0Y-94.0
X179.0Y-96.0
X179.0Y-99.0
X179.0Y-102.0
X179.0Y-105.0
X179.0Y-113.0
X179.0Y-116.0
X179.0Y-129.0
X179.0Y-131.0
X179.0Y-133.0
X179.0Y-139.0
X181.0Y-94.0
X181.0Y-96.0
X181.0Y-99.0
X181.0Y-102.0
X181.0Y-105.0
X181.0Y-113.0
X181.0Y-116.0
X183.0Y-84.0
X183.0Y-86.0
X183.0Y-88.0
X183.0Y-90.0
X183.0Y-92.0
X183.0Y-94.0
X183.0Y-96.0
X183.0Y-140.0
X185.0Y-84.0
X185.0Y-86.0
X185.0Y-88.0
X185.0Y-90.0
X185.0Y-92.0
X185.0Y-94.0
X185.0Y-96.0
X185.0Y-131.0
X186.0Y-102.0
X186.0Y-105.0
X186.0Y-110.0
X186.0Y-113.0
X186.0Y-116.0
X187.0Y-84.0
X187.0Y-86.0
X187.0Y-88.0
X187.0Y-90.0
X187.0Y-92.0
X187.0Y-94.0
X187.0Y-96.0
X188.0Y-102.0
X188.0Y-105.0
X188.0Y-113.0
X188.0Y-116.0
T2
X113.695Y-101.605
X116.235Y-101.605
X118.775Y-101.605
X121.315Y-101.605
T3
X109.86Y-131.2
X109.86Y-133.7
X109.86Y-136.2
X124.36Y-131.2
X124.36Y-136.2
X140.77Y-135.7
X143.31Y-135.7
X145.85Y-135.7
X187.41Y-124.2
X187.41Y-126.74
X187.41Y-134.985
X187.41Y-137.525
T5
X104.41Y-96.3
X104.41Y-138.3
X159.41Y-138.3
T3
G00X174.2Y-89.358
M15
G01X174.2Y-87.358
M16
G05
G00X178.2Y-83.657
M15
G01X176.2Y-83.657
M16
G05
G00X180.2Y-89.358
M15
G01X180.2Y-87.358
M16
G05
T4
G00X116.71Y-128.1
M15
G01X118.01Y-128.1
M16
G05
G00X116.71Y-139.3
M15
G01X118.01Y-139.3
M16
G05
M30
