%TF.GenerationSoftware,KiCad,Pcbnew,10.0.0*%
%TF.CreationDate,2026-04-09T11:15:41-07:00*%
%TF.ProjectId,combined,636f6d62-696e-4656-942e-6b696361645f,rev?*%
%TF.SameCoordinates,Original*%
%TF.FileFunction,Legend,Top*%
%TF.FilePolarity,Positive*%
%FSLAX46Y46*%
G04 Gerber Fmt 4.6, Leading zero omitted, Abs format (unit mm)*
G04 Created by KiCad (PCBNEW 10.0.0) date 2026-04-09 11:15:41*
%MOMM*%
%LPD*%
G01*
G04 APERTURE LIST*
%ADD10C,0.156250*%
%ADD11C,0.300000*%
%ADD12C,0.400000*%
%ADD13C,0.150000*%
%ADD14C,0.120000*%
G04 APERTURE END LIST*
D10*
X135640891Y-136329375D02*
X135819462Y-136388898D01*
X135819462Y-136388898D02*
X136117081Y-136388898D01*
X136117081Y-136388898D02*
X136236129Y-136329375D01*
X136236129Y-136329375D02*
X136295653Y-136269851D01*
X136295653Y-136269851D02*
X136355176Y-136150803D01*
X136355176Y-136150803D02*
X136355176Y-136031755D01*
X136355176Y-136031755D02*
X136295653Y-135912708D01*
X136295653Y-135912708D02*
X136236129Y-135853184D01*
X136236129Y-135853184D02*
X136117081Y-135793660D01*
X136117081Y-135793660D02*
X135878986Y-135734136D01*
X135878986Y-135734136D02*
X135759938Y-135674613D01*
X135759938Y-135674613D02*
X135700415Y-135615089D01*
X135700415Y-135615089D02*
X135640891Y-135496041D01*
X135640891Y-135496041D02*
X135640891Y-135376994D01*
X135640891Y-135376994D02*
X135700415Y-135257946D01*
X135700415Y-135257946D02*
X135759938Y-135198422D01*
X135759938Y-135198422D02*
X135878986Y-135138898D01*
X135878986Y-135138898D02*
X136176605Y-135138898D01*
X136176605Y-135138898D02*
X136355176Y-135198422D01*
X137605176Y-136269851D02*
X137545652Y-136329375D01*
X137545652Y-136329375D02*
X137367081Y-136388898D01*
X137367081Y-136388898D02*
X137248033Y-136388898D01*
X137248033Y-136388898D02*
X137069462Y-136329375D01*
X137069462Y-136329375D02*
X136950414Y-136210327D01*
X136950414Y-136210327D02*
X136890891Y-136091279D01*
X136890891Y-136091279D02*
X136831367Y-135853184D01*
X136831367Y-135853184D02*
X136831367Y-135674613D01*
X136831367Y-135674613D02*
X136890891Y-135436517D01*
X136890891Y-135436517D02*
X136950414Y-135317470D01*
X136950414Y-135317470D02*
X137069462Y-135198422D01*
X137069462Y-135198422D02*
X137248033Y-135138898D01*
X137248033Y-135138898D02*
X137367081Y-135138898D01*
X137367081Y-135138898D02*
X137545652Y-135198422D01*
X137545652Y-135198422D02*
X137605176Y-135257946D01*
X138140891Y-136388898D02*
X138140891Y-135138898D01*
X138855176Y-136388898D02*
X138319462Y-135674613D01*
X138855176Y-135138898D02*
X138140891Y-135853184D01*
X147840891Y-136279375D02*
X148019462Y-136338898D01*
X148019462Y-136338898D02*
X148317081Y-136338898D01*
X148317081Y-136338898D02*
X148436129Y-136279375D01*
X148436129Y-136279375D02*
X148495653Y-136219851D01*
X148495653Y-136219851D02*
X148555176Y-136100803D01*
X148555176Y-136100803D02*
X148555176Y-135981755D01*
X148555176Y-135981755D02*
X148495653Y-135862708D01*
X148495653Y-135862708D02*
X148436129Y-135803184D01*
X148436129Y-135803184D02*
X148317081Y-135743660D01*
X148317081Y-135743660D02*
X148078986Y-135684136D01*
X148078986Y-135684136D02*
X147959938Y-135624613D01*
X147959938Y-135624613D02*
X147900415Y-135565089D01*
X147900415Y-135565089D02*
X147840891Y-135446041D01*
X147840891Y-135446041D02*
X147840891Y-135326994D01*
X147840891Y-135326994D02*
X147900415Y-135207946D01*
X147900415Y-135207946D02*
X147959938Y-135148422D01*
X147959938Y-135148422D02*
X148078986Y-135088898D01*
X148078986Y-135088898D02*
X148376605Y-135088898D01*
X148376605Y-135088898D02*
X148555176Y-135148422D01*
X149090891Y-136338898D02*
X149090891Y-135088898D01*
X149090891Y-135088898D02*
X149388510Y-135088898D01*
X149388510Y-135088898D02*
X149567081Y-135148422D01*
X149567081Y-135148422D02*
X149686129Y-135267470D01*
X149686129Y-135267470D02*
X149745652Y-135386517D01*
X149745652Y-135386517D02*
X149805176Y-135624613D01*
X149805176Y-135624613D02*
X149805176Y-135803184D01*
X149805176Y-135803184D02*
X149745652Y-136041279D01*
X149745652Y-136041279D02*
X149686129Y-136160327D01*
X149686129Y-136160327D02*
X149567081Y-136279375D01*
X149567081Y-136279375D02*
X149388510Y-136338898D01*
X149388510Y-136338898D02*
X149090891Y-136338898D01*
X150578986Y-135088898D02*
X150817081Y-135088898D01*
X150817081Y-135088898D02*
X150936129Y-135148422D01*
X150936129Y-135148422D02*
X151055176Y-135267470D01*
X151055176Y-135267470D02*
X151114700Y-135505565D01*
X151114700Y-135505565D02*
X151114700Y-135922232D01*
X151114700Y-135922232D02*
X151055176Y-136160327D01*
X151055176Y-136160327D02*
X150936129Y-136279375D01*
X150936129Y-136279375D02*
X150817081Y-136338898D01*
X150817081Y-136338898D02*
X150578986Y-136338898D01*
X150578986Y-136338898D02*
X150459938Y-136279375D01*
X150459938Y-136279375D02*
X150340891Y-136160327D01*
X150340891Y-136160327D02*
X150281367Y-135922232D01*
X150281367Y-135922232D02*
X150281367Y-135505565D01*
X150281367Y-135505565D02*
X150340891Y-135267470D01*
X150340891Y-135267470D02*
X150459938Y-135148422D01*
X150459938Y-135148422D02*
X150578986Y-135088898D01*
D11*
G36*
X186935408Y-131823324D02*
G01*
X187052421Y-131845465D01*
X187140828Y-131878297D01*
X187206510Y-131919842D01*
X187259948Y-131976453D01*
X187299815Y-132049376D01*
X187325663Y-132142443D01*
X187335104Y-132260836D01*
X187325681Y-132363634D01*
X187299520Y-132446088D01*
X187258259Y-132512437D01*
X187201270Y-132565172D01*
X187128748Y-132602606D01*
X187036884Y-132624361D01*
X187078907Y-132639461D01*
X187115286Y-132666676D01*
X187148076Y-132708785D01*
X187196802Y-132795453D01*
X187473407Y-133345000D01*
X187141389Y-133345000D01*
X186957016Y-132959218D01*
X186935492Y-132914155D01*
X186887065Y-132829706D01*
X186839743Y-132777867D01*
X186792998Y-132750070D01*
X186744891Y-132741231D01*
X186648538Y-132741231D01*
X186648538Y-133345000D01*
X186346287Y-133345000D01*
X186346287Y-132489173D01*
X186648538Y-132489173D01*
X186790962Y-132489173D01*
X186872478Y-132482545D01*
X186929626Y-132465272D01*
X186968740Y-132439897D01*
X186996922Y-132403281D01*
X187015553Y-132351004D01*
X187022595Y-132277597D01*
X187015599Y-132204142D01*
X186997135Y-132152085D01*
X186969289Y-132115847D01*
X186930485Y-132090830D01*
X186873237Y-132073714D01*
X186790962Y-132067121D01*
X186648538Y-132067121D01*
X186648538Y-132489173D01*
X186346287Y-132489173D01*
X186346287Y-131815062D01*
X186782810Y-131815062D01*
X186935408Y-131823324D01*
G37*
G36*
X188226377Y-132119877D02*
G01*
X188226377Y-132559515D01*
X188666930Y-132559515D01*
X188666930Y-132805711D01*
X188226377Y-132805711D01*
X188226377Y-133251210D01*
X187983477Y-133251210D01*
X187983477Y-132805711D01*
X187540818Y-132805711D01*
X187540818Y-132559515D01*
X187983477Y-132559515D01*
X187983477Y-132119877D01*
X188226377Y-132119877D01*
G37*
G36*
X186540534Y-129845000D02*
G01*
X186540534Y-128315062D01*
X186842876Y-128315062D01*
X186842876Y-129581217D01*
X187489418Y-129581217D01*
X187489418Y-129845000D01*
X186540534Y-129845000D01*
G37*
G36*
X188326377Y-128619877D02*
G01*
X188326377Y-129059515D01*
X188766930Y-129059515D01*
X188766930Y-129305711D01*
X188326377Y-129305711D01*
X188326377Y-129751210D01*
X188083477Y-129751210D01*
X188083477Y-129305711D01*
X187640818Y-129305711D01*
X187640818Y-129059515D01*
X188083477Y-129059515D01*
X188083477Y-128619877D01*
X188326377Y-128619877D01*
G37*
G36*
X187135408Y-139023324D02*
G01*
X187252421Y-139045465D01*
X187340828Y-139078297D01*
X187406510Y-139119842D01*
X187459948Y-139176453D01*
X187499815Y-139249376D01*
X187525663Y-139342443D01*
X187535104Y-139460836D01*
X187525681Y-139563634D01*
X187499520Y-139646088D01*
X187458259Y-139712437D01*
X187401270Y-139765172D01*
X187328748Y-139802606D01*
X187236884Y-139824361D01*
X187278907Y-139839461D01*
X187315286Y-139866676D01*
X187348076Y-139908785D01*
X187396802Y-139995453D01*
X187673407Y-140545000D01*
X187341389Y-140545000D01*
X187157016Y-140159218D01*
X187135492Y-140114155D01*
X187087065Y-140029706D01*
X187039743Y-139977867D01*
X186992998Y-139950070D01*
X186944891Y-139941231D01*
X186848538Y-139941231D01*
X186848538Y-140545000D01*
X186546287Y-140545000D01*
X186546287Y-139689173D01*
X186848538Y-139689173D01*
X186990962Y-139689173D01*
X187072478Y-139682545D01*
X187129626Y-139665272D01*
X187168740Y-139639897D01*
X187196922Y-139603281D01*
X187215553Y-139551004D01*
X187222595Y-139477597D01*
X187215599Y-139404142D01*
X187197135Y-139352085D01*
X187169289Y-139315847D01*
X187130485Y-139290830D01*
X187073237Y-139273714D01*
X186990962Y-139267121D01*
X186848538Y-139267121D01*
X186848538Y-139689173D01*
X186546287Y-139689173D01*
X186546287Y-139015062D01*
X186982810Y-139015062D01*
X187135408Y-139023324D01*
G37*
G36*
X187981611Y-139788824D02*
G01*
X188628244Y-139788824D01*
X188628244Y-140087777D01*
X187981611Y-140087777D01*
X187981611Y-139788824D01*
G37*
G36*
X186740534Y-122545000D02*
G01*
X186740534Y-121015062D01*
X187042876Y-121015062D01*
X187042876Y-122281217D01*
X187689418Y-122281217D01*
X187689418Y-122545000D01*
X186740534Y-122545000D01*
G37*
G36*
X188081611Y-121788824D02*
G01*
X188728244Y-121788824D01*
X188728244Y-122087777D01*
X188081611Y-122087777D01*
X188081611Y-121788824D01*
G37*
D12*
G36*
X184891745Y-117992595D02*
G01*
X185012451Y-118025640D01*
X185117149Y-118078824D01*
X185208430Y-118152581D01*
X185287773Y-118249061D01*
X185347457Y-118354555D01*
X185397014Y-118482407D01*
X185435165Y-118636420D01*
X185459963Y-118820937D01*
X185468879Y-119040774D01*
X185459975Y-119259909D01*
X185435197Y-119443987D01*
X185397061Y-119597775D01*
X185347498Y-119725572D01*
X185287773Y-119831144D01*
X185208436Y-119927573D01*
X185117160Y-120001297D01*
X185012462Y-120054458D01*
X184891753Y-120087492D01*
X184751538Y-120099078D01*
X184611985Y-120087513D01*
X184491707Y-120054521D01*
X184387248Y-120001388D01*
X184296047Y-119927651D01*
X184216646Y-119831144D01*
X184156966Y-119725579D01*
X184107435Y-119597785D01*
X184069324Y-119443998D01*
X184044562Y-119259916D01*
X184035662Y-119040774D01*
X184455150Y-119040774D01*
X184465159Y-119288611D01*
X184490706Y-119460257D01*
X184526102Y-119574200D01*
X184569393Y-119649928D01*
X184620477Y-119700005D01*
X184680198Y-119729414D01*
X184751538Y-119739553D01*
X184823646Y-119729372D01*
X184883812Y-119699893D01*
X184935075Y-119649805D01*
X184978318Y-119574200D01*
X185013776Y-119460251D01*
X185039366Y-119288606D01*
X185049392Y-119040774D01*
X185039353Y-118791918D01*
X185013751Y-118619904D01*
X184978318Y-118506004D01*
X184935068Y-118430335D01*
X184883801Y-118380211D01*
X184823638Y-118350716D01*
X184751538Y-118340530D01*
X184680207Y-118350674D01*
X184620487Y-118380099D01*
X184569400Y-118430212D01*
X184526102Y-118506004D01*
X184490731Y-118619898D01*
X184465172Y-118791912D01*
X184455150Y-119040774D01*
X184035662Y-119040774D01*
X184044573Y-118820930D01*
X184069357Y-118636409D01*
X184107483Y-118482396D01*
X184157006Y-118354548D01*
X184216646Y-118249061D01*
X184296054Y-118152503D01*
X184387258Y-118078733D01*
X184491718Y-118025578D01*
X184611992Y-117992574D01*
X184751538Y-117981004D01*
X184891745Y-117992595D01*
G37*
G36*
X185739134Y-119304801D02*
G01*
X185739134Y-118020083D01*
X186142135Y-118020083D01*
X186142135Y-119405795D01*
X186151705Y-119504823D01*
X186178176Y-119583104D01*
X186219926Y-119645153D01*
X186277052Y-119692368D01*
X186347673Y-119721407D01*
X186435837Y-119731737D01*
X186524079Y-119721401D01*
X186594693Y-119692358D01*
X186651748Y-119645153D01*
X186693568Y-119583095D01*
X186720078Y-119504813D01*
X186729661Y-119405795D01*
X186729661Y-118020083D01*
X187132662Y-118020083D01*
X187132662Y-119304801D01*
X187119942Y-119518252D01*
X187085544Y-119684503D01*
X187033852Y-119812633D01*
X186967309Y-119910157D01*
X186898471Y-119974220D01*
X186814054Y-120025811D01*
X186711333Y-120064823D01*
X186586725Y-120090012D01*
X186435959Y-120099078D01*
X186252540Y-120085154D01*
X186107755Y-120047025D01*
X185993893Y-119988356D01*
X185905097Y-119910157D01*
X185838286Y-119812589D01*
X185786407Y-119684440D01*
X185751895Y-119518202D01*
X185739134Y-119304801D01*
G37*
G36*
X188322369Y-120060000D02*
G01*
X187919368Y-120060000D01*
X187919368Y-118371793D01*
X187401573Y-118371793D01*
X187401573Y-118020083D01*
X188840163Y-118020083D01*
X188840163Y-118371793D01*
X188322369Y-118371793D01*
X188322369Y-120060000D01*
G37*
G36*
X185644961Y-98471793D02*
G01*
X185644961Y-98120083D01*
X186859581Y-98120083D01*
X186859581Y-98471793D01*
X186453771Y-98471793D01*
X186453771Y-99808290D01*
X186859581Y-99808290D01*
X186859581Y-100160000D01*
X185644961Y-100160000D01*
X185644961Y-99808290D01*
X186050771Y-99808290D01*
X186050771Y-98471793D01*
X185644961Y-98471793D01*
G37*
G36*
X187256842Y-98120083D02*
G01*
X187690006Y-98120083D01*
X188258360Y-99602515D01*
X188258360Y-98120083D01*
X188613611Y-98120083D01*
X188613611Y-100160000D01*
X188183133Y-100160000D01*
X187612093Y-98677568D01*
X187612093Y-100160000D01*
X187256842Y-100160000D01*
X187256842Y-98120083D01*
G37*
D13*
X174967142Y-119359580D02*
X174919523Y-119407200D01*
X174919523Y-119407200D02*
X174776666Y-119454819D01*
X174776666Y-119454819D02*
X174681428Y-119454819D01*
X174681428Y-119454819D02*
X174538571Y-119407200D01*
X174538571Y-119407200D02*
X174443333Y-119311961D01*
X174443333Y-119311961D02*
X174395714Y-119216723D01*
X174395714Y-119216723D02*
X174348095Y-119026247D01*
X174348095Y-119026247D02*
X174348095Y-118883390D01*
X174348095Y-118883390D02*
X174395714Y-118692914D01*
X174395714Y-118692914D02*
X174443333Y-118597676D01*
X174443333Y-118597676D02*
X174538571Y-118502438D01*
X174538571Y-118502438D02*
X174681428Y-118454819D01*
X174681428Y-118454819D02*
X174776666Y-118454819D01*
X174776666Y-118454819D02*
X174919523Y-118502438D01*
X174919523Y-118502438D02*
X174967142Y-118550057D01*
X175919523Y-119454819D02*
X175348095Y-119454819D01*
X175633809Y-119454819D02*
X175633809Y-118454819D01*
X175633809Y-118454819D02*
X175538571Y-118597676D01*
X175538571Y-118597676D02*
X175443333Y-118692914D01*
X175443333Y-118692914D02*
X175348095Y-118740533D01*
X176824285Y-118454819D02*
X176348095Y-118454819D01*
X176348095Y-118454819D02*
X176300476Y-118931009D01*
X176300476Y-118931009D02*
X176348095Y-118883390D01*
X176348095Y-118883390D02*
X176443333Y-118835771D01*
X176443333Y-118835771D02*
X176681428Y-118835771D01*
X176681428Y-118835771D02*
X176776666Y-118883390D01*
X176776666Y-118883390D02*
X176824285Y-118931009D01*
X176824285Y-118931009D02*
X176871904Y-119026247D01*
X176871904Y-119026247D02*
X176871904Y-119264342D01*
X176871904Y-119264342D02*
X176824285Y-119359580D01*
X176824285Y-119359580D02*
X176776666Y-119407200D01*
X176776666Y-119407200D02*
X176681428Y-119454819D01*
X176681428Y-119454819D02*
X176443333Y-119454819D01*
X176443333Y-119454819D02*
X176348095Y-119407200D01*
X176348095Y-119407200D02*
X176300476Y-119359580D01*
X162238095Y-90554819D02*
X162238095Y-91364342D01*
X162238095Y-91364342D02*
X162285714Y-91459580D01*
X162285714Y-91459580D02*
X162333333Y-91507200D01*
X162333333Y-91507200D02*
X162428571Y-91554819D01*
X162428571Y-91554819D02*
X162619047Y-91554819D01*
X162619047Y-91554819D02*
X162714285Y-91507200D01*
X162714285Y-91507200D02*
X162761904Y-91459580D01*
X162761904Y-91459580D02*
X162809523Y-91364342D01*
X162809523Y-91364342D02*
X162809523Y-90554819D01*
X163809523Y-91554819D02*
X163238095Y-91554819D01*
X163523809Y-91554819D02*
X163523809Y-90554819D01*
X163523809Y-90554819D02*
X163428571Y-90697676D01*
X163428571Y-90697676D02*
X163333333Y-90792914D01*
X163333333Y-90792914D02*
X163238095Y-90840533D01*
X181000476Y-133556009D02*
X180667143Y-133556009D01*
X180667143Y-134079819D02*
X180667143Y-133079819D01*
X180667143Y-133079819D02*
X181143333Y-133079819D01*
X181857619Y-133556009D02*
X182000476Y-133603628D01*
X182000476Y-133603628D02*
X182048095Y-133651247D01*
X182048095Y-133651247D02*
X182095714Y-133746485D01*
X182095714Y-133746485D02*
X182095714Y-133889342D01*
X182095714Y-133889342D02*
X182048095Y-133984580D01*
X182048095Y-133984580D02*
X182000476Y-134032200D01*
X182000476Y-134032200D02*
X181905238Y-134079819D01*
X181905238Y-134079819D02*
X181524286Y-134079819D01*
X181524286Y-134079819D02*
X181524286Y-133079819D01*
X181524286Y-133079819D02*
X181857619Y-133079819D01*
X181857619Y-133079819D02*
X181952857Y-133127438D01*
X181952857Y-133127438D02*
X182000476Y-133175057D01*
X182000476Y-133175057D02*
X182048095Y-133270295D01*
X182048095Y-133270295D02*
X182048095Y-133365533D01*
X182048095Y-133365533D02*
X182000476Y-133460771D01*
X182000476Y-133460771D02*
X181952857Y-133508390D01*
X181952857Y-133508390D02*
X181857619Y-133556009D01*
X181857619Y-133556009D02*
X181524286Y-133556009D01*
X183048095Y-134079819D02*
X182476667Y-134079819D01*
X182762381Y-134079819D02*
X182762381Y-133079819D01*
X182762381Y-133079819D02*
X182667143Y-133222676D01*
X182667143Y-133222676D02*
X182571905Y-133317914D01*
X182571905Y-133317914D02*
X182476667Y-133365533D01*
X183667143Y-133079819D02*
X183762381Y-133079819D01*
X183762381Y-133079819D02*
X183857619Y-133127438D01*
X183857619Y-133127438D02*
X183905238Y-133175057D01*
X183905238Y-133175057D02*
X183952857Y-133270295D01*
X183952857Y-133270295D02*
X184000476Y-133460771D01*
X184000476Y-133460771D02*
X184000476Y-133698866D01*
X184000476Y-133698866D02*
X183952857Y-133889342D01*
X183952857Y-133889342D02*
X183905238Y-133984580D01*
X183905238Y-133984580D02*
X183857619Y-134032200D01*
X183857619Y-134032200D02*
X183762381Y-134079819D01*
X183762381Y-134079819D02*
X183667143Y-134079819D01*
X183667143Y-134079819D02*
X183571905Y-134032200D01*
X183571905Y-134032200D02*
X183524286Y-133984580D01*
X183524286Y-133984580D02*
X183476667Y-133889342D01*
X183476667Y-133889342D02*
X183429048Y-133698866D01*
X183429048Y-133698866D02*
X183429048Y-133460771D01*
X183429048Y-133460771D02*
X183476667Y-133270295D01*
X183476667Y-133270295D02*
X183524286Y-133175057D01*
X183524286Y-133175057D02*
X183571905Y-133127438D01*
X183571905Y-133127438D02*
X183667143Y-133079819D01*
X171357142Y-123659580D02*
X171309523Y-123707200D01*
X171309523Y-123707200D02*
X171166666Y-123754819D01*
X171166666Y-123754819D02*
X171071428Y-123754819D01*
X171071428Y-123754819D02*
X170928571Y-123707200D01*
X170928571Y-123707200D02*
X170833333Y-123611961D01*
X170833333Y-123611961D02*
X170785714Y-123516723D01*
X170785714Y-123516723D02*
X170738095Y-123326247D01*
X170738095Y-123326247D02*
X170738095Y-123183390D01*
X170738095Y-123183390D02*
X170785714Y-122992914D01*
X170785714Y-122992914D02*
X170833333Y-122897676D01*
X170833333Y-122897676D02*
X170928571Y-122802438D01*
X170928571Y-122802438D02*
X171071428Y-122754819D01*
X171071428Y-122754819D02*
X171166666Y-122754819D01*
X171166666Y-122754819D02*
X171309523Y-122802438D01*
X171309523Y-122802438D02*
X171357142Y-122850057D01*
X172309523Y-123754819D02*
X171738095Y-123754819D01*
X172023809Y-123754819D02*
X172023809Y-122754819D01*
X172023809Y-122754819D02*
X171928571Y-122897676D01*
X171928571Y-122897676D02*
X171833333Y-122992914D01*
X171833333Y-122992914D02*
X171738095Y-123040533D01*
X172785714Y-123754819D02*
X172976190Y-123754819D01*
X172976190Y-123754819D02*
X173071428Y-123707200D01*
X173071428Y-123707200D02*
X173119047Y-123659580D01*
X173119047Y-123659580D02*
X173214285Y-123516723D01*
X173214285Y-123516723D02*
X173261904Y-123326247D01*
X173261904Y-123326247D02*
X173261904Y-122945295D01*
X173261904Y-122945295D02*
X173214285Y-122850057D01*
X173214285Y-122850057D02*
X173166666Y-122802438D01*
X173166666Y-122802438D02*
X173071428Y-122754819D01*
X173071428Y-122754819D02*
X172880952Y-122754819D01*
X172880952Y-122754819D02*
X172785714Y-122802438D01*
X172785714Y-122802438D02*
X172738095Y-122850057D01*
X172738095Y-122850057D02*
X172690476Y-122945295D01*
X172690476Y-122945295D02*
X172690476Y-123183390D01*
X172690476Y-123183390D02*
X172738095Y-123278628D01*
X172738095Y-123278628D02*
X172785714Y-123326247D01*
X172785714Y-123326247D02*
X172880952Y-123373866D01*
X172880952Y-123373866D02*
X173071428Y-123373866D01*
X173071428Y-123373866D02*
X173166666Y-123326247D01*
X173166666Y-123326247D02*
X173214285Y-123278628D01*
X173214285Y-123278628D02*
X173261904Y-123183390D01*
X166643333Y-99159580D02*
X166595714Y-99207200D01*
X166595714Y-99207200D02*
X166452857Y-99254819D01*
X166452857Y-99254819D02*
X166357619Y-99254819D01*
X166357619Y-99254819D02*
X166214762Y-99207200D01*
X166214762Y-99207200D02*
X166119524Y-99111961D01*
X166119524Y-99111961D02*
X166071905Y-99016723D01*
X166071905Y-99016723D02*
X166024286Y-98826247D01*
X166024286Y-98826247D02*
X166024286Y-98683390D01*
X166024286Y-98683390D02*
X166071905Y-98492914D01*
X166071905Y-98492914D02*
X166119524Y-98397676D01*
X166119524Y-98397676D02*
X166214762Y-98302438D01*
X166214762Y-98302438D02*
X166357619Y-98254819D01*
X166357619Y-98254819D02*
X166452857Y-98254819D01*
X166452857Y-98254819D02*
X166595714Y-98302438D01*
X166595714Y-98302438D02*
X166643333Y-98350057D01*
X167214762Y-98683390D02*
X167119524Y-98635771D01*
X167119524Y-98635771D02*
X167071905Y-98588152D01*
X167071905Y-98588152D02*
X167024286Y-98492914D01*
X167024286Y-98492914D02*
X167024286Y-98445295D01*
X167024286Y-98445295D02*
X167071905Y-98350057D01*
X167071905Y-98350057D02*
X167119524Y-98302438D01*
X167119524Y-98302438D02*
X167214762Y-98254819D01*
X167214762Y-98254819D02*
X167405238Y-98254819D01*
X167405238Y-98254819D02*
X167500476Y-98302438D01*
X167500476Y-98302438D02*
X167548095Y-98350057D01*
X167548095Y-98350057D02*
X167595714Y-98445295D01*
X167595714Y-98445295D02*
X167595714Y-98492914D01*
X167595714Y-98492914D02*
X167548095Y-98588152D01*
X167548095Y-98588152D02*
X167500476Y-98635771D01*
X167500476Y-98635771D02*
X167405238Y-98683390D01*
X167405238Y-98683390D02*
X167214762Y-98683390D01*
X167214762Y-98683390D02*
X167119524Y-98731009D01*
X167119524Y-98731009D02*
X167071905Y-98778628D01*
X167071905Y-98778628D02*
X167024286Y-98873866D01*
X167024286Y-98873866D02*
X167024286Y-99064342D01*
X167024286Y-99064342D02*
X167071905Y-99159580D01*
X167071905Y-99159580D02*
X167119524Y-99207200D01*
X167119524Y-99207200D02*
X167214762Y-99254819D01*
X167214762Y-99254819D02*
X167405238Y-99254819D01*
X167405238Y-99254819D02*
X167500476Y-99207200D01*
X167500476Y-99207200D02*
X167548095Y-99159580D01*
X167548095Y-99159580D02*
X167595714Y-99064342D01*
X167595714Y-99064342D02*
X167595714Y-98873866D01*
X167595714Y-98873866D02*
X167548095Y-98778628D01*
X167548095Y-98778628D02*
X167500476Y-98731009D01*
X167500476Y-98731009D02*
X167405238Y-98683390D01*
X166967142Y-139359580D02*
X166919523Y-139407200D01*
X166919523Y-139407200D02*
X166776666Y-139454819D01*
X166776666Y-139454819D02*
X166681428Y-139454819D01*
X166681428Y-139454819D02*
X166538571Y-139407200D01*
X166538571Y-139407200D02*
X166443333Y-139311961D01*
X166443333Y-139311961D02*
X166395714Y-139216723D01*
X166395714Y-139216723D02*
X166348095Y-139026247D01*
X166348095Y-139026247D02*
X166348095Y-138883390D01*
X166348095Y-138883390D02*
X166395714Y-138692914D01*
X166395714Y-138692914D02*
X166443333Y-138597676D01*
X166443333Y-138597676D02*
X166538571Y-138502438D01*
X166538571Y-138502438D02*
X166681428Y-138454819D01*
X166681428Y-138454819D02*
X166776666Y-138454819D01*
X166776666Y-138454819D02*
X166919523Y-138502438D01*
X166919523Y-138502438D02*
X166967142Y-138550057D01*
X167348095Y-138550057D02*
X167395714Y-138502438D01*
X167395714Y-138502438D02*
X167490952Y-138454819D01*
X167490952Y-138454819D02*
X167729047Y-138454819D01*
X167729047Y-138454819D02*
X167824285Y-138502438D01*
X167824285Y-138502438D02*
X167871904Y-138550057D01*
X167871904Y-138550057D02*
X167919523Y-138645295D01*
X167919523Y-138645295D02*
X167919523Y-138740533D01*
X167919523Y-138740533D02*
X167871904Y-138883390D01*
X167871904Y-138883390D02*
X167300476Y-139454819D01*
X167300476Y-139454819D02*
X167919523Y-139454819D01*
X168300476Y-138550057D02*
X168348095Y-138502438D01*
X168348095Y-138502438D02*
X168443333Y-138454819D01*
X168443333Y-138454819D02*
X168681428Y-138454819D01*
X168681428Y-138454819D02*
X168776666Y-138502438D01*
X168776666Y-138502438D02*
X168824285Y-138550057D01*
X168824285Y-138550057D02*
X168871904Y-138645295D01*
X168871904Y-138645295D02*
X168871904Y-138740533D01*
X168871904Y-138740533D02*
X168824285Y-138883390D01*
X168824285Y-138883390D02*
X168252857Y-139454819D01*
X168252857Y-139454819D02*
X168871904Y-139454819D01*
X166983333Y-90959580D02*
X166935714Y-91007200D01*
X166935714Y-91007200D02*
X166792857Y-91054819D01*
X166792857Y-91054819D02*
X166697619Y-91054819D01*
X166697619Y-91054819D02*
X166554762Y-91007200D01*
X166554762Y-91007200D02*
X166459524Y-90911961D01*
X166459524Y-90911961D02*
X166411905Y-90816723D01*
X166411905Y-90816723D02*
X166364286Y-90626247D01*
X166364286Y-90626247D02*
X166364286Y-90483390D01*
X166364286Y-90483390D02*
X166411905Y-90292914D01*
X166411905Y-90292914D02*
X166459524Y-90197676D01*
X166459524Y-90197676D02*
X166554762Y-90102438D01*
X166554762Y-90102438D02*
X166697619Y-90054819D01*
X166697619Y-90054819D02*
X166792857Y-90054819D01*
X166792857Y-90054819D02*
X166935714Y-90102438D01*
X166935714Y-90102438D02*
X166983333Y-90150057D01*
X167935714Y-91054819D02*
X167364286Y-91054819D01*
X167650000Y-91054819D02*
X167650000Y-90054819D01*
X167650000Y-90054819D02*
X167554762Y-90197676D01*
X167554762Y-90197676D02*
X167459524Y-90292914D01*
X167459524Y-90292914D02*
X167364286Y-90340533D01*
X166267142Y-117959580D02*
X166219523Y-118007200D01*
X166219523Y-118007200D02*
X166076666Y-118054819D01*
X166076666Y-118054819D02*
X165981428Y-118054819D01*
X165981428Y-118054819D02*
X165838571Y-118007200D01*
X165838571Y-118007200D02*
X165743333Y-117911961D01*
X165743333Y-117911961D02*
X165695714Y-117816723D01*
X165695714Y-117816723D02*
X165648095Y-117626247D01*
X165648095Y-117626247D02*
X165648095Y-117483390D01*
X165648095Y-117483390D02*
X165695714Y-117292914D01*
X165695714Y-117292914D02*
X165743333Y-117197676D01*
X165743333Y-117197676D02*
X165838571Y-117102438D01*
X165838571Y-117102438D02*
X165981428Y-117054819D01*
X165981428Y-117054819D02*
X166076666Y-117054819D01*
X166076666Y-117054819D02*
X166219523Y-117102438D01*
X166219523Y-117102438D02*
X166267142Y-117150057D01*
X167219523Y-118054819D02*
X166648095Y-118054819D01*
X166933809Y-118054819D02*
X166933809Y-117054819D01*
X166933809Y-117054819D02*
X166838571Y-117197676D01*
X166838571Y-117197676D02*
X166743333Y-117292914D01*
X166743333Y-117292914D02*
X166648095Y-117340533D01*
X167838571Y-117054819D02*
X167933809Y-117054819D01*
X167933809Y-117054819D02*
X168029047Y-117102438D01*
X168029047Y-117102438D02*
X168076666Y-117150057D01*
X168076666Y-117150057D02*
X168124285Y-117245295D01*
X168124285Y-117245295D02*
X168171904Y-117435771D01*
X168171904Y-117435771D02*
X168171904Y-117673866D01*
X168171904Y-117673866D02*
X168124285Y-117864342D01*
X168124285Y-117864342D02*
X168076666Y-117959580D01*
X168076666Y-117959580D02*
X168029047Y-118007200D01*
X168029047Y-118007200D02*
X167933809Y-118054819D01*
X167933809Y-118054819D02*
X167838571Y-118054819D01*
X167838571Y-118054819D02*
X167743333Y-118007200D01*
X167743333Y-118007200D02*
X167695714Y-117959580D01*
X167695714Y-117959580D02*
X167648095Y-117864342D01*
X167648095Y-117864342D02*
X167600476Y-117673866D01*
X167600476Y-117673866D02*
X167600476Y-117435771D01*
X167600476Y-117435771D02*
X167648095Y-117245295D01*
X167648095Y-117245295D02*
X167695714Y-117150057D01*
X167695714Y-117150057D02*
X167743333Y-117102438D01*
X167743333Y-117102438D02*
X167838571Y-117054819D01*
X163357142Y-133159580D02*
X163309523Y-133207200D01*
X163309523Y-133207200D02*
X163166666Y-133254819D01*
X163166666Y-133254819D02*
X163071428Y-133254819D01*
X163071428Y-133254819D02*
X162928571Y-133207200D01*
X162928571Y-133207200D02*
X162833333Y-133111961D01*
X162833333Y-133111961D02*
X162785714Y-133016723D01*
X162785714Y-133016723D02*
X162738095Y-132826247D01*
X162738095Y-132826247D02*
X162738095Y-132683390D01*
X162738095Y-132683390D02*
X162785714Y-132492914D01*
X162785714Y-132492914D02*
X162833333Y-132397676D01*
X162833333Y-132397676D02*
X162928571Y-132302438D01*
X162928571Y-132302438D02*
X163071428Y-132254819D01*
X163071428Y-132254819D02*
X163166666Y-132254819D01*
X163166666Y-132254819D02*
X163309523Y-132302438D01*
X163309523Y-132302438D02*
X163357142Y-132350057D01*
X164309523Y-133254819D02*
X163738095Y-133254819D01*
X164023809Y-133254819D02*
X164023809Y-132254819D01*
X164023809Y-132254819D02*
X163928571Y-132397676D01*
X163928571Y-132397676D02*
X163833333Y-132492914D01*
X163833333Y-132492914D02*
X163738095Y-132540533D01*
X164642857Y-132254819D02*
X165309523Y-132254819D01*
X165309523Y-132254819D02*
X164880952Y-133254819D01*
X156193333Y-90954819D02*
X155860000Y-90478628D01*
X155621905Y-90954819D02*
X155621905Y-89954819D01*
X155621905Y-89954819D02*
X156002857Y-89954819D01*
X156002857Y-89954819D02*
X156098095Y-90002438D01*
X156098095Y-90002438D02*
X156145714Y-90050057D01*
X156145714Y-90050057D02*
X156193333Y-90145295D01*
X156193333Y-90145295D02*
X156193333Y-90288152D01*
X156193333Y-90288152D02*
X156145714Y-90383390D01*
X156145714Y-90383390D02*
X156098095Y-90431009D01*
X156098095Y-90431009D02*
X156002857Y-90478628D01*
X156002857Y-90478628D02*
X155621905Y-90478628D01*
X157145714Y-90954819D02*
X156574286Y-90954819D01*
X156860000Y-90954819D02*
X156860000Y-89954819D01*
X156860000Y-89954819D02*
X156764762Y-90097676D01*
X156764762Y-90097676D02*
X156669524Y-90192914D01*
X156669524Y-90192914D02*
X156574286Y-90240533D01*
X164543333Y-99159580D02*
X164495714Y-99207200D01*
X164495714Y-99207200D02*
X164352857Y-99254819D01*
X164352857Y-99254819D02*
X164257619Y-99254819D01*
X164257619Y-99254819D02*
X164114762Y-99207200D01*
X164114762Y-99207200D02*
X164019524Y-99111961D01*
X164019524Y-99111961D02*
X163971905Y-99016723D01*
X163971905Y-99016723D02*
X163924286Y-98826247D01*
X163924286Y-98826247D02*
X163924286Y-98683390D01*
X163924286Y-98683390D02*
X163971905Y-98492914D01*
X163971905Y-98492914D02*
X164019524Y-98397676D01*
X164019524Y-98397676D02*
X164114762Y-98302438D01*
X164114762Y-98302438D02*
X164257619Y-98254819D01*
X164257619Y-98254819D02*
X164352857Y-98254819D01*
X164352857Y-98254819D02*
X164495714Y-98302438D01*
X164495714Y-98302438D02*
X164543333Y-98350057D01*
X165019524Y-99254819D02*
X165210000Y-99254819D01*
X165210000Y-99254819D02*
X165305238Y-99207200D01*
X165305238Y-99207200D02*
X165352857Y-99159580D01*
X165352857Y-99159580D02*
X165448095Y-99016723D01*
X165448095Y-99016723D02*
X165495714Y-98826247D01*
X165495714Y-98826247D02*
X165495714Y-98445295D01*
X165495714Y-98445295D02*
X165448095Y-98350057D01*
X165448095Y-98350057D02*
X165400476Y-98302438D01*
X165400476Y-98302438D02*
X165305238Y-98254819D01*
X165305238Y-98254819D02*
X165114762Y-98254819D01*
X165114762Y-98254819D02*
X165019524Y-98302438D01*
X165019524Y-98302438D02*
X164971905Y-98350057D01*
X164971905Y-98350057D02*
X164924286Y-98445295D01*
X164924286Y-98445295D02*
X164924286Y-98683390D01*
X164924286Y-98683390D02*
X164971905Y-98778628D01*
X164971905Y-98778628D02*
X165019524Y-98826247D01*
X165019524Y-98826247D02*
X165114762Y-98873866D01*
X165114762Y-98873866D02*
X165305238Y-98873866D01*
X165305238Y-98873866D02*
X165400476Y-98826247D01*
X165400476Y-98826247D02*
X165448095Y-98778628D01*
X165448095Y-98778628D02*
X165495714Y-98683390D01*
X170767142Y-139359580D02*
X170719523Y-139407200D01*
X170719523Y-139407200D02*
X170576666Y-139454819D01*
X170576666Y-139454819D02*
X170481428Y-139454819D01*
X170481428Y-139454819D02*
X170338571Y-139407200D01*
X170338571Y-139407200D02*
X170243333Y-139311961D01*
X170243333Y-139311961D02*
X170195714Y-139216723D01*
X170195714Y-139216723D02*
X170148095Y-139026247D01*
X170148095Y-139026247D02*
X170148095Y-138883390D01*
X170148095Y-138883390D02*
X170195714Y-138692914D01*
X170195714Y-138692914D02*
X170243333Y-138597676D01*
X170243333Y-138597676D02*
X170338571Y-138502438D01*
X170338571Y-138502438D02*
X170481428Y-138454819D01*
X170481428Y-138454819D02*
X170576666Y-138454819D01*
X170576666Y-138454819D02*
X170719523Y-138502438D01*
X170719523Y-138502438D02*
X170767142Y-138550057D01*
X171148095Y-138550057D02*
X171195714Y-138502438D01*
X171195714Y-138502438D02*
X171290952Y-138454819D01*
X171290952Y-138454819D02*
X171529047Y-138454819D01*
X171529047Y-138454819D02*
X171624285Y-138502438D01*
X171624285Y-138502438D02*
X171671904Y-138550057D01*
X171671904Y-138550057D02*
X171719523Y-138645295D01*
X171719523Y-138645295D02*
X171719523Y-138740533D01*
X171719523Y-138740533D02*
X171671904Y-138883390D01*
X171671904Y-138883390D02*
X171100476Y-139454819D01*
X171100476Y-139454819D02*
X171719523Y-139454819D01*
X172338571Y-138454819D02*
X172433809Y-138454819D01*
X172433809Y-138454819D02*
X172529047Y-138502438D01*
X172529047Y-138502438D02*
X172576666Y-138550057D01*
X172576666Y-138550057D02*
X172624285Y-138645295D01*
X172624285Y-138645295D02*
X172671904Y-138835771D01*
X172671904Y-138835771D02*
X172671904Y-139073866D01*
X172671904Y-139073866D02*
X172624285Y-139264342D01*
X172624285Y-139264342D02*
X172576666Y-139359580D01*
X172576666Y-139359580D02*
X172529047Y-139407200D01*
X172529047Y-139407200D02*
X172433809Y-139454819D01*
X172433809Y-139454819D02*
X172338571Y-139454819D01*
X172338571Y-139454819D02*
X172243333Y-139407200D01*
X172243333Y-139407200D02*
X172195714Y-139359580D01*
X172195714Y-139359580D02*
X172148095Y-139264342D01*
X172148095Y-139264342D02*
X172100476Y-139073866D01*
X172100476Y-139073866D02*
X172100476Y-138835771D01*
X172100476Y-138835771D02*
X172148095Y-138645295D01*
X172148095Y-138645295D02*
X172195714Y-138550057D01*
X172195714Y-138550057D02*
X172243333Y-138502438D01*
X172243333Y-138502438D02*
X172338571Y-138454819D01*
X161189166Y-129701009D02*
X160855833Y-129701009D01*
X160855833Y-130224819D02*
X160855833Y-129224819D01*
X160855833Y-129224819D02*
X161332023Y-129224819D01*
X162046309Y-129701009D02*
X162189166Y-129748628D01*
X162189166Y-129748628D02*
X162236785Y-129796247D01*
X162236785Y-129796247D02*
X162284404Y-129891485D01*
X162284404Y-129891485D02*
X162284404Y-130034342D01*
X162284404Y-130034342D02*
X162236785Y-130129580D01*
X162236785Y-130129580D02*
X162189166Y-130177200D01*
X162189166Y-130177200D02*
X162093928Y-130224819D01*
X162093928Y-130224819D02*
X161712976Y-130224819D01*
X161712976Y-130224819D02*
X161712976Y-129224819D01*
X161712976Y-129224819D02*
X162046309Y-129224819D01*
X162046309Y-129224819D02*
X162141547Y-129272438D01*
X162141547Y-129272438D02*
X162189166Y-129320057D01*
X162189166Y-129320057D02*
X162236785Y-129415295D01*
X162236785Y-129415295D02*
X162236785Y-129510533D01*
X162236785Y-129510533D02*
X162189166Y-129605771D01*
X162189166Y-129605771D02*
X162141547Y-129653390D01*
X162141547Y-129653390D02*
X162046309Y-129701009D01*
X162046309Y-129701009D02*
X161712976Y-129701009D01*
X163141547Y-129224819D02*
X162951071Y-129224819D01*
X162951071Y-129224819D02*
X162855833Y-129272438D01*
X162855833Y-129272438D02*
X162808214Y-129320057D01*
X162808214Y-129320057D02*
X162712976Y-129462914D01*
X162712976Y-129462914D02*
X162665357Y-129653390D01*
X162665357Y-129653390D02*
X162665357Y-130034342D01*
X162665357Y-130034342D02*
X162712976Y-130129580D01*
X162712976Y-130129580D02*
X162760595Y-130177200D01*
X162760595Y-130177200D02*
X162855833Y-130224819D01*
X162855833Y-130224819D02*
X163046309Y-130224819D01*
X163046309Y-130224819D02*
X163141547Y-130177200D01*
X163141547Y-130177200D02*
X163189166Y-130129580D01*
X163189166Y-130129580D02*
X163236785Y-130034342D01*
X163236785Y-130034342D02*
X163236785Y-129796247D01*
X163236785Y-129796247D02*
X163189166Y-129701009D01*
X163189166Y-129701009D02*
X163141547Y-129653390D01*
X163141547Y-129653390D02*
X163046309Y-129605771D01*
X163046309Y-129605771D02*
X162855833Y-129605771D01*
X162855833Y-129605771D02*
X162760595Y-129653390D01*
X162760595Y-129653390D02*
X162712976Y-129701009D01*
X162712976Y-129701009D02*
X162665357Y-129796247D01*
X169367142Y-112559580D02*
X169319523Y-112607200D01*
X169319523Y-112607200D02*
X169176666Y-112654819D01*
X169176666Y-112654819D02*
X169081428Y-112654819D01*
X169081428Y-112654819D02*
X168938571Y-112607200D01*
X168938571Y-112607200D02*
X168843333Y-112511961D01*
X168843333Y-112511961D02*
X168795714Y-112416723D01*
X168795714Y-112416723D02*
X168748095Y-112226247D01*
X168748095Y-112226247D02*
X168748095Y-112083390D01*
X168748095Y-112083390D02*
X168795714Y-111892914D01*
X168795714Y-111892914D02*
X168843333Y-111797676D01*
X168843333Y-111797676D02*
X168938571Y-111702438D01*
X168938571Y-111702438D02*
X169081428Y-111654819D01*
X169081428Y-111654819D02*
X169176666Y-111654819D01*
X169176666Y-111654819D02*
X169319523Y-111702438D01*
X169319523Y-111702438D02*
X169367142Y-111750057D01*
X170319523Y-112654819D02*
X169748095Y-112654819D01*
X170033809Y-112654819D02*
X170033809Y-111654819D01*
X170033809Y-111654819D02*
X169938571Y-111797676D01*
X169938571Y-111797676D02*
X169843333Y-111892914D01*
X169843333Y-111892914D02*
X169748095Y-111940533D01*
X171176666Y-111988152D02*
X171176666Y-112654819D01*
X170938571Y-111607200D02*
X170700476Y-112321485D01*
X170700476Y-112321485D02*
X171319523Y-112321485D01*
X158293333Y-90909580D02*
X158245714Y-90957200D01*
X158245714Y-90957200D02*
X158102857Y-91004819D01*
X158102857Y-91004819D02*
X158007619Y-91004819D01*
X158007619Y-91004819D02*
X157864762Y-90957200D01*
X157864762Y-90957200D02*
X157769524Y-90861961D01*
X157769524Y-90861961D02*
X157721905Y-90766723D01*
X157721905Y-90766723D02*
X157674286Y-90576247D01*
X157674286Y-90576247D02*
X157674286Y-90433390D01*
X157674286Y-90433390D02*
X157721905Y-90242914D01*
X157721905Y-90242914D02*
X157769524Y-90147676D01*
X157769524Y-90147676D02*
X157864762Y-90052438D01*
X157864762Y-90052438D02*
X158007619Y-90004819D01*
X158007619Y-90004819D02*
X158102857Y-90004819D01*
X158102857Y-90004819D02*
X158245714Y-90052438D01*
X158245714Y-90052438D02*
X158293333Y-90100057D01*
X158674286Y-90100057D02*
X158721905Y-90052438D01*
X158721905Y-90052438D02*
X158817143Y-90004819D01*
X158817143Y-90004819D02*
X159055238Y-90004819D01*
X159055238Y-90004819D02*
X159150476Y-90052438D01*
X159150476Y-90052438D02*
X159198095Y-90100057D01*
X159198095Y-90100057D02*
X159245714Y-90195295D01*
X159245714Y-90195295D02*
X159245714Y-90290533D01*
X159245714Y-90290533D02*
X159198095Y-90433390D01*
X159198095Y-90433390D02*
X158626667Y-91004819D01*
X158626667Y-91004819D02*
X159245714Y-91004819D01*
X181776666Y-138956009D02*
X181443333Y-138956009D01*
X181443333Y-139479819D02*
X181443333Y-138479819D01*
X181443333Y-138479819D02*
X181919523Y-138479819D01*
X182633809Y-138956009D02*
X182776666Y-139003628D01*
X182776666Y-139003628D02*
X182824285Y-139051247D01*
X182824285Y-139051247D02*
X182871904Y-139146485D01*
X182871904Y-139146485D02*
X182871904Y-139289342D01*
X182871904Y-139289342D02*
X182824285Y-139384580D01*
X182824285Y-139384580D02*
X182776666Y-139432200D01*
X182776666Y-139432200D02*
X182681428Y-139479819D01*
X182681428Y-139479819D02*
X182300476Y-139479819D01*
X182300476Y-139479819D02*
X182300476Y-138479819D01*
X182300476Y-138479819D02*
X182633809Y-138479819D01*
X182633809Y-138479819D02*
X182729047Y-138527438D01*
X182729047Y-138527438D02*
X182776666Y-138575057D01*
X182776666Y-138575057D02*
X182824285Y-138670295D01*
X182824285Y-138670295D02*
X182824285Y-138765533D01*
X182824285Y-138765533D02*
X182776666Y-138860771D01*
X182776666Y-138860771D02*
X182729047Y-138908390D01*
X182729047Y-138908390D02*
X182633809Y-138956009D01*
X182633809Y-138956009D02*
X182300476Y-138956009D01*
X183348095Y-139479819D02*
X183538571Y-139479819D01*
X183538571Y-139479819D02*
X183633809Y-139432200D01*
X183633809Y-139432200D02*
X183681428Y-139384580D01*
X183681428Y-139384580D02*
X183776666Y-139241723D01*
X183776666Y-139241723D02*
X183824285Y-139051247D01*
X183824285Y-139051247D02*
X183824285Y-138670295D01*
X183824285Y-138670295D02*
X183776666Y-138575057D01*
X183776666Y-138575057D02*
X183729047Y-138527438D01*
X183729047Y-138527438D02*
X183633809Y-138479819D01*
X183633809Y-138479819D02*
X183443333Y-138479819D01*
X183443333Y-138479819D02*
X183348095Y-138527438D01*
X183348095Y-138527438D02*
X183300476Y-138575057D01*
X183300476Y-138575057D02*
X183252857Y-138670295D01*
X183252857Y-138670295D02*
X183252857Y-138908390D01*
X183252857Y-138908390D02*
X183300476Y-139003628D01*
X183300476Y-139003628D02*
X183348095Y-139051247D01*
X183348095Y-139051247D02*
X183443333Y-139098866D01*
X183443333Y-139098866D02*
X183633809Y-139098866D01*
X183633809Y-139098866D02*
X183729047Y-139051247D01*
X183729047Y-139051247D02*
X183776666Y-139003628D01*
X183776666Y-139003628D02*
X183824285Y-138908390D01*
X181661666Y-122776009D02*
X181328333Y-122776009D01*
X181328333Y-123299819D02*
X181328333Y-122299819D01*
X181328333Y-122299819D02*
X181804523Y-122299819D01*
X182518809Y-122776009D02*
X182661666Y-122823628D01*
X182661666Y-122823628D02*
X182709285Y-122871247D01*
X182709285Y-122871247D02*
X182756904Y-122966485D01*
X182756904Y-122966485D02*
X182756904Y-123109342D01*
X182756904Y-123109342D02*
X182709285Y-123204580D01*
X182709285Y-123204580D02*
X182661666Y-123252200D01*
X182661666Y-123252200D02*
X182566428Y-123299819D01*
X182566428Y-123299819D02*
X182185476Y-123299819D01*
X182185476Y-123299819D02*
X182185476Y-122299819D01*
X182185476Y-122299819D02*
X182518809Y-122299819D01*
X182518809Y-122299819D02*
X182614047Y-122347438D01*
X182614047Y-122347438D02*
X182661666Y-122395057D01*
X182661666Y-122395057D02*
X182709285Y-122490295D01*
X182709285Y-122490295D02*
X182709285Y-122585533D01*
X182709285Y-122585533D02*
X182661666Y-122680771D01*
X182661666Y-122680771D02*
X182614047Y-122728390D01*
X182614047Y-122728390D02*
X182518809Y-122776009D01*
X182518809Y-122776009D02*
X182185476Y-122776009D01*
X183328333Y-122728390D02*
X183233095Y-122680771D01*
X183233095Y-122680771D02*
X183185476Y-122633152D01*
X183185476Y-122633152D02*
X183137857Y-122537914D01*
X183137857Y-122537914D02*
X183137857Y-122490295D01*
X183137857Y-122490295D02*
X183185476Y-122395057D01*
X183185476Y-122395057D02*
X183233095Y-122347438D01*
X183233095Y-122347438D02*
X183328333Y-122299819D01*
X183328333Y-122299819D02*
X183518809Y-122299819D01*
X183518809Y-122299819D02*
X183614047Y-122347438D01*
X183614047Y-122347438D02*
X183661666Y-122395057D01*
X183661666Y-122395057D02*
X183709285Y-122490295D01*
X183709285Y-122490295D02*
X183709285Y-122537914D01*
X183709285Y-122537914D02*
X183661666Y-122633152D01*
X183661666Y-122633152D02*
X183614047Y-122680771D01*
X183614047Y-122680771D02*
X183518809Y-122728390D01*
X183518809Y-122728390D02*
X183328333Y-122728390D01*
X183328333Y-122728390D02*
X183233095Y-122776009D01*
X183233095Y-122776009D02*
X183185476Y-122823628D01*
X183185476Y-122823628D02*
X183137857Y-122918866D01*
X183137857Y-122918866D02*
X183137857Y-123109342D01*
X183137857Y-123109342D02*
X183185476Y-123204580D01*
X183185476Y-123204580D02*
X183233095Y-123252200D01*
X183233095Y-123252200D02*
X183328333Y-123299819D01*
X183328333Y-123299819D02*
X183518809Y-123299819D01*
X183518809Y-123299819D02*
X183614047Y-123252200D01*
X183614047Y-123252200D02*
X183661666Y-123204580D01*
X183661666Y-123204580D02*
X183709285Y-123109342D01*
X183709285Y-123109342D02*
X183709285Y-122918866D01*
X183709285Y-122918866D02*
X183661666Y-122823628D01*
X183661666Y-122823628D02*
X183614047Y-122776009D01*
X183614047Y-122776009D02*
X183518809Y-122728390D01*
X157343333Y-97854819D02*
X157010000Y-97378628D01*
X156771905Y-97854819D02*
X156771905Y-96854819D01*
X156771905Y-96854819D02*
X157152857Y-96854819D01*
X157152857Y-96854819D02*
X157248095Y-96902438D01*
X157248095Y-96902438D02*
X157295714Y-96950057D01*
X157295714Y-96950057D02*
X157343333Y-97045295D01*
X157343333Y-97045295D02*
X157343333Y-97188152D01*
X157343333Y-97188152D02*
X157295714Y-97283390D01*
X157295714Y-97283390D02*
X157248095Y-97331009D01*
X157248095Y-97331009D02*
X157152857Y-97378628D01*
X157152857Y-97378628D02*
X156771905Y-97378628D01*
X157676667Y-96854819D02*
X158295714Y-96854819D01*
X158295714Y-96854819D02*
X157962381Y-97235771D01*
X157962381Y-97235771D02*
X158105238Y-97235771D01*
X158105238Y-97235771D02*
X158200476Y-97283390D01*
X158200476Y-97283390D02*
X158248095Y-97331009D01*
X158248095Y-97331009D02*
X158295714Y-97426247D01*
X158295714Y-97426247D02*
X158295714Y-97664342D01*
X158295714Y-97664342D02*
X158248095Y-97759580D01*
X158248095Y-97759580D02*
X158200476Y-97807200D01*
X158200476Y-97807200D02*
X158105238Y-97854819D01*
X158105238Y-97854819D02*
X157819524Y-97854819D01*
X157819524Y-97854819D02*
X157724286Y-97807200D01*
X157724286Y-97807200D02*
X157676667Y-97759580D01*
X107243333Y-91259580D02*
X107195714Y-91307200D01*
X107195714Y-91307200D02*
X107052857Y-91354819D01*
X107052857Y-91354819D02*
X106957619Y-91354819D01*
X106957619Y-91354819D02*
X106814762Y-91307200D01*
X106814762Y-91307200D02*
X106719524Y-91211961D01*
X106719524Y-91211961D02*
X106671905Y-91116723D01*
X106671905Y-91116723D02*
X106624286Y-90926247D01*
X106624286Y-90926247D02*
X106624286Y-90783390D01*
X106624286Y-90783390D02*
X106671905Y-90592914D01*
X106671905Y-90592914D02*
X106719524Y-90497676D01*
X106719524Y-90497676D02*
X106814762Y-90402438D01*
X106814762Y-90402438D02*
X106957619Y-90354819D01*
X106957619Y-90354819D02*
X107052857Y-90354819D01*
X107052857Y-90354819D02*
X107195714Y-90402438D01*
X107195714Y-90402438D02*
X107243333Y-90450057D01*
X107576667Y-90354819D02*
X108195714Y-90354819D01*
X108195714Y-90354819D02*
X107862381Y-90735771D01*
X107862381Y-90735771D02*
X108005238Y-90735771D01*
X108005238Y-90735771D02*
X108100476Y-90783390D01*
X108100476Y-90783390D02*
X108148095Y-90831009D01*
X108148095Y-90831009D02*
X108195714Y-90926247D01*
X108195714Y-90926247D02*
X108195714Y-91164342D01*
X108195714Y-91164342D02*
X108148095Y-91259580D01*
X108148095Y-91259580D02*
X108100476Y-91307200D01*
X108100476Y-91307200D02*
X108005238Y-91354819D01*
X108005238Y-91354819D02*
X107719524Y-91354819D01*
X107719524Y-91354819D02*
X107624286Y-91307200D01*
X107624286Y-91307200D02*
X107576667Y-91259580D01*
X181674166Y-128176009D02*
X181340833Y-128176009D01*
X181340833Y-128699819D02*
X181340833Y-127699819D01*
X181340833Y-127699819D02*
X181817023Y-127699819D01*
X182531309Y-128176009D02*
X182674166Y-128223628D01*
X182674166Y-128223628D02*
X182721785Y-128271247D01*
X182721785Y-128271247D02*
X182769404Y-128366485D01*
X182769404Y-128366485D02*
X182769404Y-128509342D01*
X182769404Y-128509342D02*
X182721785Y-128604580D01*
X182721785Y-128604580D02*
X182674166Y-128652200D01*
X182674166Y-128652200D02*
X182578928Y-128699819D01*
X182578928Y-128699819D02*
X182197976Y-128699819D01*
X182197976Y-128699819D02*
X182197976Y-127699819D01*
X182197976Y-127699819D02*
X182531309Y-127699819D01*
X182531309Y-127699819D02*
X182626547Y-127747438D01*
X182626547Y-127747438D02*
X182674166Y-127795057D01*
X182674166Y-127795057D02*
X182721785Y-127890295D01*
X182721785Y-127890295D02*
X182721785Y-127985533D01*
X182721785Y-127985533D02*
X182674166Y-128080771D01*
X182674166Y-128080771D02*
X182626547Y-128128390D01*
X182626547Y-128128390D02*
X182531309Y-128176009D01*
X182531309Y-128176009D02*
X182197976Y-128176009D01*
X183102738Y-127699819D02*
X183769404Y-127699819D01*
X183769404Y-127699819D02*
X183340833Y-128699819D01*
X165357142Y-123659580D02*
X165309523Y-123707200D01*
X165309523Y-123707200D02*
X165166666Y-123754819D01*
X165166666Y-123754819D02*
X165071428Y-123754819D01*
X165071428Y-123754819D02*
X164928571Y-123707200D01*
X164928571Y-123707200D02*
X164833333Y-123611961D01*
X164833333Y-123611961D02*
X164785714Y-123516723D01*
X164785714Y-123516723D02*
X164738095Y-123326247D01*
X164738095Y-123326247D02*
X164738095Y-123183390D01*
X164738095Y-123183390D02*
X164785714Y-122992914D01*
X164785714Y-122992914D02*
X164833333Y-122897676D01*
X164833333Y-122897676D02*
X164928571Y-122802438D01*
X164928571Y-122802438D02*
X165071428Y-122754819D01*
X165071428Y-122754819D02*
X165166666Y-122754819D01*
X165166666Y-122754819D02*
X165309523Y-122802438D01*
X165309523Y-122802438D02*
X165357142Y-122850057D01*
X165738095Y-122850057D02*
X165785714Y-122802438D01*
X165785714Y-122802438D02*
X165880952Y-122754819D01*
X165880952Y-122754819D02*
X166119047Y-122754819D01*
X166119047Y-122754819D02*
X166214285Y-122802438D01*
X166214285Y-122802438D02*
X166261904Y-122850057D01*
X166261904Y-122850057D02*
X166309523Y-122945295D01*
X166309523Y-122945295D02*
X166309523Y-123040533D01*
X166309523Y-123040533D02*
X166261904Y-123183390D01*
X166261904Y-123183390D02*
X165690476Y-123754819D01*
X165690476Y-123754819D02*
X166309523Y-123754819D01*
X167261904Y-123754819D02*
X166690476Y-123754819D01*
X166976190Y-123754819D02*
X166976190Y-122754819D01*
X166976190Y-122754819D02*
X166880952Y-122897676D01*
X166880952Y-122897676D02*
X166785714Y-122992914D01*
X166785714Y-122992914D02*
X166690476Y-123040533D01*
X170467142Y-97859580D02*
X170419523Y-97907200D01*
X170419523Y-97907200D02*
X170276666Y-97954819D01*
X170276666Y-97954819D02*
X170181428Y-97954819D01*
X170181428Y-97954819D02*
X170038571Y-97907200D01*
X170038571Y-97907200D02*
X169943333Y-97811961D01*
X169943333Y-97811961D02*
X169895714Y-97716723D01*
X169895714Y-97716723D02*
X169848095Y-97526247D01*
X169848095Y-97526247D02*
X169848095Y-97383390D01*
X169848095Y-97383390D02*
X169895714Y-97192914D01*
X169895714Y-97192914D02*
X169943333Y-97097676D01*
X169943333Y-97097676D02*
X170038571Y-97002438D01*
X170038571Y-97002438D02*
X170181428Y-96954819D01*
X170181428Y-96954819D02*
X170276666Y-96954819D01*
X170276666Y-96954819D02*
X170419523Y-97002438D01*
X170419523Y-97002438D02*
X170467142Y-97050057D01*
X171419523Y-97954819D02*
X170848095Y-97954819D01*
X171133809Y-97954819D02*
X171133809Y-96954819D01*
X171133809Y-96954819D02*
X171038571Y-97097676D01*
X171038571Y-97097676D02*
X170943333Y-97192914D01*
X170943333Y-97192914D02*
X170848095Y-97240533D01*
X171800476Y-97050057D02*
X171848095Y-97002438D01*
X171848095Y-97002438D02*
X171943333Y-96954819D01*
X171943333Y-96954819D02*
X172181428Y-96954819D01*
X172181428Y-96954819D02*
X172276666Y-97002438D01*
X172276666Y-97002438D02*
X172324285Y-97050057D01*
X172324285Y-97050057D02*
X172371904Y-97145295D01*
X172371904Y-97145295D02*
X172371904Y-97240533D01*
X172371904Y-97240533D02*
X172324285Y-97383390D01*
X172324285Y-97383390D02*
X171752857Y-97954819D01*
X171752857Y-97954819D02*
X172371904Y-97954819D01*
X157493333Y-111259580D02*
X157445714Y-111307200D01*
X157445714Y-111307200D02*
X157302857Y-111354819D01*
X157302857Y-111354819D02*
X157207619Y-111354819D01*
X157207619Y-111354819D02*
X157064762Y-111307200D01*
X157064762Y-111307200D02*
X156969524Y-111211961D01*
X156969524Y-111211961D02*
X156921905Y-111116723D01*
X156921905Y-111116723D02*
X156874286Y-110926247D01*
X156874286Y-110926247D02*
X156874286Y-110783390D01*
X156874286Y-110783390D02*
X156921905Y-110592914D01*
X156921905Y-110592914D02*
X156969524Y-110497676D01*
X156969524Y-110497676D02*
X157064762Y-110402438D01*
X157064762Y-110402438D02*
X157207619Y-110354819D01*
X157207619Y-110354819D02*
X157302857Y-110354819D01*
X157302857Y-110354819D02*
X157445714Y-110402438D01*
X157445714Y-110402438D02*
X157493333Y-110450057D01*
X157826667Y-110354819D02*
X158493333Y-110354819D01*
X158493333Y-110354819D02*
X158064762Y-111354819D01*
X184267142Y-140784580D02*
X184219523Y-140832200D01*
X184219523Y-140832200D02*
X184076666Y-140879819D01*
X184076666Y-140879819D02*
X183981428Y-140879819D01*
X183981428Y-140879819D02*
X183838571Y-140832200D01*
X183838571Y-140832200D02*
X183743333Y-140736961D01*
X183743333Y-140736961D02*
X183695714Y-140641723D01*
X183695714Y-140641723D02*
X183648095Y-140451247D01*
X183648095Y-140451247D02*
X183648095Y-140308390D01*
X183648095Y-140308390D02*
X183695714Y-140117914D01*
X183695714Y-140117914D02*
X183743333Y-140022676D01*
X183743333Y-140022676D02*
X183838571Y-139927438D01*
X183838571Y-139927438D02*
X183981428Y-139879819D01*
X183981428Y-139879819D02*
X184076666Y-139879819D01*
X184076666Y-139879819D02*
X184219523Y-139927438D01*
X184219523Y-139927438D02*
X184267142Y-139975057D01*
X184648095Y-139975057D02*
X184695714Y-139927438D01*
X184695714Y-139927438D02*
X184790952Y-139879819D01*
X184790952Y-139879819D02*
X185029047Y-139879819D01*
X185029047Y-139879819D02*
X185124285Y-139927438D01*
X185124285Y-139927438D02*
X185171904Y-139975057D01*
X185171904Y-139975057D02*
X185219523Y-140070295D01*
X185219523Y-140070295D02*
X185219523Y-140165533D01*
X185219523Y-140165533D02*
X185171904Y-140308390D01*
X185171904Y-140308390D02*
X184600476Y-140879819D01*
X184600476Y-140879819D02*
X185219523Y-140879819D01*
X186124285Y-139879819D02*
X185648095Y-139879819D01*
X185648095Y-139879819D02*
X185600476Y-140356009D01*
X185600476Y-140356009D02*
X185648095Y-140308390D01*
X185648095Y-140308390D02*
X185743333Y-140260771D01*
X185743333Y-140260771D02*
X185981428Y-140260771D01*
X185981428Y-140260771D02*
X186076666Y-140308390D01*
X186076666Y-140308390D02*
X186124285Y-140356009D01*
X186124285Y-140356009D02*
X186171904Y-140451247D01*
X186171904Y-140451247D02*
X186171904Y-140689342D01*
X186171904Y-140689342D02*
X186124285Y-140784580D01*
X186124285Y-140784580D02*
X186076666Y-140832200D01*
X186076666Y-140832200D02*
X185981428Y-140879819D01*
X185981428Y-140879819D02*
X185743333Y-140879819D01*
X185743333Y-140879819D02*
X185648095Y-140832200D01*
X185648095Y-140832200D02*
X185600476Y-140784580D01*
X159643333Y-97867319D02*
X159310000Y-97391128D01*
X159071905Y-97867319D02*
X159071905Y-96867319D01*
X159071905Y-96867319D02*
X159452857Y-96867319D01*
X159452857Y-96867319D02*
X159548095Y-96914938D01*
X159548095Y-96914938D02*
X159595714Y-96962557D01*
X159595714Y-96962557D02*
X159643333Y-97057795D01*
X159643333Y-97057795D02*
X159643333Y-97200652D01*
X159643333Y-97200652D02*
X159595714Y-97295890D01*
X159595714Y-97295890D02*
X159548095Y-97343509D01*
X159548095Y-97343509D02*
X159452857Y-97391128D01*
X159452857Y-97391128D02*
X159071905Y-97391128D01*
X160024286Y-96962557D02*
X160071905Y-96914938D01*
X160071905Y-96914938D02*
X160167143Y-96867319D01*
X160167143Y-96867319D02*
X160405238Y-96867319D01*
X160405238Y-96867319D02*
X160500476Y-96914938D01*
X160500476Y-96914938D02*
X160548095Y-96962557D01*
X160548095Y-96962557D02*
X160595714Y-97057795D01*
X160595714Y-97057795D02*
X160595714Y-97153033D01*
X160595714Y-97153033D02*
X160548095Y-97295890D01*
X160548095Y-97295890D02*
X159976667Y-97867319D01*
X159976667Y-97867319D02*
X160595714Y-97867319D01*
X184152142Y-130154580D02*
X184104523Y-130202200D01*
X184104523Y-130202200D02*
X183961666Y-130249819D01*
X183961666Y-130249819D02*
X183866428Y-130249819D01*
X183866428Y-130249819D02*
X183723571Y-130202200D01*
X183723571Y-130202200D02*
X183628333Y-130106961D01*
X183628333Y-130106961D02*
X183580714Y-130011723D01*
X183580714Y-130011723D02*
X183533095Y-129821247D01*
X183533095Y-129821247D02*
X183533095Y-129678390D01*
X183533095Y-129678390D02*
X183580714Y-129487914D01*
X183580714Y-129487914D02*
X183628333Y-129392676D01*
X183628333Y-129392676D02*
X183723571Y-129297438D01*
X183723571Y-129297438D02*
X183866428Y-129249819D01*
X183866428Y-129249819D02*
X183961666Y-129249819D01*
X183961666Y-129249819D02*
X184104523Y-129297438D01*
X184104523Y-129297438D02*
X184152142Y-129345057D01*
X184533095Y-129345057D02*
X184580714Y-129297438D01*
X184580714Y-129297438D02*
X184675952Y-129249819D01*
X184675952Y-129249819D02*
X184914047Y-129249819D01*
X184914047Y-129249819D02*
X185009285Y-129297438D01*
X185009285Y-129297438D02*
X185056904Y-129345057D01*
X185056904Y-129345057D02*
X185104523Y-129440295D01*
X185104523Y-129440295D02*
X185104523Y-129535533D01*
X185104523Y-129535533D02*
X185056904Y-129678390D01*
X185056904Y-129678390D02*
X184485476Y-130249819D01*
X184485476Y-130249819D02*
X185104523Y-130249819D01*
X185437857Y-129249819D02*
X186056904Y-129249819D01*
X186056904Y-129249819D02*
X185723571Y-129630771D01*
X185723571Y-129630771D02*
X185866428Y-129630771D01*
X185866428Y-129630771D02*
X185961666Y-129678390D01*
X185961666Y-129678390D02*
X186009285Y-129726009D01*
X186009285Y-129726009D02*
X186056904Y-129821247D01*
X186056904Y-129821247D02*
X186056904Y-130059342D01*
X186056904Y-130059342D02*
X186009285Y-130154580D01*
X186009285Y-130154580D02*
X185961666Y-130202200D01*
X185961666Y-130202200D02*
X185866428Y-130249819D01*
X185866428Y-130249819D02*
X185580714Y-130249819D01*
X185580714Y-130249819D02*
X185485476Y-130202200D01*
X185485476Y-130202200D02*
X185437857Y-130154580D01*
X174767142Y-108159580D02*
X174719523Y-108207200D01*
X174719523Y-108207200D02*
X174576666Y-108254819D01*
X174576666Y-108254819D02*
X174481428Y-108254819D01*
X174481428Y-108254819D02*
X174338571Y-108207200D01*
X174338571Y-108207200D02*
X174243333Y-108111961D01*
X174243333Y-108111961D02*
X174195714Y-108016723D01*
X174195714Y-108016723D02*
X174148095Y-107826247D01*
X174148095Y-107826247D02*
X174148095Y-107683390D01*
X174148095Y-107683390D02*
X174195714Y-107492914D01*
X174195714Y-107492914D02*
X174243333Y-107397676D01*
X174243333Y-107397676D02*
X174338571Y-107302438D01*
X174338571Y-107302438D02*
X174481428Y-107254819D01*
X174481428Y-107254819D02*
X174576666Y-107254819D01*
X174576666Y-107254819D02*
X174719523Y-107302438D01*
X174719523Y-107302438D02*
X174767142Y-107350057D01*
X175719523Y-108254819D02*
X175148095Y-108254819D01*
X175433809Y-108254819D02*
X175433809Y-107254819D01*
X175433809Y-107254819D02*
X175338571Y-107397676D01*
X175338571Y-107397676D02*
X175243333Y-107492914D01*
X175243333Y-107492914D02*
X175148095Y-107540533D01*
X176052857Y-107254819D02*
X176671904Y-107254819D01*
X176671904Y-107254819D02*
X176338571Y-107635771D01*
X176338571Y-107635771D02*
X176481428Y-107635771D01*
X176481428Y-107635771D02*
X176576666Y-107683390D01*
X176576666Y-107683390D02*
X176624285Y-107731009D01*
X176624285Y-107731009D02*
X176671904Y-107826247D01*
X176671904Y-107826247D02*
X176671904Y-108064342D01*
X176671904Y-108064342D02*
X176624285Y-108159580D01*
X176624285Y-108159580D02*
X176576666Y-108207200D01*
X176576666Y-108207200D02*
X176481428Y-108254819D01*
X176481428Y-108254819D02*
X176195714Y-108254819D01*
X176195714Y-108254819D02*
X176100476Y-108207200D01*
X176100476Y-108207200D02*
X176052857Y-108159580D01*
X178643333Y-123654819D02*
X178310000Y-123178628D01*
X178071905Y-123654819D02*
X178071905Y-122654819D01*
X178071905Y-122654819D02*
X178452857Y-122654819D01*
X178452857Y-122654819D02*
X178548095Y-122702438D01*
X178548095Y-122702438D02*
X178595714Y-122750057D01*
X178595714Y-122750057D02*
X178643333Y-122845295D01*
X178643333Y-122845295D02*
X178643333Y-122988152D01*
X178643333Y-122988152D02*
X178595714Y-123083390D01*
X178595714Y-123083390D02*
X178548095Y-123131009D01*
X178548095Y-123131009D02*
X178452857Y-123178628D01*
X178452857Y-123178628D02*
X178071905Y-123178628D01*
X178976667Y-122654819D02*
X179643333Y-122654819D01*
X179643333Y-122654819D02*
X179214762Y-123654819D01*
X155336660Y-132234104D02*
X155812850Y-132234104D01*
X155241422Y-132519819D02*
X155574755Y-131519819D01*
X155574755Y-131519819D02*
X155908088Y-132519819D01*
X156765231Y-132519819D02*
X156193803Y-132519819D01*
X156479517Y-132519819D02*
X156479517Y-131519819D01*
X156479517Y-131519819D02*
X156384279Y-131662676D01*
X156384279Y-131662676D02*
X156289041Y-131757914D01*
X156289041Y-131757914D02*
X156193803Y-131805533D01*
X160733809Y-117578628D02*
X160733809Y-118054819D01*
X160400476Y-117054819D02*
X160733809Y-117578628D01*
X160733809Y-117578628D02*
X161067142Y-117054819D01*
X161924285Y-118054819D02*
X161352857Y-118054819D01*
X161638571Y-118054819D02*
X161638571Y-117054819D01*
X161638571Y-117054819D02*
X161543333Y-117197676D01*
X161543333Y-117197676D02*
X161448095Y-117292914D01*
X161448095Y-117292914D02*
X161352857Y-117340533D01*
X163067142Y-117959580D02*
X163019523Y-118007200D01*
X163019523Y-118007200D02*
X162876666Y-118054819D01*
X162876666Y-118054819D02*
X162781428Y-118054819D01*
X162781428Y-118054819D02*
X162638571Y-118007200D01*
X162638571Y-118007200D02*
X162543333Y-117911961D01*
X162543333Y-117911961D02*
X162495714Y-117816723D01*
X162495714Y-117816723D02*
X162448095Y-117626247D01*
X162448095Y-117626247D02*
X162448095Y-117483390D01*
X162448095Y-117483390D02*
X162495714Y-117292914D01*
X162495714Y-117292914D02*
X162543333Y-117197676D01*
X162543333Y-117197676D02*
X162638571Y-117102438D01*
X162638571Y-117102438D02*
X162781428Y-117054819D01*
X162781428Y-117054819D02*
X162876666Y-117054819D01*
X162876666Y-117054819D02*
X163019523Y-117102438D01*
X163019523Y-117102438D02*
X163067142Y-117150057D01*
X164019523Y-118054819D02*
X163448095Y-118054819D01*
X163733809Y-118054819D02*
X163733809Y-117054819D01*
X163733809Y-117054819D02*
X163638571Y-117197676D01*
X163638571Y-117197676D02*
X163543333Y-117292914D01*
X163543333Y-117292914D02*
X163448095Y-117340533D01*
X164971904Y-118054819D02*
X164400476Y-118054819D01*
X164686190Y-118054819D02*
X164686190Y-117054819D01*
X164686190Y-117054819D02*
X164590952Y-117197676D01*
X164590952Y-117197676D02*
X164495714Y-117292914D01*
X164495714Y-117292914D02*
X164400476Y-117340533D01*
X183267142Y-132384580D02*
X183219523Y-132432200D01*
X183219523Y-132432200D02*
X183076666Y-132479819D01*
X183076666Y-132479819D02*
X182981428Y-132479819D01*
X182981428Y-132479819D02*
X182838571Y-132432200D01*
X182838571Y-132432200D02*
X182743333Y-132336961D01*
X182743333Y-132336961D02*
X182695714Y-132241723D01*
X182695714Y-132241723D02*
X182648095Y-132051247D01*
X182648095Y-132051247D02*
X182648095Y-131908390D01*
X182648095Y-131908390D02*
X182695714Y-131717914D01*
X182695714Y-131717914D02*
X182743333Y-131622676D01*
X182743333Y-131622676D02*
X182838571Y-131527438D01*
X182838571Y-131527438D02*
X182981428Y-131479819D01*
X182981428Y-131479819D02*
X183076666Y-131479819D01*
X183076666Y-131479819D02*
X183219523Y-131527438D01*
X183219523Y-131527438D02*
X183267142Y-131575057D01*
X183648095Y-131575057D02*
X183695714Y-131527438D01*
X183695714Y-131527438D02*
X183790952Y-131479819D01*
X183790952Y-131479819D02*
X184029047Y-131479819D01*
X184029047Y-131479819D02*
X184124285Y-131527438D01*
X184124285Y-131527438D02*
X184171904Y-131575057D01*
X184171904Y-131575057D02*
X184219523Y-131670295D01*
X184219523Y-131670295D02*
X184219523Y-131765533D01*
X184219523Y-131765533D02*
X184171904Y-131908390D01*
X184171904Y-131908390D02*
X183600476Y-132479819D01*
X183600476Y-132479819D02*
X184219523Y-132479819D01*
X185076666Y-131479819D02*
X184886190Y-131479819D01*
X184886190Y-131479819D02*
X184790952Y-131527438D01*
X184790952Y-131527438D02*
X184743333Y-131575057D01*
X184743333Y-131575057D02*
X184648095Y-131717914D01*
X184648095Y-131717914D02*
X184600476Y-131908390D01*
X184600476Y-131908390D02*
X184600476Y-132289342D01*
X184600476Y-132289342D02*
X184648095Y-132384580D01*
X184648095Y-132384580D02*
X184695714Y-132432200D01*
X184695714Y-132432200D02*
X184790952Y-132479819D01*
X184790952Y-132479819D02*
X184981428Y-132479819D01*
X184981428Y-132479819D02*
X185076666Y-132432200D01*
X185076666Y-132432200D02*
X185124285Y-132384580D01*
X185124285Y-132384580D02*
X185171904Y-132289342D01*
X185171904Y-132289342D02*
X185171904Y-132051247D01*
X185171904Y-132051247D02*
X185124285Y-131956009D01*
X185124285Y-131956009D02*
X185076666Y-131908390D01*
X185076666Y-131908390D02*
X184981428Y-131860771D01*
X184981428Y-131860771D02*
X184790952Y-131860771D01*
X184790952Y-131860771D02*
X184695714Y-131908390D01*
X184695714Y-131908390D02*
X184648095Y-131956009D01*
X184648095Y-131956009D02*
X184600476Y-132051247D01*
X162267142Y-123659580D02*
X162219523Y-123707200D01*
X162219523Y-123707200D02*
X162076666Y-123754819D01*
X162076666Y-123754819D02*
X161981428Y-123754819D01*
X161981428Y-123754819D02*
X161838571Y-123707200D01*
X161838571Y-123707200D02*
X161743333Y-123611961D01*
X161743333Y-123611961D02*
X161695714Y-123516723D01*
X161695714Y-123516723D02*
X161648095Y-123326247D01*
X161648095Y-123326247D02*
X161648095Y-123183390D01*
X161648095Y-123183390D02*
X161695714Y-122992914D01*
X161695714Y-122992914D02*
X161743333Y-122897676D01*
X161743333Y-122897676D02*
X161838571Y-122802438D01*
X161838571Y-122802438D02*
X161981428Y-122754819D01*
X161981428Y-122754819D02*
X162076666Y-122754819D01*
X162076666Y-122754819D02*
X162219523Y-122802438D01*
X162219523Y-122802438D02*
X162267142Y-122850057D01*
X162648095Y-122850057D02*
X162695714Y-122802438D01*
X162695714Y-122802438D02*
X162790952Y-122754819D01*
X162790952Y-122754819D02*
X163029047Y-122754819D01*
X163029047Y-122754819D02*
X163124285Y-122802438D01*
X163124285Y-122802438D02*
X163171904Y-122850057D01*
X163171904Y-122850057D02*
X163219523Y-122945295D01*
X163219523Y-122945295D02*
X163219523Y-123040533D01*
X163219523Y-123040533D02*
X163171904Y-123183390D01*
X163171904Y-123183390D02*
X162600476Y-123754819D01*
X162600476Y-123754819D02*
X163219523Y-123754819D01*
X163552857Y-122754819D02*
X164219523Y-122754819D01*
X164219523Y-122754819D02*
X163790952Y-123754819D01*
X180543333Y-110854819D02*
X180210000Y-110378628D01*
X179971905Y-110854819D02*
X179971905Y-109854819D01*
X179971905Y-109854819D02*
X180352857Y-109854819D01*
X180352857Y-109854819D02*
X180448095Y-109902438D01*
X180448095Y-109902438D02*
X180495714Y-109950057D01*
X180495714Y-109950057D02*
X180543333Y-110045295D01*
X180543333Y-110045295D02*
X180543333Y-110188152D01*
X180543333Y-110188152D02*
X180495714Y-110283390D01*
X180495714Y-110283390D02*
X180448095Y-110331009D01*
X180448095Y-110331009D02*
X180352857Y-110378628D01*
X180352857Y-110378628D02*
X179971905Y-110378628D01*
X181400476Y-110188152D02*
X181400476Y-110854819D01*
X181162381Y-109807200D02*
X180924286Y-110521485D01*
X180924286Y-110521485D02*
X181543333Y-110521485D01*
X158543333Y-117959580D02*
X158495714Y-118007200D01*
X158495714Y-118007200D02*
X158352857Y-118054819D01*
X158352857Y-118054819D02*
X158257619Y-118054819D01*
X158257619Y-118054819D02*
X158114762Y-118007200D01*
X158114762Y-118007200D02*
X158019524Y-117911961D01*
X158019524Y-117911961D02*
X157971905Y-117816723D01*
X157971905Y-117816723D02*
X157924286Y-117626247D01*
X157924286Y-117626247D02*
X157924286Y-117483390D01*
X157924286Y-117483390D02*
X157971905Y-117292914D01*
X157971905Y-117292914D02*
X158019524Y-117197676D01*
X158019524Y-117197676D02*
X158114762Y-117102438D01*
X158114762Y-117102438D02*
X158257619Y-117054819D01*
X158257619Y-117054819D02*
X158352857Y-117054819D01*
X158352857Y-117054819D02*
X158495714Y-117102438D01*
X158495714Y-117102438D02*
X158543333Y-117150057D01*
X159400476Y-117388152D02*
X159400476Y-118054819D01*
X159162381Y-117007200D02*
X158924286Y-117721485D01*
X158924286Y-117721485D02*
X159543333Y-117721485D01*
X163248095Y-103554819D02*
X163248095Y-104364342D01*
X163248095Y-104364342D02*
X163295714Y-104459580D01*
X163295714Y-104459580D02*
X163343333Y-104507200D01*
X163343333Y-104507200D02*
X163438571Y-104554819D01*
X163438571Y-104554819D02*
X163629047Y-104554819D01*
X163629047Y-104554819D02*
X163724285Y-104507200D01*
X163724285Y-104507200D02*
X163771904Y-104459580D01*
X163771904Y-104459580D02*
X163819523Y-104364342D01*
X163819523Y-104364342D02*
X163819523Y-103554819D01*
X164200476Y-103554819D02*
X164819523Y-103554819D01*
X164819523Y-103554819D02*
X164486190Y-103935771D01*
X164486190Y-103935771D02*
X164629047Y-103935771D01*
X164629047Y-103935771D02*
X164724285Y-103983390D01*
X164724285Y-103983390D02*
X164771904Y-104031009D01*
X164771904Y-104031009D02*
X164819523Y-104126247D01*
X164819523Y-104126247D02*
X164819523Y-104364342D01*
X164819523Y-104364342D02*
X164771904Y-104459580D01*
X164771904Y-104459580D02*
X164724285Y-104507200D01*
X164724285Y-104507200D02*
X164629047Y-104554819D01*
X164629047Y-104554819D02*
X164343333Y-104554819D01*
X164343333Y-104554819D02*
X164248095Y-104507200D01*
X164248095Y-104507200D02*
X164200476Y-104459580D01*
X157314761Y-82650057D02*
X157219523Y-82602438D01*
X157219523Y-82602438D02*
X157124285Y-82507200D01*
X157124285Y-82507200D02*
X156981428Y-82364342D01*
X156981428Y-82364342D02*
X156886190Y-82316723D01*
X156886190Y-82316723D02*
X156790952Y-82316723D01*
X156838571Y-82554819D02*
X156743333Y-82507200D01*
X156743333Y-82507200D02*
X156648095Y-82411961D01*
X156648095Y-82411961D02*
X156600476Y-82221485D01*
X156600476Y-82221485D02*
X156600476Y-81888152D01*
X156600476Y-81888152D02*
X156648095Y-81697676D01*
X156648095Y-81697676D02*
X156743333Y-81602438D01*
X156743333Y-81602438D02*
X156838571Y-81554819D01*
X156838571Y-81554819D02*
X157029047Y-81554819D01*
X157029047Y-81554819D02*
X157124285Y-81602438D01*
X157124285Y-81602438D02*
X157219523Y-81697676D01*
X157219523Y-81697676D02*
X157267142Y-81888152D01*
X157267142Y-81888152D02*
X157267142Y-82221485D01*
X157267142Y-82221485D02*
X157219523Y-82411961D01*
X157219523Y-82411961D02*
X157124285Y-82507200D01*
X157124285Y-82507200D02*
X157029047Y-82554819D01*
X157029047Y-82554819D02*
X156838571Y-82554819D01*
X158219523Y-82554819D02*
X157648095Y-82554819D01*
X157933809Y-82554819D02*
X157933809Y-81554819D01*
X157933809Y-81554819D02*
X157838571Y-81697676D01*
X157838571Y-81697676D02*
X157743333Y-81792914D01*
X157743333Y-81792914D02*
X157648095Y-81840533D01*
X183902142Y-121579580D02*
X183854523Y-121627200D01*
X183854523Y-121627200D02*
X183711666Y-121674819D01*
X183711666Y-121674819D02*
X183616428Y-121674819D01*
X183616428Y-121674819D02*
X183473571Y-121627200D01*
X183473571Y-121627200D02*
X183378333Y-121531961D01*
X183378333Y-121531961D02*
X183330714Y-121436723D01*
X183330714Y-121436723D02*
X183283095Y-121246247D01*
X183283095Y-121246247D02*
X183283095Y-121103390D01*
X183283095Y-121103390D02*
X183330714Y-120912914D01*
X183330714Y-120912914D02*
X183378333Y-120817676D01*
X183378333Y-120817676D02*
X183473571Y-120722438D01*
X183473571Y-120722438D02*
X183616428Y-120674819D01*
X183616428Y-120674819D02*
X183711666Y-120674819D01*
X183711666Y-120674819D02*
X183854523Y-120722438D01*
X183854523Y-120722438D02*
X183902142Y-120770057D01*
X184283095Y-120770057D02*
X184330714Y-120722438D01*
X184330714Y-120722438D02*
X184425952Y-120674819D01*
X184425952Y-120674819D02*
X184664047Y-120674819D01*
X184664047Y-120674819D02*
X184759285Y-120722438D01*
X184759285Y-120722438D02*
X184806904Y-120770057D01*
X184806904Y-120770057D02*
X184854523Y-120865295D01*
X184854523Y-120865295D02*
X184854523Y-120960533D01*
X184854523Y-120960533D02*
X184806904Y-121103390D01*
X184806904Y-121103390D02*
X184235476Y-121674819D01*
X184235476Y-121674819D02*
X184854523Y-121674819D01*
X185711666Y-121008152D02*
X185711666Y-121674819D01*
X185473571Y-120627200D02*
X185235476Y-121341485D01*
X185235476Y-121341485D02*
X185854523Y-121341485D01*
X170003095Y-130554819D02*
X170003095Y-131364342D01*
X170003095Y-131364342D02*
X170050714Y-131459580D01*
X170050714Y-131459580D02*
X170098333Y-131507200D01*
X170098333Y-131507200D02*
X170193571Y-131554819D01*
X170193571Y-131554819D02*
X170384047Y-131554819D01*
X170384047Y-131554819D02*
X170479285Y-131507200D01*
X170479285Y-131507200D02*
X170526904Y-131459580D01*
X170526904Y-131459580D02*
X170574523Y-131364342D01*
X170574523Y-131364342D02*
X170574523Y-130554819D01*
X171479285Y-130554819D02*
X171288809Y-130554819D01*
X171288809Y-130554819D02*
X171193571Y-130602438D01*
X171193571Y-130602438D02*
X171145952Y-130650057D01*
X171145952Y-130650057D02*
X171050714Y-130792914D01*
X171050714Y-130792914D02*
X171003095Y-130983390D01*
X171003095Y-130983390D02*
X171003095Y-131364342D01*
X171003095Y-131364342D02*
X171050714Y-131459580D01*
X171050714Y-131459580D02*
X171098333Y-131507200D01*
X171098333Y-131507200D02*
X171193571Y-131554819D01*
X171193571Y-131554819D02*
X171384047Y-131554819D01*
X171384047Y-131554819D02*
X171479285Y-131507200D01*
X171479285Y-131507200D02*
X171526904Y-131459580D01*
X171526904Y-131459580D02*
X171574523Y-131364342D01*
X171574523Y-131364342D02*
X171574523Y-131126247D01*
X171574523Y-131126247D02*
X171526904Y-131031009D01*
X171526904Y-131031009D02*
X171479285Y-130983390D01*
X171479285Y-130983390D02*
X171384047Y-130935771D01*
X171384047Y-130935771D02*
X171193571Y-130935771D01*
X171193571Y-130935771D02*
X171098333Y-130983390D01*
X171098333Y-130983390D02*
X171050714Y-131031009D01*
X171050714Y-131031009D02*
X171003095Y-131126247D01*
X157493333Y-105859580D02*
X157445714Y-105907200D01*
X157445714Y-105907200D02*
X157302857Y-105954819D01*
X157302857Y-105954819D02*
X157207619Y-105954819D01*
X157207619Y-105954819D02*
X157064762Y-105907200D01*
X157064762Y-105907200D02*
X156969524Y-105811961D01*
X156969524Y-105811961D02*
X156921905Y-105716723D01*
X156921905Y-105716723D02*
X156874286Y-105526247D01*
X156874286Y-105526247D02*
X156874286Y-105383390D01*
X156874286Y-105383390D02*
X156921905Y-105192914D01*
X156921905Y-105192914D02*
X156969524Y-105097676D01*
X156969524Y-105097676D02*
X157064762Y-105002438D01*
X157064762Y-105002438D02*
X157207619Y-104954819D01*
X157207619Y-104954819D02*
X157302857Y-104954819D01*
X157302857Y-104954819D02*
X157445714Y-105002438D01*
X157445714Y-105002438D02*
X157493333Y-105050057D01*
X158350476Y-104954819D02*
X158160000Y-104954819D01*
X158160000Y-104954819D02*
X158064762Y-105002438D01*
X158064762Y-105002438D02*
X158017143Y-105050057D01*
X158017143Y-105050057D02*
X157921905Y-105192914D01*
X157921905Y-105192914D02*
X157874286Y-105383390D01*
X157874286Y-105383390D02*
X157874286Y-105764342D01*
X157874286Y-105764342D02*
X157921905Y-105859580D01*
X157921905Y-105859580D02*
X157969524Y-105907200D01*
X157969524Y-105907200D02*
X158064762Y-105954819D01*
X158064762Y-105954819D02*
X158255238Y-105954819D01*
X158255238Y-105954819D02*
X158350476Y-105907200D01*
X158350476Y-105907200D02*
X158398095Y-105859580D01*
X158398095Y-105859580D02*
X158445714Y-105764342D01*
X158445714Y-105764342D02*
X158445714Y-105526247D01*
X158445714Y-105526247D02*
X158398095Y-105431009D01*
X158398095Y-105431009D02*
X158350476Y-105383390D01*
X158350476Y-105383390D02*
X158255238Y-105335771D01*
X158255238Y-105335771D02*
X158064762Y-105335771D01*
X158064762Y-105335771D02*
X157969524Y-105383390D01*
X157969524Y-105383390D02*
X157921905Y-105431009D01*
X157921905Y-105431009D02*
X157874286Y-105526247D01*
X168267142Y-123659580D02*
X168219523Y-123707200D01*
X168219523Y-123707200D02*
X168076666Y-123754819D01*
X168076666Y-123754819D02*
X167981428Y-123754819D01*
X167981428Y-123754819D02*
X167838571Y-123707200D01*
X167838571Y-123707200D02*
X167743333Y-123611961D01*
X167743333Y-123611961D02*
X167695714Y-123516723D01*
X167695714Y-123516723D02*
X167648095Y-123326247D01*
X167648095Y-123326247D02*
X167648095Y-123183390D01*
X167648095Y-123183390D02*
X167695714Y-122992914D01*
X167695714Y-122992914D02*
X167743333Y-122897676D01*
X167743333Y-122897676D02*
X167838571Y-122802438D01*
X167838571Y-122802438D02*
X167981428Y-122754819D01*
X167981428Y-122754819D02*
X168076666Y-122754819D01*
X168076666Y-122754819D02*
X168219523Y-122802438D01*
X168219523Y-122802438D02*
X168267142Y-122850057D01*
X169219523Y-123754819D02*
X168648095Y-123754819D01*
X168933809Y-123754819D02*
X168933809Y-122754819D01*
X168933809Y-122754819D02*
X168838571Y-122897676D01*
X168838571Y-122897676D02*
X168743333Y-122992914D01*
X168743333Y-122992914D02*
X168648095Y-123040533D01*
X169790952Y-123183390D02*
X169695714Y-123135771D01*
X169695714Y-123135771D02*
X169648095Y-123088152D01*
X169648095Y-123088152D02*
X169600476Y-122992914D01*
X169600476Y-122992914D02*
X169600476Y-122945295D01*
X169600476Y-122945295D02*
X169648095Y-122850057D01*
X169648095Y-122850057D02*
X169695714Y-122802438D01*
X169695714Y-122802438D02*
X169790952Y-122754819D01*
X169790952Y-122754819D02*
X169981428Y-122754819D01*
X169981428Y-122754819D02*
X170076666Y-122802438D01*
X170076666Y-122802438D02*
X170124285Y-122850057D01*
X170124285Y-122850057D02*
X170171904Y-122945295D01*
X170171904Y-122945295D02*
X170171904Y-122992914D01*
X170171904Y-122992914D02*
X170124285Y-123088152D01*
X170124285Y-123088152D02*
X170076666Y-123135771D01*
X170076666Y-123135771D02*
X169981428Y-123183390D01*
X169981428Y-123183390D02*
X169790952Y-123183390D01*
X169790952Y-123183390D02*
X169695714Y-123231009D01*
X169695714Y-123231009D02*
X169648095Y-123278628D01*
X169648095Y-123278628D02*
X169600476Y-123373866D01*
X169600476Y-123373866D02*
X169600476Y-123564342D01*
X169600476Y-123564342D02*
X169648095Y-123659580D01*
X169648095Y-123659580D02*
X169695714Y-123707200D01*
X169695714Y-123707200D02*
X169790952Y-123754819D01*
X169790952Y-123754819D02*
X169981428Y-123754819D01*
X169981428Y-123754819D02*
X170076666Y-123707200D01*
X170076666Y-123707200D02*
X170124285Y-123659580D01*
X170124285Y-123659580D02*
X170171904Y-123564342D01*
X170171904Y-123564342D02*
X170171904Y-123373866D01*
X170171904Y-123373866D02*
X170124285Y-123278628D01*
X170124285Y-123278628D02*
X170076666Y-123231009D01*
X170076666Y-123231009D02*
X169981428Y-123183390D01*
X161289166Y-100701009D02*
X160955833Y-100701009D01*
X160955833Y-101224819D02*
X160955833Y-100224819D01*
X160955833Y-100224819D02*
X161432023Y-100224819D01*
X162146309Y-100701009D02*
X162289166Y-100748628D01*
X162289166Y-100748628D02*
X162336785Y-100796247D01*
X162336785Y-100796247D02*
X162384404Y-100891485D01*
X162384404Y-100891485D02*
X162384404Y-101034342D01*
X162384404Y-101034342D02*
X162336785Y-101129580D01*
X162336785Y-101129580D02*
X162289166Y-101177200D01*
X162289166Y-101177200D02*
X162193928Y-101224819D01*
X162193928Y-101224819D02*
X161812976Y-101224819D01*
X161812976Y-101224819D02*
X161812976Y-100224819D01*
X161812976Y-100224819D02*
X162146309Y-100224819D01*
X162146309Y-100224819D02*
X162241547Y-100272438D01*
X162241547Y-100272438D02*
X162289166Y-100320057D01*
X162289166Y-100320057D02*
X162336785Y-100415295D01*
X162336785Y-100415295D02*
X162336785Y-100510533D01*
X162336785Y-100510533D02*
X162289166Y-100605771D01*
X162289166Y-100605771D02*
X162241547Y-100653390D01*
X162241547Y-100653390D02*
X162146309Y-100701009D01*
X162146309Y-100701009D02*
X161812976Y-100701009D01*
X163336785Y-101224819D02*
X162765357Y-101224819D01*
X163051071Y-101224819D02*
X163051071Y-100224819D01*
X163051071Y-100224819D02*
X162955833Y-100367676D01*
X162955833Y-100367676D02*
X162860595Y-100462914D01*
X162860595Y-100462914D02*
X162765357Y-100510533D01*
%TO.C,C15*%
D14*
X178548748Y-118265000D02*
X179071252Y-118265000D01*
X178548748Y-119735000D02*
X179071252Y-119735000D01*
%TO.C,U1*%
X159650000Y-83890000D02*
X160910000Y-83890000D01*
X159650000Y-87650000D02*
X159650000Y-83890000D01*
X166470000Y-83890000D02*
X165210000Y-83890000D01*
X166470000Y-87650000D02*
X166470000Y-83890000D01*
X159750000Y-88930000D02*
X159420000Y-89170000D01*
X159420000Y-88690000D01*
X159750000Y-88930000D01*
G36*
X159750000Y-88930000D02*
G01*
X159420000Y-89170000D01*
X159420000Y-88690000D01*
X159750000Y-88930000D01*
G37*
%TO.C,J8*%
X171810000Y-100400000D02*
X173010000Y-100400000D01*
X171810000Y-102650000D02*
X171810000Y-100400000D01*
X171810000Y-106600000D02*
X171810000Y-105850000D01*
X176210000Y-100400000D02*
X182710000Y-100400000D01*
X180710000Y-106600000D02*
X171810000Y-106600000D01*
X182710000Y-100400000D02*
X182710000Y-98400000D01*
X185310000Y-100400000D02*
X185310000Y-98400000D01*
X185310000Y-100400000D02*
X186510000Y-100400000D01*
X186510000Y-100400000D02*
X186510000Y-100900000D01*
X186510000Y-100900000D02*
X189010000Y-100900000D01*
X186510000Y-106100000D02*
X186510000Y-106600000D01*
X186510000Y-106600000D02*
X183310000Y-106600000D01*
X189010000Y-100900000D02*
X189010000Y-106100000D01*
X189010000Y-106100000D02*
X186510000Y-106100000D01*
%TO.C,FB10*%
X182459721Y-134515000D02*
X182785279Y-134515000D01*
X182459721Y-135535000D02*
X182785279Y-135535000D01*
%TO.C,SW1*%
X109560000Y-129600000D02*
X110160000Y-129600000D01*
X109860000Y-129900000D02*
X109560000Y-129600000D01*
X110160000Y-129600000D02*
X109860000Y-129900000D01*
X111260000Y-127800000D02*
X111260000Y-139600000D01*
X115360000Y-127800000D02*
X111260000Y-127800000D01*
X115360000Y-139600000D02*
X111260000Y-139600000D01*
X116860000Y-133700000D02*
X117860000Y-133700000D01*
X117360000Y-133200000D02*
X117360000Y-134200000D01*
X119360000Y-127800000D02*
X123460000Y-127800000D01*
X123460000Y-127800000D02*
X123460000Y-130200000D01*
X123460000Y-132400000D02*
X123460000Y-135000000D01*
X123460000Y-137200000D02*
X123460000Y-139600000D01*
X123460000Y-139600000D02*
X119360000Y-139600000D01*
X120360000Y-133700000D02*
G75*
G02*
X114360000Y-133700000I-3000000J0D01*
G01*
X114360000Y-133700000D02*
G75*
G02*
X120360000Y-133700000I3000000J0D01*
G01*
%TO.C,C19*%
X170675000Y-125388748D02*
X170675000Y-125911252D01*
X172145000Y-125388748D02*
X172145000Y-125911252D01*
%TO.C,C8*%
X166075000Y-100988748D02*
X166075000Y-101511252D01*
X167545000Y-100988748D02*
X167545000Y-101511252D01*
%TO.C,C22*%
X166875000Y-136288748D02*
X166875000Y-136811252D01*
X168345000Y-136288748D02*
X168345000Y-136811252D01*
%TO.C,C1*%
X168711252Y-88115000D02*
X168188748Y-88115000D01*
X168711252Y-89585000D02*
X168188748Y-89585000D01*
%TO.C,C10*%
X165775000Y-115411252D02*
X165775000Y-114888748D01*
X167245000Y-115411252D02*
X167245000Y-114888748D01*
%TO.C,C17*%
X163775000Y-129988748D02*
X163775000Y-130511252D01*
X165245000Y-129988748D02*
X165245000Y-130511252D01*
%TO.C,R1*%
X155575000Y-87872936D02*
X155575000Y-88327064D01*
X157045000Y-87872936D02*
X157045000Y-88327064D01*
%TO.C,C9*%
X163975000Y-100988748D02*
X163975000Y-101511252D01*
X165445000Y-100988748D02*
X165445000Y-101511252D01*
%TO.C,C20*%
X170675000Y-136811252D02*
X170675000Y-136288748D01*
X172145000Y-136811252D02*
X172145000Y-136288748D01*
%TO.C,FB6*%
X161859721Y-130690000D02*
X162185279Y-130690000D01*
X161859721Y-131710000D02*
X162185279Y-131710000D01*
%TO.C,C14*%
X170798748Y-109665000D02*
X171321252Y-109665000D01*
X170798748Y-111135000D02*
X171321252Y-111135000D01*
%TO.C,C2*%
X157725000Y-87838748D02*
X157725000Y-88361252D01*
X159195000Y-87838748D02*
X159195000Y-88361252D01*
%TO.C,FB9*%
X182459721Y-137015000D02*
X182785279Y-137015000D01*
X182459721Y-138035000D02*
X182785279Y-138035000D01*
%TO.C,FB8*%
X182344721Y-123735000D02*
X182670279Y-123735000D01*
X182344721Y-124755000D02*
X182670279Y-124755000D01*
%TO.C,R3*%
X156775000Y-99927064D02*
X156775000Y-99472936D01*
X158245000Y-99927064D02*
X158245000Y-99472936D01*
%TO.C,C3*%
X106675000Y-88661252D02*
X106675000Y-88138748D01*
X108145000Y-88661252D02*
X108145000Y-88138748D01*
%TO.C,FB7*%
X182344721Y-126235000D02*
X182670279Y-126235000D01*
X182344721Y-127255000D02*
X182670279Y-127255000D01*
%TO.C,C21*%
X165675000Y-125911252D02*
X165675000Y-125388748D01*
X167145000Y-125911252D02*
X167145000Y-125388748D01*
%TO.C,J2*%
X139390000Y-137080000D02*
X139390000Y-135700000D01*
X140770000Y-137080000D02*
X139390000Y-137080000D01*
X142040000Y-134320000D02*
X147230000Y-134320000D01*
X142040000Y-137080000D02*
X142040000Y-134320000D01*
X142040000Y-137080000D02*
X147230000Y-137080000D01*
X147230000Y-137080000D02*
X147230000Y-134320000D01*
%TO.C,C12*%
X170848748Y-98465000D02*
X171371252Y-98465000D01*
X170848748Y-99935000D02*
X171371252Y-99935000D01*
%TO.C,C7*%
X157398748Y-108365000D02*
X157921252Y-108365000D01*
X157398748Y-109835000D02*
X157921252Y-109835000D01*
%TO.C,C25*%
X184400000Y-138440580D02*
X184400000Y-138159420D01*
X185420000Y-138440580D02*
X185420000Y-138159420D01*
%TO.C,R2*%
X159075000Y-99927064D02*
X159075000Y-99472936D01*
X160545000Y-99927064D02*
X160545000Y-99472936D01*
%TO.C,J1*%
X173100000Y-92107500D02*
X173100000Y-93157500D01*
X173300000Y-83757500D02*
X175200000Y-83757500D01*
X173300000Y-86457500D02*
X173300000Y-83757500D01*
X173300000Y-92957500D02*
X173300000Y-90357500D01*
X174150000Y-93157500D02*
X173100000Y-93157500D01*
X179200000Y-83757500D02*
X188000000Y-83757500D01*
X188000000Y-83757500D02*
X188000000Y-92957500D01*
X188000000Y-92957500D02*
X173300000Y-92957500D01*
%TO.C,C23*%
X184285000Y-127660580D02*
X184285000Y-127379420D01*
X185305000Y-127660580D02*
X185305000Y-127379420D01*
%TO.C,C13*%
X178448748Y-107065000D02*
X178971252Y-107065000D01*
X178448748Y-108535000D02*
X178971252Y-108535000D01*
%TO.C,R7*%
X178582936Y-120665000D02*
X179037064Y-120665000D01*
X178582936Y-122135000D02*
X179037064Y-122135000D01*
%TO.C,A1*%
X132690000Y-84230000D02*
X132210000Y-84230000D01*
X132690000Y-84230000D02*
X132690000Y-84650000D01*
X132690000Y-86770000D02*
X132690000Y-87190000D01*
X132690000Y-89310000D02*
X132690000Y-89730000D01*
X132690000Y-91850000D02*
X132690000Y-92270000D01*
X132690000Y-94390000D02*
X132690000Y-94810000D01*
X132690000Y-96930000D02*
X132690000Y-97350000D01*
X132690000Y-99470000D02*
X132690000Y-99890000D01*
X132690000Y-102010000D02*
X132690000Y-102430000D01*
X132690000Y-104550000D02*
X132690000Y-104970000D01*
X132690000Y-107090000D02*
X132690000Y-107510000D01*
X132690000Y-109630000D02*
X132690000Y-110050000D01*
X132690000Y-112170000D02*
X132690000Y-112590000D01*
X132690000Y-114710000D02*
X132690000Y-115130000D01*
X132690000Y-117250000D02*
X132690000Y-117670000D01*
X132690000Y-119790000D02*
X132690000Y-120210000D01*
X132690000Y-122330000D02*
X132690000Y-122750000D01*
X132690000Y-124870000D02*
X132690000Y-125290000D01*
X132690000Y-127410000D02*
X132690000Y-127830000D01*
X132690000Y-129950000D02*
X132690000Y-130370000D01*
X132720324Y-82110000D02*
X132210000Y-82110000D01*
X133300000Y-81690000D02*
X135790000Y-81690000D01*
X133300000Y-132910000D02*
X137137939Y-132910000D01*
X135790000Y-81690000D02*
X137137940Y-81690000D01*
X138062061Y-81690000D02*
X139065000Y-81690000D01*
X139065000Y-81690000D02*
X147535000Y-81690000D01*
X139400000Y-81690000D02*
X139400000Y-82606000D01*
X139400000Y-84994000D02*
X139400000Y-86210000D01*
X139400000Y-86210000D02*
X139696090Y-86210000D01*
X139700000Y-132910000D02*
X138062061Y-132910000D01*
X141820000Y-132910000D02*
X142240000Y-132910000D01*
X142053910Y-86210000D02*
X144546090Y-86210000D01*
X144360000Y-132910000D02*
X144780000Y-132910000D01*
X146903910Y-86210000D02*
X147200000Y-86210000D01*
X147200000Y-81690000D02*
X147200000Y-82606000D01*
X147200000Y-84994000D02*
X147200000Y-86210000D01*
X147535000Y-81690000D02*
X148537939Y-81690000D01*
X148537939Y-132910000D02*
X146900000Y-132910000D01*
X149462061Y-81690000D02*
X150810000Y-81690000D01*
X149462061Y-132910000D02*
X153300000Y-132910000D01*
X153300000Y-81690000D02*
X150810000Y-81690000D01*
X153910000Y-84230000D02*
X153910000Y-84650000D01*
X153910000Y-86770000D02*
X153910000Y-87190000D01*
X153910000Y-89310000D02*
X153910000Y-89730000D01*
X153910000Y-91850000D02*
X153910000Y-92270000D01*
X153910000Y-94390000D02*
X153910000Y-94810000D01*
X153910000Y-96930000D02*
X153910000Y-97350000D01*
X153910000Y-99470000D02*
X153910000Y-99890000D01*
X153910000Y-102010000D02*
X153910000Y-102430000D01*
X153910000Y-104550000D02*
X153910000Y-104970000D01*
X153910000Y-107090000D02*
X153910000Y-107510000D01*
X153910000Y-109630000D02*
X153910000Y-110050000D01*
X153910000Y-112170000D02*
X153910000Y-112590000D01*
X153910000Y-114710000D02*
X153910000Y-115130000D01*
X153910000Y-117250000D02*
X153910000Y-117670000D01*
X153910000Y-119790000D02*
X153910000Y-120210000D01*
X153910000Y-122330000D02*
X153910000Y-122750000D01*
X153910000Y-124870000D02*
X153910000Y-125290000D01*
X153910000Y-127410000D02*
X153910000Y-127830000D01*
X153910000Y-129950000D02*
X153910000Y-130370000D01*
X132720324Y-82110000D02*
G75*
G02*
X133300000Y-81690000I579692J-190051D01*
G01*
X133300000Y-132910000D02*
G75*
G02*
X132720324Y-132489937I1J610002D01*
G01*
X153300000Y-81690000D02*
G75*
G02*
X153879676Y-82110063I0J-610000D01*
G01*
X153879676Y-132489937D02*
G75*
G02*
X153300000Y-132909948I-579476J189737D01*
G01*
%TO.C,Y1*%
X159800000Y-113590000D02*
X159800000Y-116310000D01*
X159800000Y-116310000D02*
X163120000Y-116310000D01*
%TO.C,C11*%
X163675000Y-115411252D02*
X163675000Y-114888748D01*
X165145000Y-115411252D02*
X165145000Y-114888748D01*
%TO.C,C26*%
X184400000Y-134109420D02*
X184400000Y-134390580D01*
X185420000Y-134109420D02*
X185420000Y-134390580D01*
%TO.C,U4*%
X104505000Y-100105000D02*
X104505000Y-126105000D01*
X104505000Y-126105000D02*
X110505000Y-126105000D01*
X105135000Y-104675000D02*
X105135000Y-121575000D01*
X105135000Y-121575000D02*
X129835000Y-121575000D01*
X106635000Y-106155000D02*
X106635000Y-117015000D01*
X106635000Y-117015000D02*
X128375000Y-117015000D01*
X110505000Y-124105000D02*
X124505000Y-124105000D01*
X110505000Y-126105000D02*
X110505000Y-124105000D01*
X124505000Y-124105000D02*
X124505000Y-126105000D01*
X124505000Y-126105000D02*
X130505000Y-126105000D01*
X128375000Y-106155000D02*
X106635000Y-106155000D01*
X128375000Y-117015000D02*
X128375000Y-106155000D01*
X129835000Y-104675000D02*
X105135000Y-104675000D01*
X129835000Y-121575000D02*
X129835000Y-104675000D01*
X130505000Y-100105000D02*
X104505000Y-100105000D01*
X130505000Y-126105000D02*
X130505000Y-100105000D01*
%TO.C,C27*%
X163475000Y-125911252D02*
X163475000Y-125388748D01*
X164945000Y-125911252D02*
X164945000Y-125388748D01*
%TO.C,R4*%
X177782936Y-109665000D02*
X178237064Y-109665000D01*
X177782936Y-111135000D02*
X178237064Y-111135000D01*
%TO.C,C4*%
X157975000Y-114888748D02*
X157975000Y-115411252D01*
X159445000Y-114888748D02*
X159445000Y-115411252D01*
%TO.C,J3*%
X186030000Y-122820000D02*
X187410000Y-122820000D01*
X186030000Y-124200000D02*
X186030000Y-122820000D01*
X186030000Y-125470000D02*
X186030000Y-128120000D01*
X186030000Y-125470000D02*
X188790000Y-125470000D01*
X186030000Y-128120000D02*
X188790000Y-128120000D01*
X188790000Y-125470000D02*
X188790000Y-128120000D01*
%TO.C,U3*%
X161587500Y-103315000D02*
X166207500Y-103315000D01*
X161587500Y-103590000D02*
X161587500Y-103315000D01*
X161587500Y-113235000D02*
X161587500Y-112960000D01*
X166207500Y-103315000D02*
X166207500Y-103590000D01*
X166207500Y-112960000D02*
X166207500Y-113235000D01*
X166207500Y-113235000D02*
X161587500Y-113235000D01*
X160947500Y-103585000D02*
X160607500Y-103115000D01*
X161287500Y-103115000D01*
X160947500Y-103585000D01*
G36*
X160947500Y-103585000D02*
G01*
X160607500Y-103115000D01*
X161287500Y-103115000D01*
X160947500Y-103585000D01*
G37*
%TO.C,J4*%
X101982500Y-83700000D02*
X101982500Y-84810000D01*
X101982500Y-86490000D02*
X101982500Y-87600000D01*
X105232500Y-83700000D02*
X105232500Y-84810000D01*
X105232500Y-86490000D02*
X105232500Y-87600000D01*
X105782500Y-85650000D02*
X106282500Y-85900000D01*
X106282500Y-85400000D02*
X105782500Y-85650000D01*
X106282500Y-85900000D02*
X106282500Y-85400000D01*
%TO.C,Q1*%
X156650000Y-82940000D02*
X158170000Y-82940000D01*
X156650000Y-82990000D02*
X156650000Y-82940000D01*
X156650000Y-84890000D02*
X156650000Y-84110000D01*
X156650000Y-86060000D02*
X156650000Y-86010000D01*
X158170000Y-82940000D02*
X158170000Y-83940000D01*
X158170000Y-85060000D02*
X158170000Y-86060000D01*
X158170000Y-86060000D02*
X156650000Y-86060000D01*
X156350000Y-84450000D02*
X155870000Y-84450000D01*
X156110000Y-84120000D01*
X156350000Y-84450000D01*
G36*
X156350000Y-84450000D02*
G01*
X155870000Y-84450000D01*
X156110000Y-84120000D01*
X156350000Y-84450000D01*
G37*
%TO.C,C24*%
X184285000Y-123304420D02*
X184285000Y-123585580D01*
X185305000Y-123304420D02*
X185305000Y-123585580D01*
%TO.C,U6*%
X165705000Y-129040000D02*
X165760000Y-129040000D01*
X165705000Y-133160000D02*
X165705000Y-129040000D01*
X165760000Y-133160000D02*
X165705000Y-133160000D01*
X175770000Y-129040000D02*
X175825000Y-129040000D01*
X175825000Y-129040000D02*
X175825000Y-133160000D01*
X175825000Y-133160000D02*
X175770000Y-133160000D01*
X176105000Y-128740000D02*
X175775000Y-128500000D01*
X176105000Y-128260000D01*
X176105000Y-128740000D01*
G36*
X176105000Y-128740000D02*
G01*
X175775000Y-128500000D01*
X176105000Y-128260000D01*
X176105000Y-128740000D01*
G37*
%TO.C,C6*%
X157398748Y-106365000D02*
X157921252Y-106365000D01*
X157398748Y-107835000D02*
X157921252Y-107835000D01*
%TO.C,C18*%
X168175000Y-125388748D02*
X168175000Y-125911252D01*
X169645000Y-125388748D02*
X169645000Y-125911252D01*
%TO.C,U2*%
D13*
X109560000Y-81850000D02*
X126060000Y-81850000D01*
X109560000Y-82600000D02*
X109560000Y-81850000D01*
X109560000Y-98600000D02*
X109560000Y-99350000D01*
X109560000Y-99350000D02*
X126060000Y-99350000D01*
X126060000Y-81850000D02*
X126060000Y-82600000D01*
X126060000Y-99350000D02*
X126060000Y-98600000D01*
D14*
X109260000Y-82600000D02*
X108760000Y-82600000D01*
X109260000Y-82100000D01*
X109260000Y-82600000D01*
G36*
X109260000Y-82600000D02*
G01*
X108760000Y-82600000D01*
X109260000Y-82100000D01*
X109260000Y-82600000D01*
G37*
%TO.C,J9*%
X171810000Y-111600000D02*
X173010000Y-111600000D01*
X171810000Y-113850000D02*
X171810000Y-111600000D01*
X171810000Y-117800000D02*
X171810000Y-117050000D01*
X176210000Y-111600000D02*
X182710000Y-111600000D01*
X180710000Y-117800000D02*
X171810000Y-117800000D01*
X182710000Y-111600000D02*
X182710000Y-109600000D01*
X185310000Y-111600000D02*
X185310000Y-109600000D01*
X185310000Y-111600000D02*
X186510000Y-111600000D01*
X186510000Y-111600000D02*
X186510000Y-112100000D01*
X186510000Y-112100000D02*
X189010000Y-112100000D01*
X186510000Y-117300000D02*
X186510000Y-117800000D01*
X186510000Y-117800000D02*
X183310000Y-117800000D01*
X189010000Y-112100000D02*
X189010000Y-117300000D01*
X189010000Y-117300000D02*
X186510000Y-117300000D01*
%TO.C,J7*%
X186030000Y-136255000D02*
X186030000Y-133605000D01*
X188790000Y-133605000D02*
X186030000Y-133605000D01*
X188790000Y-136255000D02*
X186030000Y-136255000D01*
X188790000Y-136255000D02*
X188790000Y-133605000D01*
X188790000Y-137525000D02*
X188790000Y-138905000D01*
X188790000Y-138905000D02*
X187410000Y-138905000D01*
%TO.C,FB1*%
X161959721Y-101690000D02*
X162285279Y-101690000D01*
X161959721Y-102710000D02*
X162285279Y-102710000D01*
%TD*%
M02*
